<?xml version="1.0" encoding="UTF-8"?>
<svg id="email-sign-with-shadow" xmlns="http://www.w3.org/2000/svg" viewBox="0 0 116.73381 279.48689">
  <g id="email-sign">
    <ellipse id="email-sign-shadow" cx="58.30584" cy="268.90214" rx="42.73513" ry="10.58475" style="fill: #a89d86;"/>
    <g id="email-sign-2" data-name="email-sign">
      <polygon points="51.93313 271.50884 50.92117 98.58974 64.80068 98.58974 65.81264 271.50884 51.93313 271.50884" style="fill: #262c35;"/>
      <path d="m58.36684,0C26.13168,0,0,26.13181,0,58.36696s26.13168,58.36684,58.36684,58.36684,58.36696-26.13168,58.36696-58.36684S90.602,0,58.36684,0Zm29.28595,75.6263c0,2.61288-2.11808,4.73096-4.73084,4.73096h-49.1101c-2.61276,0-4.73084-2.11808-4.73084-4.73084v-26.91823l27.23345,15.61743c1.27117.72892,2.83346.72892,4.10463,0l27.23369-15.61768v26.91835Zm0-31.72023l-27.23369,15.61756c-1.27117.72892-2.83346.72892-4.10463,0l-27.23345-15.61743v-2.79893c0-2.61276,2.11808-4.73084,4.73084-4.73084h49.1101c2.61276,0,4.73084,2.11808,4.73084,4.73084v2.79881Z" style="fill: #d63619;"/>
    </g>
  </g>
</svg>