<?xml version="1.0" encoding="UTF-8"?>
<svg id="learn-more-button" xmlns="http://www.w3.org/2000/svg" viewBox="0 0 193.05286 61.59418">
  <rect id="learn-more-button-bkg" width="193.05286" height="61.59418" rx="7.77538" ry="7.77538" style="fill: #d63619;"/>
  <g id="learn-more">
    <g>
      <path d="m19.26608,38.42128v-21.59912h4.62012v17.72949h8.30957v3.86963h-12.92969Z" style="fill: #e5d7b7;"/>
      <path d="m48.27536,30.02137c0,.81006-.09033,1.53027-.12012,1.83008h-9.83984c.18018,2.04004,1.74023,3.20996,4.16992,3.20996,2.12988,0,4.3501-.62988,5.18994-1.10986v3.80957c-.93018.47998-2.93994,1.08008-5.60986,1.08008-5.15967,0-8.39941-3.32959-8.39941-7.91943,0-4.56006,3.32959-7.91992,7.61963-7.91992,4.61963,0,6.98975,3.2998,6.98975,7.01953Zm-7.02002-3.47949c-1.7998,0-2.81982,1.37988-2.93994,3h5.66992c.06006-1.62012-.8999-3-2.72998-3Z" style="fill: #e5d7b7;"/>
      <path d="m51.81491,24.02186c.84033-.39014,2.8501-1.02002,5.48975-1.02002,4.62012,0,6.92969,2.21973,6.92969,5.96973v9.44971h-4.0498l-.08984-1.37988c-.02979-.62988.06006-1.0498.06006-1.0498h-.06006c-.39014.8999-1.89014,2.84961-4.6499,2.84961-2.57959,0-4.76953-1.5-4.76953-4.55957,0-3.66016,3.71973-5.45996,9.11963-4.70996v-.35986c0-1.80029-1.22998-2.45996-3.20996-2.45996-1.89014,0-3.77979.65967-4.77002,1.29004v-4.02002Zm7.85986,7.88965c-3.35986-.54004-4.77002.51025-4.77002,1.91992,0,.95996.66016,1.58984,1.70996,1.58984,1.74023,0,3.06006-1.58984,3.06006-3.50977Z" style="fill: #e5d7b7;"/>
      <path d="m67.86471,23.42176h4.08008l.08984,1.47021c0,.44971,0,.81006.03027.98975.92969-1.62012,2.48975-2.87988,4.43945-2.87988.47998,0,.8999.06006.95996.08984v4.37988c-.06006-.02979-.41992-.17969-.98975-.17969-2.27979,0-4.14014,2.00977-4.14014,4.73975v6.38965h-4.46973v-14.99951Z" style="fill: #e5d7b7;"/>
      <path d="m84.15475,23.42176l.11963,1.70996c.03027.54004-.08984.8999-.11963,1.0498h.05957c.63037-1.37988,2.61035-3.17969,5.16016-3.17969,3.38965,0,5.21973,2.06982,5.21973,6.02979v9.38965h-4.5v-8.63965c0-1.46973-.41992-2.69971-2.04004-2.69971-2.09961,0-3.50977,1.61963-3.50977,3.86963v7.46973h-4.49951v-14.99951h4.10986Z" style="fill: #e5d7b7;"/>
      <path d="m111.99362,27.26161l-1.14014-.98975v12.14941h-4.40967v-21.9292h.08984l10.29004,10.37988,10.28955-10.37988h.08984v21.9292h-4.40967v-12.14941l-1.14014.98975c-1.58984,1.74023-3.20996,3.47998-4.82959,5.18994-1.62012-1.70996-3.20996-3.44971-4.83008-5.18994Z" style="fill: #e5d7b7;"/>
      <path d="m146.49313,30.92176c0,4.55957-3.38965,7.91943-8.00977,7.91943-4.61963,0-7.97949-3.35986-7.97949-7.91943,0-4.56006,3.35986-7.91992,7.97949-7.91992,4.62012,0,8.00977,3.35986,8.00977,7.91992Zm-4.22998,0c0-2.49023-1.6499-4.14014-3.77979-4.14014s-3.74951,1.6499-3.74951,4.14014c0,2.48975,1.61963,4.13965,3.74951,4.13965s3.77979-1.6499,3.77979-4.13965Z" style="fill: #e5d7b7;"/>
      <path d="m149.43356,23.42176h4.08008l.08984,1.47021c0,.44971,0,.81006.03027.98975.92969-1.62012,2.48975-2.87988,4.43945-2.87988.47998,0,.8999.06006.95996.08984v4.37988c-.06006-.02979-.41992-.17969-.98975-.17969-2.27979,0-4.13965,2.00977-4.13965,4.73975v6.38965h-4.47021v-14.99951Z" style="fill: #e5d7b7;"/>
      <path d="m175.05319,30.02137c0,.81006-.09033,1.53027-.12012,1.83008h-9.83984c.18018,2.04004,1.74023,3.20996,4.16992,3.20996,2.12988,0,4.3501-.62988,5.18994-1.10986v3.80957c-.93018.47998-2.93994,1.08008-5.60986,1.08008-5.15967,0-8.39941-3.32959-8.39941-7.91943,0-4.56006,3.32959-7.91992,7.61963-7.91992,4.61963,0,6.98975,3.2998,6.98975,7.01953Zm-7.02002-3.47949c-1.7998,0-2.81982,1.37988-2.93994,3h5.66992c.06006-1.62012-.8999-3-2.72998-3Z" style="fill: #e5d7b7;"/>
    </g>
  </g>
</svg>