<?xml version="1.0" encoding="UTF-8"?>
<svg id="location" xmlns="http://www.w3.org/2000/svg" viewBox="0 0 327.81593 160.18437">
  <g id="pin-tab">
    <path id="tab-bkg-shadow" d="m24.24671,62.53028h303.56922v97.65409H24.24671c-7.89698,0-14.30833-6.41135-14.30833-14.30833v-69.03742c0-7.89698,6.41135-14.30833,14.30833-14.30833Z" style="fill: #d63619;"/>
    <path id="tab-bkg" d="m14.30833,50.96399h303.56922v97.65409H14.30833C6.41135,148.61808,0,142.20673,0,134.30974v-69.03742C0,57.37534,6.41135,50.96399,14.30833,50.96399Z" style="fill: #ff8f11;"/>
    <ellipse id="pin-shadow" cx="263.78438" cy="94.38911" rx="18.72531" ry="7.53876" style="fill: #d63619;"/>
    <path id="pin_outline" data-name="pin outline" d="m253.92362,87.0533l-15.78441-52.57615c-2.45963-8.18943-.94192-16.8211,4.16112-23.68163C247.40338,3.93497,255.23456,0,263.7851,0s16.38172,3.93497,21.48477,10.79551c5.10305,6.86054,6.62075,15.49221,4.16112,23.68163l-15.78441,52.57615c-1.31668,4.38799-5.27966,7.33581-9.86148,7.33581s-8.5448-2.94782-9.86148-7.33581Z" style="fill: #ff8f11;"/>
    <path id="pin" d="m242.36285,33.20836l15.78476,52.57649c1.67855,5.59098,9.59554,5.59098,11.2741,0l15.78481-52.57651c4.30868-14.35149-6.43745-28.79774-21.42178-28.79774h-.00009c-14.98434,0-25.73048,14.44625-21.4218,28.79776Zm9.29661-8.505c0-6.69657,5.42866-12.1252,12.1252-12.1252,6.69659,0,12.12525,5.42863,12.12525,12.1252,0,6.69657-5.42866,12.12522-12.12525,12.12522s-12.1252-5.42866-12.1252-12.12522Z" style="fill: #d63619;"/>
  </g>
  <g id="we-are-here">
    <path d="m39.77851,70.58166l2.62891,6.57227c.64404,1.60938,1.20703,3.13818,1.60938,4.37207.29541-.69727.88525-2.19922,1.39502-3.37988l1.07324-2.44092,2.22656-4.98926h.16064c1.63623,3.6748,3.67529,8.07422,4.66748,10.81006.69775-1.7168,3.13867-7.99365,4.26514-10.94434h4.61426l-8.66455,19.60889h-.18799l-3.78223-8.6377c-.34863-.75098-.69727-1.55566-.99268-2.30664-.29492.75098-.64355,1.55566-.96533,2.30664l-3.80957,8.6377h-.1875l-8.6377-19.60889h4.58691Z"/>
    <path d="m66.23212,89.89563v-19.31396h12.41992v3.46045h-8.28906v4.39941h7.02832v3.32617h-7.02832v4.66748h8.69141v3.46045h-12.82227Z"/>
    <path d="m97.37861,70.28674h.16113l9.38867,19.60889h-4.31885l-1.55566-3.40674h-7.21582l-1.50244,3.40674h-4.31885l9.36182-19.60889Zm2.44141,13.30518c-.88525-2.01221-1.74365-4.05078-2.33398-5.74072-.56299,1.34131-1.58252,3.9165-2.38721,5.74072h4.72119Z"/>
    <path d="m117.42011,70.58166c4.47998,0,7.45752,2.22656,7.45752,6.35742,0,2.81689-1.58252,4.66748-3.6748,5.49902l4.05029,7.45752h-4.37256l-3.40674-6.75977h-2.78955v6.75977h-4.05078v-19.31396h6.78662Zm-2.73584,3.46045v5.76709h2.95068c1.82422,0,3.08496-.91162,3.08496-2.87012,0-1.93115-1.31445-2.89697-3.19238-2.89697h-2.84326Z"/>
    <path d="m129.89619,89.89563v-19.31396h12.41992v3.46045h-8.28906v4.39941h7.02832v3.32617h-7.02832v4.66748h8.69141v3.46045h-12.82227Z"/>
    <path d="m166.00654,89.89563v-8.07422h-7.9668v8.07422h-4.13135v-19.31396h4.13135v7.80615h7.9668v-7.80615h4.13086v19.31396h-4.13086Z"/>
    <path d="m176.06855,89.89563v-19.31396h12.41992v3.46045h-8.28857v4.39941h7.02783v3.32617h-7.02783v4.66748h8.69092v3.46045h-12.82227Z"/>
    <path d="m200.37421,70.58166c4.47998,0,7.45752,2.22656,7.45752,6.35742,0,2.81689-1.58252,4.66748-3.6748,5.49902l4.05029,7.45752h-4.37256l-3.40674-6.75977h-2.78955v6.75977h-4.05078v-19.31396h6.78662Zm-2.73584,3.46045v5.76709h2.95068c1.82422,0,3.08496-.91162,3.08496-2.87012,0-1.93115-1.31445-2.89697-3.19238-2.89697h-2.84326Z"/>
    <path d="m212.85126,89.89563v-19.31396h12.41992v3.46045h-8.28906v4.39941h7.02832v3.32617h-7.02832v4.66748h8.69141v3.46045h-12.82227Z"/>
  </g>
</svg>