<?xml version="1.0" encoding="UTF-8"?>
<svg id="logo" xmlns="http://www.w3.org/2000/svg" viewBox="0 0 195.73877 306.7471">
  <path id="outline" d="m11.50342,306.7471c-6.34299,0-11.50342-5.16043-11.50342-11.50342V106.07977c0-7.80061,6.34619-14.14679,14.14679-14.14679h6.04195v-6.66042c-.51652-.31863-1.00386-.66844-1.45762-1.04704-.06956-.05797-.13753-.11834-.20309-.1807-1.59354-1.51918-2.81769-3.32501-3.63844-5.36751l-.20029-.49933c-.05557-.13793-.10354-.27905-.14352-.42257-.32223-1.15178-.48534-2.32395-.48534-3.48333v-9.57965c0-2.25679.58569-4.44281,1.6831-6.37257-.87033-2.13365-1.15498-4.4692-.80437-6.80034l3.68002-24.44726c.96148-6.39016,6.35019-11.02807,12.81271-11.02807h43.01927l2.49706-10.61269c.7528-3.19828,3.57288-5.43148,6.85791-5.43148h31.71015c3.28463,0,6.10472,2.2332,6.85751,5.43108l2.49706,10.61309h41.94985c6.46213,0,11.85043,4.63791,12.81231,11.02847l3.68042,24.44686c.35101,2.33115.06636,4.66669-.80397,6.80074,1.09741,1.92976,1.6831,4.11579,1.6831,6.37217v9.57965c0,4.74985-2.5998,9.02715-6.60405,11.28194v6.37897h4.00345c7.80061,0,14.14679,6.34619,14.14679,14.14679v189.16391c0,6.34299-5.16043,11.50342-11.50342,11.50342H11.50342Z" style="fill: #363426;"/>
  <path id="background" d="m181.59178,96.02673h-8.09685v-13.19436c3.79446-1.00296,6.60385-4.45515,6.60385-8.5603v-9.5798c0-2.34434-.9214-4.473-2.413-6.05974,1.35137-1.87174,1.92636-4.20079,1.57925-6.50385l-3.68002-24.44676c-.65815-4.37115-4.34376-7.54384-8.76429-7.54384h-45.19221l-3.23986-13.76925c-.31363-1.33298-1.50309-2.27503-2.87246-2.27503h-31.71025c-1.36936,0-2.55882.94204-2.87246,2.27503l-3.23986,13.76925H31.4317c-4.42042,0-8.10644,3.17269-8.76419,7.54364l-3.68012,24.44716c-.34671,2.30336.22848,4.63221,1.57965,6.50365-1.4915,1.58675-2.413,3.7154-2.413,6.05974v9.5798c0,.82576.12213,1.62208.33432,2.38102l.20019.49838c.59678,1.4854,1.50519,2.82548,2.66397,3.92989.53671.44736,1.13079.82511,1.76345,1.13704l1.16657.7521v13.05623h-10.13575c-5.55202,0-10.053,4.50088-10.053,10.053v189.16406c0,4.0921,3.31732,7.40937,7.40942,7.40937h172.73224c4.0921,0,7.40932-3.31727,7.40932-7.40937V106.07972c0-5.55212-4.50078-10.053-10.053-10.053Z" style="fill: #fff0cf;"/>
  <g id="title">
    <polygon points="42.10094 255.08516 42.10094 230.88777 35.04295 230.88777 35.04295 239.86134 27.01109 239.86134 27.01109 230.88777 19.98692 230.88777 19.98692 255.08516 27.01109 255.08516 27.01109 245.74226 35.04295 245.74226 35.04295 255.08516 42.10094 255.08516" style="fill: #262c35;"/>
    <polygon points="65.99925 249.17049 56.32091 249.17049 56.32091 245.57448 64.18492 245.57448 64.18492 240.02913 56.32091 240.02913 56.32091 236.8033 65.49595 236.8033 65.49595 230.88777 49.29661 230.88777 49.29661 255.08516 65.99925 255.08516 65.99925 249.17049" style="fill: #262c35;"/>
    <polygon points="78.97642 230.88777 71.95225 230.88777 71.95225 255.08516 87.24351 255.08516 87.24351 249.17049 78.97642 249.17049 78.97642 230.88777" style="fill: #262c35;"/>
    <path d="m101.12694,230.88777h-8.26794v24.19739h7.02429v-7.19202h1.24365c6.01575,0,10.3175-2.72253,10.3175-8.50226,0-5.74689-4.30176-8.50311-10.3175-8.50311Zm.36926,11.0907h-1.61292v-5.17517h1.61292c1.5127,0,2.85657.67194,2.85657,2.58759,0,1.94934-1.34387,2.58759-2.85657,2.58759Z" style="fill: #262c35;"/>
    <rect x="116.72362" y="230.88777" width="7.02429" height="24.19739" style="fill: #262c35;"/>
    <polygon points="137.79722 244.22963 151.70994 255.42158 152.01268 255.42158 152.01268 230.88777 145.1234 230.88777 145.1234 241.74324 131.2772 230.5522 130.94078 230.5522 130.94078 255.08516 137.79722 255.08516 137.79722 244.22963" style="fill: #262c35;"/>
    <path d="m173.05528,243.52394v5.61285c-.57068.06744-1.20984.10028-1.84814.10028-4.03271,0-6.18359-2.9906-6.18359-6.25018,0-3.19299,2.25208-6.18359,6.55383-6.18359,3.32703,0,5.67932.87347,7.22485,1.54541v-6.38507c-1.88196-.87439-4.43579-1.58008-7.93152-1.58008-7.59497,0-12.90515,5.6803-12.90515,12.60333,0,7.02338,5.24353,12.60248,13.24158,12.60248,2.99158,0,6.18359-.672,8.53601-1.81537v-10.25006h-6.68787Z" style="fill: #262c35;"/>
    <polygon points="50.3369 271.60542 42.30516 271.60542 42.30516 262.63185 35.28087 262.63185 35.28087 286.82924 42.30516 286.82924 42.30516 277.48634 50.3369 277.48634 50.3369 286.82924 57.39488 286.82924 57.39488 262.63185 50.3369 262.63185 50.3369 271.60542" style="fill: #262c35;"/>
    <path d="m74.47142,262.29628l-12.30066,24.53296h7.29321l1.47888-3.19299h7.35974l1.5127,3.19299h7.29224l-12.29968-24.53296h-.33643Zm-1.57922,16.76923c.60449-1.41138,1.51172-3.62878,1.71326-4.50317h.0675c.20142.87439,1.10864,3.0918,1.71411,4.50317h-3.49487Z" style="fill: #262c35;"/>
    <polygon points="106.06602 273.48732 92.21983 262.29628 91.88341 262.29628 91.88341 286.82924 98.73985 286.82924 98.73985 275.97371 112.65257 287.16566 112.95531 287.16566 112.95531 262.63185 106.06602 262.63185 106.06602 273.48732" style="fill: #262c35;"/>
    <path d="m128.6212,262.63185h-8.46936v24.19739h8.46936c8.6709,0,13.94653-5.14148,13.94653-12.09827,0-6.92303-5.27563-12.09912-13.94653-12.09912Zm-.10107,18.28278h-1.34399v-12.36725h1.34399c4.67188,0,6.95679,2.9906,6.95679,6.18359,0,3.22583-2.28491,6.18365-6.95679,6.18365Z" style="fill: #262c35;"/>
    <path d="m158.30113,272.20998c-2.45361-1.00842-3.9325-1.61292-3.9325-2.48639,0-.97473,1.20996-1.54639,3.19299-1.54639,2.25122,0,4.5033.57166,5.98218,1.54639v-6.45258c-1.68042-.70575-4.16772-1.14337-6.58752-1.14337-5.74695,0-9.47693,3.05896-9.47693,7.59595,0,4.63721,2.75537,6.25012,6.65405,7.76276,2.58765,1.00842,4.16772,1.47888,4.16772,2.4873,0,.87347-1.14331,1.24274-3.2605,1.24274-2.08337,0-4.77222-.67194-7.02332-1.91559v6.7215c1.88184.80695,4.67102,1.31116,7.39343,1.31116,6.31763,0,9.74597-2.75629,9.74597-7.3598,0-4.50323-2.95789-6.15076-6.85559-7.76367Z" style="fill: #262c35;"/>
    <path d="m90.35899,215.03847c2.65405-1.27643,4.26794-3.59601,4.26794-7.02332,0-5.71313-4.20142-8.50317-10.14978-8.50317h-9.10767v24.19739h6.85645v-7.52844h1.98218l3.56226,7.52844h7.29321l-4.70459-8.6709Zm-5.51172-4.43573h-2.62134v-5.17517h2.62134c1.41138,0,2.68799.67194,2.68799,2.58759,0,1.98218-1.27661,2.58759-2.68799,2.58759Z" style="fill: #262c35;"/>
    <path d="m110.05675,224.04585l12.63623-24.53387h-7.72998l-2.9906,6.41888c-.8407,1.78156-1.71411,3.76465-2.05066,5.00739h-.06738c-.33545-1.24274-1.20996-3.22583-2.04956-5.00739l-2.99158-6.41888h-7.76282l12.66992,24.53387h.33643Z" style="fill: #262c35;"/>
  </g>
  <g id="rv">
    <rect x="38.17372" y="169.02748" width="15.47288" height="30.4819" rx="5.21618" ry="5.21618" style="fill: #0b0e14;"/>
    <rect x="143.38929" y="169.02748" width="15.47288" height="30.4819" rx="5.21618" ry="5.21618" style="fill: #0b0e14;"/>
    <polygon points="169.17217 80.97561 29.16554 80.97561 169.17217 171.24303 169.17217 80.97561" style="fill: #262c35;"/>
    <polygon points="29.16554 80.97561 28.60527 80.97561 28.60527 171.55108 169.17217 171.55108 169.17217 171.24303 29.16554 80.97561" style="fill: #35425e;"/>
    <rect x="41.661" y="117.11324" width="112.28261" height="56.67361" style="fill: #98918f;"/>
    <rect x="22.51914" y="60.70731" width="153.29943" height="17.54254" rx="5.91389" ry="5.91389" style="fill: #363426;"/>
    <path d="m170.50077,57.98869H27.75173c-2.77689,0-4.9033-2.47047-4.48993-5.21642l3.68018-24.44691c.33443-2.2216,2.24329-3.86462,4.48993-3.86462h135.38868c2.24664,0,4.15549,1.64301,4.48993,3.86462l3.68018,24.44691c.41337,2.74595-1.71304,5.21642-4.48993,5.21642Z" style="fill: #363426;"/>
    <path d="m154.84273,52.81301H44.48007c-3.69384,0-6.47375-2.65786-5.77724-5.52358l.862-3.54662c2.47889-11.70734,6.66059-9.96776,12.6806-9.96776h95.01759c6.28276,0,11.98189-.0913,12.82773,10.6527l.57168,3.05928c.52443,2.80642-2.22868,5.32597-5.8197,5.32597Z" style="fill: #262c35;"/>
    <polygon points="85.41062 117.11324 48.56162 93.55407 41.66097 117.11324 85.41062 117.11324" style="fill: #d5e0e0;"/>
    <polygon points="155.5068 117.11324 145.68618 83.58529 51.48159 83.58529 48.56162 93.55407 85.41062 117.11324 155.5068 117.11324" style="fill: #b9c6c6;"/>
    <path d="m156.94921,118.19391H40.21877l10.45318-35.6893h95.82409l10.45318,35.6893Zm-113.84561-2.1613h110.96079l-9.18763-31.36671H52.29123l-9.18763,31.36671Z" style="fill: #363426;"/>
    <path d="m16.68088,100.34927h3.99308v16.76397h-12.25753v-8.49952c0-4.56127,3.70318-8.26445,8.26445-8.26445Z" style="fill: #363426;"/>
    <rect x="12.2937" y="118.51972" width="29.3673" height="1.67738" style="fill: #363426;"/>
    <path d="m175.0647,100.34927h12.25753v16.76397h-3.99308c-4.56127,0-8.26445-3.70318-8.26445-8.26445v-8.49952h0Z" transform="translate(362.38693 217.46251) rotate(-180)" style="fill: #363426;"/>
    <rect x="153.94361" y="118.51972" width="29.50134" height="1.67738" transform="translate(337.38857 238.71682) rotate(-180)" style="fill: #363426;"/>
    <path d="m117.47906,21.37502h-35.636l2.51377-10.68353c.31364-1.33296,1.50308-2.27501,2.87244-2.27501h24.86358c1.36936,0,2.5588.94205,2.87244,2.27501l2.51377,10.68353Z" style="fill: #262c35;"/>
    <path d="m148.3205,187.41378H48.71539c-3.98127,0-7.44028-2.73694-8.35578-6.61153l-2.18589-9.25116h120.68845l-2.18589,9.25116c-.9155,3.87458-4.3745,6.61153-8.35578,6.61153Z" style="fill: #363426;"/>
    <path d="m75.71625,127.05025h44.57658c11.75988,0,21.30742,9.54753,21.30742,21.30742v10.7328H54.40884v-10.7328c0-11.75988,9.54753-21.30742,21.30742-21.30742Z" style="fill: #363426;"/>
    <rect x="41.661" y="156.8561" width="112.28261" height="5.14664" style="fill: #363426;"/>
    <polygon points="103.28676 87.95119 141.60025 87.95119 148.82243 111.00259 103.28676 87.95119" style="fill: #d5e0e0;"/>
    <rect x="69.55002" y="135.49019" width="56.50458" height="2.15695" style="fill: #d3cccb;"/>
    <rect x="69.55002" y="141.58229" width="56.50458" height="2.15695" style="fill: #d3cccb;"/>
    <rect x="69.55002" y="147.6744" width="56.50458" height="2.15695" style="fill: #d3cccb;"/>
    <rect x="85.56746" y="166.14336" width="25.90096" height="10.75341" style="fill: #c4bcbb;"/>
    <path d="m56.25308,139.44274h10.54636c2.27394,0,4.12009,1.84615,4.12009,4.12009v1.99067h-14.66645v-6.11076h0Z" transform="translate(-78.91182 206.08442) rotate(-90)" style="fill: #d3cccb;"/>
    <path d="m124.71228,139.44274h14.66645v1.99067c0,2.27394-1.84615,4.12009-4.12009,4.12009h-10.54636v-6.11076h0Z" transform="translate(-10.45261 274.54363) rotate(-90)" style="fill: #d3cccb;"/>
    <polygon points="94.73268 167.31063 110.36377 167.31063 110.36377 175.44989 94.73268 167.31063" style="fill: #d3cccb;"/>
  </g>
</svg>