<?xml version="1.0" encoding="UTF-8"?>
<svg id="next-stop-sign" xmlns="http://www.w3.org/2000/svg" viewBox="0 0 283.16908 377.03075">
  <g id="next-stop-sign-2" data-name="next-stop-sign">
    <rect id="next-stop-sign-shadow" x="17.67661" y="357.8548" width="247.05209" height="19.17595" rx="9.58797" ry="9.58797" style="fill: #a89d86;"/>
    <polygon id="next-stop-sign-post" points="134.2121 365.27567 133.0525 167.12837 148.95697 167.12837 150.11658 365.27567 134.2121 365.27567" style="fill: #262c35;"/>
    <path id="next-stop-sign-background" d="m256.19105,203.12049H26.97803c-14.89955,0-26.97803-15.4484-26.97803-34.50497V34.50497C0,15.4484,12.07847,0,26.97803,0h229.21302c14.89955,0,26.97803,15.4484,26.97803,34.50497v134.11055c0,19.05657-12.07847,34.50497-26.97803,34.50497Z" style="fill: #6e893e;"/>
    <g id="next-stop-words">
      <path d="m57.20027,56.48761l-14.6582-14.06445-1.74414-1.52148v15.17773h-5.60352v-27.12695h.22266l14.62109,14.06445,1.70703,1.52148v-15.17773h5.64062v27.12695h-.18555Z" style="fill: #e5d7b7;"/>
      <path d="m65.58651,56.0794v-26.71875h17.18164v4.78711h-11.4668v6.08594h9.72266v4.60156h-9.72266v6.45703h12.02344v4.78711h-17.73828Z" style="fill: #e5d7b7;"/>
      <path d="m112.52938,29.36065l-9.27734,13.24805,9.42578,13.4707h-6.41992l-6.04883-9.05469-6.04883,9.05469h-6.41992l9.42578-13.4707-9.27734-13.24805h6.41992l5.90039,8.86914,5.9375-8.86914h6.38281Z" style="fill: #e5d7b7;"/>
      <path d="m129.45027,34.14776v21.93164h-5.71484v-21.93164h-7.45898v-4.78711h20.66992v4.78711h-7.49609Z" style="fill: #e5d7b7;"/>
      <path d="m150.37899,55.07745v-5.49219c1.85547.96484,4.30469,1.78125,6.7168,1.92969.85352.03711,1.66992,0,2.375-.14844,2.04102-.29688,3.22852-1.07617,3.22852-2.375,0-1.78125-1.5957-2.70898-5.26953-4.04492-4.67578-1.70703-7.42188-3.67383-7.42188-8.3125,0-4.75,3.93359-7.79297,9.68555-7.79297,2.67188,0,5.30664.59375,6.97656,1.33594v5.26953c-1.55859-.92773-4.08203-1.63281-6.53125-1.63281-2.74609,0-4.52734,1.07617-4.52734,2.7832,0,1.55859,1.44727,2.63477,5.08398,4.00781,4.67578,1.81836,7.57031,3.78516,7.57031,8.27539,0,4.82422-3.63672,7.71875-9.94531,7.71875-3.04297,0-6.01172-.66797-7.94141-1.52148Z" style="fill: #e5d7b7;"/>
      <path d="m185.22371,34.14776v21.93164h-5.71484v-21.93164h-7.45898v-4.78711h20.66992v4.78711h-7.49609Z" style="fill: #e5d7b7;"/>
      <path d="m210.68026,28.84112c8.05273,0,13.99023,6.16016,13.99023,13.87891,0,7.79297-5.90039,13.87891-13.99023,13.87891s-13.99023-6.08594-13.99023-13.87891c0-7.68164,5.90039-13.87891,13.99023-13.87891Zm0,22.52539c4.82422,0,8.23828-3.85938,8.23828-8.64648,0-4.75-3.41406-8.64648-8.23828-8.64648s-8.23828,3.89648-8.23828,8.64648c0,4.78711,3.41406,8.64648,8.23828,8.64648Z" style="fill: #e5d7b7;"/>
      <path d="m236.91561,46.9505v9.12891h-5.71484v-26.71875h8.68359c6.16016,0,10.2793,3.04297,10.2793,8.79492s-4.11914,8.79492-10.2793,8.79492h-2.96875Zm0-12.80273v7.97852h3.26562c2.48633,0,4.19336-1.29883,4.19336-3.9707s-1.78125-4.00781-4.3418-4.00781h-3.11719Z" style="fill: #e5d7b7;"/>
    </g>
  </g>
</svg>