<?xml version="1.0" encoding="UTF-8"?>
<svg id="call-sign-with-shadow" xmlns="http://www.w3.org/2000/svg" viewBox="0 0 115.18102 278.7105">
  <g id="call-sign">
    <ellipse id="call-sign-shadow" cx="57.52945" cy="268.12575" rx="42.73513" ry="10.58475" style="fill: #a89d86;"/>
    <g id="call-sign-2" data-name="call-sign">
      <polygon id="call-sign-post" points="51.15674 270.73244 50.14477 97.81335 64.02428 97.81335 65.03625 270.73245 51.15674 270.73244" style="fill: #262c35;"/>
      <path id="phone-icon" d="m57.59045,0C25.78408,0,0,25.7842,0,57.59057s25.78408,57.59045,57.59045,57.59045,57.59057-25.78408,57.59057-57.59045S89.39682,0,57.59045,0Zm29.66009,73.1418c-.31715,1.4083-.53553,2.85104-1.00022,4.20909-.28345.82841-.81996,1.66896-1.46737,2.25644-2.69344,2.44382-5.91101,3.79881-9.51779,4.23115-.18872.02255-3.80334-.36372-5.31899-.87657-2.91341-.98576-5.81224-2.04481-8.63215-3.26929-3.36414-1.46063-6.25402-3.70089-9.01143-6.09018-4.10162-3.55408-7.80656-7.47458-10.90391-11.95254-2.36171-3.4145-3.87172-7.22226-5.17598-11.12094-.51089-1.52742-.90059-3.09821-1.2871-4.66374-.52033-2.10718-.05772-4.145.59447-6.14165.65342-2.00069,1.71503-3.79293,2.97469-5.46936.73859-.98294,1.69788-1.69788,2.87714-2.01711,1.28821-.34864,2.60447-.60072,3.91694-.85023.96995-.18443,1.66736.19779,2.14676,1.09127,1.08576,2.02385,2.19456,4.0363,3.33938,6.02719.77327,1.34482,1.64665,2.63168,2.43377,3.96878.77461,1.31602.74606,1.84273-.29644,2.96549-.77866.83846-1.66969,1.57423-2.52837,2.33585-.82706.73344-1.71197,1.40487-2.50803,2.16968-1.05132,1.00978-1.19507,1.6105-.53663,2.89662,1.54445,3.0166,3.33473,5.87793,5.51066,8.49502,2.85471,3.43325,6.28809,6.14741,10.13016,8.37664.73564.42683,1.46038.87314,2.20019,1.29274,1.57545.89324,2.46526.78368,3.67222-.54361.90133-.99103,1.69812-2.07765,2.60411-3.06402.73062-.79545,1.5371-1.5246,2.34443-2.24443.47205-.42095,1.0398-.44705,1.60707-.14718.28149.14889.56518.29436.84054.45391,2.92432,1.69432,5.84937,3.38718,8.7683,5.09069.56825.33161,1.12742.68405,1.66026,1.06922.5093.36825.70415.89581.56334,1.52104Z" style="fill: #d63619;"/>
    </g>
  </g>
</svg>