<?xml version="1.0" encoding="UTF-8"?>
<svg id="road-path" xmlns="http://www.w3.org/2000/svg" viewBox="0 0 376.91431 2708.54313">
  <path d="m162.54288,8.69353c.77068,135.63678,110.03172,237.01027,135.74835,365.82221,6.93429,34.73313,2.47085,68.21654.35136,103.14773-2.20951,36.41494-2.5459,72.94359-.79323,109.38589,2.82415,58.72091,11.38166,116.92486,23.38163,174.43436,18.27833,87.59841,48.76088,178.17812,33.8025,268.60064-8.46237,51.15452-30.25832,98.53996-57.91544,142.05356-12.40606,19.51876-27.93178,37.27007-38.99355,57.57917-7.72934,14.19085-13.59249,29.46175-18.62759,44.78761-29.14192,88.70244-37.36129,185.28501-45.16725,277.7936-8.59105,101.81273-12.71693,203.9544-15.82549,306.062-2.62221,86.13265-2.90037,170.53389-24.77188,254.73124-11.86593,45.67951-23.96973,91.29859-35.95438,136.94705-22.61754,86.14821-45.23508,172.29643-67.85262,258.44464-15.72752,59.90474-31.45504,119.80947-47.18256,179.71421-.80263,3.05713-1.60525,6.11426-2.40788,9.17139-2.94409,11.21377,14.41327,15.99759,17.35702,4.78511,11.41248-43.46914,22.82497-86.93828,34.23745-130.40742,22.66364-86.32379,45.32727-172.64758,67.99091-258.97137,16.10204-61.33125,32.20408-122.6625,48.30612-183.99375,11.10633-42.30303,19.37228-85.11488,23.0705-128.7517,2.27688-26.86588,2.63094-53.91976,3.42277-80.85764,2.79401-95.05047,5.65464-190.10136,11.62875-285.01723,6.35243-100.92655,14.06809-203.24618,36.27509-302.129,7.48262-33.31841,16.17481-68.40452,33.77738-98.04062,13.27764-22.35454,30.26026-42.43149,43.70468-64.79479,13.71944-22.82076,25.71063-46.69439,35.17725-71.59728,16.066-42.26321,23.18612-87.2832,21.34888-132.44005-1.79753-44.18068-11.02425-87.69667-20.71818-130.70141-11.50917-51.05761-23.41858-102.00383-31.00475-153.83457-9.82811-67.14827-12.3754-135.22952-8.26614-202.95366,2.11067-34.78569,6.19457-67.87586.02431-102.51117-5.52854-31.03314-16.64185-60.74414-29.47366-89.42996-27.58867-61.67515-64.97652-118.90389-88.12606-182.57466-11.06691-30.43857-18.33964-61.95503-18.5243-94.45415-.06579-11.57893-18.06593-11.6038-18,0h0Z" style="fill: #eac428;"/>
</svg>