<?xml version="1.0" encoding="UTF-8"?>
<svg xmlns="http://www.w3.org/2000/svg" viewBox="0 0 343.67 682.03">
  <defs>
    <style>
      .cls-1 {
        stroke: #0c0e11;
        stroke-width: 2px;
      }

      .cls-1, .cls-2 {
        stroke-linecap: round;
        stroke-linejoin: round;
      }

      .cls-1, .cls-2, .cls-3 {
        fill: none;
      }

      .cls-4 {
        fill: #fff6a4;
        stroke: #252a33;
      }

      .cls-4, .cls-3 {
        stroke-miterlimit: 10;
      }

      .cls-2 {
        stroke: #b5c0bf;
        stroke-width: 10.6px;
      }

      .cls-5 {
        fill: #343226;
      }

      .cls-5, .cls-6, .cls-7, .cls-8, .cls-9, .cls-10, .cls-11, .cls-12 {
        stroke-width: 0px;
      }

      .cls-6 {
        fill: #343326;
      }

      .cls-7 {
        fill: #0c0e11;
      }

      .cls-8 {
        fill: #252a33;
      }

      .cls-9 {
        fill: #d1d9d9;
      }

      .cls-10 {
        fill: #b5c0bf;
      }

      .cls-11 {
        fill: #928c8b;
      }

      .cls-12 {
        fill: #e3e1d3;
      }

      .cls-3 {
        stroke: #343326;
        stroke-width: 2.81px;
      }
    </style>
  </defs>
  <g id="Exhaust_3" data-name="Exhaust #3">
    <path class="cls-10" d="m78.4,679.84c0,.73-1.4,1.84-2.09,2.07s-1.4.08-1.99-.23c-.78-.4-1.44-1.08-1.7-1.97s-.08-2.02.58-2.8c-1.4-.53-2.07-2.23-2.02-3.89s.23-1.76,1.34-2.67c.27-.22-.7-1.45,1.31-2.71.72-.45,1.28.17,1.74.77,0-1.43.39-2.92,1.1-4.24.34-.63.8-1.27,1.43-1.52.26-.1.54-.13.81-.13,1.51-.01,2.89.8,3.6,2.11s.72,3.09.03,4.62c-.39.88-1.16,1.76-2.02,1.77,1.91-.37,3.75.71,4.52,2.45s.53,3.99-.42,5.88c-.34.68-.84,1.37-1.52,1.55-.27.07-.53.04-.79.01-1.36-.16-2.68-.52-3.91-1.05h0Z"/>
  </g>
  <g id="Exhaust_2" data-name="Exhaust #2">
    <path class="cls-10" d="m89.67,652.64c-1.14.05-2.21-.78-2.52-1.82s.06-2.2.82-3.01,1.85-1.29,2.98-1.47c-1.04-1.74-.77-4.07.55-5.64s3.55-2.35,5.65-2.1c.28.03.56.11.81.24,2.18,1.13,1.46,3.91.51,4.8.76-.21,1.56.15,2.24.53,1.33.74,2.63,1.61,3.52,2.81s1.34,2.76.86,4.16c-.62,1.79-2.85,2.92-4.77,2.41,2.09,1.51,2.9,4.15,3.04,6.64.06,1.01.02,2.08-.52,2.95-.48.78-1.29,1.32-2.12,1.75-1.76.91-3.91,1.44-5.76.73-1.29-.5-2.31-1.59-2.66-2.87s-.04-2.71.83-3.74c-1.06.62-2.51,1.03-3.49.31-.57-.42-.83-1.12-.95-1.79-.31-1.68.04-3.46.97-4.92"/>
  </g>
  <g id="Exhaust_1" data-name="Exhaust #1">
    <path class="cls-10" d="m74.25,612.61c-1.87-.09-4.2,1.27-4.68,3.02-.32,1.16.33,2.31.66,2.97s1.03,1.16,1.75,1.06c-1.58-.22-3.21.24-4.59,1.06s-2.52,1.96-3.56,3.18c-1.08,1.27-2.08,2.73-2.22,4.4-.12,1.5.53,3.04,1.69,4s2.8,1.31,4.25.91c-2.91,6.13,4.67,5.89,4.67,5.89,0,0-2.92,6.87,4.04,7.54.88.08,1.79.06,2.63-.23,1.02-.35,2.72-2.73,2.41-4.54-.29-1.64.39.71,3.05-1.24,1.43-1.05.63-3.03-.68-4.29,1.29.99,2.73-.38,4.07-1.3,1.61-1.11,2.94-2.67,3.59-4.52.43-1.23.55-2.54.56-3.84,0-.56-.01-1.12-.15-1.66-.37-1.42-1.55-2.51-2.88-3.13s-2.8-.83-4.25-1.04c.84-.09,1.55-.69,1.98-1.41s.6-1.57.71-2.4c.17-1.24.21-2.56-.33-3.69-.57-1.21-1.74-2.06-2.99-2.53s-2.6-.61-3.93-.75c-.21-.02-.47-.04-.76-.05-2.01-.08-5.47.89-5.02,2.59h0Z"/>
  </g>
  <g id="Exghast_Pipe" data-name="Exghast Pipe">
    <rect class="cls-7" x="72.94" y="567.95" width="22" height="37" rx="6.69" ry="6.69"/>
  </g>
  <g id="Wheels">
    <g>
      <rect class="cls-7" x="9.98" y="190.52" width="46" height="88" rx="12" ry="12"/>
      <rect class="cls-7" x="286.98" y="190.52" width="46" height="88" rx="12" ry="12"/>
    </g>
    <g>
      <rect class="cls-7" x="10.94" y="464.95" width="46" height="88" rx="12" ry="12"/>
      <rect class="cls-7" x="287.94" y="464.95" width="46" height="88" rx="12" ry="12"/>
    </g>
  </g>
  <g id="Van_Body" data-name="Van Body">
    <g id="Side_Mirrors" data-name="Side Mirrors">
      <g>
        <path class="cls-6" d="m322.29,157.93h-.09s-.14,22.3-.14,22.3l21.57.13.03-5.67c.06-9.19-9.52-16.69-21.38-16.77Z"/>
        <line class="cls-3" x1="331.56" y1="164.88" x2="313.1" y2="164.88"/>
      </g>
      <g>
        <path class="cls-6" d="m21.38,158.02h.09s.14,22.3.14,22.3l-21.57.13L0,174.79c-.06-9.19,9.52-16.69,21.38-16.77Z"/>
        <line class="cls-3" x1="30.57" y1="164.97" x2="12.11" y2="164.97"/>
      </g>
    </g>
    <path class="cls-4" d="m97.52,5.22s-9.79.38,26.95,0c-13.74-10.62-26.95,0-26.95,0Z"/>
    <path class="cls-4" d="m222.91,5.37s-9.79.38,26.95,0c-13.74-10.62-26.95,0-26.95,0Z"/>
    <rect class="cls-11" x="55" y="4.95" width="234" height="172" rx="24.87" ry="24.87"/>
    <rect class="cls-5" x="65.94" y="14.51" width="212" height="155.83" rx="24.87" ry="24.87"/>
    <rect class="cls-12" x="26.47" y="99.95" width="291" height="484" rx="12" ry="12"/>
    <rect class="cls-8" x="140.32" y="212.95" width="62" height="134" rx="19.75" ry="19.75"/>
    <polygon class="cls-10" points="297.94 117.95 46.94 117.95 50.97 99.95 292.97 99.95 297.94 117.95"/>
    <rect class="cls-8" x="26.46" y="116.95" width="291.01" height="6"/>
    <polyline class="cls-2" points="311.68 145.49 285.68 169.11 285.68 577.49"/>
    <polyline class="cls-2" points="32.72 145.64 58.72 169.25 58.72 577.63"/>
    <polygon class="cls-9" points="50.53 114.95 148.94 114.95 52.94 102.95 50.53 114.95"/>
    <polygon class="cls-9" points="290.7 101.95 192.29 101.95 293.94 114.95 290.7 101.95"/>
  </g>
  <g id="Wipers">
    <line class="cls-1" x1="138.6" y1="101.97" x2="91.94" y2="110.95"/>
    <line class="cls-1" x1="243.7" y1="101.66" x2="197.04" y2="110.64"/>
  </g>
</svg>