<?xml version="1.0" encoding="UTF-8"?>
<svg id="Layer_8" data-name="Layer 8" xmlns="http://www.w3.org/2000/svg" xmlns:xlink="http://www.w3.org/1999/xlink" viewBox="0 0 640 2257.09807">
  <defs>
    <clipPath id="clippath">
      <rect x="-1.69971" width="641.69971" height="2257.09807" style="fill: none;"/>
    </clipPath>
  </defs>
  <g style="clip-path: url(#clippath);">
    <rect x="-37.62566" y="-43.82214" width="708.84529" height="2365.22562" style="fill: #e5d7b7;"/>
    <path d="m799.18938,829.12847c-54.39576-3.42561-108.79153-6.85123-163.18729-10.27684-50.77001-3.19728-130.97117,1.50833-163.36573-27.3437-40.87258-36.40294-11.14981-75.30247-19.05569-111.01197-9.356-42.25943-40.8317-148.62824-37.54783-188.66154,20.61128-251.26992,121.94099-45.52712,161.08006-55.79468,29.47287-7.73177,61.34662-8.52508,91.0905-15.6146,40.34494-9.6163,74.4949-30.19077,107.6391-50.34902" style="fill: #99b5bf;"/>
    <polygon points="732.87477 455.17357 -64.37211 456.18554 -64.3721 442.30603 732.87478 441.29406 732.87477 455.17357" style="fill: #eac428;"/>
    <path d="m773.67687-34.59451l-354.76933-9.22763-80.09736,308.24112c-26.43872,102.29199,39.82471,137.79443,39.26318,172.18146-1.57471,96.41125,110.50403,66.63159,137.34216,73.67194,26.83826,7.04028,65.27722,41.10223,92.80627,43.89893,23.83887,2.42181,44.99927-10.43042,68.66724-6.57343,19.91003,3.24463,21.08203,26.18463,40.21326,32.84186l-35.95911-314.31104,92.53369.46216V-34.59451Z" style="fill: #646636;"/>
    <rect x="-32.74309" y="1315.80667" width="708.84529" height="13.87951" style="fill: #eac428;"/>
    <polygon points="181.01682 1322.22499 -211.19648 931.44295 -201.38219 921.62865 190.83112 1312.41069 181.01682 1322.22499" style="fill: #eac428;"/>
    <polygon points="286.7422 941.68953 704.42428 940.6778 704.42427 954.55731 286.7422 955.56904 286.7422 941.68953" style="fill: #eac428;"/>
    <g>
      <rect x="-5.87297" y="856.17302" width="8.34653" height="28.18173" style="fill: #fff0cf;"/>
      <rect x="15.04533" y="856.17302" width="8.34653" height="28.18173" style="fill: #fff0cf;"/>
      <rect x="38.54759" y="856.17302" width="8.34653" height="28.18173" style="fill: #fff0cf;"/>
      <rect x="59.46589" y="856.17302" width="8.34653" height="28.18173" style="fill: #fff0cf;"/>
      <rect x="82.96815" y="856.17302" width="8.34653" height="28.18173" style="fill: #fff0cf;"/>
      <rect x="103.88646" y="856.17302" width="8.34653" height="28.18173" style="fill: #fff0cf;"/>
      <rect x="127.38871" y="856.17302" width="8.34653" height="28.18173" style="fill: #fff0cf;"/>
      <rect x="148.30702" y="856.17302" width="8.34653" height="28.18173" style="fill: #fff0cf;"/>
      <rect x="171.80927" y="856.17302" width="8.34653" height="28.18173" style="fill: #fff0cf;"/>
      <rect x="192.72758" y="856.17302" width="8.34653" height="28.18173" style="fill: #fff0cf;"/>
      <rect x="216.22983" y="856.17302" width="8.34653" height="28.18173" style="fill: #fff0cf;"/>
      <rect x="237.14814" y="856.17302" width="8.34653" height="28.18173" style="fill: #fff0cf;"/>
      <rect x="260.65039" y="856.17302" width="8.34653" height="28.18173" style="fill: #fff0cf;"/>
      <rect x="281.5687" y="856.17302" width="8.34653" height="28.18173" style="fill: #fff0cf;"/>
      <rect x="305.07095" y="856.17302" width="8.34653" height="28.18173" style="fill: #fff0cf;"/>
      <rect x="325.98926" y="856.17302" width="8.34653" height="28.18173" style="fill: #fff0cf;"/>
      <rect x="346.90757" y="856.17302" width="8.34653" height="28.18173" style="fill: #fff0cf;"/>
      <rect x="367.82588" y="856.17302" width="8.34653" height="28.18173" style="fill: #fff0cf;"/>
      <rect x="389.6427" y="856.17302" width="8.34653" height="28.18173" style="fill: #fff0cf;"/>
      <rect x="410.561" y="856.17302" width="8.34653" height="28.18173" style="fill: #fff0cf;"/>
      <rect x="432.37782" y="856.17302" width="8.34653" height="28.18173" style="fill: #fff0cf;"/>
      <rect x="453.29613" y="856.17302" width="8.34653" height="28.18173" style="fill: #fff0cf;"/>
      <rect x="475.11295" y="856.17302" width="8.34653" height="28.18173" style="fill: #fff0cf;"/>
      <rect x="496.03125" y="856.17302" width="8.34653" height="28.18173" style="fill: #fff0cf;"/>
      <rect x="517.84807" y="856.17302" width="8.34653" height="28.18173" style="fill: #fff0cf;"/>
      <rect x="538.76638" y="856.17302" width="8.34653" height="28.18173" style="fill: #fff0cf;"/>
      <rect x="560.5832" y="856.17302" width="8.34653" height="28.18173" style="fill: #fff0cf;"/>
      <rect x="581.5015" y="856.17302" width="8.34653" height="28.18173" style="fill: #fff0cf;"/>
      <rect x="603.31832" y="856.17302" width="8.34653" height="28.18173" style="fill: #fff0cf;"/>
      <rect x="624.23663" y="856.17302" width="8.34653" height="28.18173" style="fill: #fff0cf;"/>
    </g>
    <g>
      <path d="m474.63195,214.38742c9.16895,0,15.9292,7.01367,15.9292,15.80225,0,8.87256-6.71826,15.80176-15.9292,15.80176s-15.92871-6.9292-15.92871-15.80176c0-8.74609,6.71777-15.80225,15.92871-15.80225Zm0,25.64697c5.49268,0,9.37988-4.39453,9.37988-9.84473,0-5.4082-3.88721-9.84473-9.37988-9.84473s-9.37988,4.43652-9.37988,9.84473c0,5.4502,3.88721,9.84473,9.37988,9.84473Z" style="fill: #e5d7b7;"/>
      <path d="m500.70372,224.27414l.16895,2.40869c.04248.76025-.12695,1.26758-.16895,1.47852h.08447c.88721-1.94336,3.67578-4.47852,7.26709-4.47852,4.77441,0,7.35205,2.91553,7.35205,8.49268v13.22461h-6.33789v-12.16846c0-2.07031-.59131-3.80273-2.87305-3.80273-2.95752,0-4.94336,2.28174-4.94336,5.45068v10.52051h-6.33789v-21.12598h5.78857Z" style="fill: #e5d7b7;"/>
      <path d="m519.63439,230.9924h13.60498v4.94336h-13.60498v-4.94336Z" style="fill: #e5d7b7;"/>
      <path d="m538.52208,244.25949v-6.25342c2.1123,1.09863,4.90137,2.02832,7.64746,2.19727.97168.04199,1.90137,0,2.7041-.16895,2.32373-.33838,3.67578-1.22559,3.67578-2.7041,0-2.02832-1.81689-3.08447-5.99951-4.60547-5.32373-1.94385-8.4502-4.18311-8.4502-9.46436,0-5.4082,4.47852-8.87305,11.02734-8.87305,3.04248,0,6.04199.67627,7.94336,1.521v6c-1.77441-1.05664-4.64746-1.85938-7.43604-1.85938-3.12695,0-5.15479,1.22559-5.15479,3.16895,0,1.77441,1.64795,3,5.78857,4.56299,5.32373,2.0708,8.61914,4.31006,8.61914,9.42236,0,5.49268-4.14062,8.78809-11.32324,8.78809-3.46484,0-6.84473-.76025-9.04199-1.73193Z" style="fill: #e5d7b7;"/>
      <path d="m566.15636,214.80979c2.11279,0,3.50684,1.31006,3.50684,3.42236,0,2.02832-1.39404,3.38037-3.50684,3.38037-2.15479,0-3.50684-1.35205-3.50684-3.38037,0-2.1123,1.35205-3.42236,3.50684-3.42236Zm3.16895,9.46436v21.12598h-6.33789v-21.12598h6.33789Z" style="fill: #e5d7b7;"/>
      <path d="m575.53722,224.27414v-6.3374h6.12646v6.3374h5.61963v4.94385h-5.61963v8.49219c0,2.23926,1.30957,3,2.7041,3,1.30957,0,2.66162-.42236,3.59131-.88721v5.19678c-.92969.46484-2.87305.97168-5.36572.97168-3.33789,0-6.59131-1.56299-7.05615-5.99951-.04248-.67627-.12695-1.39453-.12695-2.15479v-8.61914h-2.91504v-4.94385h3.04199Z" style="fill: #e5d7b7;"/>
      <path d="m610.4796,233.56955c0,1.14111-.12646,2.15479-.16895,2.57764h-13.8584c.25342,2.87305,2.45068,4.521,5.87305,4.521,2.99951,0,6.12646-.8877,7.30957-1.56348v5.36572c-1.31006.67627-4.14111,1.521-7.90137,1.521-7.26709,0-11.83057-4.68994-11.83057-11.1543,0-6.42236,4.68994-11.1543,10.73193-11.1543,6.50684,0,9.84473,4.64746,9.84473,9.88672Zm-9.88672-4.90088c-2.53516,0-3.97168,1.94336-4.14062,4.2251h7.98535c.08447-2.28174-1.26758-4.2251-3.84473-4.2251Z" style="fill: #e5d7b7;"/>
      <path d="m376.89757,255.97873c7.05615,0,11.74609,3.50732,11.74609,10.01367,0,4.43652-2.49316,7.35205-5.78857,8.66162l6.37988,11.74609h-6.88721l-5.36572-10.64746h-4.39404v10.64746h-6.38037v-30.42139h10.68994Zm-4.30957,5.45068v9.08398h4.64746c2.87305,0,4.85889-1.43652,4.85889-4.521,0-3.04199-2.07031-4.56299-5.02783-4.56299h-4.47852Z" style="fill: #e5d7b7;"/>
      <path d="m406.05382,286.86496h-.25342l-14.99951-30.88623h7.09814l3.97168,8.78857c1.56348,3.50684,2.95752,6.50684,4.01416,9.46436.88721-2.15479,2.74609-6.46436,4.09814-9.46436l3.97168-8.78857h7.05615l-14.95703,30.88623Z" style="fill: #e5d7b7;"/>
      <path d="m433.26671,285.25949v-6.25342c2.1123,1.09863,4.90137,2.02832,7.64746,2.19727.97168.04199,1.90137,0,2.7041-.16895,2.32373-.33838,3.67578-1.22559,3.67578-2.7041,0-2.02832-1.81689-3.08447-5.99951-4.60547-5.32373-1.94385-8.4502-4.18311-8.4502-9.46436,0-5.4082,4.47852-8.87305,11.02734-8.87305,3.04199,0,6.04199.67627,7.94336,1.521v6c-1.77441-1.05664-4.64746-1.85938-7.43604-1.85938-3.12695,0-5.15479,1.22559-5.15479,3.16895,0,1.77441,1.64795,3,5.78857,4.56299,5.32373,2.0708,8.61914,4.31006,8.61914,9.42236,0,5.49268-4.14062,8.78809-11.32324,8.78809-3.46484,0-6.84473-.76025-9.04199-1.73193Z" style="fill: #e5d7b7;"/>
      <path d="m476.66027,274.56955c0,1.14111-.12646,2.15479-.16895,2.57764h-13.8584c.25342,2.87305,2.45068,4.521,5.87305,4.521,2.99951,0,6.12646-.8877,7.30957-1.56348v5.36572c-1.31006.67627-4.14111,1.521-7.90137,1.521-7.26709,0-11.83057-4.68994-11.83057-11.1543,0-6.42236,4.68994-11.1543,10.73193-11.1543,6.50684,0,9.84473,4.64746,9.84473,9.88672Zm-9.88672-4.90088c-2.53516,0-3.97168,1.94336-4.14062,4.2251h7.98535c.08447-2.28174-1.26758-4.2251-3.84473-4.2251Z" style="fill: #e5d7b7;"/>
      <path d="m481.01427,265.27414h5.74609l.12646,2.07031c0,.63379,0,1.14111.04248,1.39453,1.30957-2.28174,3.50684-4.05615,6.25342-4.05615.67578,0,1.26758.08447,1.35205.12695v6.16846c-.08447-.04199-.5918-.25342-1.39453-.25342-3.21094,0-5.83057,2.83105-5.83057,6.67578v8.99951h-6.29541v-21.12598Z" style="fill: #e5d7b7;"/>
      <path d="m518.57726,265.27414l-9.33789,21.37939h-3.97119l-9.37988-21.37939h6.59082c1.69043,4.31006,3.71826,9.21094,4.73242,12.71777.46484-1.14062,1.35205-4.14062,2.1123-6.04199l2.66211-6.67578h6.59131Z" style="fill: #e5d7b7;"/>
      <path d="m524.11339,255.80979c2.11279,0,3.50684,1.31006,3.50684,3.42236,0,2.02832-1.39404,3.38037-3.50684,3.38037-2.15479,0-3.50684-1.35205-3.50684-3.38037,0-2.1123,1.35205-3.42236,3.50684-3.42236Zm3.16895,9.46436v21.12598h-6.33789v-21.12598h6.33789Z" style="fill: #e5d7b7;"/>
      <path d="m543.8878,281.45676c2.53516,0,4.81689-1.18311,5.61963-1.73242v5.7041c-.84521.42236-3.04248,1.56299-6.46484,1.56299-6.76025,0-11.23877-4.73193-11.23877-11.1543s4.47852-11.1543,11.23877-11.1543c3.38037,0,5.49268,1.09863,6.33789,1.521v5.74609c-1.18311-.84473-3.29541-1.73193-5.49268-1.73193-3.33789,0-5.7041,2.19678-5.7041,5.61914s2.28174,5.61963,5.7041,5.61963Z" style="fill: #e5d7b7;"/>
      <path d="m557.0714,255.80979c2.11279,0,3.50684,1.31006,3.50684,3.42236,0,2.02832-1.39404,3.38037-3.50684,3.38037-2.15479,0-3.50684-1.35205-3.50684-3.38037,0-2.1123,1.35205-3.42236,3.50684-3.42236Zm3.16895,9.46436v21.12598h-6.33789v-21.12598h6.33789Z" style="fill: #e5d7b7;"/>
      <path d="m571.94493,265.27414l.16895,2.40869c.04248.76025-.12695,1.26758-.16895,1.47852h.08447c.88721-1.94336,3.67578-4.47852,7.26709-4.47852,4.77441,0,7.35205,2.91553,7.35205,8.49268v13.22461h-6.33789v-12.16846c0-2.07031-.59131-3.80273-2.87305-3.80273-2.95752,0-4.94336,2.28174-4.94336,5.45068v10.52051h-6.33789v-21.12598h5.78857Z" style="fill: #e5d7b7;"/>
      <path d="m602.74864,282.80881c5.66162.71826,8.40771,2.32373,8.40771,6.21094,0,4.39404-4.56299,6.97168-11.11182,6.97168-5.83105,0-10.14062-1.90137-10.14062-5.57764,0-2.36572,2.28174-4.26709,5.32373-4.94336-1.73242-.25342-3.04199-1.26758-3.04199-2.87305,0-1.30957,1.14062-2.66162,3.33789-3.37988-2.95752-1.14111-4.94336-3.59131-4.94336-6.80273,0-4.68994,4.09814-7.73193,9.16846-7.73193,1.26758,0,2.53516.21143,3.63379.59131h7.81641v4.479h-2.45068c-.67627,0-.80273-.12695-.97168-.12695.59131.76074.97168,1.68994.97168,2.78857,0,4.09863-3.12646,6.84473-7.30957,7.39404-1.77441.2959-3.16895.80273-3.16895,1.43652,0,.84521,1.521,1.14111,4.479,1.56348Zm2.15479,6.67578c0-1.56348-1.521-2.57764-4.94385-2.57764-2.36572,0-4.05615,1.18311-4.05615,2.61963,0,1.64795,1.81689,2.49316,4.31006,2.49316,2.66162,0,4.68994-1.01416,4.68994-2.53516Zm-1.69043-16.94287c0-1.94385-1.35205-3.42236-3.46436-3.42236-2.07031,0-3.42236,1.47852-3.42236,3.42236,0,1.94336,1.35205,3.37988,3.42236,3.37988,2.1123,0,3.46436-1.43652,3.46436-3.37988Z" style="fill: #e5d7b7;"/>
    </g>
    <path d="m745.86986,1748.10837c-4.09949-101.3042-9.6853-203.4325-38.57629-300.48755-31.25061-3.75073-62.52881-7.50403-93.95935-9.17529-11.77979-.62634-24.00232-.88623-34.88464,3.66675-14.46387,6.05127-24.21948,19.53943-33.05334,32.49268-8.83386,12.95337-18.18787,26.60681-32.34998,33.33447-14.16211,6.72754-34.52222,3.09082-40.34766-11.46558-2.00208-5.00256-2.15039-10.78955-5.22144-15.21704-6.91235-9.96533-22.28516-6.47656-33.82202-10.21655-10.48486-3.39905-17.71216-13-27.45825-18.14795-15.82129-8.35706-36.02881-3.41833-50.28101,7.39966-14.2522,10.81787-23.83765,26.51855-33.08472,41.83667-6.55713,10.86108-13.11377,21.72241-19.67065,32.58362-1.26758,2.09961-2.63306,4.29517-4.78882,5.46472-2.37329,1.28735-5.23999,1.08716-7.93311.89404-11.71509-.83997-24.35767-.63745-33.99146,6.08105-9.41675,6.56689-14.07178,18.20203-15.67041,29.57043-1.59863,11.36829-.64844,22.93762-1.45679,34.38928-2.68066,37.979-24.56055,74.47827-18.06152,111.9928l1.67676,9.07532c-23.36377,13.08594-37.11084,41.46692-32.89502,67.91174l-47.38803,248.18833c-4.65716,24.39124-7.00134,49.16766-7.00134,73.99953v261.92098l629.34274-9.15535v-628.72534l-19.12366,1.78857Z" style="fill: #646636;"/>
    <path d="m143.34683-223.60712c.77068,135.63678,110.03172,237.01027,135.74835,365.82221,6.93429,34.73313,2.47085,68.21654.35136,103.14773-2.20951,36.41494-2.5459,72.94359-.79323,109.38589,2.82415,58.72091,11.38166,116.92486,23.38163,174.43436,18.27833,87.59841,48.76088,178.17812,33.8025,268.60064-8.46237,51.15452-30.25832,98.53996-57.91544,142.05356-12.40606,19.51876-27.93178,37.27007-38.99355,57.57917-7.72934,14.19085-13.59249,29.46175-18.62759,44.78761-29.14192,88.70244-37.36129,185.28501-45.16725,277.7936-8.59105,101.81273-12.71693,203.9544-15.82549,306.062-2.62221,86.13265-2.90037,170.53389-24.77188,254.73124-11.86593,45.67951-23.96973,91.29859-35.95438,136.94705-22.61754,86.14821-45.23508,172.29643-67.85262,258.44464-15.72752,59.90474-31.45504,119.80947-47.18256,179.71421-.80263,3.05713-1.60525,6.11426-2.40788,9.17139-2.94409,11.21377,14.41327,15.99759,17.35702,4.78511,11.41248-43.46914,22.82497-86.93828,34.23745-130.40742,22.66364-86.32379,45.32727-172.64758,67.99091-258.97137,16.10204-61.33125,32.20408-122.6625,48.30612-183.99375,11.10633-42.30303,19.37228-85.11488,23.0705-128.7517,2.27688-26.86588,2.63094-53.91976,3.42277-80.85764,2.79401-95.05047,5.65464-190.10136,11.62875-285.01723,6.35243-100.92655,14.06809-203.24618,36.27509-302.129,7.48262-33.31841,16.17481-68.40452,33.77738-98.04062,13.27764-22.35454,30.26026-42.43149,43.70468-64.79479,13.71944-22.82076,25.71063-46.69439,35.17725-71.59728,16.066-42.26321,23.18612-87.2832,21.34888-132.44005-1.79753-44.18068-11.02425-87.69667-20.71818-130.70141-11.50917-51.05761-23.41858-102.00383-31.00475-153.83457-9.82811-67.14827-12.3754-135.22952-8.26614-202.95366,2.11067-34.78569,6.19457-67.87586.02431-102.51117-5.52854-31.03314-16.64185-60.74414-29.47366-89.42996-27.58867-61.67515-64.97652-118.90389-88.12606-182.57466-11.06691-30.43857-18.33964-61.95503-18.5243-94.45415-.06579-11.57893-18.06593-11.6038-18,0h0Z" style="fill: #eac428;"/>
    <path d="m-110.35817,1427.54374c42.79951.88532,85.59336,2.03829,128.37821,3.46669,10.67417.35636,21.46862.32493,32.07789,1.67221-2.12672-.28577-4.25343-.57154-6.38015-.8573,5.01145.69051,9.91612,1.77046,14.62685,3.64274-1.91104-.80647-3.82207-1.61293-5.73311-2.4194,2.8518,1.20702,5.51141,2.67226,8.01081,4.50411-1.6191-1.25091-3.2382-2.50182-4.8573-3.75273,2.25831,1.75817,4.23819,3.73463,6.00899,5.9815-1.25091-1.6191-2.50182-3.2382-3.75273-4.8573,1.8979,2.55513,3.43027,5.27895,4.72294,8.18517-.80647-1.91104-1.61293-3.82207-2.4194-5.73311,4.20624,9.99386,5.42589,20.95662,6.87099,31.61432-.28577-2.12672-.57154-4.25343-.8573-6.38015,6.57156,49.00983,7.89847,98.67161,4.14682,147.97396-1.06276,13.96623-2.53894,27.89776-4.39384,41.78074.28577-2.12672.57154-4.25343.8573-6.38015-6.82265,50.53275-18.83257,100.33603-35.84062,148.40918-4.84236,13.6869-10.09499,27.22526-15.72542,40.607.80647-1.91104,1.61293-3.82207,2.4194-5.73311-18.71197,44.30193-41.69361,86.78704-68.7949,126.52403-7.7007,11.29108-15.73592,22.35013-24.07713,33.17639,1.25091-1.6191,2.50182-3.2382,3.75273-4.8573-7.22651,9.35115-14.68298,18.51953-22.36862,27.49717-4.20325,4.90984-7.02944,10.31922-7.02944,16.97056,0,5.88641,2.61458,12.91781,7.02944,16.97056,4.57379,4.19866,10.57866,7.31573,16.97056,7.02944,6.07517-.27211,12.86516-2.23389,16.97056-7.02944,36.23303-42.32402,67.81377-88.60003,93.57327-138.01178,25.74246-49.37907,46.24824-101.72617,60.68772-155.5108,14.4529-53.83464,22.98524-109.49816,25.38411-165.18739,1.16158-26.96576.80702-53.99834-1.10958-80.92157-.9587-13.4672-2.30811-26.90673-4.05295-40.29484-2.17745-16.70751-3.90483-33.11884-11.33964-48.4728-7.81274-16.13445-23.99269-27.02486-41.25884-30.65555-15.85362-3.33366-32.3462-3.09734-48.45993-3.62836-33.07084-1.08982-66.14705-2.01664-99.22703-2.78043-8.27-.19095-16.54023-.37119-24.81066-.54227-12.55932-.25979-24.57221,11.22468-24,24,.59238,13.2256,10.54264,23.72163,24,24h0Z" style="fill: #99b5bf;"/>
    <path d="m47.25499,734.65647c-18.49561,0-33.54297-17.99414-33.54297-40.11133v-117.03613c0-22.11719,15.04736-40.11133,33.54297-40.11133h200.02979c18.49561,0,33.54297,17.99414,33.54297,40.11133v117.03613c0,22.11719-15.04736,40.11133-33.54297,40.11133H47.25499Z" style="fill: #e5d7b7;"/>
    <g>
      <path d="m79.02892,503.78049c-1.50049-.76758-3.87354-1.74414-6.94434-1.74414-5.09473,0-8.30518,3.66406-8.30518,8.13086,0,4.50098,3.17529,8.13086,8.13086,8.13086,3.24512,0,5.72314-.94238,7.29346-1.74512v4.99023c-1.29102.69824-4.15283,1.6748-7.67725,1.6748-7.57275,0-13.12158-5.6875-13.12158-13.05078,0-7.3291,5.54883-13.05176,13.2959-13.05176,3.52441,0,6.03711,1.04688,7.32812,1.74512v4.91992Z"/>
      <path d="m96.79454,497.11545c7.57227,0,13.15576,5.79297,13.15576,13.05176,0,7.32812-5.54834,13.05078-13.15576,13.05078s-13.15625-5.72266-13.15625-13.05078c0-7.22363,5.54883-13.05176,13.15625-13.05176Zm0,21.18262c4.53662,0,7.74707-3.62988,7.74707-8.13086,0-4.4668-3.21045-8.13086-7.74707-8.13086s-7.74707,3.66406-7.74707,8.13086c0,4.50098,3.21045,8.13086,7.74707,8.13086Z"/>
      <path d="m136.78966,523.1135l-13.78467-13.22559-1.64014-1.43066v14.27246h-5.26904v-25.50977h.20898l13.74951,13.22656,1.60547,1.43066v-14.27344h5.3042v25.50977h-.17432Z"/>
      <path d="m154.69493,502.10569v20.62402h-5.37402v-20.62402h-7.01416v-4.50195h19.4375v4.50195h-7.04932Z"/>
      <path d="m174.55382,497.21994h.20947l12.21387,25.50977h-5.61816l-2.02441-4.43164h-9.38721l-1.9541,4.43164h-5.61816l12.17871-25.50977Zm3.17578,17.30859c-1.15186-2.61719-2.26855-5.26855-3.03613-7.46777-.73291,1.74512-2.05908,5.09473-3.10596,7.46777h6.14209Z"/>
      <path d="m209.76818,503.78049c-1.50098-.76758-3.87402-1.74414-6.94482-1.74414-5.09473,0-8.30518,3.66406-8.30518,8.13086,0,4.50098,3.17529,8.13086,8.13086,8.13086,3.24512,0,5.72314-.94238,7.29346-1.74512v4.99023c-1.2915.69824-4.15283,1.6748-7.67725,1.6748-7.57275,0-13.12158-5.6875-13.12158-13.05078,0-7.3291,5.54883-13.05176,13.2959-13.05176,3.52441,0,6.03711,1.04688,7.32861,1.74512v4.91992Z"/>
      <path d="m225.99816,502.10569v20.62402h-5.37402v-20.62402h-7.01416v-4.50195h19.4375v4.50195h-7.04932Z"/>
    </g>
    <circle cx="483.45947" cy="1747.60451" r="189.42873" style="fill: #a89d86;"/>
    <g>
      <path d="m363.02696,1985.96018c-1.5957-.81641-4.11914-1.85547-7.38477-1.85547-5.41797,0-8.83203,3.89648-8.83203,8.64648,0,4.78711,3.37695,8.64648,8.64648,8.64648,3.45117,0,6.08594-1.00195,7.75586-1.85547v5.30664c-1.37305.74219-4.41602,1.78125-8.16406,1.78125-8.05273,0-13.95312-6.04883-13.95312-13.87891,0-7.79297,5.90039-13.87891,14.13867-13.87891,3.74805,0,6.41992,1.11328,7.79297,1.85547v5.23242Z" style="fill: #e5d7b7;"/>
      <path d="m369.63195,2006.11057v-26.71875h5.71484v26.71875h-5.71484Z" style="fill: #e5d7b7;"/>
      <path d="m405.55333,2006.51877l-14.6582-14.06445-1.74414-1.52148v15.17773h-5.60352v-27.12695h.22266l14.62109,14.06445,1.70703,1.52148v-15.17773h5.64062v27.12695h-.18555Z" style="fill: #e5d7b7;"/>
      <path d="m413.93956,2006.11057v-26.71875h8.53516c9.0918,0,14.84375,5.5293,14.84375,13.35938s-5.71484,13.35938-14.76953,13.35938h-8.60938Zm5.71484-21.93164v17.14453h2.82031c5.71484,0,9.0918-3.71094,9.0918-8.57227,0-4.82422-3.37695-8.57227-9.16602-8.57227h-2.74609Z" style="fill: #e5d7b7;"/>
      <path d="m446.52111,1979.39182l6.12305,10.94727,6.12305-10.94727h6.45703l-9.72266,16.36523v10.35352h-5.71484v-10.35352l-9.68555-16.36523h6.41992Z" style="fill: #e5d7b7;"/>
      <path d="m498.91857,1992.67698c.25977,3.1543-.22266,6.12305-1.89258,8.68359l4.56445,4.75h-6.08594l-1.63281-1.70703c-1.89258,1.44727-4.30469,2.22656-7.125,2.22656-6.67969,0-10.01953-3.45117-10.01953-7.45898,0-3.41406,2.56055-5.64062,5.19531-7.08789-1.66992-1.81836-2.7832-3.5625-2.7832-6.41992,0-3.5625,3.30273-6.79102,7.57031-6.79102,4.11914,0,7.5332,3.11719,7.5332,6.60547,0,4.23047-3.26562,6.41992-5.34375,7.42188l4.52734,4.67578c.63086-1.52148.85352-3.22852.74219-4.89844h4.75Zm-14.21289,2.30078c-1.41016.7793-2.7832,1.9668-2.7832,3.71094,0,2.04102,1.85547,3.5625,4.86133,3.5625,1.37305,0,2.70898-.44531,3.74805-1.26172l-5.82617-6.01172Zm1.29883-5.04688c1.48438-.7793,3.48828-2.11523,3.48828-3.9707,0-1.52148-1.22461-2.70898-2.7832-2.70898s-2.82031,1.1875-2.82031,2.70898c0,1.55859.81641,2.56055,2.11523,3.9707Z" style="fill: #e5d7b7;"/>
      <path d="m522.2965,1992.30588l-1.41016-1.22461v15.0293h-5.45508v-27.12695h.11133l12.72852,12.83984,12.72852-12.83984h.11133v27.12695h-5.45508v-15.0293l-1.41016,1.22461c-1.9668,2.15234-3.9707,4.30469-5.97461,6.41992-2.00391-2.11523-3.9707-4.26758-5.97461-6.41992Z" style="fill: #e5d7b7;"/>
      <path d="m549.31114,2006.11057v-26.71875h5.71484v26.71875h-5.71484Z" style="fill: #e5d7b7;"/>
      <path d="m568.942,1992.00901l10.39062-12.61719h6.75391l-9.46289,11.16992,9.61133,15.54883h-6.38281l-7.08789-11.875-3.82227,4.3418v7.5332h-5.71484v-26.71875h5.71484v12.61719Z" style="fill: #e5d7b7;"/>
      <path d="m591.42931,2006.11057v-26.71875h17.18164v4.78711h-11.4668v6.08594h9.72266v4.60156h-9.72266v6.45703h12.02344v4.78711h-17.73828Z" style="fill: #e5d7b7;"/>
    </g>
  </g>
</svg>