<?xml version="1.0" encoding="UTF-8"?>
<svg id="Layer_1" data-name="Layer 1" xmlns="http://www.w3.org/2000/svg" viewBox="0 0 100 100">
  <defs>
    <style>
      .cls-1 {
        fill: #ffc90c;
      }

      .cls-2 {
        fill: #c8d1d7;
      }

      .cls-3 {
        fill: #272817;
      }
    </style>
  </defs>
  <path class="cls-2" d="M43.61496,29.88663s-9.92797-8.48774-1.37516-16.35471c8.55281-7.86697,15.36475,.08163,16.1342,1.45632,0,0,8.18202-5.58857,16.25453-1.74388,8.07252,3.84469,6.57336,12.17077,5.02928,14.86695s-6.44379,10.16449-13.09671,11.18025l-11.27374-2.87592-10.92-4.85273-.75241-1.67627Z"/>
  <path class="cls-1" d="M24.78464,40.88221s3.51541-8.10067,9.48499-10.67538c5.96958-2.57471,22.05537-1.2289,22.05537-1.2289,0,0,8.38524,1.05625,13.69868,10.09264,5.31345,9.03639,5.90864,19.11657-5.26631,26.202s-31.60494-4.98922-31.60494-4.98922c0,0-13.29607-9.48748-8.3678-19.40114Z"/>
  <path class="cls-3" d="M57.99967,29.21749l-20.72209,33.77308s4.95798,3.05167,7.76957,2.96359L62.96983,31.21473s-1.63367-.93559-4.97017-1.99724Z"/>
  <path class="cls-3" d="M67.16917,34.57767l-18.66052,31.95521s3.37622,1.76682,5.64261,1.25757l15.66732-29.59889c-.76473-1.18226-1.98112-2.76303-2.64941-3.61389Z"/>
  <path class="cls-3" d="M71.97033,42.52802s-10.76097,20.17988-12.29918,24.71873c0,0,5.51731-.36944,10.8748-6.25018,5.35749-5.88073,4.27688-15.57455,1.42438-18.46856Z"/>
  <polygon class="cls-3" points="81.91556 63.61019 67.79759 61.62655 71.98966 52.22206 81.91556 63.61019"/>
  <path class="cls-3" d="M34.14787,45.30934l1.74653,2.33702,1.96963,.511s3.0121-1.66841,2.54886-3.37334-1.61281-3.28875-3.1847-3.05781-3.88639,1.57904-3.08033,3.58312Z"/>
  <path class="cls-3" d="M29.43811,46.88727c-1.30971-1.38005-5.45292-2.24847-5.71638-2.30257-.09897,1.37105-.06898,3.67055,.88052,5.7639l.8629,.4456c3.60553,1.84799,5.0073,.91536,5.60352,.06376,.59609-.85168-.27769-2.54522-1.63056-3.9707Z"/>
  <path class="cls-3" d="M48.82332,27.92947s2.87866-10.01363,9.23519-13.63243,8.2897-2.6307,8.2897-2.6307c0,0-6.91788,1.27429-12.2275,8.4677l-5.29738,7.79543Z"/>
  <path class="cls-3" d="M62.70815,31.20363s6.57317-3.28918,7.2045-6.83377l.5711,1.08582s-1.19764,3.59966-7.58301,5.91446"/>
  <path class="cls-3" d="M51.40828,62.50562l-7.00684,16.02821s-2.24665-4.08483-8.98662-2.85938,6.73996,9.80358,6.73996,9.80358l3.06362,1.42969,10.21207-24.50896-4.02219,.10686Z"/>
  <path class="cls-3" d="M32.20382,75.09909l13.23217-12.27544-3.44399-1.60114-7.61303,6.93829s-4.53801-3.1298-7.96428-2.75509c-.739,.08082-1.42629,.32468-2.00516,.79814,0,0-1.06208-.20848-.97358,.80786,.0531,.60981,.52042,1.66056,1.87989,3.46185,3.62525,4.80343,6.88798,4.62553,6.88798,4.62553Z"/>
  <path class="cls-3" d="M35.72226,68.39612s-3.60069-2.30233-6.9139-3.12458c0,0-5.87231-1.15446-5.33546,2.1005s8.75648,5.47311,8.75648,5.47311"/>
</svg>