<?xml version="1.0" encoding="UTF-8"?>
<svg id="Layer_1" data-name="Layer 1" xmlns="http://www.w3.org/2000/svg" viewBox="0 0 100 100">
  <defs>
    <style>
      .cls-1 {
        fill: #ffc90c;
      }

      .cls-2 {
        fill: #d2dce2;
      }

      .cls-3 {
        fill: #c8d1d7;
      }

      .cls-4 {
        fill: #272817;
      }
    </style>
  </defs>
  <path class="cls-3" d="M42.7126,28.6151s-8.11375-6.93671-1.12387-13.36609,12.55704,.06671,13.18588,1.19019c0,0,6.68686-4.56733,13.28422-1.42521,6.59736,3.14212,5.37216,9.94671,4.11024,12.1502s-5.26627,8.30705-10.70345,9.1372l-9.21361-2.35038-8.9245-3.96596-.61491-1.36995Z"/>
  <path class="cls-1" d="M27.32328,37.60138s2.87301-6.62037,7.75173-8.72458,18.02503-1.00434,18.02503-1.00434c0,0,6.85294,.86324,11.19542,8.24834,4.34248,7.3851,4.82891,15.62326-4.30396,21.41391-9.13287,5.79065-25.82953-4.0775-25.82953-4.0775,0,0-10.86638-7.75376-6.83869-15.85582Z"/>
  <path class="cls-4" d="M54.46867,28.06824l-16.93539,27.60147s4.05197,2.49401,6.34978,2.42203l14.64754-28.39123s-1.33514-.76462-4.06193-1.63227Z"/>
  <path class="cls-4" d="M61.96257,32.44891l-15.25054,26.11579s2.75926,1.44396,4.61149,1.02776l12.80432-24.19006c-.62499-.96622-1.6191-2.25812-2.16526-2.9535Z"/>
  <path class="cls-4" d="M65.88637,38.94643s-8.79453,16.49226-10.05165,20.20169c0,0,4.50909-.30193,8.88756-5.10803,4.37848-4.8061,3.49533-12.72849,1.16409-15.09366Z"/>
  <polygon class="cls-4" points="74.01424 56.17609 62.47615 54.55494 65.90217 46.86901 74.01424 56.17609"/>
  <path class="cls-4" d="M34.9755,41.2195l1.42738,1.90996,1.6097,.41762s2.46168-1.36353,2.08309-2.7569-1.31809-2.68777-2.60273-2.49904-3.1762,1.29049-2.51744,2.92835Z"/>
  <path class="cls-4" d="M46.96919,27.01558s2.35262-8.18376,7.54757-11.14127,6.77486-2.14997,6.77486-2.14997c0,0-5.65373,1.04143-9.99308,6.92033l-4.32935,6.37091Z"/>
  <path class="cls-2" d="M32.88832,68.68451l46.48078,8.688s12.16319-16.50719,7.3848-19.98239c-4.7784-3.4752-11.87359,10.2808-11.87359,10.2808l1.448-4.7784s2.7512-9.7016-8.2536,.1448c0,0-4.1992-6.0816-10.2808,3.4752,0,0-3.4752-4.4888-6.3712,1.7376l-5.2128,1.448s.724-6.3712-13.32159-1.0136Z"/>
  <path class="cls-4" d="M58.31674,29.69143s5.372-2.68812,5.88797-5.58499l.46674,.8874s-.97878,2.94186-6.19731,4.83367"/>
  <path class="cls-4" d="M48.45559,57.32188l-12.71551,6.53439s.68634-3.74766-4.21581-6.45201-.79336,9.69051-.79336,9.69051l1.20229,2.4877,19.12536-10.25116-2.60297-2.00942Z"/>
  <g>
    <path class="cls-4" d="M22.76147,56.69666s-.15161-.06635-.3396-.08179l.3396,.08179Z"/>
    <path class="cls-4" d="M39.58228,55.66968l-8.26245,4.82263s-5.07983-5.58325-8.55835-3.79565c0,0-2.61328,.22333,5.18286,9.71136l14.40503-8.58008-2.76709-2.15826Z"/>
  </g>
  <path class="cls-4" d="M31.45938,42.61904c-1.15248-1.21438-4.7983-1.97854-5.03013-2.02615-.08709,1.20645-.0607,3.2299,.77482,5.07195l.75931,.3921c3.17269,1.62614,4.40617,.80547,4.93082,.05611,.52453-.74943-.24435-2.23967-1.43482-3.49402Z"/>
</svg>