<?xml version="1.0" encoding="UTF-8"?>
<svg id="Layer_1" data-name="Layer 1" xmlns="http://www.w3.org/2000/svg" viewBox="0 0 100 100">
  <defs>
    <style>
      .cls-1 {
        fill: #9bb6b8;
      }

      .cls-2 {
        fill: #272817;
      }
    </style>
  </defs>
  <path class="cls-1" d="M46.38686,63.08449l11.1139,12.38927s19.85927-5.28366,30.2444-26.05391l-25.68952-23.50317-13.84683,6.74122s-3.6439,2.00415-6.92342,5.28366c-3.27951,3.27951-4.55488,7.28781-4.55488,7.28781l10.20293,16.21537"/>
  <path class="cls-1" d="M18.87539,73.83401v4.73707s2.18634,4.37268,6.37683,6.92342,8.92756,2.73293,8.92756,2.73293l1.09317-3.8261,.72878-11.1139,14.75781-12.02488-7.47-7.83439-12.02488,16.39756-12.02488,.91098-.36439,3.09732Z"/>
  <path class="cls-1" d="M37.45929,43.7718l-4.19049-7.28781s-2.36854-10.74951,1.09317-14.57561,12.02488-8.01659,16.94415-6.01244,11.84268,13.11805,11.84268,13.11805l-2.18634,1.82195-8.56317-11.2961s-2.91512-1.63976-7.10561-.36439-8.01659,3.27951-8.01659,3.27951c0,0-1.82195,2.18634-1.82195,4.91927s-.1822,9.10976,4.73707,15.1222c4.91927,6.01244-2.73293,1.27537-2.73293,1.27537Z"/>
  <path class="cls-2" d="M41.99814,43.14112s-3.90994,1.24624-.91225,1.71241,6.88088-1.87855,6.88088-1.87855l6.55413-4.2244,2.37876-1.95552-2.9029-.8314-3.98914,3.95453s-4.80324,2.8856-8.00948,3.22294Z"/>
  <path class="cls-2" d="M54.40827,34.97892l1.94885-3.00271s2.81481-3.63559,3.39082-2.55048-2.84828,7.36932-2.84828,7.36932l-2.9029-.8314,.41152-.98473Z"/>
  <path class="cls-2" d="M20.52038,74.52612s4.30009,1.17906,6.48481,3.08635,3.57185,3.74524,3.57185,3.74524l.97099,2.84361s-.10403,.86695,.52017,1.38713,1.24841,.17339,1.17906-.76292-1.73391-3.98799-1.73391-3.98799c0,0-4.40412-4.82026-4.82026-5.02833s-4.09202-2.08069-4.68155-2.2194-2.04601-.72824-2.15004-.17339,.65888,1.1097,.65888,1.1097Z"/>
  <path class="cls-2" d="M20.72021,77.78331s.92072,.46036,1.08812,1.12997,.58591,1.00442,.96257,.66961-.20925-2.09254-.20925-2.09254l-2.17624-.66961s-.37666,.04185,.33481,.96257Z"/>
  <path class="cls-2" d="M25.4075,78.95513s1.25552,0,1.50663,1.08812,.75331,.87887,.75331,.87887l.1674-1.17182s-.37666-1.42293-1.63218-1.63218-1.71588,.58591-.79517,.83702Z"/>
  <path class="cls-2" d="M29.21593,84.18649s.75331-.58591,1.12997,1.00442,.79517-.04185,.79517-.04185l-.37666-1.54848s-1.21367-.58591-1.67403-.46036-1.38108,.75331,.12555,1.04627Z"/>
  <path class="cls-2" d="M24.11013,81.75914s1.38108-.1674,2.00884,1.42293,.96257,.37666,.96257,.37666l-.12555-1.54848s-1.08812-.87887-1.75773-.87887-2.42735,.0837-1.08812,.62776Z"/>
</svg>