<?xml version="1.0" encoding="UTF-8"?>
<svg id="Layer_1" data-name="Layer 1" xmlns="http://www.w3.org/2000/svg" viewBox="0 0 100 100">
  <defs>
    <style>
      .cls-1 {
        fill: #fee390;
      }

      .cls-2 {
        fill: #282716;
      }
    </style>
  </defs>
  <path class="cls-1" d="M50.15296,15.91576s-31.25885,48.34703-10.41962,57.72468,24.5903-17.50496,23.54834-21.04763-2.7091-23.33994-9.16926-35.00991c0,0-1.13082-5.16506-3.95945-1.66714Z"/>
  <path class="cls-2" d="M48.56288,35.85973l-.75084,11.48336s-.17667,.75084,.48583,1.14834,1.06-.3975,1.06-.3975l1.325-11.52753s.1325-.795-.75084-.97167-1.4575-.265-1.36917,.265Z"/>
  <path class="cls-2" d="M45.70163,42.56101s.05337-1.16349-.50169-1.57979-1.52642-.21349-1.52642-.21349c0,0-.99271,.40562-1.04608,.89664s.25618,.91799,.25618,.91799c0,0,.7472,.93933,1.04608,.97136,0,0,.76855,.3736,1.36631,.08539s.40562-1.0781,.40562-1.0781Z"/>
  <path class="cls-2" d="M53.45463,41.77705s-.08568-1.04527,1.0624-1.25089,1.71355,1.02813,1.71355,1.02813c0,0,.27417,1.09667-.32558,1.43939s-.99386,.34271-.99386,.34271c0,0-1.3023-.70256-1.45652-1.55933Z"/>
  <path class="cls-2" d="M42.72667,52.27986s-3.07213,1.53606-.47263,3.56164,11.91715,1.06343,11.91715,1.06343c0,0,2.31253-.86087,1.77238-2.54885s-1.08031-2.19438-2.83581-2.32941-10.38109,.2532-10.38109,.2532Z"/>
  <path class="cls-2" d="M42.1187,73.66071l-.6503,11.40194-6.15618,.34683s-3.2515,.43353-1.21389,1.64743,8.97415,.52024,8.97415,.52024l.47689-13.87308-1.43066-.04335Z"/>
  <path class="cls-2" d="M53.30387,73.05376l.39018,13.04937s-.6503,1.38731,.56359,1.60408,8.80074,.26012,8.80074,.26012c0,0,2.03761-.39018,.73701-1.43066s-4.76887-1.3006-7.54349-.82371-1.08383,.17341-1.08383,.17341l-.52024-14.0465-1.34395,1.21389Z"/>
</svg>