<?xml version="1.0" encoding="UTF-8"?>
<svg id="Layer_1" data-name="Layer 1" xmlns="http://www.w3.org/2000/svg" viewBox="0 0 100 100">
  <defs>
    <style>
      .cls-1 {
        fill: #000d34;
      }
    </style>
  </defs>
  <path class="cls-1" d="M80.44574,40.81348c-1.94147,.34784-4.27844,.7417-6.15814,.98682l-1.28455,.14978c-.18372,.01825-.3678,.03662-.5321,.04926-.00708,.00055-.01599,.00073-.02319,.00128l.02319-.06311-8.51782-.4444c-.04596-.00464-.09167-.0094-.13757-.01404l-7.98315-1.12946,3.94537-1.72614c-2.81805-7.73718-5.67145-5.2663-5.67145-5.2663l-4.7262,5.67145-4.05103,.27618c-17.40643-.47388-21.9306,4.33502-21.9306,4.33502-1.17529,2.36493,2.4574,4.7298,2.4574,4.7298,.12384,.06183,.24792,.1156,.37183,.1756,.1153,.0683,.24158,.13031,.36243,.19537,2.13489,1.28491,4.87933,1.98511,6.77789,2.34143,6.36676,1.51788,12.28705,1.12714,16.34888,.45349,.41376,.88873,1.47784,2.65204,3.30914,2.3468,2.4306-.40509,2.16052-3.64587,2.16052-3.64587l2.83569-.54016,4.86127,2.29559,1.35034-2.56567s-3.25867-.65283-2.74548-.88348l.14313-.03821c.05066-.00861,.09918-.01752,.17175-.02356,.18939-.01581,.4541-.03156,.76477-.04712l5.15863-.16742c1.38208-.034,2.44867-.05548,2.44867-.05548,0,0,5.28333,2.36346,9.10132,3.47852,2.3775,.70526,6.17786,1.49451,5.89758-.77783,0,0-.18085-2.38989-3.02747-3.39734-.07349-.03931-.14587-.08032-.22345-.11359-.32385-.13879-.5553-.28979-.72516-.44421-.22723-.35187-.35046-.91962,.4386-1.5813,0,0,4.94067-.91742,4.5387-4.84943,0,0,2.28448-1.76166-5.72974,.28772Z"/>
</svg>