<?xml version="1.0" encoding="UTF-8"?>
<svg id="Layer_1" data-name="Layer 1" xmlns="http://www.w3.org/2000/svg" viewBox="0 0 100 100">
  <defs>
    <style>
      .cls-1 {
        fill: #050606;
      }

      .cls-2 {
        fill: #000d34;
      }

      .cls-3 {
        fill: #eab86b;
      }

      .cls-4 {
        fill: #818a81;
      }

      .cls-5 {
        fill: #998da5;
      }

      .cls-6 {
        fill: #93a7a6;
      }

      .cls-7 {
        fill: #9d5933;
      }

      .cls-8 {
        fill: #9ea481;
      }

      .cls-9 {
        fill: #c35545;
      }

      .cls-10 {
        fill: #8e97a8;
      }

      .cls-11 {
        fill: #945137;
      }

      .cls-12 {
        fill: #ac4430;
      }

      .cls-13 {
        fill: #aec0bb;
      }

      .cls-14 {
        fill: #b18179;
      }

      .cls-15 {
        fill: #aa8a79;
      }

      .cls-16 {
        fill: #c04e34;
      }

      .cls-17 {
        fill: #ae322f;
      }

      .cls-18 {
        fill: #c8d8e2;
      }

      .cls-19 {
        fill: #608499;
      }
    </style>
  </defs>
  <path class="cls-2" d="M6.84381,43.38445l16.2986-7.68095,14.98722-2.71643,2.15441,.28101,5.71388-7.2126s4.87085,1.21771,5.99489,2.06074,5.43287,7.49361,5.43287,7.49361l-4.87085,1.40505s14.98722,4.4025,19.01504,3.4658,12.36446-4.77718,12.36446-4.77718c0,0,5.15186-.74936,5.15186,.18734s-3.09111,5.52654-3.09111,5.52654l-4.30883,3.37213,2.71643,3.93415s4.77718,6.74425,3.55947,7.58728-11.6151-3.93415-11.6151-3.93415l-4.87085-3.93415s-4.68351-1.49872-7.68095,.37468-1.96707,5.3392-1.96707,5.3392l-.65569,5.15186s-1.59239,.28101-2.15441,.09367-7.02526-5.80755-7.11893-6.46324-3.93415,1.03037-3.93415,1.03037c0,0,.9367,7.68095-2.06074,8.24297s-7.2126-6.36957-7.2126-6.36957c0,0-26.32131-2.52909-28.8504-6.36957s-4.77718-4.49617-2.99744-6.08856Z"/>
  <path class="cls-16" d="M50.57504,52.55766l8.70629,7.27108,2.14785-.19241,.41866-5.17651s-.3264-4.60403,2.17005-6.02841c.27838-.15883,.59186-.27813,.9448-.34709,3.5181-.68744-14.38765,4.47335-14.38765,4.47335Z"/>
  <path class="cls-6" d="M6.34696,43.30029s-.817,1.58695,.48464,2.80724,3.33547,4.149,3.33547,4.149c0,0,26.35245,5.89959,28.47057,5.67512,2.11813-.22447,13.9143-3.31588,13.9143-3.31588l11.53836-3.80706s5.22034-2.37576,8.31176-.42329l-.42903-8.02927s-8.39921,.2371-19.27944-3.51399-14.62578-4.08382-14.62578-4.08382l-15.6978,3.01738-16.02305,7.52458Z"/>
  <polygon class="cls-13" points="30.28242 40.37109 30.81026 44.76975 37.14433 45.29759 65.29574 43.53812 60.54519 40.89893 30.28242 40.37109"/>
  <path class="cls-19" d="M24.44907,40.87025s3.42769,7.49013,3.42769,8.50574,2.41208,1.01561,2.41208,1.01561l-1.52342-11.17172s-4.06244-.63476-4.31635,1.65037Z"/>
  <path class="cls-14" d="M28.7566,39.22333s0,2.99988,.27272,4.29529,.95451,6.34066,.95451,6.34066c0,0,2.11355,.81815,3.06806,.47725s-.88633-4.29529-1.15905-4.97708-.88633-3.06806-.88633-3.06806l.13636-4.63618-2.38627,1.56812Z"/>
  <path class="cls-10" d="M25.79635,39.47961s30.2637,1.46995,32.07952,1.81582,2.16169-1.38348,1.29702-1.46995-22.56807-4.58279-22.56807-4.58279c0,0-7.86856-.60527-9.77085,.69174s-3.89105,3.54518-1.03761,3.54518Z"/>
  <path class="cls-17" d="M25.86556,50.5572l2.49449-1.19735s1.19735,.74835,2.49449,.74835h4.29052s3.34262,.19956,3.54218,.89802,.59868,2.49449-2.69405,2.54438-6.43578-.64857-6.43578-.64857l-3.69184-2.34482Z"/>
  <path class="cls-8" d="M6.53361,45.46689l4.07522,5.05688s13.23364,5.42208,28.13292,5.52361l-24.64755-5.12749-7.56059-5.45301Z"/>
  <polygon class="cls-4" points="45.97046 25.46907 40.24285 33.0676 52.54313 37.01488 57.42569 35.53465 51.97976 27.64007 45.97046 25.46907"/>
  <circle class="cls-3" cx="16.43815" cy="43.85928" r="2.32676"/>
  <path class="cls-1" d="M16.2029,45.10421s-1.84967-1.38725-.15414-2.46622c0,0,3.23691,.92483,.15414,2.46622Z"/>
  <path class="cls-7" d="M36.62849,55.41049s1.57168,.39292,2.51469,1.25734,3.85061,4.47928,3.85061,4.47928c0,0,2.82902,2.35752,4.4007-.23575s.70726-7.70122,.70726-7.70122l-11.47325,2.20035Z"/>
  <path class="cls-11" d="M71.28674,40.33911l12.6476-4.6356s4.62552-.7723,5.15186,.18734-3.09111,5.52654-3.09111,5.52654l-4.30883,3.37213s6.99494,8.42503,6.2759,11.52143-11.6151-3.93415-11.6151-3.93415l-4.63718-4.11852-.42315-7.91916Z"/>
  <path class="cls-9" d="M11.40964,41.2808s-.10571,.73996,.89853,.73996,6.02543-2.95986,6.65968-3.85839-.15856-.84567-.15856-.84567l-7.39965,3.9641Z"/>
  <path class="cls-5" d="M22.92394,44.93008v6.09492s-.43023,1.00387,1.57751,1.00387,3.44184-3.08331,3.44184-3.08331l-1.57751-4.51741s-3.37013-1.5058-3.44184,.50193Z"/>
  <path class="cls-18" d="M29.81577,35.61872l4.64948-.51661s4.72328,.2952,7.67533,1.40222,20.81194,5.46129,20.81194,5.46129c0,0,3.69006,.44281,4.57567,0s-.36901-.66421-1.32842-.81181-21.03334-4.57567-21.03334-4.57567l-11.21778-2.14023s-4.13287,.2952-4.13287,1.18082Z"/>
  <path class="cls-12" d="M75.47133,42.19717s-1.02461,3.31492-.66298,4.64089,3.1341,5.2436,3.1341,5.2436l6.62984,2.59166s.72325-.78353,.18081-1.74787-5.30387-7.29282-5.30387-7.29282c0,0-.30136-1.08488,.12054-1.62732s3.01356-2.59166,3.01356-2.59166c0,0,3.31492-3.43546,3.31492-4.27926s-6.32848,.4219-8.31743,2.41085-2.10949,2.65193-2.10949,2.65193Z"/>
  <path class="cls-15" d="M20.70075,43.9392l-.2722,1.66453-1.5201,2.21719s-.78668,2.18321-.01076,2.43835,2.43416-1.02241,2.43416-1.02241l1.26299-4.46848s-.28269-.91838-1.89409-.82918Z"/>
</svg>