<?xml version="1.0" encoding="UTF-8"?>
<svg id="Layer_1" data-name="Layer 1" xmlns="http://www.w3.org/2000/svg" viewBox="0 0 100 100">
  <defs>
    <style>
      .cls-1 {
        fill: #000d34;
      }
    </style>
  </defs>
  <path class="cls-1" d="M80.45789,44.66112s-9.42236,4.21503-17.12109,4.88593c.36963-2.81567-.36975-5.56293-2.63501-7.77423-.24219-.23639-.48657-.46185-.73145-.68585,1.25-.38379,2.96033-.46222,4.31299,1.14801,2.42615,2.88831,4.73682-11.66882-1.84863-14.67273-6.58533-3.00385-8.54932-4.04364-8.54932-4.04364l-3.69714-2.54169s-10.74451-3.35046-12.59314,1.27081c0,0-6.02161,7.2489-2.61597,12.82092l-.84985,.46539s-13.63306,7.27856-14.78833,7.74072c-1.15527,.4621-3.00391,3.23492-3.00391,3.23492-2.51709,4.27155,.60889,6.83148,7.44409,10.23871-2.28516,3.70898,2.83838,7.32227,2.83838,7.32227,2.07959,3.00385,9.24268,1.50195,6.58545,.23108-1.21875-.58282-1.72876-2.30713-1.9281-4.00403,1.79578,.83875,3.71204,1.7417,5.7406,2.73315,.56946,.27826,1.14307,.50854,1.71814,.71509,1.45728,4.74573,9.95081,6.67902,9.95081,6.67902,6.23877-2.65723-.69324-5.31451-.69324-5.31451,0,0-.27942-.25146-.73572-.63464,3.4884-.58893,6.75195-2.18646,9.42761-4.32898,2.28491,2.51215,4.70984,5.70532,4.70984,7.96747,0,4.27472,8.43396,4.96796,11.43774-.69318,3.00391-5.66113,2.54175-8.66498,8.20288-8.08728,5.66113,.57764-.80872-10.74457-.57764-14.67273Z"/>
</svg>