<?xml version="1.0" encoding="UTF-8"?>
<svg id="Layer_1" data-name="Layer 1" xmlns="http://www.w3.org/2000/svg" viewBox="0 0 100 100">
  <defs>
    <style>
      .cls-1 {
        fill: #000d34;
      }
    </style>
  </defs>
  <path class="cls-1" d="M84.87115,50.98431l-.43207-2.77118,.00323-.02032-.00696-.00342-.04425-.28387s-3.00024-2.36835-3.60028-2.84198c-.27063-.21362-1.98218-1.41516-3.77924-2.66974l-2.65826-2.18219s-.43274-.19226-1.19122-.49774c-.40167-.27899-.6521-.45276-.6521-.45276,0,0-.65338-.16125-1.61761-.41272-1.88611-.68298-4.42133-1.51373-7.29572-2.23511-.36621-.16449-.60504-.31024-.67603-.42853,.27148-.73828,.88116-2.77673-.12451-3.99005-.00446-.02472-.00702-.03857-.00702-.03857-.00208-.00165-.0047-.00311-.00677-.00476-.08691-.34137-1.34924-3.26459-18.58868-1.92346-.30811,.01996-.48627,.03357-.48627,.03357,0,0-.00708,.01245-.00781,.01379l-1.85541,2.55109c-.01788,.00989-.04022,.03363-.05701,.04028-.60004,.23688-3.12024-.82892-3.12024-.82892,0,0-.38556,.16815-1.0191,.44171l-10.91779,4.44336c-.36346,.11853-.63831,.19373-.7843,.20685-.60791,.0545-1.05688,.59186-1.38287,1.23059-.39136,.61481-.81207,1.48053-.65735,2.22522,.00244,.01178,.00812,.02582,.01093,.03784,.0033,.0163,.01099,.03613,.01538,.05334,.3576,1.34381,2.73395,4.10925,2.73395,4.10925l3.18738-.21985-1.98724,1.44482c-.45581,.26239-1.06793,.34619-1.69177,.33899l-2.16925-.30127c-.35254-.08545-.57941-.15613-.57941-.15613-1.69617-.93286-3.30994-1.6026-4.81421-2.08728-2.0213-.78461-4.90619-1.44495-8.57019-1.08179,0,0-4.41486,.21649-1.50751,4.22198l2.55688,4.65356-.9751,3.79877s-1.73975,5.14587-.85321,6.24951c.8866,1.1037,.90656,2.10492,3.53473,1.2254,0,0,9.57379-5.03772,13.57623-5.26294,.01117,.00995,.03168,.02765,.04681,.04089-.21643,2.65723-.0802,12.16425,12.72961,13.53772l1.60016-1.89014,2.58484-.25201,2.9541-2.77222,2.45123-.39325c.94208-.03333,2.00348-.05023,2.95514-.01605l2.41064,1.38879s-.93433,2.45392-.73206,3.96851l.06708,2.25476,3.85706-.37335,7.93036-9.17053c.48383-.11957,.96338-.23224,1.45569-.36591l-.03619-.08215c3.68744-1.2121,7.41608-3.0434,10.72791-5.80145,0,0-.02039-.00092-.02692-.00122,.50391-.26398,.802-.42169,.802-.42169l6.72058-6.27606Zm-58.45575,6.62207c.00262-.00012,.00549-.00049,.00812-.00061-.00012,.0014-.00018,.00281-.00031,.00421l-.00781-.0036Z"/>
</svg>