<?xml version="1.0" encoding="UTF-8"?>
<svg id="Layer_1" data-name="Layer 1" xmlns="http://www.w3.org/2000/svg" viewBox="0 0 100 100">
  <defs>
    <style>
      .cls-1 {
        fill: #6a6a4d;
      }

      .cls-2 {
        fill: #000d34;
      }

      .cls-3 {
        fill: #e5d489;
      }

      .cls-4 {
        fill: #b3ac79;
      }

      .cls-5 {
        fill: #c0ba9e;
      }

      .cls-6 {
        fill: #0b080a;
      }

      .cls-7 {
        fill: #807e75;
      }

      .cls-8 {
        fill: #959576;
      }

      .cls-9 {
        fill: #5b5544;
      }

      .cls-10 {
        fill: #3a3120;
      }

      .cls-11 {
        fill: #7a7769;
      }

      .cls-12 {
        fill: #7b663d;
      }
    </style>
  </defs>
  <path class="cls-2" d="M8.10303,73.14057c3.90121,6.55901,25.52144,4.59116,25.52144,4.59116,0,0,1.08027,3.24082,3.51089,2.83572s2.16054-3.64592,2.16054-3.64592l2.83572-.54014,4.86123,2.29558,1.35034-2.56565s-4.05102-.8102-2.43061-.94524,8.37211-.27007,8.37211-.27007c0,0,9.04728,4.05102,12.01803,4.05102s2.29558-1.35034,2.29558-1.35034c0,0-.67517-2.70068-2.56565-3.51089s-.8102-2.02551-.8102-2.02551c0,0,3.24082-1.08027,4.18606-3.64592s-1.08027-1.62041-1.08027-1.62041c0,0-8.23708,1.62041-11.74796,1.89048s-17.01429-1.48537-17.01429-1.48537l4.32109-1.89048s-1.08027-2.43061-2.29558-4.18606-3.37585-1.08027-3.37585-1.08027l-4.72619,5.67143-13.90851,1.08027-10.93776,2.97075s-1.82473,1.2161-.54014,3.37585Z"/>
  <path class="cls-9" d="M33.48943,65.7137l4.72619-5.67143s2.85341-2.47087,5.67143,5.26633l-4.32109,1.89048-7.46851-.54411,1.39198-.94126Z"/>
  <path class="cls-8" d="M7.50778,70.32494s5.34218-5.69726,26.81774-4.08483l13.67598,1.93492,8.57876,.44758-2.29558,6.24946-8.37211,.27172-6.61667,1.76615s-14.90683,5.34699-29.33072-1.85521c0,0-3.63268-2.3649-2.4574-4.7298Z"/>
  <path class="cls-7" d="M8.64317,69.76472s-2.9844,.59351,.11229,4.10308,10.94161,4.23213,10.94161,4.23213c0,0-.53424-15.01886-11.05389-8.33521Z"/>
  <path class="cls-9" d="M65.74608,72.0603s4.9407-.91746,4.53873-4.84947c0,0,2.61284-2.01396-7.53705,.76722l-6.0576,.7064-2.40548,6.21157,7.25715,2.8641s8.14737,3.12565,7.74172-.16342c0,0-.20467-2.71366-3.62146-3.57678,0,0-1.23892-.85035,.084-1.95962Z"/>
  <polygon class="cls-8" points="32.71374 66.21475 33.48943 65.7137 28.80677 66.03303 32.71374 66.21475"/>
  <path class="cls-1" d="M11.8015,73.57394l1.24435,1.54601,1.5083-.15083s1.13123-3.05431-.07542-3.80846-1.47059,.22625-1.47059,.22625c0,0-.22625,1.9985-1.20664,2.18704Z"/>
  <circle class="cls-4" cx="12.66208" cy="71.67757" r="1.25196"/>
  <path class="cls-6" d="M12.32539,70.91474s-.79612,.73488-.36744,1.28604,1.2248,.18372,1.2248,.18372c0,0,.67364-1.65348-.85736-1.46976Z"/>
  <polygon class="cls-10" points="17.94677 71.09023 55.79636 70.73896 55.09382 72.93441 18.47368 72.31968 17.94677 71.09023"/>
  <path class="cls-5" d="M25.27198,68.28458s4.04168-.71324,5.58702-.59436,8.67772,1.18873,8.67772,1.18873l7.48899,1.06986s-.47549,.59436-1.66422,.59436-16.04784-1.3076-16.04784-1.3076c0,0-3.68506,.95098-4.04168-.95098Z"/>
  <path class="cls-12" d="M23.32373,73.80724l-.25014,1.2507s.62535,.87549,1.37577,.87549,7.129-1.62591,7.129-1.62591c0,0,4.87774,.25014,5.50309,.37521s3.62703,.37521,3.62703,.37521l2.62647-1.00056s.75042-1.12563,0-1.2507-19.01066-.50028-19.01066-.50028c0,0-1.87605,.87549-1.00056,1.50084Z"/>
  <path class="cls-3" d="M16.64317,69.5116s-.16538,.60641,0,.88205,1.26794,1.65384,1.26794,1.65384l-.27564-2.53588h-.9923Z"/>
  <path class="cls-11" d="M56.87384,70.77692l6.57338-2.05034s.5843,.72039,.29215,1.44078-3.57884,2.38282-3.57884,2.38282c0,0-.65734,1.71785-.07304,2.6599s-3.94403-1.44078-3.94403-1.44078l.73038-2.99238Z"/>
</svg>