<?xml version="1.0" encoding="UTF-8"?>
<svg id="Layer_1" data-name="Layer 1" xmlns="http://www.w3.org/2000/svg" viewBox="0 0 100 100">
  <defs>
    <style>
      .cls-1 {
        fill: #9d9f8c;
      }

      .cls-2 {
        fill: #b5b87e;
      }

      .cls-3 {
        fill: #9d9698;
      }

      .cls-4 {
        fill: #8d848e;
      }

      .cls-5 {
        fill: #b88268;
      }

      .cls-6 {
        fill: #b1beb7;
      }

      .cls-7 {
        fill: #a4b1b4;
      }

      .cls-8 {
        fill: #cad0c3;
      }

      .cls-9 {
        fill: #d2d2b9;
      }

      .cls-10 {
        fill: #d1e2e0;
      }

      .cls-11 {
        fill: #0e0f11;
      }
    </style>
  </defs>
  <path class="cls-1" d="M91.84823,48.0456c-1.63867-5.38385-6.32019-7.72461-6.32019-7.72461,0,0-13.57666,4.68158-14.98108,10.06543-1.40454,5.38385-15.44934-5.14978-15.44934-5.14978l6.55432,.93634c0-4.21344-4.2135-9.83136-4.2135-9.83136-4.84412-.33405-8.48535,3.85138-10.17993,6.28198l-2.69446-.89813s-20.10718-2.45056-39.78174,4.62671c0,0-6.71118,1.27838-.95874,8.46906l9.10815,6.39166,6.71143,4.31439,11.66479,3.67523,6.82568-1.53229c.83374,2.53326,2.11255,4.46027,2.11255,4.46027,0,0,12.50989-3.66669,9.27466-7.54907-.87842-1.05402-2.1582-1.94049-3.55518-2.59888l1.96069-1.5686s14.54114-1.75769,20.45349,1.59796c5.91235,3.35559,12.23254,10.84619,12.23254,10.84619,0,0,6.32007,.46814,7.72461-1.87268,1.40454-2.34076,5.14966-17.55597,3.51123-22.93982Z"/>
  <ellipse class="cls-10" cx="13.46594" cy="51.99513" rx="3.46567" ry="3.73928"/>
  <path class="cls-11" d="M12.17188,53.92181s-.52387-1.30968-.52387-2.00817,1.57161-2.00817,1.57161-2.00817l1.83355,.61118s.52387,2.35742-.08731,3.05592-2.09549,.34925-2.79398,.34925Z"/>
  <path class="cls-2" d="M12.66654,61.11207s4.7346,.81165,5.81679-.67637,4.1935-6.22262,4.1935-6.22262c0,0,18.12675-5.41097,23.40245,3.11131l.67637,3.92295-8.25173,6.22262s-8.387,1.35274-9.73975,1.35274-8.52228-1.35274-8.52228-1.35274l-7.57536-6.35789Z"/>
  <path class="cls-7" d="M30.49512,48.92141l39.8655,8.28665s.67189,0,.67189-1.79171-17.69312-7.61476-17.69312-7.61476l-9.40647-4.03134-8.06269,.44793-5.37512,4.70323Z"/>
  <path class="cls-4" d="M24.45607,48.49673s11.42981-.50799,12.82679-.50799,11.17582,2.53996,11.17582,2.53996l20.95466,5.07992s1.39698,.88899-.127,1.26998-26.41557-4.57193-26.41557-4.57193c0,0-12.1918-2.28596-16.50973-2.03197s-1.90497-1.77797-1.90497-1.77797Z"/>
  <path class="cls-5" d="M17.55221,55.67878s-1.09129,3.74157-.4677,4.36516,3.42977-4.98876,3.42977-4.98876l-2.96207,.62359Z"/>
  <path class="cls-8" d="M69.86064,51.51951s2.44555,7.80246,.58227,11.17964c0,0,9.7416,9.02179,10.16948,10.15894s6.86952,.24149,7.72461-1.87268,11.22808-23.57959-2.80896-30.66443c0,0-14.38641,3.97834-15.66741,11.19853Z"/>
  <path class="cls-8" d="M30.12744,68.7312l.78425,1.96063s1.17638,1.82992,2.74488,1.43779,4.84736-4.65966,4.84736-4.65966l-8.37649,1.26124Z"/>
  <path class="cls-8" d="M47.25851,42.6236s3.63745-6.25587,10.17993-6.28198c0,0,3.84515,5.1802,4.2135,9.83136l-6.55432-.93634-7.83911-2.61304Z"/>
  <path class="cls-9" d="M16.62956,46.74171s-.39874,.79949-.04561,1.3867,15.95791-.32154,15.95791-.32154l8.81416,.69624s1.76163-1.05938-.14285-1.83306-9.03834-1.60086-24.5836,.07166Z"/>
  <path class="cls-3" d="M4.78232,46.35218s-2.63461,1.748,.79588,2.2158,9.51183-2.65084,9.51183-2.65084c0,0,4.05422-2.80677-4.21015-1.71525l-6.09756,2.15029Z"/>
  <path class="cls-6" d="M26.40721,56.28845s10.34596-.96241,12.27079,2.40604-5.05268,8.42113-5.05268,8.42113l-8.42113-4.57147,1.20302-6.2557Z"/>
</svg>