<?xml version="1.0" encoding="UTF-8"?>
<svg id="Layer_1" data-name="Layer 1" xmlns="http://www.w3.org/2000/svg" viewBox="0 0 100 100">
  <defs>
    <style>
      .cls-1 {
        fill: #000d34;
      }
    </style>
  </defs>
  <path class="cls-1" d="M88.66602,37.74817c-.25488-.1535-.40918-.23175-.40918-.23175,0,0-14.32172,3.96179-15.65643,11.15234-3.1601,2.47217-14.77399-6.23669-14.77399-6.23669l6.55432,.93634c0-4.21344-4.2135-9.83136-4.2135-9.83136-2.62769-.18121-4.89734,.97046-6.69843,2.44751-2.27032,1.76422-3.48151,3.83447-3.48151,3.83447l-2.69446-.89813s-15.13599-1.84039-31.99225,2.29279c-.49841,.04089-1.05444,.09943-1.69189,.18359l-6.0976,2.15033s-6.71118,1.27838-.95874,8.46906l8.99933,6.31531c-.09436-.01422-.15637-.02448-.15637-.02448l7.57538,6.35785s7.16956,1.35278,8.52228,1.35278c.20551,0,.58661-.03381,1.06268-.08679l.34613,.10901,.73871,1.84686s1.17639,1.82996,2.74487,1.43781c1.2796-.31989,3.69623-3.21753,4.54346-4.27454,.83356,2.43915,2.04614,4.27545,2.04614,4.27545,0,0,12.50989-3.66669,9.27466-7.54907-.87842-1.05402-2.1582-1.94049-3.55518-2.59888l1.96069-1.5686s14.54114-1.75769,20.45349,1.59796c5.91235,3.35559,12.23254,10.84619,12.23254,10.84619,.42792,1.13715,6.86957,.24146,7.72461-1.87268,.1806-.30096,.40027-.81763,.64178-1.49591,2.2865-5.39917,8.77136-22.50085-3.04156-28.93677Z"/>
</svg>