<?xml version="1.0" encoding="UTF-8"?>
<svg id="Layer_1" data-name="Layer 1" xmlns="http://www.w3.org/2000/svg" viewBox="0 0 100 100">
  <defs>
    <style>
      .cls-1 {
        fill: #000d34;
      }
    </style>
  </defs>
  <path class="cls-1" d="M91.97821,50.16809c.93335-1.52869,1.40955-2.97479,1.61621-4.28174,.99902-4.41119-1.00049-6.18579-1.00049-6.18579l-8.00458,1.84723-5.95215,3.4892c-8.3197,1.29419-12.29803,.09363-13.00781-.15802-.03369-.01904-.06519-.03674-.09967-.05621l3.8714-1.22253s1.64197-4.51538,1.64197-6.15735c0-.1087-.02728-.22131-.07263-.33624,.00885-.16351,.00989-.30957-.00867-.41144-.21381-1.17615-4.81146-3.42151-4.81146-3.42151l-8.6535,.47473-9.23608,4.10492c-.75586-1.2887-2.97253-2.71393-4.8833-3.76862-1.23462-.83289-2.41174-1.49683-3.12134-1.56781-2.05243-.2052-7.38885,2.25775-7.38885,2.25775l-1.56177,3.12354-9.76825,.89429-3.24854,1.49005c-4.24652,1.38934-6.56183,2.90723-6.56183,2.90723l-4.10492,.82098-3.28394,1.43671,1.70508,4.61371-3.61755-1.85767-1.271,2.54205c.16003,.26794,.35199,.52795,.56104,.78363-.49963-.25085-.98022-.50964-1.42291-.78363,0,0,.88489,.80585,2.60718,1.9776,1.26361,1.06702,2.94177,2.01202,4.84485,2.84656,5.09424,2.60297,12.76367,5.41046,22.8808,6.11292l1.3269,3.04419s5.18182,3.03088,5.57294,3.03088c.39105,0,2.05316-4.59521,2.05316-4.59521l-1.17786-1.37421c2.14771-.08771,4.38507-.27765,6.7066-.57562l6.49713,.09216s11.92804,5.47516,14.07898,5.47516,5.08411-6.25732,5.08411-6.25732l-.87994-3.03094-3.71527-1.56433,1.35486-.85303,1.65344-.94415c.62573-.22919,1.29596-.41589,1.98865-.55969l7.5177-.47845-1.92999-.04181c1.15717-.00647,1.92999,.04181,1.92999,.04181l11.24371,8.21277,2.24872-.78217c4.67218-3.94135-.20111-10.35455-.20111-10.35455Z"/>
</svg>