<?xml version="1.0" encoding="UTF-8"?>
<svg id="Layer_1" data-name="Layer 1" xmlns="http://www.w3.org/2000/svg" viewBox="0 0 100 100">
  <defs>
    <style>
      .cls-1 {
        fill: #000d34;
      }
    </style>
  </defs>
  <path class="cls-1" d="M84.3645,54.98212l4.30884-3.37213s3.61743-4.56689,3.09106-5.52655c0-.31592-.5907-.43774-1.36755-.4635-1.53998-.09747-3.7843,.27612-3.7843,.27612l-12.64758,4.63562,.00085,.01617c-2.16998-.03107-9.40271-.38257-18.37848-3.44257l4.5166-1.30286s-.01825-.02802-.04083-.06281l.04083-.01239-1.16003-1.68164c-.6355-.95007-1.44147-2.13373-2.2027-3.19312l-2.08319-3.01984-6.00934-2.17102-5.7276,7.59857,.15942,.05115-.04553,.0575c-1.60535-.35492-2.28894-.41791-2.28894-.41791l-15.69781,3.0174-3.34552,1.57104c-.10522-.03723-.21521-.03009-.21521-.03009l-1.98444,1.06311-10.47784,4.92047s-.81702,1.58698,.48462,2.80725,3.33545,4.14899,3.33545,4.14899c0,0,.09943,.02228,.27606,.06165l.16571,.20563s12.92633,5.29205,27.61072,5.51428c.32513,.17316,.65051,.37939,.92365,.62976,.07355,.06744,.16241,.15637,.25757,.25421,.74548,1.08081,1.99731,2.74255,3.34857,3.92291,.15161,.18683,.24445,.30219,.24445,.30219,0,0,.44611,.36768,1.07892,.65314,.62982,.3457,1.25342,.52026,1.8316,.41187,.64447-.12085,1.09875-.58203,1.42792-1.21399,.0202-.03113,.04242-.05408,.06226-.08679,1.22833-2.02667,.96912-5.57928,.79706-7.03925,.20087-.08508,.51892-.21686,.89142-.36182,.76599-.19519,1.45636-.37262,2.01416-.51666l8.18427,6.83508,2.14783-.19238,.41864-5.17651s-.20764-2.97028,1.00464-4.87738c.20038-.21198,.44354-.41083,.71204-.60022l.52582-.17352s1.23126-.55688,2.84827-.90973c2.34479-.15692,4.5376,.5437,4.5376,.5437l4.87085,3.93414s10.89606,7.03052,11.61511,3.93414c.38202-.26453,.17352-1.11017-.29193-2.14581-1.31293-3.74683-5.98395-9.37561-5.98395-9.37561Z"/>
</svg>