<?xml version="1.0" encoding="UTF-8"?>
<svg id="Layer_1" data-name="Layer 1" xmlns="http://www.w3.org/2000/svg" viewBox="0 0 100 100">
  <defs>
    <style>
      .cls-1 {
        fill: #000d34;
      }
    </style>
  </defs>
  <path class="cls-1" d="M92.44769,54.53302c.00897-.02814,.01849-.05554,.02618-.08496,.03992-.1499,.06787-.31104,.06787-.49823,.00366-.25006-.02576-.49646-.06921-.7406-.01343-.07959-.03259-.15692-.05011-.23517-.03088-.13129-.06647-.26123-.1087-.39001-.14642-.46429-.35913-.90332-.62335-1.31799-.04828-.078-.09644-.15533-.14722-.23157-.04059-.05835-.07928-.11731-.12164-.17456-1.21295-1.72565-2.97577-2.93054-2.97577-2.93054l-5.99994-2.99377,3.24518-2.34375s3.24512-3.78595,3.24512-4.50708c.42102-1.09247,.1803-2.34375,.1803-2.34375,0,0-4.60425-.22784-6.4903,.1803-.80231,.17365-2.66199,.96375-4.53375,1.81354l-5.3819,2.15277s-.32507,.052-.81891,.11566c-1.30005-.15875-3.53021-.43274-5.61499-.69562-1.07806-1.13965-4.20294-2.84546-4.20294-2.84546l-12.07904-1.98315s-1.77142-.83801-3.16919-1.3092c-.26715-.24066-.54004-.49615-.67303-.6524-.30707-.36078-1.93683,.23969-1.93683,.23969l-5.69263,3.59869c-1.00598,.57526-1.76666,1.02136-1.97797,1.14575-6.30444,.56641-13.08435,2.04419-18.77533,5.29053-.04004-.02527-.06525-.04059-.06525-.04059l-8.01306,5.30438-1.22412,1.89178-.09241,.06689-1.61786,.86285c.03082,.08734,.07019,.16791,.10901,.24884-.01874,.01862-.03644,.04016-.05505,.05933-.04858-.04077-.08319-.0697-.08319-.0697,0,0-.46686,.47119-.61664,1.04846-.47723,1.00745-.41809,2.354,1.3363,3.94885,1.87982,1.70898,6.06744,2.56665,9.95367,2.99695,1.94824,.34839,3.88831,.61823,4.95172,.5473,.23596-.01575,.69128-.06494,1.30957-.13965,1.22363,.02997,1.99377,.02081,1.99377,.02081l14.53851-2.15381c.52234,.43848,2.98145,1.77771,5.43579,2.90808,1.84406,.90826,3.7002,1.69653,4.72473,1.76971,2.52399,.1803,1.08173-1.8028,1.08173-1.8028l-1.23853-4.7771c3.14838-.57385,5.38031-1.06067,5.74615-1.33502,.02759-.02069,.0155-.0368,.01495-.0542l3.04938-.68451c.27118,.54236,1.07538,.9599,2.12756,1.28137,2.49988,.92889,6.09174,1.20782,7.43488,1.26617,1.8288,.07953,1.27222-.87463,1.27222-.87463l-1.42767-4.45703c2.45966-.67413,5.11249-1.32892,5.73309-1.4809l12.55688,5.66254s4.5813,1.85065,5.61932-.00446c.04938-.0816,.09027-.17126,.12262-.26904Z"/>
</svg>