<?xml version="1.0" encoding="UTF-8"?>
<svg id="Layer_1" data-name="Layer 1" xmlns="http://www.w3.org/2000/svg" viewBox="0 0 100 100">
  <defs>
    <style>
      .cls-1 {
        fill: #050606;
      }

      .cls-2 {
        fill: #696352;
      }

      .cls-3 {
        fill: #eab86b;
      }

      .cls-4 {
        fill: #efe4c2;
      }

      .cls-5 {
        fill: #987c7f;
      }

      .cls-6 {
        fill: #9e9599;
      }

      .cls-7 {
        fill: #8d8180;
      }

      .cls-8 {
        fill: #72716b;
      }

      .cls-9 {
        fill: #2c282b;
      }
    </style>
  </defs>
  <path class="cls-9" d="M92.49868,44.85725c-.82446-.5152-11.43848,1.6488-11.43848,1.6488l-6.90417,2.47314s-6.18298-.8244-7.00732-1.23657c-.11267-.05634-.30298-.13916-.53967-.23761l2.48071-1.40802s-.20825-1.35364-2.29077-.93713l-4.17139,.80731c-.61572-.23041-1.04346-.38855-1.04346-.38855,0,0-12.48206-1.2597-19.39197-2.02911l4.03772-2.19592,.41211-3.19446s-.61816-4.01892-2.98828-4.53418c-2.37012-.5152-5.35864,2.47321-5.35864,2.47321l-3.55371,6.74286c-.78882,.01825-1.39258,.05835-1.39258,.05835l-18.02759,4.37488-.04443-3.77637c.06934-3.04523,1.66113-5.39832,1.66113-5.39832-.96899,.27686-2.21472,3.25287-2.21472,3.25287l-.47559,6.18237-1.01074,.2453c-.1593-.71954-.86682-4.00775-.86682-5.66638,0-1.86865,1.24585-2.9068,1.24585-2.9068l-1.10742,.62286-1.03809,3.18365,.97852,4.95789-3.72876,.90485c-1.54565,1.64874-.30908,4.84326-.30908,4.84326l1.9325,.9408c-.60388,1.29895-1.80017,3.64441-2.72864,4.02264l-1.34192,.76685s1.53369-.38342,2.01306-.67102c.354-.2124,1.77856-2.64502,2.49976-3.90314l3.8606,1.87958c.57446,1.00189,1.2406,2.25763,1.39172,2.93774,.27686,1.24579,.96887,4.70624,.96887,4.70624,0,0,2.35327,1.45343,4.63708,.96893l-3.80652-1.17657s-.48438-.41522-.48438-1.10736c0-.69208-.69214-3.87567-.69214-3.87567l-.87354-1.89789,.4552,.22168,4.328,.92743s6.07983,1.54572,7.93481,2.16406c1.85486,.61829,5.04932,.72131,5.04932,.72131,0,0,10.71704-1.44269,11.12927,.10303,.41223,1.54578,6.18298,4.84332,6.18298,4.84332,0,0,2.37012-.10309,3.70972-1.6488s-1.13354-4.32806-1.13354-4.32806l-4.53418-.61829,5.46167-.41217s6.49194,5.56464,10.71704,5.87378c4.22485,.30914,8.2439-4.43109,8.2439-5.25549s-1.33972-2.78229-.72144-3.70972c.61829-.92749,3.29761,.41217,3.29761,.41217l12.2627,4.84326,4.01892,.20612s1.85486-4.01892,1.23669-5.35852c-.61841-1.33966-.10315-2.47314,.20605-3.81281,.30908-1.3396-.3092-7.11035-1.13354-7.62561Z"/>
  <path class="cls-4" d="M7.9868,48.87617l-.31226,4.84326,7.4522,3.59113,16.24833,3.99288,12.32142-.62867,13.33762-2.13748,15.49879-2.34465s.7604-.54723,1.7766-.4215,5.33505,2.38895,5.33505,2.38895c0,0,1.5243-9.05285-.76215-10.68739l-18.92672,2.51468-40.26691-1.76028-11.70198,.64907Z"/>
  <path class="cls-9" d="M8.62323,49.24966l7.32875,4.66589s3.51169,.16664,4.12242,0,4.73315-2.33295,4.73315-2.33295l6.8707,4.83253s6.8707,.66656,9.77166,.66656,17.86382-2.16631,21.37552-3.33278c3.51169-1.16647,9.92435,.49992,11.29849,.8332s1.37414-3.33278,1.37414-3.33278l-.91609-3.8327-7.7868,.16664-12.0619-3.16614-15.26823-.66656s-10.38239-.66656-12.0619-.66656-17.40578,3.8327-18.77992,6.16565Z"/>
  <path class="cls-8" d="M34.39119,43.67822l3.90387-7.58008s1.49566-3.13776,5.35864-2.47321c3.86299,.66458,2.9755,5.56912,2.9755,5.56912l-.39933,2.15952-4.78548,2.88516-7.05321-.56052Z"/>
  <path class="cls-8" d="M26.57798,56.65405s3.86684-.74046,5.59457,.98728,3.86684-1.64546,3.86684-1.64546c0,0,0-2.1391,.905-2.55047s-2.1391-1.31637-2.1391-1.31637l-9.37913,2.05683s-1.2341,1.97455,1.15182,2.46819Z"/>
  <path class="cls-6" d="M78.56135,47.62267s2.40161,8.8059,.55037,10.30691l9.05883,3.51849,4.01892,.20612s1.73217-3.32434,1.38194-4.77531-.35023-2.55171-.35023-3.05204,1.65111-1.50101-.20013-8.00536c0,0,.70047-1.55104-2.45164-1.00067,0,0-10.40697,1.0507-12.00805,2.80188Z"/>
  <circle class="cls-3" cx="18.04658" cy="48.89017" r="1.76966"/>
  <path class="cls-1" d="M18.04658,49.82668s-1.40478-1.05358-.11706-1.87304c0,0,2.45836,.70239,.11706,1.87304Z"/>
  <path class="cls-9" d="M79.29761,46.98005s3.32785,8.63171,.34696,11.18003l1.16954,.31347s1.9954-3.27246,1.43669-6.78436-2.31466-4.94859-2.31466-4.94859l-.63853,.23945Z"/>
  <path class="cls-5" d="M63.36704,64.90201s-9.30947-4.29101-10.18472-6.17303l19.61653-2.53634s.37863,3.07635,.84426,3.70972-5.26328,7.10752-10.27607,4.99965Z"/>
  <path class="cls-4" d="M19.31324,58.19389l10.6531,3.13812s-.24775,.57808,12.22216-.41291,14.84562-2.38181,14.84562-2.38181l-1.38473-1.49955-23.53592,2.72521-12.80024-1.56906Z"/>
  <path class="cls-4" d="M58.51692,57.78258s-.54784,.3677-1.48279,.75471-1.80803-.45249-1.80803-.45249l3.39156-1.34319-.10074,1.04097Z"/>
  <path class="cls-7" d="M42.5992,60.78221l1.77711,.6966,.25966,.67346,6.22259,4.39109s5.80853-.56436,3.8665-4.39109l-1.16564-1.85879-2.95526-.4089s-7.29446,1.18109-8.00496,.89763Z"/>
  <path class="cls-4" d="M79.11172,57.92957l-4.86429-1.9256s-1.13823-.37219-1.63718,.18867,1.41233-1.16304,1.41233-1.16304l5.08914,2.89998Z"/>
  <path class="cls-4" d="M70.06914,56.50494l2.73513-.15856s.02643-.64745,.14535-.7003-2.88048,.85886-2.88048,.85886Z"/>
  <path class="cls-2" d="M28.59398,47.09693s2.53163,1.15732,2.4593,2.16997,5.71426,.57866,5.71426,.57866l4.55694,1.51898,23.07403-.50633-35.80454-3.76128Z"/>
</svg>