<?xml version="1.0" encoding="UTF-8"?>
<svg id="Layer_1" data-name="Layer 1" xmlns="http://www.w3.org/2000/svg" viewBox="0 0 100 100">
  <defs>
    <style>
      .cls-1 {
        fill: #c2ba6a;
      }

      .cls-2 {
        fill: #ac5a36;
      }

      .cls-3 {
        fill: #a9b356;
      }

      .cls-4 {
        fill: #b0b157;
      }

      .cls-5 {
        fill: #dddba5;
      }

      .cls-6 {
        fill: #c3bc6d;
      }

      .cls-7 {
        fill: #56552c;
      }

      .cls-8 {
        fill: #322015;
      }
    </style>
  </defs>
  <path class="cls-3" d="M6.88854,43.05423l3.28394-1.43672,4.10493-.82099s7.18362-4.72067,19.49841-5.13116l1.64197-3.28394s5.33641-2.46296,7.38887-2.25771,8.00461,5.33641,8.00461,5.33641l9.23609-4.10493,8.00461-.41049s5.54165,2.46296,5.54165,4.10493-1.64197,6.15739-1.64197,6.15739l-3.89968,1.23148s3.89968,1.64197,13.13577,.20525l5.95215-3.48919,8.00461-1.84722s3.28394,2.87345-.61574,10.46757c0,0,4.11196,5.75927,.20112,10.35451l-2.24873,.78217-11.24367-8.21276s-6.0618-.39108-9.87487,1.17325l-2.63982,1.66211,3.7153,1.56434,.87994,3.0309s-2.93313,6.25734-5.08409,6.25734-14.07902-5.47518-14.07902-5.47518l-13.78571-.19554,1.75988,2.05319s-1.66211,4.59524-2.05319,4.59524-5.57295-3.0309-5.57295-3.0309l-1.66211-3.81307s-24.63829-2.63982-29.13576-10.16818l1.27102-2.54205,3.61753,1.85765-1.70507-4.61368Z"/>
  <path class="cls-7" d="M15.61042,44.41507s54.73238-.44863,64.7517,2.54221l.59817,1.94405s-57.72322-.74771-65.34987-4.48626Z"/>
  <path class="cls-7" d="M15.43033,40.3703l8.65745-3.97102,12.59265-1.15288s18.36428,.76858,21.77479,2.17765,11.41209,6.02057,11.41209,6.02057l12.06796-.25619-1.31173,1.15288s-19.2825,.64049-24.52943-1.40907-36.33504-4.48341-40.66377-2.56195Z"/>
  <circle class="cls-2" cx="14.66626" cy="44.78971" r="2.63108"/>
  <path class="cls-8" d="M13.71423,43.39795s-.75193,.62661-.75193,1.37854,.75193,1.62919,.75193,1.62919h2.2558s.08241-1.52596,.29185-2.26685-1.79572-2.11943-2.54765-.74088Z"/>
  <path class="cls-5" d="M2.84321,48.3523s22.97769,21.07857,65.74046,5.18186l4.00104-2.2846,8.65276-.55076-14.50724-.31419-16.87484,4.10393s-34.82409,1.40727-47.01218-6.13625Z"/>
  <polygon class="cls-5" points="14.44054 54.54 20.60659 46.21297 17.24329 55.90115 14.44054 54.54"/>
  <path class="cls-4" d="M81.23747,50.69881s-3.56453-5.82862-.04974-8.05508l5.95215-3.48919,8.00461-1.84722s2.924,4.67014-.61574,10.46757c0,0,4.8733,6.4132,.20112,10.35451l-2.24873,.78217-11.24367-8.21276Z"/>
  <path class="cls-1" d="M49.66868,36.11966l10.37868-4.76448,8.6535-.47472s4.59766,2.24537,4.81151,3.42152-1.56072,6.90503-1.56072,6.90503l-3.89968,1.23148-11.32641-4.71499-7.05688-1.60384Z"/>
  <path class="cls-6" d="M33.77582,35.66536l1.64197-3.28394s5.15896-2.16627,7.38887-2.25771c0,0,6.58487,2.91577,8.00461,5.33641l-1.14259,.65955-15.89286-.4543Z"/>
  <path class="cls-6" d="M25.18473,47.45094l3.21011-3.85213s6.74124-1.92607,7.70427-1.44455,1.12354,2.08657,1.12354,5.13618-2.8891,6.09921-2.8891,6.09921l-7.86477-1.44455s-2.56809-.64202-2.40758-1.44455,1.12354-3.04961,1.12354-3.04961Z"/>
</svg>