<?xml version="1.0" encoding="UTF-8"?>
<svg id="Layer_1" data-name="Layer 1" xmlns="http://www.w3.org/2000/svg" viewBox="0 0 100 100">
  <defs>
    <style>
      .cls-1 {
        fill: #000d34;
      }
    </style>
  </defs>
  <path class="cls-1" d="M93.21338,61.18738c-.0033-.01862-.00702-.03674-.01093-.05481-.22223-1.04486-.27399-1.87384-.28162-2.39673,.04877-.25873,.11005-.5191,.17975-.78387,.3714-.74768,1.06415-2.46368-.38361-7.55048,0,0,.70044-1.55103-2.45166-1.00067,0,0-7.22302,.73016-10.55872,1.98669-.04675-.04376-.07458-.06683-.07458-.06683l-.63849,.23944s.0163,.04291,.04272,.1145c-.06049,.02985-.11932,.05981-.17493,.09021l-1.11066,.39789-3.32745,.44208-.14532-.60809-7.7868,.16663-.0058-.00153c-.0592-.02527-.11292-.04865-.18036-.07672l2.48071-1.40802s-.20825-1.35364-2.29077-.93713l-4.17139,.80731c-.61572-.23041-1.04346-.38855-1.04346-.38855,0,0-1.59802-.16132-3.96173-.40314l-2.8891-.75836-7.591-.33142c-1.65167-.17542-3.23334-.34601-4.61609-.49921l3.70367-2.23291,.39935-2.15955s.88745-4.90454-2.97552-5.56909c-.15723-.03418-.31732-.0509-.47894-.05615-3.50391-.33551-4.8797,2.52936-4.8797,2.52936l-3.55371,6.74286c-.78882,.01825-1.39258,.05835-1.39258,.05835l-1.58496,.38464c-1.99152-.112-3.75067-.20001-4.36066-.20001-1.01025,0-7.1015,1.38721-12.09595,3.00018l-.03046-2.5863c.06934-3.04523,1.66113-5.39832,1.66113-5.39832-.96899,.27686-2.21472,3.25287-2.21472,3.25287l-.38879,5.0542c-.44537,.15131-.87732,.30353-1.29218,.45648-.26611-1.30151-.67218-3.49237-.67218-4.74939,0-1.86865,1.24585-2.9068,1.24585-2.9068l-1.10742,.62286-1.03809,3.18365,.81647,4.13678c-1.4505,.56799-2.61908,1.13318-3.24768,1.64856l-.10175,.02466-.95056,.05273-.31226,4.84326,2.53516,1.22168c-.63361,1.33002-1.72784,3.38855-2.59485,3.74176l-1.34192,.76685s1.53369-.38342,2.01306-.67102c.33118-.19867,1.59222-2.32904,2.34491-3.63458l4.26263,2.05408c.50537,.90802,1.01471,1.9104,1.14453,2.49469,.27686,1.24579,.96887,4.70624,.96887,4.70624,0,0,2.35327,1.45343,4.63708,.96893l-3.80652-1.17657s-.48438-.41522-.48438-1.10736c0-.69208-.69214-3.87567-.69214-3.87567l-.78925-1.71478,6.42072,1.57782,7.67383,2.2605s-.24774,.57806,12.22217-.4129c.21466-.01709,.41913-.03448,.62787-.05176l1.55994,.61145,.2597,.67346,6.2226,4.39111s5.80853-.56439,3.86646-4.39111l-1.16565-1.85876-2.51868-.34845c1.09863-.1676,2.00769-.33148,2.75549-.48474,1.24225,1.13373,3.96576,2.64441,6.19922,3.78961,.79156,.45361,1.60724,.86847,2.40936,1.19666,.59003,.28333,.96222,.45544,.96222,.45544,5.01282,2.10785,10.7417-4.36627,10.27612-4.99963-.42413-.5769-.77502-3.1731-.83447-3.63287,.00311-.04865,.00854-.11401,.01654-.18811,.03815-.03192,.08221-.06995,.12463-.1062-.01251,.00476-.02509,.00916-.03735,.01434,.01349-.00592,.02722-.01178,.04132-.01776-.00128,.0011-.00269,.00232-.00397,.00342,.54944-.20898,1.29761,.02881,1.29761,.02881l4.86426,1.9256-.33948-.19348,.211,.08337c.05585,.02844,.10437,.05322,.15424,.0788-.0097,.00848-.01581,.02325-.02576,.03131l.35376,.13739c.11328,.05865,.17908,.09308,.17908,.09308,0,0,.00305-.0188,.0036-.02209l.01202,.00464c-.00592,.00513-.00964,.01233-.01562,.01746l.19531,.05237,8.33069,3.23566,4.01892,.20612s1.73218-3.32434,1.38196-4.77533c-.02332-.09668-.03363-.17804-.05396-.27155Z"/>
</svg>