<?xml version="1.0" encoding="UTF-8"?>
<svg id="Layer_1" data-name="Layer 1" xmlns="http://www.w3.org/2000/svg" viewBox="0 0 100 100">
  <defs>
    <style>
      .cls-1 {
        fill: #000d34;
      }
    </style>
  </defs>
  <path class="cls-1" d="M8.33203,46.16363l16.2986-7.68095,14.98722-2.71643,2.15441,.28101,5.71388-7.2126s4.87085,1.21771,5.99489,2.06074,5.43287,7.49361,5.43287,7.49361l-4.87085,1.40505s14.98722,4.4025,19.01504,3.4658,12.36446-4.77718,12.36446-4.77718c0,0,5.15186-.74936,5.15186,.18734s-3.09111,5.52654-3.09111,5.52654l-4.30883,3.37213,2.71643,3.93415s4.77718,6.74425,3.55947,7.58728-11.6151-3.93415-11.6151-3.93415l-4.87085-3.93415s-4.68351-1.49872-7.68095,.37468-1.96707,5.3392-1.96707,5.3392l-.65569,5.15186s-1.59239,.28101-2.15441,.09367-7.02526-5.80755-7.11893-6.46324-3.93415,1.03037-3.93415,1.03037c0,0,.9367,7.68095-2.06074,8.24297s-7.2126-6.36957-7.2126-6.36957c0,0-26.32131-2.52909-28.8504-6.36957s-4.77718-4.49617-2.99744-6.08856Z"/>
</svg>