<?xml version="1.0" encoding="UTF-8"?>
<svg id="Layer_1" data-name="Layer 1" xmlns="http://www.w3.org/2000/svg" viewBox="0 0 100 100">
  <defs>
    <style>
      .cls-1 {
        fill: #000d34;
      }
    </style>
  </defs>
  <path class="cls-1" d="M94.72754,42.92719c-1.63867-5.38385-6.32019-7.72461-6.32019-7.72461,0,0-13.57666,4.68158-14.98108,10.06543-1.40454,5.38385-15.44934-5.14978-15.44934-5.14978l6.55432,.93634c0-4.21344-4.2135-9.83136-4.2135-9.83136-4.84412-.33405-8.48535,3.85138-10.17993,6.28198l-2.69446-.89813s-20.10718-2.45056-39.78174,4.62671c0,0-6.71118,1.27838-.95874,8.46906l9.10815,6.39166,6.71143,4.31439,11.66479,3.67523,6.82568-1.53229c.83374,2.53326,2.11255,4.46027,2.11255,4.46027,0,0,12.50989-3.66669,9.27466-7.54907-.87842-1.05402-2.1582-1.94049-3.55518-2.59888l1.96069-1.5686s14.54114-1.75769,20.45349,1.59796c5.91235,3.35559,12.23254,10.84619,12.23254,10.84619,0,0,6.32007,.46814,7.72461-1.87268,1.40454-2.34076,5.14966-17.55597,3.51123-22.93982Z"/>
</svg>