<?xml version="1.0" encoding="UTF-8"?>
<svg id="Layer_1" data-name="Layer 1" xmlns="http://www.w3.org/2000/svg" viewBox="0 0 100 100">
  <defs>
    <style>
      .cls-1 {
        fill: #000d34;
      }
    </style>
  </defs>
  <path class="cls-1" d="M88.59155,45.43896c-.82446-.5152-11.43848,1.6488-11.43848,1.6488l-6.90417,2.47314s-6.18298-.8244-7.00732-1.23657c-.11267-.05634-.30298-.13916-.53967-.23761l2.48071-1.40802s-.20825-1.35364-2.29077-.93713l-4.17139,.80731c-.61572-.23041-1.04346-.38855-1.04346-.38855,0,0-12.48206-1.2597-19.39197-2.02911l4.03772-2.19592,.41211-3.19446s-.61816-4.01892-2.98828-4.53418c-2.37012-.5152-5.35864,2.47321-5.35864,2.47321l-3.55371,6.74286c-.78882,.01825-1.39258,.05835-1.39258,.05835l-18.02759,4.37488-.04443-3.77637c.06934-3.04523,1.66113-5.39832,1.66113-5.39832-.96899,.27686-2.21472,3.25287-2.21472,3.25287l-.47559,6.18237-1.01074,.2453c-.1593-.71954-.86682-4.00775-.86682-5.66638,0-1.86865,1.24585-2.9068,1.24585-2.9068l-1.10742,.62286-1.03809,3.18365,.97852,4.95789-3.72876,.90485c-1.54565,1.64874-.30908,4.84326-.30908,4.84326l1.9325,.9408c-.60388,1.29895-1.80017,3.64441-2.72864,4.02264l-1.34192,.76685s1.53369-.38342,2.01306-.67102c.354-.2124,1.77856-2.64502,2.49976-3.90314l3.8606,1.87958c.57446,1.00189,1.2406,2.25763,1.39172,2.93774,.27686,1.24579,.96887,4.70624,.96887,4.70624,0,0,2.35327,1.45343,4.63708,.96893l-3.80652-1.17657s-.48438-.41522-.48438-1.10736c0-.69208-.69214-3.87567-.69214-3.87567l-.87354-1.89789,.4552,.22168,4.328,.92743s6.07983,1.54572,7.93481,2.16406c1.85486,.61829,5.04932,.72131,5.04932,.72131,0,0,10.71704-1.44269,11.12927,.10303,.41223,1.54578,6.18298,4.84332,6.18298,4.84332,0,0,2.37012-.10309,3.70972-1.6488s-1.13354-4.32806-1.13354-4.32806l-4.53418-.61829,5.46167-.41217s6.49194,5.56464,10.71704,5.87378c4.22485,.30914,8.2439-4.43109,8.2439-5.25549s-1.33972-2.78229-.72144-3.70972c.61829-.92749,3.29761,.41217,3.29761,.41217l12.2627,4.84326,4.01892,.20612s1.85486-4.01892,1.23669-5.35852c-.61841-1.33966-.10315-2.47314,.20605-3.81281,.30908-1.3396-.3092-7.11035-1.13354-7.62561Z"/>
</svg>