<?xml version="1.0" encoding="UTF-8"?>
<svg id="Layer_1" data-name="Layer 1" xmlns="http://www.w3.org/2000/svg" viewBox="0 0 100 100">
  <defs>
    <style>
      .cls-1 {
        fill: #91a389;
      }

      .cls-2 {
        fill: #ba9354;
      }

      .cls-3 {
        fill: #a0baa3;
      }

      .cls-4 {
        fill: #ceb248;
      }

      .cls-5 {
        fill: #acac6e;
      }

      .cls-6 {
        fill: #d15a35;
      }

      .cls-7 {
        fill: #ae643b;
      }

      .cls-8 {
        fill: #dee2c2;
      }

      .cls-9 {
        fill: #161a18;
      }

      .cls-10 {
        fill: #21444a;
      }

      .cls-11 {
        fill: #60927e;
      }

      .cls-12 {
        fill: #4a8164;
      }
    </style>
  </defs>
  <path class="cls-4" d="M33.52692,49.31138l2.28021-1.65783-3.48032,.23683s-2.88027-3.31566-2.76026-4.14457,.72007-3.19724,2.04019-3.31566,12.72118-5.0919,12.72118-5.0919c0,0,2.52023,1.06575,3.12029,.82891s1.92018-2.60516,1.92018-2.60516c0,0,15.24141-1.18416,19.08177,1.89466,0,0,.60006,3.19724,.12001,3.90774s9.60089,3.19724,9.60089,3.19724c0,0,7.68071,5.32873,8.28077,5.8024l3.60033,2.84199,.48004,3.07882-6.72062,6.27606s-13.20122,6.98656-14.76137,6.98656c0,0-5.16048,7.93389-6.12057,8.05231s-3.48032,.35525-3.48032,.35525c0,0-.24002-4.49982,.60006-5.92081s-8.28077-.7105-8.28077-.7105l-2.88027,2.60516-2.52023,.23683-1.56014,1.77624s-13.80128-.59208-12.12112-13.49945c0,0-3.2403,.47367-4.68043,.94733s-9.12085,4.14457-9.12085,4.14457c0,0-3.48032,.7105-3.48032-1.18416s.24002-5.0919,.84008-6.03923,.96009-3.6709,.96009-3.6709l-3.36031-5.32873s-.84008-2.24991,.60006-2.84199,7.32068-1.30258,14.64136,2.72357c0,0,3.00028,.94733,4.44041,.11842Z"/>
  <path class="cls-5" d="M27.10599,58.88716s15.34631,2.30588,22.94036,4.03528c7.59405,1.72941,30.05978-2.49803,31.32546-4.03528l2.37314-8.07056-8.22689-7.87841-33.06576,6.149-6.96121,3.45881-8.54331-.38431s-.63284,5.18822,.15821,6.72547Z"/>
  <path class="cls-2" d="M31.98348,60.86465s14.14141,13.12015,40.36134,6.00275l-1.358-3.08066s-14.31128,3.29312-16.60944,3.08066-13.1622-1.80591-13.1622-1.80591l-9.2317-4.19684Z"/>
  <path class="cls-12" d="M26.63851,54.70384l8.46553-.28697s2.29574,4.44799,3.4436,4.59147,1.29135-6.02631,1.29135-6.02631c0,0,3.58709,9.6134,5.30889,9.32643s2.15225-12.48307,2.15225-12.48307c0,0,2.00877-2.15225,2.72619,.57393s2.72619,12.77003,3.87406,11.47868,2.5827-13.77442,2.5827-13.77442l3.87406,1.43484s-.28697,7.03069,1.86529,6.02631,3.58709-8.32204,3.58709-8.32204c0,0,2.72619,1.00438,2.72619,2.00877s1.14787,7.03069,1.14787,7.03069c0,0,1.57832-.8609,2.00877-1.7218s7.74811,2.86967,7.74811,2.86967c0,0,10.04385-4.16102,10.18733-6.02631l-9.6134-7.89159s-20.23118-9.03946-32.57076-3.4436l-14.34835,9.75688-5.16541-.71742s-2.00877,4.30451-1.29135,5.59586Z"/>
  <path class="cls-7" d="M75.09183,59.69247s-15.75001,9.18295-22.71904,9.03946c0,0,18.25886,2.5827,30.66373-7.74811,0,0-6.69027-.28697-7.94469-1.29135Z"/>
  <path class="cls-3" d="M30.79841,40.87149s-1.50339,1.70762-1.23185,3.0145,2.76026,4.20039,2.76026,4.20039l3.48032-.24002,11.63649-7.77784s9.51628-3.39212,21.02797-.3047c0,0,1.23622-2.77932-.02143-4.27861,0,0-.29783-3.44372-19.08177-1.92018l-1.92018,2.64024s-1.68242,.14224-3.12029-.84008l-13.52952,5.50629Z"/>
  <path class="cls-8" d="M73.87897,54.26332l4.35288,5.27622s3.29764,1.05524,4.35288,.65953,6.99099-5.40812,6.99099-5.40812l.52762-3.29764s-2.63811,1.58287-3.69335,2.63811-2.63811,3.16573-2.63811,3.16573c0,0-1.05524,1.31905-3.29764,.79143s-6.59527-3.82526-6.59527-3.82526Z"/>
  <path class="cls-8" d="M89.12219,51.01392l-7.06758,5.37751s-3.76425,.46093-5.07022,.23046,1.84372,2.53511,1.84372,2.53511h3.68743l7.1444-5.91526,.4434-1.74844-.98115-.47939Z"/>
  <path class="cls-3" d="M16.75148,54.89946l-.97509,3.79874s-1.73978,5.14588-.8532,6.24954,.90654,2.10494,3.5347,1.2254c0,0,10.33057-5.43689,14.01691-5.26922l-4.83131-11.94611s-4.29618-3.69172-11.9414-2.93393c0,0-4.41485,.21651-1.50751,4.22202l2.5569,4.65356Z"/>
  <path class="cls-3" d="M32.1612,60.25633s-2.26457,12.63341,12.64938,14.2325l1.60014-1.89014,2.58485-.25202,2.95411-2.77221,6.23445-1.00026s-19.87884-.95896-26.02293-8.31787Z"/>
  <path class="cls-3" d="M59.7667,70.55395s-.93436,2.45393-.73205,3.9685l.06704,2.25477,3.85707-.3734,8.01196-9.2649-14.66722,1.41991,3.46319,1.99511Z"/>
  <polygon class="cls-3" points="53.69204 69.17065 58.25231 69.08921 56.63429 68.55884 53.69204 69.17065"/>
  <polygon class="cls-4" points="31.99003 59.72437 32.4748 60.93383 33.57798 61.31232 31.99003 59.72437"/>
  <circle class="cls-6" cx="76.66271" cy="49.18402" r="2.47407"/>
  <path class="cls-9" d="M76.70703,47.41737s-1.8161,.47084-1.47978,1.74883,1.61431,1.41252,1.61431,1.41252c0,0,1.07621,0,1.21073-.33631s1.27799-2.62325-1.34526-2.82504Z"/>
  <path class="cls-1" d="M31.99003,59.72437l-4.34654-10.76656s-3.32958-1.58342-3.80398-1.50435-1.34415,1.89762-.86974,2.9255,3.24177,4.90218,3.08363,5.93006-.55347,3.55804,.2372,4.11151,4.9944-.20629,5.69943-.69615Z"/>
  <path class="cls-11" d="M41.86999,46.70869s7.9287-2.51075,12.42163-2.6429,19.42531,2.51075,19.42531,2.51075c0,0,1.45359-.39643,1.1893-.92501s-15.72525-5.41794-19.82175-4.62507-16.78241,4.88936-13.2145,5.68223Z"/>
  <path class="cls-10" d="M70.50768,52.34292s-2.53672-.49325-2.88904,1.05697,2.25486,2.81858,2.25486,2.81858c0,0,.35232-3.52322,1.47975-3.73461l-.84557-.14093Z"/>
</svg>