<?xml version="1.0" encoding="UTF-8"?>
<svg id="Layer_1" data-name="Layer 1" xmlns="http://www.w3.org/2000/svg" viewBox="0 0 100 100">
  <defs>
    <style>
      .cls-1 {
        fill: #f7f8fb;
      }

      .cls-2 {
        fill: #eaa341;
      }

      .cls-3 {
        fill: #e6e2ef;
      }

      .cls-4 {
        fill: #e4843b;
      }

      .cls-5 {
        fill: #f0b049;
      }

      .cls-6 {
        fill: #b4a2a6;
      }

      .cls-7 {
        fill: #ceadad;
      }

      .cls-8 {
        fill: #dc4933;
      }

      .cls-9 {
        fill: #a49eb3;
      }

      .cls-10 {
        fill: #cbb7be;
      }

      .cls-11 {
        fill: #d84933;
      }

      .cls-12 {
        fill: #d49540;
      }

      .cls-13 {
        fill: #1f1134;
      }
    </style>
  </defs>
  <path class="cls-3" d="M9.98761,51.21592l8.47339-6.12969s14.42279-5.76912,19.83134-6.49026c0,0,7.93254-4.68741,9.01425-4.68741s4.50712,1.62256,4.50712,1.62256l12.07909,1.98313s3.96627,2.16342,4.50712,3.24513,6.12969,.18028,6.12969,.18028l9.91567-3.96627,6.49026-.18028s-.18028,1.62256-.18028,2.3437-3.24513,4.50712-3.24513,4.50712l-3.24513,2.3437,3.24513,1.80285s6.85083,2.70427,6.85083,7.2114-12.07909-2.16342-12.07909-2.16342l-6.85083-2.88456s-5.04798,.36057-5.22826,1.62256,1.26199,5.22826,1.26199,5.22826c0,0-9.5551-.18028-10.63681-2.3437l-8.83396,1.98313,1.26199,4.86769s1.44228,1.98313-1.08171,1.80285-10.09596-4.68741-10.09596-4.68741l-14.60308,2.16342s-14.24251,.18028-18.20878-3.42541,.72114-5.9494,.72114-5.9494Z"/>
  <path class="cls-11" d="M8.57608,51.92951l1.6929-.90288,1.24146-1.91862,8.01307-5.30443s7.33591,4.40155,3.49867,9.93169-9.48025,1.91862-9.48025,1.91862l-1.58004-1.46718s-2.70864-.33858-3.3858-2.2572Z"/>
  <path class="cls-4" d="M18.50082,44.48447s2.64456,1.23964,3.38835,1.23964,2.31399-1.32228,2.31399-1.32228l1.90078-.08264s5.70234-3.55363,7.93369-3.47099,5.12384,.08264,5.28913,1.07435,4.13213,3.38835,7.7684,2.72721,5.53705-1.57021,5.53705-1.57021h3.38835s1.98342-1.57021,2.06606-2.47928,.49586-1.32228,.49586-1.32228c0,0-24.66882-4.4627-40.08166,5.20648Z"/>
  <path class="cls-12" d="M63.1301,39.68742s-.58513,1.25386-.50154,2.00617,2.42413,3.17644,2.42413,3.17644c0,0,2.34053,1.17027,3.92875,.50154s4.76466-2.92567,4.76466-2.92567l1.08668-1.25386s-11.03395-1.33745-11.70267-1.50463Z"/>
  <path class="cls-2" d="M33.32726,49.20852s-1.3118,2.29566,.49193,3.60746,5.57517,1.80373,5.57517,1.80373c0,0,2.13168-.98385,2.13168-1.80373s-3.60746-5.4112-3.60746-5.4112c0,0-5.08324-1.80373-4.59132,1.80373Z"/>
  <path class="cls-8" d="M42.14727,38.42405s16.91306,0,23.47749,2.08517c0,0-.61783-.69506-1.54457-.92674s-3.86143-.84951-3.86143-.84951l.84951-.69506s-.30891-.69506-1.54457-.77229-5.71491-.38614-5.71491-.38614c0,0-10.96646,.23169-11.66151,1.54457Z"/>
  <path class="cls-1" d="M42.44369,47.62244s17.2634-1.58248,19.42132-1.43862,3.45268,1.15089,3.45268,1.15089c0,0-4.31585,.86317-7.4808,1.43862s-13.95458,.57545-13.95458,.57545c0,0-2.44565,.43158-1.43862-1.72634Z"/>
  <path class="cls-10" d="M74.83277,41.19205s2.75,5.92292,.59826,8.76187l13.09387,5.90464s5.78928,2.34665,5.83605-.85666-4.09606-6.02043-4.09606-6.02043l-5.99989-2.99382,3.24513-2.3437s2.82407-3.4147,3.24513-4.50712,.18028-2.3437,.18028-2.3437c0,0-4.60421-.22786-6.49026,.18028s-9.61251,4.21864-9.61251,4.21864Z"/>
  <path class="cls-10" d="M38.43289,38.61483l7.6018-4.80561s1.62975-.60045,1.93682-.2397,1.36192,1.25605,1.36192,1.25605l-9.59175,4.23053-1.85668,.22637,.54788-.66764Z"/>
  <path class="cls-10" d="M13.33015,58.93221s8.17576,1.95507,10.84176,1.77734,32.16982-4.44335,33.59169-5.50975-35.1913,2.31054-36.07997,2.13281-4.08788,2.31054-8.35349,1.5996Z"/>
  <path class="cls-9" d="M60.82796,54.46105l9.37482-2.88456,1.45985,4.55752s.55659,.95415-1.27219,.87463-7.83422-.56299-9.56247-2.54759Z"/>
  <circle class="cls-5" cx="17.91468" cy="49.68695" r="2.08326"/>
  <path class="cls-13" d="M17.25863,48.47499s-1.4811,.48364-.45572,1.69275,2.16468,.60455,2.16468,.60455c0,0,.45572-1.0882-.22786-1.81366s-1.4811-.48364-1.4811-.48364Z"/>
  <path class="cls-7" d="M8.54686,52.16798s-1.16173,1.16173-.4149,2.07452,2.65539,1.41068,2.65539,1.41068c0,0,1.24471,.24894,1.24471-.16596s-3.4852-3.31924-3.4852-3.31924Z"/>
  <path class="cls-6" d="M41.91214,58.34422l9.91567-1.98313,1.26199,4.86769s1.4117,2.19475-1.08171,1.80285-9.72161-4.16354-10.09596-4.68741Z"/>
  <path class="cls-6" d="M64.18301,52.84994s5.53284-3.33547,8.26038-3.65689,3.66957,.96762,3.66957,.96762c0,0-9.31339,2.26425-10.31712,2.96589s-1.88293,1.62196-1.61284-.27662Z"/>
  <path class="cls-4" d="M29.42084,45.52871s-1.69327,.4456-1.3368,1.69327,.98032,1.87151,.98032,1.87151c0,0,.71296,.35648,1.3368-.71296s.62384-3.20831,.62384-3.20831c0,0-1.06944-.71296-1.60415,.35648Z"/>
</svg>