<?xml version="1.0" encoding="UTF-8"?>
<svg xmlns="http://www.w3.org/2000/svg" xmlns:xlink="http://www.w3.org/1999/xlink" viewBox="0 0 640 2257.09807">
  <defs>
    <style>
      .cls-1, .cls-2, .cls-3, .cls-4 {
        fill: none;
      }

      .cls-5 {
        clip-path: url(#clippath);
      }

      .cls-6 {
        fill: #eac428;
      }

      .cls-7 {
        fill: #e3e1d3;
      }

      .cls-8 {
        fill: #fff0cf;
      }

      .cls-9 {
        fill: #e5d7b7;
      }

      .cls-10 {
        fill: #ff8f11;
      }

      .cls-11 {
        fill: #98918f;
      }

      .cls-12 {
        fill: #928c8b;
      }

      .cls-13 {
        fill: #b5c0bf;
      }

      .cls-14 {
        fill: #b9c6c6;
      }

      .cls-15 {
        fill: #d1d9d9;
      }

      .cls-16 {
        fill: #c4bcbb;
      }

      .cls-17 {
        fill: #d63619;
      }

      .cls-18 {
        fill: #d3cccb;
      }

      .cls-19 {
        fill: #d5e0e0;
      }

      .cls-20 {
        fill: #a89d86;
      }

      .cls-21 {
        fill: #252a33;
      }

      .cls-22 {
        fill: #0c0e11;
      }

      .cls-23 {
        fill: #0b0e14;
      }

      .cls-24 {
        fill: #363426;
      }

      .cls-25 {
        fill: #6e893e;
      }

      .cls-26 {
        fill: #99b5bf;
      }

      .cls-27 {
        fill: #646636;
      }

      .cls-28 {
        fill: #35425e;
      }

      .cls-29 {
        fill: #343226;
      }

      .cls-30 {
        fill: #343326;
      }

      .cls-31 {
        fill: #262c35;
      }

      .cls-32 {
        clip-path: url(#clippath-1);
      }

      .cls-2 {
        stroke: #0c0e11;
        stroke-width: 2px;
      }

      .cls-2, .cls-3 {
        stroke-linecap: round;
        stroke-linejoin: round;
      }

      .cls-33 {
        fill: #fff6a4;
        stroke: #252a33;
      }

      .cls-33, .cls-4 {
        stroke-miterlimit: 10;
      }

      .cls-3 {
        stroke: #b5c0bf;
        stroke-width: 10.6px;
      }

      .cls-4 {
        stroke: #343326;
        stroke-width: 2.81px;
      }
    </style>
    <clipPath id="clippath">
      <rect class="cls-1" x="-1.69971" width="641.69971" height="2257.09807"/>
    </clipPath>
    <clipPath id="clippath-1">
      <circle class="cls-1" cx="491.69173" cy="1770.21137" r="189.42873"/>
    </clipPath>
  </defs>
  <g id="background">
    <g class="cls-5">
      <rect class="cls-9" x="-37.62566" y="-43.82214" width="708.84529" height="2365.22562"/>
      <path class="cls-26" d="m799.18938,829.12847c-54.39576-3.42561-108.79153-6.85123-163.18729-10.27684-50.77001-3.19728-130.97117,1.50833-163.36573-27.3437-40.87258-36.40294-11.14981-75.30247-19.05569-111.01197-9.356-42.25943-40.8317-148.62824-37.54783-188.66154,20.61128-251.26992,121.94099-45.52712,161.08006-55.79468,29.47287-7.73177,61.34662-8.52508,91.0905-15.6146,40.34494-9.6163,74.4949-30.19077,107.6391-50.34902"/>
      <polygon class="cls-6" points="732.87477 455.17357 -64.37211 456.18554 -64.3721 442.30603 732.87478 441.29406 732.87477 455.17357"/>
      <path class="cls-27" d="m773.67687-34.59451l-354.76933-9.22763-80.09736,308.24112c-26.43872,102.29199,39.82471,137.79443,39.26318,172.18146-1.57471,96.41125,110.50403,66.63159,137.34216,73.67194,26.83826,7.04028,65.27722,41.10223,92.80627,43.89893,23.83887,2.42181,44.99927-10.43042,68.66724-6.57343,19.91003,3.24463,21.08203,26.18463,40.21326,32.84186l-35.95911-314.31104,92.53369.46216V-34.59451Z"/>
      <rect class="cls-6" x="-32.74309" y="1315.80667" width="708.84529" height="13.87951"/>
      <polygon class="cls-6" points="181.01682 1322.22499 -211.19648 931.44295 -201.38219 921.62865 190.83112 1312.41069 181.01682 1322.22499"/>
      <polygon class="cls-6" points="286.7422 941.68953 704.42428 940.6778 704.42427 954.55731 286.7422 955.56904 286.7422 941.68953"/>
      <g>
        <rect class="cls-8" x="-5.87297" y="856.17302" width="8.34653" height="28.18173"/>
        <rect class="cls-8" x="15.04533" y="856.17302" width="8.34653" height="28.18173"/>
        <rect class="cls-8" x="38.54759" y="856.17302" width="8.34653" height="28.18173"/>
        <rect class="cls-8" x="59.46589" y="856.17302" width="8.34653" height="28.18173"/>
        <rect class="cls-8" x="82.96815" y="856.17302" width="8.34653" height="28.18173"/>
        <rect class="cls-8" x="103.88646" y="856.17302" width="8.34653" height="28.18173"/>
        <rect class="cls-8" x="127.38871" y="856.17302" width="8.34653" height="28.18173"/>
        <rect class="cls-8" x="148.30702" y="856.17302" width="8.34653" height="28.18173"/>
        <rect class="cls-8" x="171.80927" y="856.17302" width="8.34653" height="28.18173"/>
        <rect class="cls-8" x="192.72758" y="856.17302" width="8.34653" height="28.18173"/>
        <rect class="cls-8" x="216.22983" y="856.17302" width="8.34653" height="28.18173"/>
        <rect class="cls-8" x="237.14814" y="856.17302" width="8.34653" height="28.18173"/>
        <rect class="cls-8" x="260.65039" y="856.17302" width="8.34653" height="28.18173"/>
        <rect class="cls-8" x="281.5687" y="856.17302" width="8.34653" height="28.18173"/>
        <rect class="cls-8" x="305.07095" y="856.17302" width="8.34653" height="28.18173"/>
        <rect class="cls-8" x="325.98926" y="856.17302" width="8.34653" height="28.18173"/>
        <rect class="cls-8" x="346.90757" y="856.17302" width="8.34653" height="28.18173"/>
        <rect class="cls-8" x="367.82588" y="856.17302" width="8.34653" height="28.18173"/>
        <rect class="cls-8" x="389.6427" y="856.17302" width="8.34653" height="28.18173"/>
        <rect class="cls-8" x="410.561" y="856.17302" width="8.34653" height="28.18173"/>
        <rect class="cls-8" x="432.37782" y="856.17302" width="8.34653" height="28.18173"/>
        <rect class="cls-8" x="453.29613" y="856.17302" width="8.34653" height="28.18173"/>
        <rect class="cls-8" x="475.11295" y="856.17302" width="8.34653" height="28.18173"/>
        <rect class="cls-8" x="496.03125" y="856.17302" width="8.34653" height="28.18173"/>
        <rect class="cls-8" x="517.84807" y="856.17302" width="8.34653" height="28.18173"/>
        <rect class="cls-8" x="538.76638" y="856.17302" width="8.34653" height="28.18173"/>
        <rect class="cls-8" x="560.5832" y="856.17302" width="8.34653" height="28.18173"/>
        <rect class="cls-8" x="581.5015" y="856.17302" width="8.34653" height="28.18173"/>
        <rect class="cls-8" x="603.31832" y="856.17302" width="8.34653" height="28.18173"/>
        <rect class="cls-8" x="624.23663" y="856.17302" width="8.34653" height="28.18173"/>
      </g>
      <g>
        <path class="cls-9" d="m474.63195,214.38742c9.16895,0,15.9292,7.01367,15.9292,15.80225,0,8.87256-6.71826,15.80176-15.9292,15.80176s-15.92871-6.9292-15.92871-15.80176c0-8.74609,6.71777-15.80225,15.92871-15.80225Zm0,25.64697c5.49268,0,9.37988-4.39453,9.37988-9.84473,0-5.4082-3.88721-9.84473-9.37988-9.84473s-9.37988,4.43652-9.37988,9.84473c0,5.4502,3.88721,9.84473,9.37988,9.84473Z"/>
        <path class="cls-9" d="m500.70372,224.27414l.16895,2.40869c.04248.76025-.12695,1.26758-.16895,1.47852h.08447c.88721-1.94336,3.67578-4.47852,7.26709-4.47852,4.77441,0,7.35205,2.91553,7.35205,8.49268v13.22461h-6.33789v-12.16846c0-2.07031-.59131-3.80273-2.87305-3.80273-2.95752,0-4.94336,2.28174-4.94336,5.45068v10.52051h-6.33789v-21.12598h5.78857Z"/>
        <path class="cls-9" d="m519.63439,230.9924h13.60498v4.94336h-13.60498v-4.94336Z"/>
        <path class="cls-9" d="m538.52208,244.25949v-6.25342c2.1123,1.09863,4.90137,2.02832,7.64746,2.19727.97168.04199,1.90137,0,2.7041-.16895,2.32373-.33838,3.67578-1.22559,3.67578-2.7041,0-2.02832-1.81689-3.08447-5.99951-4.60547-5.32373-1.94385-8.4502-4.18311-8.4502-9.46436,0-5.4082,4.47852-8.87305,11.02734-8.87305,3.04248,0,6.04199.67627,7.94336,1.521v6c-1.77441-1.05664-4.64746-1.85938-7.43604-1.85938-3.12695,0-5.15479,1.22559-5.15479,3.16895,0,1.77441,1.64795,3,5.78857,4.56299,5.32373,2.0708,8.61914,4.31006,8.61914,9.42236,0,5.49268-4.14062,8.78809-11.32324,8.78809-3.46484,0-6.84473-.76025-9.04199-1.73193Z"/>
        <path class="cls-9" d="m566.15636,214.80979c2.11279,0,3.50684,1.31006,3.50684,3.42236,0,2.02832-1.39404,3.38037-3.50684,3.38037-2.15479,0-3.50684-1.35205-3.50684-3.38037,0-2.1123,1.35205-3.42236,3.50684-3.42236Zm3.16895,9.46436v21.12598h-6.33789v-21.12598h6.33789Z"/>
        <path class="cls-9" d="m575.53722,224.27414v-6.3374h6.12646v6.3374h5.61963v4.94385h-5.61963v8.49219c0,2.23926,1.30957,3,2.7041,3,1.30957,0,2.66162-.42236,3.59131-.88721v5.19678c-.92969.46484-2.87305.97168-5.36572.97168-3.33789,0-6.59131-1.56299-7.05615-5.99951-.04248-.67627-.12695-1.39453-.12695-2.15479v-8.61914h-2.91504v-4.94385h3.04199Z"/>
        <path class="cls-9" d="m610.4796,233.56955c0,1.14111-.12646,2.15479-.16895,2.57764h-13.8584c.25342,2.87305,2.45068,4.521,5.87305,4.521,2.99951,0,6.12646-.8877,7.30957-1.56348v5.36572c-1.31006.67627-4.14111,1.521-7.90137,1.521-7.26709,0-11.83057-4.68994-11.83057-11.1543,0-6.42236,4.68994-11.1543,10.73193-11.1543,6.50684,0,9.84473,4.64746,9.84473,9.88672Zm-9.88672-4.90088c-2.53516,0-3.97168,1.94336-4.14062,4.2251h7.98535c.08447-2.28174-1.26758-4.2251-3.84473-4.2251Z"/>
        <path class="cls-9" d="m376.89757,255.97873c7.05615,0,11.74609,3.50732,11.74609,10.01367,0,4.43652-2.49316,7.35205-5.78857,8.66162l6.37988,11.74609h-6.88721l-5.36572-10.64746h-4.39404v10.64746h-6.38037v-30.42139h10.68994Zm-4.30957,5.45068v9.08398h4.64746c2.87305,0,4.85889-1.43652,4.85889-4.521,0-3.04199-2.07031-4.56299-5.02783-4.56299h-4.47852Z"/>
        <path class="cls-9" d="m406.05382,286.86496h-.25342l-14.99951-30.88623h7.09814l3.97168,8.78857c1.56348,3.50684,2.95752,6.50684,4.01416,9.46436.88721-2.15479,2.74609-6.46436,4.09814-9.46436l3.97168-8.78857h7.05615l-14.95703,30.88623Z"/>
        <path class="cls-9" d="m433.26671,285.25949v-6.25342c2.1123,1.09863,4.90137,2.02832,7.64746,2.19727.97168.04199,1.90137,0,2.7041-.16895,2.32373-.33838,3.67578-1.22559,3.67578-2.7041,0-2.02832-1.81689-3.08447-5.99951-4.60547-5.32373-1.94385-8.4502-4.18311-8.4502-9.46436,0-5.4082,4.47852-8.87305,11.02734-8.87305,3.04199,0,6.04199.67627,7.94336,1.521v6c-1.77441-1.05664-4.64746-1.85938-7.43604-1.85938-3.12695,0-5.15479,1.22559-5.15479,3.16895,0,1.77441,1.64795,3,5.78857,4.56299,5.32373,2.0708,8.61914,4.31006,8.61914,9.42236,0,5.49268-4.14062,8.78809-11.32324,8.78809-3.46484,0-6.84473-.76025-9.04199-1.73193Z"/>
        <path class="cls-9" d="m476.66027,274.56955c0,1.14111-.12646,2.15479-.16895,2.57764h-13.8584c.25342,2.87305,2.45068,4.521,5.87305,4.521,2.99951,0,6.12646-.8877,7.30957-1.56348v5.36572c-1.31006.67627-4.14111,1.521-7.90137,1.521-7.26709,0-11.83057-4.68994-11.83057-11.1543,0-6.42236,4.68994-11.1543,10.73193-11.1543,6.50684,0,9.84473,4.64746,9.84473,9.88672Zm-9.88672-4.90088c-2.53516,0-3.97168,1.94336-4.14062,4.2251h7.98535c.08447-2.28174-1.26758-4.2251-3.84473-4.2251Z"/>
        <path class="cls-9" d="m481.01427,265.27414h5.74609l.12646,2.07031c0,.63379,0,1.14111.04248,1.39453,1.30957-2.28174,3.50684-4.05615,6.25342-4.05615.67578,0,1.26758.08447,1.35205.12695v6.16846c-.08447-.04199-.5918-.25342-1.39453-.25342-3.21094,0-5.83057,2.83105-5.83057,6.67578v8.99951h-6.29541v-21.12598Z"/>
        <path class="cls-9" d="m518.57726,265.27414l-9.33789,21.37939h-3.97119l-9.37988-21.37939h6.59082c1.69043,4.31006,3.71826,9.21094,4.73242,12.71777.46484-1.14062,1.35205-4.14062,2.1123-6.04199l2.66211-6.67578h6.59131Z"/>
        <path class="cls-9" d="m524.11339,255.80979c2.11279,0,3.50684,1.31006,3.50684,3.42236,0,2.02832-1.39404,3.38037-3.50684,3.38037-2.15479,0-3.50684-1.35205-3.50684-3.38037,0-2.1123,1.35205-3.42236,3.50684-3.42236Zm3.16895,9.46436v21.12598h-6.33789v-21.12598h6.33789Z"/>
        <path class="cls-9" d="m543.8878,281.45676c2.53516,0,4.81689-1.18311,5.61963-1.73242v5.7041c-.84521.42236-3.04248,1.56299-6.46484,1.56299-6.76025,0-11.23877-4.73193-11.23877-11.1543s4.47852-11.1543,11.23877-11.1543c3.38037,0,5.49268,1.09863,6.33789,1.521v5.74609c-1.18311-.84473-3.29541-1.73193-5.49268-1.73193-3.33789,0-5.7041,2.19678-5.7041,5.61914s2.28174,5.61963,5.7041,5.61963Z"/>
        <path class="cls-9" d="m557.0714,255.80979c2.11279,0,3.50684,1.31006,3.50684,3.42236,0,2.02832-1.39404,3.38037-3.50684,3.38037-2.15479,0-3.50684-1.35205-3.50684-3.38037,0-2.1123,1.35205-3.42236,3.50684-3.42236Zm3.16895,9.46436v21.12598h-6.33789v-21.12598h6.33789Z"/>
        <path class="cls-9" d="m571.94493,265.27414l.16895,2.40869c.04248.76025-.12695,1.26758-.16895,1.47852h.08447c.88721-1.94336,3.67578-4.47852,7.26709-4.47852,4.77441,0,7.35205,2.91553,7.35205,8.49268v13.22461h-6.33789v-12.16846c0-2.07031-.59131-3.80273-2.87305-3.80273-2.95752,0-4.94336,2.28174-4.94336,5.45068v10.52051h-6.33789v-21.12598h5.78857Z"/>
        <path class="cls-9" d="m602.74864,282.80881c5.66162.71826,8.40771,2.32373,8.40771,6.21094,0,4.39404-4.56299,6.97168-11.11182,6.97168-5.83105,0-10.14062-1.90137-10.14062-5.57764,0-2.36572,2.28174-4.26709,5.32373-4.94336-1.73242-.25342-3.04199-1.26758-3.04199-2.87305,0-1.30957,1.14062-2.66162,3.33789-3.37988-2.95752-1.14111-4.94336-3.59131-4.94336-6.80273,0-4.68994,4.09814-7.73193,9.16846-7.73193,1.26758,0,2.53516.21143,3.63379.59131h7.81641v4.479h-2.45068c-.67627,0-.80273-.12695-.97168-.12695.59131.76074.97168,1.68994.97168,2.78857,0,4.09863-3.12646,6.84473-7.30957,7.39404-1.77441.2959-3.16895.80273-3.16895,1.43652,0,.84521,1.521,1.14111,4.479,1.56348Zm2.15479,6.67578c0-1.56348-1.521-2.57764-4.94385-2.57764-2.36572,0-4.05615,1.18311-4.05615,2.61963,0,1.64795,1.81689,2.49316,4.31006,2.49316,2.66162,0,4.68994-1.01416,4.68994-2.53516Zm-1.69043-16.94287c0-1.94385-1.35205-3.42236-3.46436-3.42236-2.07031,0-3.42236,1.47852-3.42236,3.42236,0,1.94336,1.35205,3.37988,3.42236,3.37988,2.1123,0,3.46436-1.43652,3.46436-3.37988Z"/>
      </g>
      <path class="cls-27" d="m745.86986,1748.10837c-4.09949-101.3042-9.6853-203.4325-38.57629-300.48755-31.25061-3.75073-62.52881-7.50403-93.95935-9.17529-11.77979-.62634-24.00232-.88623-34.88464,3.66675-14.46387,6.05127-24.21948,19.53943-33.05334,32.49268-8.83386,12.95337-18.18787,26.60681-32.34998,33.33447-14.16211,6.72754-34.52222,3.09082-40.34766-11.46558-2.00208-5.00256-2.15039-10.78955-5.22144-15.21704-6.91235-9.96533-22.28516-6.47656-33.82202-10.21655-10.48486-3.39905-17.71216-13-27.45825-18.14795-15.82129-8.35706-36.02881-3.41833-50.28101,7.39966-14.2522,10.81787-23.83765,26.51855-33.08472,41.83667-6.55713,10.86108-13.11377,21.72241-19.67065,32.58362-1.26758,2.09961-2.63306,4.29517-4.78882,5.46472-2.37329,1.28735-5.23999,1.08716-7.93311.89404-11.71509-.83997-24.35767-.63745-33.99146,6.08105-9.41675,6.56689-14.07178,18.20203-15.67041,29.57043-1.59863,11.36829-.64844,22.93762-1.45679,34.38928-2.68066,37.979-24.56055,74.47827-18.06152,111.9928l1.67676,9.07532c-23.36377,13.08594-37.11084,41.46692-32.89502,67.91174l-47.38803,248.18833c-4.65716,24.39124-7.00134,49.16766-7.00134,73.99953v261.92098l629.34274-9.15535v-628.72534l-19.12366,1.78857Z"/>
      <path class="cls-6" d="m247.96626,2.39256c16.59153,44.00227,25.92098,92.36485,28.26881,139.18835,1.89193,37.73141-4.54725,74.41738-7.64073,111.8738-2.77182,33.56177-3.71848,67.28213-2.59596,100.94246,1.82602,54.75607,9.32342,109.13904,20.80119,162.6769,9.60711,44.81218,22.12434,88.91028,32.45421,133.54855,9.15077,39.54306,16.18284,79.76113,14.86499,120.5022-1.44158,44.56613-13.6746,87.81545-33.38095,127.68912-12.43312,25.15706-27.3798,49.0177-43.71181,71.81408-9.47858,13.2303-18.25745,25.74084-24.896,40.66571-14.52897,32.66423-23.09091,67.81606-30.11692,102.75047-19.21965,95.56306-26.98871,193.546-33.04124,290.6924-5.6576,90.80758-8.53111,181.74217-11.17228,272.67763-.76554,26.35747-1.2537,52.76563-2.87143,79.08905-2.70218,43.96949-10.69336,87.34681-21.86635,129.90372-13.84961,52.75194-27.69922,105.50389-41.54883,158.25583-21.57878,82.19168-43.15757,164.38337-64.73635,246.57505-14.48277,55.1636-28.96554,110.3272-43.44832,165.4908-.72982,2.77984-1.45965,5.55967-2.18947,8.33951-2.94409,11.21377,14.41327,15.99759,17.35702,4.78511,10.45716-39.83039,20.91431-79.66077,31.37147-119.49116,21.41517-81.56849,42.83034-163.13699,64.24551-244.70548,17.0286-64.86041,34.05719-129.72083,51.08579-194.58124,16.24968-61.89359,26.97927-124.14751,29.19833-188.19454,2.81974-81.3841,4.60382-162.78765,8.51463-244.13387,4.83502-100.57017,11.29247-201.52261,26.26111-301.16321,6.12054-40.74212,13.51805-81.60285,25.48766-121.08219,4.55711-15.03071,9.74609-29.97071,16.73404-44.0626,8.38626-16.91173,20.49881-31.29857,31.0289-46.87724,28.17111-41.67756,51.54954-87.59259,62.4841-136.97257,8.87089-40.06051,8.94892-80.93738,3.36901-121.44977-5.81227-42.19946-16.94313-83.42749-27.39834-124.65005-12.3634-48.7461-23.79073-97.77966-30.31222-147.69922-8.20257-62.78768-9.01313-126.35157-3.27105-189.39197,3.49714-38.39402,9.19843-75.54342,6.29026-114.24749-2.40593-32.01989-8.09619-63.84358-16.316-94.87052-3.44785-13.01444-7.19123-26.06329-11.94575-38.67272-4.04867-10.73744-21.45551-6.08446-17.35702,4.78511h0Z"/>
      <path class="cls-26" d="m-110.35817,1427.54374c42.79951.88532,85.59336,2.03829,128.37821,3.46669,10.67417.35636,21.46862.32493,32.07789,1.67221l-6.38015-.8573c5.01145.69051,9.91612,1.77046,14.62685,3.64274l-5.73311-2.4194c2.8518,1.20702,5.51141,2.67226,8.01081,4.50411l-4.8573-3.75273c2.25831,1.75817,4.23819,3.73463,6.00899,5.9815l-3.75273-4.8573c1.8979,2.55513,3.43027,5.27895,4.72294,8.18517l-2.4194-5.73311c4.20624,9.99386,5.42589,20.95662,6.87099,31.61432l-.8573-6.38015c6.57156,49.00983,7.89847,98.67161,4.14682,147.97396-1.06276,13.96623-2.53894,27.89776-4.39384,41.78074l.8573-6.38015c-6.82265,50.53275-18.83257,100.33603-35.84062,148.40918-4.84236,13.6869-10.09499,27.22526-15.72542,40.607l2.4194-5.73311c-18.71197,44.30193-41.69361,86.78704-68.7949,126.52403-7.7007,11.29108-15.73592,22.35013-24.07713,33.17639l3.75273-4.8573c-7.22651,9.35115-14.68298,18.51953-22.36862,27.49717-4.20325,4.90984-7.02944,10.31922-7.02944,16.97056,0,5.88641,2.61458,12.91781,7.02944,16.97056,4.57379,4.19866,10.57866,7.31573,16.97056,7.02944,6.07517-.27211,12.86516-2.23389,16.97056-7.02944,36.23303-42.32402,67.81377-88.60003,93.57327-138.01178,25.74246-49.37907,46.24824-101.72617,60.68772-155.5108,14.4529-53.83464,22.98524-109.49816,25.38411-165.18739,1.16158-26.96576.80702-53.99834-1.10958-80.92157-.9587-13.4672-2.30811-26.90673-4.05295-40.29484-2.17745-16.70751-3.90483-33.11884-11.33964-48.4728-7.81274-16.13445-23.99269-27.02486-41.25884-30.65555-15.85362-3.33366-32.3462-3.09734-48.45993-3.62836-33.07084-1.08982-66.14705-2.01664-99.22703-2.78043-8.27-.19095-16.54023-.37119-24.81066-.54227-12.55932-.25979-24.57221,11.22468-24,24,.59238,13.2256,10.54264,23.72163,24,24h0Z"/>
      <path class="cls-9" d="m47.25499,734.65647c-18.49561,0-33.54297-17.99414-33.54297-40.11133v-117.03613c0-22.11719,15.04736-40.11133,33.54297-40.11133h200.02979c18.49561,0,33.54297,17.99414,33.54297,40.11133v117.03613c0,22.11719-15.04736,40.11133-33.54297,40.11133H47.25499Z"/>
      <g>
        <path d="m77.93931,510.49121c-1.50049-.76758-3.87354-1.74414-6.94434-1.74414-5.09473,0-8.30518,3.66406-8.30518,8.13086,0,4.50098,3.17529,8.13086,8.13086,8.13086,3.24512,0,5.72314-.94238,7.29346-1.74512v4.99023c-1.29102.69824-4.15283,1.6748-7.67725,1.6748-7.57275,0-13.12158-5.6875-13.12158-13.05078,0-7.3291,5.54883-13.05176,13.2959-13.05176,3.52441,0,6.03711,1.04688,7.32812,1.74512v4.91992Z"/>
        <path d="m95.70494,503.82617c7.57227,0,13.15576,5.79297,13.15576,13.05176,0,7.32812-5.54834,13.05078-13.15576,13.05078s-13.15625-5.72266-13.15625-13.05078c0-7.22363,5.54883-13.05176,13.15625-13.05176Zm0,21.18262c4.53662,0,7.74707-3.62988,7.74707-8.13086,0-4.4668-3.21045-8.13086-7.74707-8.13086s-7.74707,3.66406-7.74707,8.13086c0,4.50098,3.21045,8.13086,7.74707,8.13086Z"/>
        <path d="m135.70005,529.82422l-13.78467-13.22559-1.64014-1.43066v14.27246h-5.26904v-25.50977h.20898l13.74951,13.22656,1.60547,1.43066v-14.27344h5.3042v25.50977h-.17432Z"/>
        <path d="m153.60533,508.8164v20.62402h-5.37402v-20.62402h-7.01416v-4.50195h19.4375v4.50195h-7.04932Z"/>
        <path d="m173.46421,503.93066h.20947l12.21387,25.50977h-5.61816l-2.02441-4.43164h-9.38721l-1.9541,4.43164h-5.61816l12.17871-25.50977Zm3.17578,17.30859c-1.15186-2.61719-2.26855-5.26855-3.03613-7.46777-.73291,1.74512-2.05908,5.09473-3.10596,7.46777h6.14209Z"/>
        <path d="m208.67857,510.49121c-1.50098-.76758-3.87402-1.74414-6.94482-1.74414-5.09473,0-8.30518,3.66406-8.30518,8.13086,0,4.50098,3.17529,8.13086,8.13086,8.13086,3.24512,0,5.72314-.94238,7.29346-1.74512v4.99023c-1.2915.69824-4.15283,1.6748-7.67725,1.6748-7.57275,0-13.12158-5.6875-13.12158-13.05078,0-7.3291,5.54883-13.05176,13.2959-13.05176,3.52441,0,6.03711,1.04688,7.32861,1.74512v4.91992Z"/>
        <path d="m224.90855,508.8164v20.62402h-5.37402v-20.62402h-7.01416v-4.50195h19.4375v4.50195h-7.04932Z"/>
      </g>
      <g>
        <path class="cls-9" d="m365.12202,2006.95339c-1.5957-.81641-4.11914-1.85547-7.38477-1.85547-5.41797,0-8.83203,3.89648-8.83203,8.64648,0,4.78711,3.37695,8.64648,8.64648,8.64648,3.45117,0,6.08594-1.00195,7.75586-1.85547v5.30664c-1.37305.74219-4.41602,1.78125-8.16406,1.78125-8.05273,0-13.95312-6.04883-13.95312-13.87891,0-7.79297,5.90039-13.87891,14.13867-13.87891,3.74805,0,6.41992,1.11328,7.79297,1.85547v5.23242Z"/>
        <path class="cls-9" d="m371.727,2027.10378v-26.71875h5.71484v26.71875h-5.71484Z"/>
        <path class="cls-9" d="m407.64839,2027.51198l-14.6582-14.06445-1.74414-1.52148v15.17773h-5.60352v-27.12695h.22266l14.62109,14.06445,1.70703,1.52148v-15.17773h5.64062v27.12695h-.18555Z"/>
        <path class="cls-9" d="m416.03462,2027.10378v-26.71875h8.53516c9.0918,0,14.84375,5.5293,14.84375,13.35938s-5.71484,13.35938-14.76953,13.35938h-8.60938Zm5.71484-21.93164v17.14453h2.82031c5.71484,0,9.0918-3.71094,9.0918-8.57227,0-4.82422-3.37695-8.57227-9.16602-8.57227h-2.74609Z"/>
        <path class="cls-9" d="m448.61616,2000.38503l6.12305,10.94727,6.12305-10.94727h6.45703l-9.72266,16.36523v10.35352h-5.71484v-10.35352l-9.68555-16.36523h6.41992Z"/>
        <path class="cls-9" d="m501.01362,2013.67018c.25977,3.1543-.22266,6.12305-1.89258,8.68359l4.56445,4.75h-6.08594l-1.63281-1.70703c-1.89258,1.44727-4.30469,2.22656-7.125,2.22656-6.67969,0-10.01953-3.45117-10.01953-7.45898,0-3.41406,2.56055-5.64062,5.19531-7.08789-1.66992-1.81836-2.7832-3.5625-2.7832-6.41992,0-3.5625,3.30273-6.79102,7.57031-6.79102,4.11914,0,7.5332,3.11719,7.5332,6.60547,0,4.23047-3.26562,6.41992-5.34375,7.42188l4.52734,4.67578c.63086-1.52148.85352-3.22852.74219-4.89844h4.75Zm-14.21289,2.30078c-1.41016.7793-2.7832,1.9668-2.7832,3.71094,0,2.04102,1.85547,3.5625,4.86133,3.5625,1.37305,0,2.70898-.44531,3.74805-1.26172l-5.82617-6.01172Zm1.29883-5.04688c1.48438-.7793,3.48828-2.11523,3.48828-3.9707,0-1.52148-1.22461-2.70898-2.7832-2.70898s-2.82031,1.1875-2.82031,2.70898c0,1.55859.81641,2.56055,2.11523,3.9707Z"/>
        <path class="cls-9" d="m524.39155,2013.29909l-1.41016-1.22461v15.0293h-5.45508v-27.12695h.11133l12.72852,12.83984,12.72852-12.83984h.11133v27.12695h-5.45508v-15.0293l-1.41016,1.22461c-1.9668,2.15234-3.9707,4.30469-5.97461,6.41992-2.00391-2.11523-3.9707-4.26758-5.97461-6.41992Z"/>
        <path class="cls-9" d="m551.4062,2027.10378v-26.71875h5.71484v26.71875h-5.71484Z"/>
        <path class="cls-9" d="m571.03706,2013.00222l10.39062-12.61719h6.75391l-9.46289,11.16992,9.61133,15.54883h-6.38281l-7.08789-11.875-3.82227,4.3418v7.5332h-5.71484v-26.71875h5.71484v12.61719Z"/>
        <path class="cls-9" d="m593.52437,2027.10378v-26.71875h17.18164v4.78711h-11.4668v6.08594h9.72266v4.60156h-9.72266v6.45703h12.02344v4.78711h-17.73828Z"/>
      </g>
      <rect class="cls-1" x="-1.69971" width="641.69971" height="2257.09807"/>
      <circle class="cls-9" cx="491.69173" cy="1770.21137" r="207.5965"/>
      <g class="cls-32">
        <image width="1721" height="1291" transform="translate(247.99711 1580.4924) scale(.29391)" xlink:href="20190816_135818 - Edited.jpg"/>
      </g>
    </g>
  </g>
  <g id="next-stop-sign">
    <g id="next-stop-sign-2" data-name="next-stop-sign">
      <rect id="next-stop-sign-shadow" class="cls-20" x="377.78397" y="1238.04524" width="216.34657" height="16.79262" rx="8.3963" ry="8.3963"/>
      <polygon id="next-stop-sign-post" class="cls-31" points="479.83555 1244.54379 478.82007 1071.02375 492.74781 1071.02375 493.76329 1244.54379 479.83555 1244.54379"/>
      <path id="next-stop-sign-background" class="cls-25" d="m586.65402,1102.54249h-200.72468c-13.04772,0-23.62499-13.52836-23.62499-30.21643v-117.44227c0-16.68807,10.57727-30.21643,23.62499-30.21643h200.72468c13.04772,0,23.62499,13.52836,23.62499,30.21643v117.44227c0,16.68807-10.57727,30.21643-23.62499,30.21643Z"/>
      <g id="next-stop-words">
        <path class="cls-9" d="m412.39534,974.13426l-12.83637-12.31642-1.52737-1.33238v13.29133h-4.90707v-23.75541h.19498l12.80387,12.31642,1.49487,1.33238v-13.29133h4.93957v23.75541h-.16249Z"/>
        <path class="cls-9" d="m419.73926,973.77679v-23.39794h15.04618v4.19213h-10.04162v5.32953h8.51425v4.02965h-8.51425v5.6545h10.52907v4.19213h-15.53363Z"/>
        <path class="cls-9" d="m460.84772,950.37885l-8.12428,11.60148,8.25427,11.79646h-5.622l-5.29703-7.9293-5.29703,7.9293h-5.622l8.25427-11.79646-8.12428-11.60148h5.622l5.16705,7.76682,5.19954-7.76682h5.58951Z"/>
        <path class="cls-9" d="m475.66556,954.57098v19.20581h-5.00456v-19.20581h-6.53192v-4.19213h18.10091v4.19213h-6.56442Z"/>
        <path class="cls-9" d="m493.99309,972.89937v-4.80958c1.62486.84493,3.76967,1.55986,5.88198,1.68985.74743.0325,1.46237,0,2.07982-.12999,1.78734-.25998,2.82725-.94242,2.82725-2.07982,0-1.55986-1.39738-2.37229-4.61459-3.54219-4.09464-1.49487-6.49943-3.21722-6.49943-7.27936,0-4.15963,3.4447-6.8244,8.48175-6.8244,2.33979,0,4.64709.51995,6.10946,1.1699v4.61459c-1.36488-.81243-3.57469-1.42987-5.7195-1.42987-2.40479,0-3.96465.94242-3.96465,2.43729,0,1.36488,1.26739,2.3073,4.45211,3.50969,4.09464,1.59236,6.62942,3.31471,6.62942,7.24686,0,4.22463-3.18472,6.7594-8.70923,6.7594-2.66477,0-5.26454-.58495-6.95439-1.33238Z"/>
        <path class="cls-9" d="m524.50704,954.57098v19.20581h-5.00456v-19.20581h-6.53192v-4.19213h18.10091v4.19213h-6.56442Z"/>
        <path class="cls-9" d="m546.79965,949.92389c7.05188,0,12.25142,5.39452,12.25142,12.15393,0,6.8244-5.16705,12.15393-12.25142,12.15393s-12.25142-5.32953-12.25142-12.15393c0-6.72691,5.16705-12.15393,12.25142-12.15393Zm0,19.72576c4.22463,0,7.21436-3.3797,7.21436-7.57183,0-4.15963-2.98974-7.57183-7.21436-7.57183s-7.21436,3.4122-7.21436,7.57183c0,4.19213,2.98974,7.57183,7.21436,7.57183Z"/>
        <path class="cls-9" d="m569.77428,965.7825v7.9943h-5.00456v-23.39794h7.60433c5.39452,0,9.00171,2.66477,9.00171,7.70182s-3.60718,7.70182-9.00171,7.70182h-2.59977Zm0-11.21151v6.98688h2.85975c2.17731,0,3.67218-1.1374,3.67218-3.47719s-1.55986-3.50969-3.80217-3.50969h-2.72976Z"/>
      </g>
    </g>
  </g>
  <g id="call-sign">
    <g id="call-sign-2" data-name="call-sign">
      <ellipse id="call-sign-shadow" class="cls-20" cx="83.66371" cy="785.05586" rx="37.47243" ry="9.28127"/>
      <g id="call-sign-3" data-name="call-sign">
        <polygon id="call-sign-post" class="cls-31" points="78.07578 787.34154 77.18843 635.71689 89.35872 635.71689 90.24607 787.34155 78.07578 787.34154"/>
        <path id="phone-icon" class="cls-17" d="m83.7172,549.94895c-27.88951,0-50.49837,22.60896-50.49837,50.49847s22.60885,50.49837,50.49837,50.49837,50.49847-22.60885,50.49847-50.49837-22.60896-50.49847-50.49847-50.49847Zm26.00755,64.13462c-.27809,1.23487-.46958,2.49994-.87705,3.69076-.24854.7264-.71898,1.46343-1.28667,1.97857-2.36175,2.14287-5.18309,3.331-8.34571,3.7101-.16548.01977-3.33497-.31893-4.66398-.76863-2.55464-.86437-5.09648-1.79299-7.56913-2.86668-2.94985-1.28076-5.48386-3.24514-7.9017-5.34019-3.59652-3.11641-6.84521-6.55411-9.56113-10.48062-2.07087-2.99402-3.39493-6.33286-4.53858-9.75143-.44798-1.33932-.78969-2.71668-1.1286-4.08941-.45625-1.84769-.05061-3.63456.52126-5.38532.57295-1.75431,1.50383-3.32584,2.60836-4.79582.64763-.8619,1.48879-1.48879,2.52283-1.76871,1.12957-.30571,2.28374-.52674,3.43458-.74552.85051-.16172,1.46203.17343,1.8824.95689.95205,1.77462,1.9243,3.53925,2.92815,5.28496.67804,1.17921,1.44387,2.3076,2.13406,3.48004.67922,1.15396.65419,1.6158-.25993,2.6003-.68277.73521-1.46407,1.38037-2.21701,2.0482-.72521.64312-1.50115,1.23186-2.19917,1.90249-.92186.88543-1.0479,1.41217-.47055,2.53991,1.35426,2.64511,2.92407,5.15408,4.83204,7.44889,2.50316,3.01046,5.51373,5.39037,8.88266,7.34509.64505.37427,1.28054.76562,1.92925,1.13354,1.38144.78324,2.16167.68717,3.22-.47667.79033-.86899,1.489-1.82179,2.28342-2.6867.64065-.69749,1.34781-1.33685,2.05572-1.96804.41392-.36911.91176-.392,1.40916-.12905.24682.13056.49558.25811.73703.39801,2.5642,1.48567,5.12904,2.97006,7.68851,4.46379.49827.29077.98859.59981,1.4558.93754.44658.3229.61744.7855.49397,1.33373Z"/>
      </g>
    </g>
  </g>
  <g id="email-sign">
    <g id="email-sign-2" data-name="email-sign">
      <ellipse id="email-sign-shadow" class="cls-20" cx="198.35809" cy="786.07703" rx="37.47243" ry="9.28127"/>
      <g id="email-sign-3" data-name="email-sign">
        <polygon class="cls-31" points="192.77016 788.36272 191.88281 636.73806 204.0531 636.73806 204.94045 788.36272 192.77016 788.36272"/>
        <path class="cls-17" d="m198.41158,550.28934c-28.2655,0-51.17915,22.91376-51.17915,51.17926s22.91365,51.17915,51.17915,51.17915,51.17926-22.91365,51.17926-51.17915-22.91376-51.17926-51.17926-51.17926Zm25.67947,66.31316c0,2.29111-1.85724,4.14836-4.14825,4.14836h-43.06234c-2.29101,0-4.14825-1.85724-4.14825-4.14825v-23.60334l23.87973,13.69419c1.11463.63916,2.48453.63916,3.59916,0l23.87995-13.69441v23.60344Zm0-27.81399l-23.87995,13.6943c-1.11463.63916-2.48453.63916-3.59916,0l-23.87973-13.69419v-2.45425c0-2.29101,1.85724-4.14825,4.14825-4.14825h43.06234c2.29101,0,4.14825,1.85724,4.14825,4.14825v2.45414Z"/>
      </g>
    </g>
  </g>
  <g id="learn-more-button">
    <rect id="learn-more-button-bkg" class="cls-17" x="418.34041" y="322.59251" width="193.05286" height="61.59418" rx="7.77538" ry="7.77538"/>
    <g id="learn-more">
      <g>
        <path class="cls-9" d="m437.60649,361.01379v-21.59912h4.62012v17.72949h8.30957v3.86963h-12.92969Z"/>
        <path class="cls-9" d="m466.61576,352.61389c0,.81006-.09033,1.53027-.12012,1.83008h-9.83984c.18018,2.04004,1.74023,3.20996,4.16992,3.20996,2.12988,0,4.3501-.62988,5.18994-1.10986v3.80957c-.93018.47998-2.93994,1.08008-5.60986,1.08008-5.15967,0-8.39941-3.32959-8.39941-7.91943,0-4.56006,3.32959-7.91992,7.61963-7.91992,4.61963,0,6.98975,3.2998,6.98975,7.01953Zm-7.02002-3.47949c-1.7998,0-2.81982,1.37988-2.93994,3h5.66992c.06006-1.62012-.8999-3-2.72998-3Z"/>
        <path class="cls-9" d="m470.15531,346.61437c.84033-.39014,2.8501-1.02002,5.48975-1.02002,4.62012,0,6.92969,2.21973,6.92969,5.96973v9.44971h-4.0498l-.08984-1.37988c-.02979-.62988.06006-1.0498.06006-1.0498h-.06006c-.39014.8999-1.89014,2.84961-4.6499,2.84961-2.57959,0-4.76953-1.5-4.76953-4.55957,0-3.66016,3.71973-5.45996,9.11963-4.70996v-.35986c0-1.80029-1.22998-2.45996-3.20996-2.45996-1.89014,0-3.77979.65967-4.77002,1.29004v-4.02002Zm7.85986,7.88965c-3.35986-.54004-4.77002.51025-4.77002,1.91992,0,.95996.66016,1.58984,1.70996,1.58984,1.74023,0,3.06006-1.58984,3.06006-3.50977Z"/>
        <path class="cls-9" d="m486.20512,346.01428h4.08008l.08984,1.47021c0,.44971,0,.81006.03027.98975.92969-1.62012,2.48975-2.87988,4.43945-2.87988.47998,0,.8999.06006.95996.08984v4.37988c-.06006-.02979-.41992-.17969-.98975-.17969-2.27979,0-4.14014,2.00977-4.14014,4.73975v6.38965h-4.46973v-14.99951Z"/>
        <path class="cls-9" d="m502.49516,346.01428l.11963,1.70996c.03027.54004-.08984.8999-.11963,1.0498h.05957c.63037-1.37988,2.61035-3.17969,5.16016-3.17969,3.38965,0,5.21973,2.06982,5.21973,6.02979v9.38965h-4.5v-8.63965c0-1.46973-.41992-2.69971-2.04004-2.69971-2.09961,0-3.50977,1.61963-3.50977,3.86963v7.46973h-4.49951v-14.99951h4.10986Z"/>
        <path class="cls-9" d="m530.33402,349.85412l-1.14014-.98975v12.14941h-4.40967v-21.9292h.08984l10.29004,10.37988,10.28955-10.37988h.08984v21.9292h-4.40967v-12.14941l-1.14014.98975c-1.58984,1.74023-3.20996,3.47998-4.82959,5.18994-1.62012-1.70996-3.20996-3.44971-4.83008-5.18994Z"/>
        <path class="cls-9" d="m564.83354,353.51428c0,4.55957-3.38965,7.91943-8.00977,7.91943-4.61963,0-7.97949-3.35986-7.97949-7.91943,0-4.56006,3.35986-7.91992,7.97949-7.91992,4.62012,0,8.00977,3.35986,8.00977,7.91992Zm-4.22998,0c0-2.49023-1.6499-4.14014-3.77979-4.14014s-3.74951,1.6499-3.74951,4.14014c0,2.48975,1.61963,4.13965,3.74951,4.13965s3.77979-1.6499,3.77979-4.13965Z"/>
        <path class="cls-9" d="m567.77397,346.01428h4.08008l.08984,1.47021c0,.44971,0,.81006.03027.98975.92969-1.62012,2.48975-2.87988,4.43945-2.87988.47998,0,.8999.06006.95996.08984v4.37988c-.06006-.02979-.41992-.17969-.98975-.17969-2.27979,0-4.13965,2.00977-4.13965,4.73975v6.38965h-4.47021v-14.99951Z"/>
        <path class="cls-9" d="m593.3936,352.61389c0,.81006-.09033,1.53027-.12012,1.83008h-9.83984c.18018,2.04004,1.74023,3.20996,4.16992,3.20996,2.12988,0,4.3501-.62988,5.18994-1.10986v3.80957c-.93018.47998-2.93994,1.08008-5.60986,1.08008-5.15967,0-8.39941-3.32959-8.39941-7.91943,0-4.56006,3.32959-7.91992,7.61963-7.91992,4.61963,0,6.98975,3.2998,6.98975,7.01953Zm-7.02002-3.47949c-1.7998,0-2.81982,1.37988-2.93994,3h5.66992c.06006-1.62012-.8999-3-2.72998-3Z"/>
      </g>
    </g>
  </g>
  <g id="location-tab">
    <g>
      <g id="pin-tab">
        <path id="tab-bkg-shadow" class="cls-17" d="m640,66.28437l-274.37998,2.40514c-7.90227,0-14.30833,6.40606-14.30833,14.30833v69.03742c0,7.90227,6.40606,14.30833,14.30833,14.30833l274.37998-2.40514v-97.65409Z"/>
        <path id="tab-bkg" class="cls-10" d="m355.68164,57.12322h284.31836v97.65409h-284.31836c-7.89698,0-14.30833-6.41135-14.30833-14.30833v-69.03742c0-7.89698,6.41135-14.30833,14.30833-14.30833Z"/>
        <ellipse id="pin-shadow" class="cls-17" cx="605.15769" cy="100.54834" rx="18.72531" ry="7.53876"/>
        <path id="pin_outline" data-name="pin outline" class="cls-10" d="m595.29692,93.21253l-15.78441-52.57615c-2.45963-8.18943-.94192-16.8211,4.16112-23.68163,5.10305-6.86054,12.93422-10.79551,21.48477-10.79551,8.55054,0,16.38172,3.93497,21.48477,10.79551,5.10305,6.86054,6.62075,15.49221,4.16112,23.68163l-15.78441,52.57615c-1.31668,4.38799-5.27966,7.33581-9.86148,7.33581s-8.5448-2.94782-9.86148-7.33581Z"/>
        <path id="pin" class="cls-17" d="m583.73616,39.3676l15.78476,52.57649c1.67855,5.59098,9.59554,5.59098,11.2741,0l15.78481-52.57651c4.30868-14.35149-6.43745-28.79774-21.42178-28.79774h-.00009c-14.98434,0-25.73048,14.44625-21.4218,28.79776Zm9.29661-8.505c0-6.69657,5.42866-12.1252,12.1252-12.1252,6.69659,0,12.12525,5.42863,12.12525,12.1252,0,6.69657-5.42866,12.12522-12.12525,12.12522s-12.1252-5.42866-12.1252-12.12522Z"/>
      </g>
      <g id="we-are-here">
        <path d="m381.15182,76.7409l2.62891,6.57227c.64404,1.60938,1.20703,3.13818,1.60938,4.37207.29541-.69727.88525-2.19922,1.39502-3.37988l1.07324-2.44092,2.22656-4.98926h.16064c1.63623,3.6748,3.67529,8.07422,4.66748,10.81006.69775-1.7168,3.13867-7.99365,4.26514-10.94434h4.61426l-8.66455,19.60889h-.18799l-3.78223-8.6377c-.34863-.75098-.69727-1.55566-.99268-2.30664-.29492.75098-.64355,1.55566-.96533,2.30664l-3.80957,8.6377h-.1875l-8.6377-19.60889h4.58691Z"/>
        <path d="m407.60543,96.05486v-19.31396h12.41992v3.46045h-8.28906v4.39941h7.02832v3.32617h-7.02832v4.66748h8.69141v3.46045h-12.82227Z"/>
        <path d="m438.75191,76.44598h.16113l9.38867,19.60889h-4.31885l-1.55566-3.40674h-7.21582l-1.50244,3.40674h-4.31885l9.36182-19.60889Zm2.44141,13.30518c-.88525-2.01221-1.74365-4.05078-2.33398-5.74072-.56299,1.34131-1.58252,3.9165-2.38721,5.74072h4.72119Z"/>
        <path d="m458.79342,76.7409c4.47998,0,7.45752,2.22656,7.45752,6.35742,0,2.81689-1.58252,4.66748-3.6748,5.49902l4.05029,7.45752h-4.37256l-3.40674-6.75977h-2.78955v6.75977h-4.05078v-19.31396h6.78662Zm-2.73584,3.46045v5.76709h2.95068c1.82422,0,3.08496-.91162,3.08496-2.87012,0-1.93115-1.31445-2.89697-3.19238-2.89697h-2.84326Z"/>
        <path d="m471.26949,96.05486v-19.31396h12.41992v3.46045h-8.28906v4.39941h7.02832v3.32617h-7.02832v4.66748h8.69141v3.46045h-12.82227Z"/>
        <path d="m507.37984,96.05486v-8.07422h-7.9668v8.07422h-4.13135v-19.31396h4.13135v7.80615h7.9668v-7.80615h4.13086v19.31396h-4.13086Z"/>
        <path d="m517.44185,96.05486v-19.31396h12.41992v3.46045h-8.28857v4.39941h7.02783v3.32617h-7.02783v4.66748h8.69092v3.46045h-12.82227Z"/>
        <path d="m541.74752,76.7409c4.47998,0,7.45752,2.22656,7.45752,6.35742,0,2.81689-1.58252,4.66748-3.6748,5.49902l4.05029,7.45752h-4.37256l-3.40674-6.75977h-2.78955v6.75977h-4.05078v-19.31396h6.78662Zm-2.73584,3.46045v5.76709h2.95068c1.82422,0,3.08496-.91162,3.08496-2.87012,0-1.93115-1.31445-2.89697-3.19238-2.89697h-2.84326Z"/>
        <path d="m554.22457,96.05486v-19.31396h12.41992v3.46045h-8.28906v4.39941h7.02832v3.32617h-7.02832v4.66748h8.69141v3.46045h-12.82227Z"/>
      </g>
    </g>
  </g>
  <g id="logo">
    <g>
      <path id="outline" class="cls-24" d="m36.18463,326.68646c-6.34299,0-11.50342-5.16043-11.50342-11.50342V126.01914c0-7.80061,6.34619-14.14679,14.14679-14.14679h6.04195v-6.66042c-.51652-.31863-1.00386-.66844-1.45762-1.04704-.06956-.05797-.13753-.11834-.20309-.1807-1.59354-1.51918-2.81769-3.32501-3.63844-5.36751l-.20029-.49933c-.05557-.13793-.10354-.27905-.14352-.42257-.32223-1.15178-.48534-2.32395-.48534-3.48333v-9.57965c0-2.25679.58569-4.44281,1.6831-6.37257-.87033-2.13365-1.15498-4.4692-.80437-6.80034l3.68002-24.44726c.96148-6.39016,6.35019-11.02807,12.81271-11.02807h43.01927l2.49706-10.61269c.7528-3.19828,3.57288-5.43148,6.85791-5.43148h31.71015c3.28463,0,6.10472,2.2332,6.85751,5.43108l2.49706,10.61309h41.94985c6.46213,0,11.85043,4.63791,12.81231,11.02847l3.68042,24.44686c.35101,2.33115.06636,4.66669-.80397,6.80074,1.09741,1.92976,1.6831,4.11579,1.6831,6.37217v9.57965c0,4.74985-2.5998,9.02715-6.60405,11.28194v6.37897h4.00345c7.80061,0,14.14679,6.34619,14.14679,14.14679v189.16391c0,6.34299-5.16043,11.50342-11.50342,11.50342H36.18463Z"/>
      <path id="background-2" data-name="background" class="cls-8" d="m206.27299,115.96609h-8.09685v-13.19436c3.79446-1.00296,6.60385-4.45515,6.60385-8.5603v-9.5798c0-2.34434-.9214-4.473-2.413-6.05974,1.35137-1.87174,1.92636-4.20079,1.57925-6.50385l-3.68002-24.44676c-.65815-4.37115-4.34376-7.54384-8.76429-7.54384h-45.19221l-3.23986-13.76925c-.31363-1.33298-1.50309-2.27503-2.87246-2.27503h-31.71025c-1.36936,0-2.55882.94204-2.87246,2.27503l-3.23986,13.76925h-46.26193c-4.42042,0-8.10644,3.17269-8.76419,7.54364l-3.68012,24.44716c-.34671,2.30336.22848,4.63221,1.57965,6.50365-1.4915,1.58675-2.413,3.7154-2.413,6.05974v9.5798c0,.82576.12213,1.62208.33432,2.38102l.20019.49838c.59678,1.4854,1.50519,2.82548,2.66397,3.92989.53671.44736,1.13079.82511,1.76345,1.13704l1.16657.7521v13.05623h-10.13575c-5.55202,0-10.053,4.50088-10.053,10.053v189.16406c0,4.0921,3.31732,7.40937,7.40942,7.40937h172.73224c4.0921,0,7.40932-3.31727,7.40932-7.40937V126.01909c0-5.55212-4.50078-10.053-10.053-10.053Z"/>
      <g id="title">
        <polygon class="cls-31" points="66.78215 275.02452 66.78215 250.82713 59.72417 250.82713 59.72417 259.80071 51.69231 259.80071 51.69231 250.82713 44.66814 250.82713 44.66814 275.02452 51.69231 275.02452 51.69231 265.68163 59.72417 265.68163 59.72417 275.02452 66.78215 275.02452"/>
        <polygon class="cls-31" points="90.68047 269.10985 81.00212 269.10985 81.00212 265.51384 88.86613 265.51384 88.86613 259.96849 81.00212 259.96849 81.00212 256.74266 90.17717 256.74266 90.17717 250.82713 73.97783 250.82713 73.97783 275.02452 90.68047 275.02452 90.68047 269.10985"/>
        <polygon class="cls-31" points="103.65764 250.82713 96.63347 250.82713 96.63347 275.02452 111.92473 275.02452 111.92473 269.10985 103.65764 269.10985 103.65764 250.82713"/>
        <path class="cls-31" d="m125.80815,250.82713h-8.26794v24.19739h7.02429v-7.19202h1.24365c6.01575,0,10.3175-2.72253,10.3175-8.50226,0-5.74689-4.30176-8.50311-10.3175-8.50311Zm.36926,11.0907h-1.61292v-5.17517h1.61292c1.5127,0,2.85657.67194,2.85657,2.58759,0,1.94934-1.34387,2.58759-2.85657,2.58759Z"/>
        <rect class="cls-31" x="141.40483" y="250.82713" width="7.02429" height="24.19739"/>
        <polygon class="cls-31" points="162.47844 264.16899 176.39116 275.36095 176.69389 275.36095 176.69389 250.82713 169.80461 250.82713 169.80461 261.6826 155.95842 250.49156 155.62199 250.49156 155.62199 275.02452 162.47844 275.02452 162.47844 264.16899"/>
        <path class="cls-31" d="m197.7365,263.4633v5.61285c-.57068.06744-1.20984.10028-1.84814.10028-4.03271,0-6.18359-2.9906-6.18359-6.25018,0-3.19299,2.25208-6.18359,6.55383-6.18359,3.32703,0,5.67932.87347,7.22485,1.54541v-6.38507c-1.88196-.87439-4.43579-1.58008-7.93152-1.58008-7.59497,0-12.90515,5.6803-12.90515,12.60333,0,7.02338,5.24353,12.60248,13.24158,12.60248,2.99158,0,6.18359-.672,8.53601-1.81537v-10.25006h-6.68787Z"/>
        <polygon class="cls-31" points="75.01811 291.54478 66.98637 291.54478 66.98637 282.57121 59.96208 282.57121 59.96208 306.7686 66.98637 306.7686 66.98637 297.42571 75.01811 297.42571 75.01811 306.7686 82.0761 306.7686 82.0761 282.57121 75.01811 282.57121 75.01811 291.54478"/>
        <path class="cls-31" d="m99.15263,282.23564l-12.30066,24.53296h7.29321l1.47888-3.19299h7.35974l1.5127,3.19299h7.29224l-12.29968-24.53296h-.33643Zm-1.57922,16.76923c.60449-1.41138,1.51172-3.62878,1.71326-4.50317h.0675c.20142.87439,1.10864,3.0918,1.71411,4.50317h-3.49487Z"/>
        <polygon class="cls-31" points="130.74724 293.42668 116.90105 282.23564 116.56462 282.23564 116.56462 306.7686 123.42107 306.7686 123.42107 295.91307 137.33379 307.10503 137.63652 307.10503 137.63652 282.57121 130.74724 282.57121 130.74724 293.42668"/>
        <path class="cls-31" d="m153.30241,282.57121h-8.46936v24.19739h8.46936c8.6709,0,13.94653-5.14148,13.94653-12.09827,0-6.92303-5.27563-12.09912-13.94653-12.09912Zm-.10107,18.28278h-1.34399v-12.36725h1.34399c4.67188,0,6.95679,2.9906,6.95679,6.18359,0,3.22583-2.28491,6.18365-6.95679,6.18365Z"/>
        <path class="cls-31" d="m182.98235,292.14934c-2.45361-1.00842-3.9325-1.61292-3.9325-2.48639,0-.97473,1.20996-1.54639,3.19299-1.54639,2.25122,0,4.5033.57166,5.98218,1.54639v-6.45258c-1.68042-.70575-4.16772-1.14337-6.58752-1.14337-5.74695,0-9.47693,3.05896-9.47693,7.59595,0,4.63721,2.75537,6.25012,6.65405,7.76276,2.58765,1.00842,4.16772,1.47888,4.16772,2.4873,0,.87347-1.14331,1.24274-3.2605,1.24274-2.08337,0-4.77222-.67194-7.02332-1.91559v6.7215c1.88184.80695,4.67102,1.31116,7.39343,1.31116,6.31763,0,9.74597-2.75629,9.74597-7.3598,0-4.50323-2.95789-6.15076-6.85559-7.76367Z"/>
        <path class="cls-31" d="m115.04021,234.97783c2.65405-1.27643,4.26794-3.59601,4.26794-7.02332,0-5.71313-4.20142-8.50317-10.14978-8.50317h-9.10767v24.19739h6.85645v-7.52844h1.98218l3.56226,7.52844h7.29321l-4.70459-8.6709Zm-5.51172-4.43573h-2.62134v-5.17517h2.62134c1.41138,0,2.68799.67194,2.68799,2.58759,0,1.98218-1.27661,2.58759-2.68799,2.58759Z"/>
        <path class="cls-31" d="m134.73796,243.98521l12.63623-24.53387h-7.72998l-2.9906,6.41888c-.8407,1.78156-1.71411,3.76465-2.05066,5.00739h-.06738c-.33545-1.24274-1.20996-3.22583-2.04956-5.00739l-2.99158-6.41888h-7.76282l12.66992,24.53387h.33643Z"/>
      </g>
      <g id="rv">
        <rect class="cls-23" x="62.85493" y="188.96685" width="15.47288" height="30.4819" rx="5.21618" ry="5.21618"/>
        <rect class="cls-23" x="168.0705" y="188.96685" width="15.47288" height="30.4819" rx="5.21618" ry="5.21618"/>
        <polygon class="cls-31" points="193.85338 100.91497 53.84675 100.91497 193.85338 191.18239 193.85338 100.91497"/>
        <polygon class="cls-28" points="53.84675 100.91497 53.28648 100.91497 53.28648 191.49044 193.85338 191.49044 193.85338 191.18239 53.84675 100.91497"/>
        <rect class="cls-11" x="66.34222" y="137.0526" width="112.28261" height="56.67361"/>
        <rect class="cls-24" x="47.20035" y="80.64668" width="153.29943" height="17.54254" rx="5.91389" ry="5.91389"/>
        <path class="cls-24" d="m195.18198,77.92805H52.43294c-2.77689,0-4.9033-2.47047-4.48993-5.21642l3.68018-24.44691c.33443-2.2216,2.24329-3.86462,4.48993-3.86462h135.38868c2.24664,0,4.15549,1.64301,4.48993,3.86462l3.68018,24.44691c.41337,2.74595-1.71304,5.21642-4.48993,5.21642Z"/>
        <path class="cls-31" d="m179.52395,72.75237h-110.36266c-3.69384,0-6.47375-2.65786-5.77724-5.52358l.862-3.54662c2.47889-11.70734,6.66059-9.96776,12.6806-9.96776h95.01759c6.28276,0,11.98189-.0913,12.82773,10.6527l.57168,3.05928c.52443,2.80642-2.22868,5.32597-5.8197,5.32597Z"/>
        <polygon class="cls-19" points="110.09183 137.0526 73.24284 113.49343 66.34219 137.0526 110.09183 137.0526"/>
        <polygon class="cls-14" points="180.18801 137.0526 170.3674 103.52465 76.16281 103.52465 73.24284 113.49343 110.09183 137.0526 180.18801 137.0526"/>
        <path class="cls-24" d="m181.63043,138.13328h-116.73044l10.45318-35.6893h95.82409l10.45318,35.6893Zm-113.84561-2.1613h110.96079l-9.18763-31.36671h-92.58552l-9.18763,31.36671Z"/>
        <path class="cls-24" d="m41.36209,120.28863h3.99308v16.76397h-12.25753v-8.49952c0-4.56127,3.70318-8.26445,8.26445-8.26445Z"/>
        <rect class="cls-24" x="36.97491" y="138.45908" width="29.3673" height="1.67738"/>
        <path class="cls-24" d="m199.74592,120.28863h12.25753v16.76397h-3.99308c-4.56127,0-8.26445-3.70318-8.26445-8.26445v-8.49952h0Z" transform="translate(411.74936 257.34124) rotate(-180)"/>
        <rect class="cls-24" x="178.62483" y="138.45908" width="29.50134" height="1.67738" transform="translate(386.751 278.59554) rotate(-180)"/>
        <path class="cls-31" d="m142.16027,41.31438h-35.636l2.51377-10.68353c.31364-1.33296,1.50308-2.27501,2.87244-2.27501h24.86358c1.36936,0,2.5588.94205,2.87244,2.27501l2.51377,10.68353Z"/>
        <path class="cls-24" d="m173.00171,207.35314h-99.60511c-3.98127,0-7.44028-2.73694-8.35578-6.61153l-2.18589-9.25116h120.68845l-2.18589,9.25116c-.9155,3.87458-4.3745,6.61153-8.35578,6.61153Z"/>
        <path class="cls-24" d="m100.39747,146.98962h44.57658c11.75988,0,21.30742,9.54753,21.30742,21.30742v10.7328h-87.19142v-10.7328c0-11.75988,9.54753-21.30742,21.30742-21.30742Z"/>
        <rect class="cls-24" x="66.34222" y="176.79546" width="112.28261" height="5.14664"/>
        <polygon class="cls-19" points="127.96798 107.89055 166.28147 107.89055 173.50365 130.94195 127.96798 107.89055"/>
        <rect class="cls-18" x="94.23124" y="155.42955" width="56.50458" height="2.15695"/>
        <rect class="cls-18" x="94.23124" y="161.52166" width="56.50458" height="2.15695"/>
        <rect class="cls-18" x="94.23124" y="167.61376" width="56.50458" height="2.15695"/>
        <rect class="cls-16" x="110.24868" y="186.08272" width="25.90096" height="10.75341"/>
        <path class="cls-18" d="m80.93429,159.3821h10.54636c2.27394,0,4.12009,1.84615,4.12009,4.12009v1.99067h-14.66645v-6.11076h0Z" transform="translate(-74.16996 250.705) rotate(-90)"/>
        <path class="cls-18" d="m149.3935,159.3821h14.66645v1.99067c0,2.27394-1.84615,4.12009-4.12009,4.12009h-10.54636v-6.11076h0Z" transform="translate(-5.71076 319.1642) rotate(-90)"/>
        <polygon class="cls-18" points="119.4139 187.24999 135.04498 187.24999 135.04498 195.38925 119.4139 187.24999"/>
      </g>
    </g>
  </g>
  <g id="path">
    <path class="cls-6" d="m247.96626,2.39256c13.64124,36.15959,22.02431,75.33984,26.21698,113.65224,7.02577,64.20125-7.03296,127.46269-8.4385,191.63118-2.1005,95.89576,14.74919,188.91038,38.24774,281.4559,17.79008,70.06355,38.2472,142.38802,27.18156,215.28643-6.13998,40.44909-21.05332,78.81336-40.98038,114.39676-18.13247,32.37884-44.06618,60.30913-58.90322,94.39504-28.18721,64.75593-37.44811,138.23874-46.02397,207.72235-10.92264,88.49773-16.62226,177.62119-20.77374,266.66426-3.40621,73.05809-5.28711,146.16179-7.57155,219.25941-.74073,23.70182-1.40711,47.41336-3.75752,71.02166-3.86845,38.85595-11.8008,76.91117-21.70135,114.62149-15.61616,59.48059-31.23233,118.96118-46.84849,178.44177-15.21945,57.96955-30.43891,115.93911-45.65836,173.90866-.86252,3.28527-1.72504,6.57054-2.58757,9.85581-2.94409,11.21377,14.41327,15.99759,17.35702,4.78511,11.48615-43.74972,22.97229-87.49943,34.45844-131.24915,17.79544-67.78125,35.59088-135.5625,53.38631-203.34375,15.79871-60.1759,29.36373-120.39259,32.09284-182.87836,2.78278-63.71464,3.78148-127.50768,6.18082-191.23882,3.3454-88.86023,7.96962-177.74308,16.48946-266.27327,7.43612-77.26905,16.12432-156.47915,39.21629-230.90858,8.60531-27.73641,20.41967-50.69105,37.24256-74.2007,26.96542-37.68363,50.25569-78.56005,64.51036-122.82375,22.94585-71.25162,15.08147-143.81172-1.77471-215.37771-20.16789-85.62647-44.04373-169.55044-50.05995-257.80017-4.04256-59.29884-1.35332-118.72624,6.27109-177.63178,7.67547-59.29994-.52007-120.06214-16.61914-177.36264-2.9087-10.35277-5.99759-20.72586-9.796-30.7945-4.05036-10.73652-21.45729-6.08369-17.35702,4.78511h0Z"/>
  </g>
  <g id="rv-2" data-name="rv">
    <g>
      <g id="Exhaust_3" data-name="Exhaust 3">
        <path class="cls-13" d="m308.81789,7.14442c0-.20547.39406-.51791.58827-.58264s.39406-.02252.56012.06473c.21955.11259.40532.30399.4785.55449s.02252.56857-.16325.78811c.39406.14919.58264.62767.56857,1.09492s-.06474.49539-.37717.75152c-.076.06191.19703.40813-.36872.76279-.20266.12666-.36028-.04784-.48976-.21674,0,.4025-.10977.82188-.30962,1.19343-.0957.17733-.22518.35747-.4025.42784-.07318.02814-.15199.03659-.22799.03659-.42502.00282-.81345-.22517-1.01329-.5939s-.20266-.86975-.00844-1.30039c.10977-.24769.3265-.49539.56857-.49821-.53761.10414-1.05551-.19985-1.27224-.6896s-.14918-1.12306.11822-1.65504c.0957-.1914.23643-.38561.42783-.43627.076-.0197.14918-.01125.22236-.00282.3828.04503.75434.14637,1.10054.29554h0v.00565Z"/>
      </g>
      <g id="Exhaust_2" data-name="Exhaust 2">
        <path class="cls-13" d="m305.64573,14.80038c.32087-.01407.62205.21955.7093.51228s-.01689.61924-.2308.84722-.52072.36309-.83878.41375c.29273.48975.21673,1.14558-.15481,1.58749s-.99922.66145-1.5903.59108c-.07881-.00845-.15762-.03096-.22799-.06755-.6136-.31806-.41094-1.10054-.14355-1.35105-.21392.05911-.43909-.04223-.63049-.14919-.37435-.20828-.74026-.45316-.99077-.79093s-.37717-.77686-.24206-1.1709c.17451-.50382.80219-.82188,1.34261-.67833-.58827-.42502-.81626-1.1681-.85567-1.86896-.01689-.28429-.00563-.58546.14636-.83034.13511-.21955.3631-.37154.59671-.49257.49539-.25613,1.10054-.40532,1.62126-.20547.3631.14073.65019.44754.74871.80781s.01126.76279-.23362,1.05269c.29836-.17451.70649-.28992.98233-.08725.16044.11821.23362.31524.26739.50382.08725.47287-.01126.97389-.27303,1.38482"/>
      </g>
      <g id="Exhaust_1" data-name="Exhaust 1">
        <path class="cls-13" d="m309.98598,26.06759c.52635.02534,1.18217-.35747,1.31727-.85004.09007-.3265-.09289-.65019-.18577-.83595s-.28991-.3265-.49257-.29836c.44472.06191.90352-.06755,1.29194-.29836s.7093-.55169,1.00203-.89507c.30399-.35747.58545-.7684.62486-1.23847.03378-.4222-.14918-.85566-.47568-1.12588-.3265-.27022-.78811-.36872-1.19624-.25613.81908-1.72541-1.31446-1.65786-1.31446-1.65786,0,0,.82189-1.93369-1.13714-2.12227-.24769-.02252-.50383-.01689-.74026.06473-.2871.09851-.7656.7684-.67834,1.27786.08163.46161-.10977-.19985-.85848.34902-.4025.29554-.17732.85286.1914,1.2075-.3631-.27865-.76841.10696-1.14558.36591-.45317.31243-.82752.75152-1.01047,1.27225-.12103.3462-.15481.71492-.15762,1.08085,0,.15762.00282.31524.04222.46723.10414.39968.43628.70649.81063.881s.78811.23362,1.19624.29272c-.23643.02534-.43628.19421-.55731.39686s-.16888.44191-.19984.67553c-.04785.34902-.05911.72056.09289,1.03862.16044.34058.48976.57983.84159.71212s.73182.17169,1.10617.2111c.05911.00563.13229.01125.21392.01407.56575.02252,1.53964-.25051,1.41297-.72901h0l.00563.00002Z"/>
      </g>
      <g id="Exghast_Pipe" data-name="Exghast Pipe">
        <rect class="cls-22" x="304.16239" y="28.22364" width="6.19232" height="10.41435" rx="1.88303" ry="1.88303"/>
      </g>
      <g id="Wheels">
        <g>
          <rect class="cls-22" x="315.12844" y="120.10354" width="12.94757" height="24.76927" rx="3.37763" ry="3.37763"/>
          <rect class="cls-22" x="237.16154" y="120.10355" width="12.94757" height="24.76927" rx="3.37763" ry="3.37763"/>
        </g>
        <g>
          <rect class="cls-22" x="314.85822" y="42.86002" width="12.94757" height="24.76927" rx="3.37763" ry="3.37763"/>
          <rect class="cls-22" x="236.89132" y="42.86003" width="12.94757" height="24.76927" rx="3.37763" ry="3.37763"/>
        </g>
      </g>
      <g id="Van_Body" data-name="Van Body">
        <g id="Side_Mirrors" data-name="Side Mirrors">
          <g>
            <path class="cls-30" d="m240.17044,154.0459h.02533s.03941-6.27676.03941-6.27676l-6.07129-.03659-.00844,1.59593c-.01689,2.5867,2.67958,4.69772,6.01781,4.72023l-.00282-.00281Z"/>
            <line class="cls-4" x1="237.56123" y1="152.08969" x2="242.75714" y2="152.08969"/>
          </g>
          <g>
            <path class="cls-30" d="m324.86727,154.02055h-.02533s-.03941-6.27676-.03941-6.27676l6.07129-.03659.01126,1.59312c.01689,2.5867-2.67958,4.69772-6.01781,4.72024h0Z"/>
            <line class="cls-4" x1="322.28057" y1="152.06434" x2="327.47648" y2="152.06434"/>
          </g>
        </g>
        <path class="cls-33" d="m303.43623,197.02901s2.75558-.10696-7.58559,0c3.86738,2.9892,7.58559,0,7.58559,0Z"/>
        <path class="cls-33" d="m268.14284,196.9868s2.75558-.10696-7.58559,0c3.86739,2.9892,7.58559,0,7.58559,0Z"/>
        <rect class="cls-12" x="249.54055" y="148.69235" width="65.86373" height="48.41266" rx="7.00013" ry="7.00013"/>
        <rect class="cls-29" x="252.6536" y="150.55286" width="59.67142" height="43.86131" rx="7.00013" ry="7.00013"/>
        <rect class="cls-7" x="241.52712" y="34.13449" width="81.90746" height="136.23098" rx="3.37763" ry="3.37763"/>
        <rect class="cls-21" x="273.93827" y="100.84263" width="17.45107" height="37.71684" rx="5.55901" ry="5.55901"/>
        <polygon class="cls-13" points="247.02422 165.29903 317.67292 165.29902 316.5386 170.36546 248.42312 170.36547 247.02422 165.29903"/>
        <rect class="cls-21" x="241.52713" y="163.89168" width="81.91028" height="1.68881"/>
        <polyline class="cls-3" points="243.15683 157.54737 250.47503 150.89907 250.47501 35.95279"/>
        <polyline class="cls-3" points="321.67541 157.50514 314.35722 150.85966 314.3572 35.91337"/>
        <polygon class="cls-15" points="316.66245 166.14342 288.96309 166.14343 315.98411 169.52105 316.66245 166.14342"/>
        <polygon class="cls-15" points="249.06205 169.80253 276.76141 169.80253 248.15009 166.14343 249.06205 169.80253"/>
      </g>
      <g id="Wipers">
        <line class="cls-2" x1="291.87348" y1="169.79689" x2="305.00682" y2="167.2693"/>
        <line class="cls-2" x1="262.29109" y1="169.88415" x2="275.42444" y2="167.35656"/>
      </g>
    </g>
  </g>
</svg>