<?xml version="1.0" encoding="UTF-8"?>
<svg id="Layer_1" data-name="Layer 1" xmlns="http://www.w3.org/2000/svg" viewBox="0 0 1700 1700">
  <defs>
    <style>
      .cls-1 {
        fill: #fffce6;
      }

      .cls-2 {
        fill: #5e8c99;
      }
    </style>
  </defs>
  <rect class="cls-1" x="-9" y="-9" width="1718" height="1718"/>
  <path class="cls-2" d="m1709,32.88135v-.75h-48.98584V-9.46436h-.75v41.5957h-36.90771V-9.46436h-.75v41.5957h-36.90771V-9.46436h-.75v41.5957h-36.90723V-9.46436h-.75v41.5957h-36.90771V-9.46436h-.75v41.5957h-36.90771V-9.46436h-.75v41.5957h-36.90771V-9.46436h-.75v41.5957h-36.90771V-9.46436h-.75v41.5957h-36.90771V-9.46436h-.75v41.5957h-36.90723V-9.46436h-.75v41.5957h-36.90771V-9.46436h-.75v41.5957h-36.90771V-9.46436h-.75v41.5957h-36.90771V-9.46436h-.75v41.5957h-36.90771V-9.46436h-.75v41.5957h-36.90771V-9.46436h-.75v41.5957h-36.90771V-9.46436h-.75v41.5957h-36.90723V-9.46436h-.75v41.5957h-36.90771V-9.46436h-.75v41.5957h-36.90771V-9.46436h-.75v41.5957h-36.90771V-9.46436h-.75v41.5957h-36.90771V-9.46436h-.75v41.5957h-36.90771V-9.46436h-.75v41.5957h-36.90723V-9.46436h-.75v41.5957h-36.90771V-9.46436h-.75v41.5957h-36.90771V-9.46436h-.75v41.5957h-36.90771V-9.46436h-.75v41.5957h-36.90771V-9.46436h-.75v41.5957h-36.90771V-9.46436h-.75v41.5957h-36.90723V-9.46436h-.75v41.5957h-36.90771V-9.46436h-.75v41.5957h-36.90771V-9.46436h-.75v41.5957h-36.90771V-9.46436h-.75v41.5957h-36.90771V-9.46436h-.75v41.5957h-36.90771V-9.46436h-.75v41.5957h-36.90771V-9.46436h-.75v41.5957h-36.90723V-9.46436h-.75v41.5957h-36.90771V-9.46436h-.75v41.5957h-36.90771V-9.46436h-.75v41.5957h-36.90771V-9.46436h-.75v41.5957h-36.90771V-9.46436h-.75v41.5957h-36.90771V-9.46436h-.75v41.5957h-36.90723V-9.46436h-.75v41.5957h-36.90771V-9.46436h-.75v41.5957h-36.90771V-9.46436h-.75v41.5957H-9v.75h48.98584v36.90771H-9v.75h48.98584v36.90771H-9v.75h48.98584v36.90771H-9v.75h48.98584v36.90771H-9v.75h48.98584v36.90771H-9v.75h48.98584v36.90723H-9v.75h48.98584v36.90771H-9v.75h48.98584v36.90771H-9v.75h48.98584v36.90771H-9v.75h48.98584v36.90771H-9v.75h48.98584v36.90771H-9v.75h48.98584v36.90771H-9v.75h48.98584v36.90723H-9v.75h48.98584v36.90771H-9v.75h48.98584v36.90771H-9v.75h48.98584v36.90771H-9v.75h48.98584v36.90771H-9v.75h48.98584v36.90771H-9v.75h48.98584v36.90723H-9v.75h48.98584v36.90771H-9v.75h48.98584v36.90771H-9v.75h48.98584v36.90771H-9v.75h48.98584v36.90723H-9v.75h48.98584v36.9082H-9v.75h48.98584v36.90723H-9v.75h48.98584v36.9082H-9v.75h48.98584v36.90723H-9v.75h48.98584v36.9082H-9v.75h48.98584v36.90723H-9v.75h48.98584v36.90723H-9v.75h48.98584v36.9082H-9v.75h48.98584v36.90723H-9v.75h48.98584v36.9082H-9v.75h48.98584v36.90723H-9v.75h48.98584v36.90723H-9v.75h48.98584v36.9082H-9v.75h48.98584v36.90723H-9v.75h48.98584v36.9082H-9v.75h48.98584v36.90723H-9v.75h48.98584v36.9082H-9v.75h48.98584v36.90723H-9v.75h48.98584v36.90723H-9v.75h48.98584v36.9082H-9v.75h48.98584v56.83984h.75v-56.83984h36.90771v56.83984h.75v-56.83984h36.90771v56.83984h.75v-56.83984h36.90723v56.83984h.75v-56.83984h36.90771v56.83984h.75v-56.83984h36.90771v56.83984h.75v-56.83984h36.90771v56.83984h.75v-56.83984h36.90771v56.83984h.75v-56.83984h36.90771v56.83984h.75v-56.83984h36.90723v56.83984h.75v-56.83984h36.90771v56.83984h.75v-56.83984h36.90771v56.83984h.75v-56.83984h36.90771v56.83984h.75v-56.83984h36.90771v56.83984h.75v-56.83984h36.90771v56.83984h.75v-56.83984h36.90771v56.83984h.75v-56.83984h36.90723v56.83984h.75v-56.83984h36.90771v56.83984h.75v-56.83984h36.90771v56.83984h.75v-56.83984h36.90771v56.83984h.75v-56.83984h36.90771v56.83984h.75v-56.83984h36.90771v56.83984h.75v-56.83984h36.90723v56.83984h.75v-56.83984h36.90771v56.83984h.75v-56.83984h36.90771v56.83984h.75v-56.83984h36.90771v56.83984h.75v-56.83984h36.90771v56.83984h.75v-56.83984h36.90771v56.83984h.75v-56.83984h36.90723v56.83984h.75v-56.83984h36.90771v56.83984h.75v-56.83984h36.90771v56.83984h.75v-56.83984h36.90771v56.83984h.75v-56.83984h36.90771v56.83984h.75v-56.83984h36.90771v56.83984h.75v-56.83984h36.90771v56.83984h.75v-56.83984h36.90723v56.83984h.75v-56.83984h36.90771v56.83984h.75v-56.83984h36.90771v56.83984h.75v-56.83984h36.90771v56.83984h.75v-56.83984h36.90771v56.83984h.75v-56.83984h36.90771v56.83984h.75v-56.83984h36.90723v56.83984h.75v-56.83984h36.90771v56.83984h.75v-56.83984h36.90771v56.83984h.75v-56.83984h48.98584v-.75h-48.98584v-36.9082h48.98584v-.75h-48.98584v-36.90723h48.98584v-.75h-48.98584v-36.90723h48.98584v-.75h-48.98584v-36.9082h48.98584v-.75h-48.98584v-36.90723h48.98584v-.75h-48.98584v-36.9082h48.98584v-.75h-48.98584v-36.90723h48.98584v-.75h-48.98584v-36.9082h48.98584v-.75h-48.98584v-36.90723h48.98584v-.75h-48.98584v-36.90723h48.98584v-.75h-48.98584v-36.9082h48.98584v-.75h-48.98584v-36.90723h48.98584v-.75h-48.98584v-36.9082h48.98584v-.75h-48.98584v-36.90723h48.98584v-.75h-48.98584v-36.90723h48.98584v-.75h-48.98584v-36.9082h48.98584v-.75h-48.98584v-36.90723h48.98584v-.75h-48.98584v-36.9082h48.98584v-.75h-48.98584v-36.90723h48.98584v-.75h-48.98584v-36.9082h48.98584v-.75h-48.98584v-36.90723h48.98584v-.75h-48.98584v-36.90771h48.98584v-.75h-48.98584v-36.90771h48.98584v-.75h-48.98584v-36.90771h48.98584v-.75h-48.98584v-36.90723h48.98584v-.75h-48.98584v-36.90771h48.98584v-.75h-48.98584v-36.90771h48.98584v-.75h-48.98584v-36.90771h48.98584v-.75h-48.98584v-36.90771h48.98584v-.75h-48.98584v-36.90771h48.98584v-.75h-48.98584v-36.90723h48.98584v-.75h-48.98584v-36.90771h48.98584v-.75h-48.98584v-36.90771h48.98584v-.75h-48.98584v-36.90771h48.98584v-.75h-48.98584v-36.90771h48.98584v-.75h-48.98584v-36.90771h48.98584v-.75h-48.98584v-36.90771h48.98584v-.75h-48.98584v-36.90723h48.98584v-.75h-48.98584v-36.90771h48.98584v-.75h-48.98584v-36.90771h48.98584v-.75h-48.98584v-36.90771h48.98584v-.75h-48.98584v-36.90771h48.98584v-.75h-48.98584v-36.90771h48.98584ZM77.64355,1651.41016h-36.90771v-36.9082h36.90771v36.9082Zm0-37.6582h-36.90771v-36.90723h36.90771v36.90723Zm0-37.65723h-36.90771v-36.90723h36.90771v36.90723Zm0-37.65723h-36.90771v-36.9082h36.90771v36.9082Zm0-37.6582h-36.90771v-36.90723h36.90771v36.90723Zm0-37.65723h-36.90771v-36.9082h36.90771v36.9082Zm0-37.6582h-36.90771v-36.90723h36.90771v36.90723Zm0-37.65723h-36.90771v-36.9082h36.90771v36.9082Zm0-37.6582h-36.90771v-36.90723h36.90771v36.90723Zm0-37.65723h-36.90771v-36.90723h36.90771v36.90723Zm0-37.65723h-36.90771v-36.9082h36.90771v36.9082Zm0-37.6582h-36.90771v-36.90723h36.90771v36.90723Zm0-37.65723h-36.90771v-36.9082h36.90771v36.9082Zm0-37.6582h-36.90771v-36.90723h36.90771v36.90723Zm0-37.65723h-36.90771v-36.90723h36.90771v36.90723Zm0-37.65723h-36.90771v-36.9082h36.90771v36.9082Zm0-37.6582h-36.90771v-36.90723h36.90771v36.90723Zm0-37.65723h-36.90771v-36.9082h36.90771v36.9082Zm0-37.6582h-36.90771v-36.90723h36.90771v36.90723Zm0-37.65723h-36.90771v-36.9082h36.90771v36.9082Zm0-37.6582h-36.90771v-36.90723h36.90771v36.90723Zm0-37.65723h-36.90771v-36.90771h36.90771v36.90771Zm0-37.65771h-36.90771v-36.90771h36.90771v36.90771Zm0-37.65771h-36.90771v-36.90771h36.90771v36.90771Zm0-37.65771h-36.90771v-36.90723h36.90771v36.90723Zm0-37.65723h-36.90771v-36.90771h36.90771v36.90771Zm0-37.65771h-36.90771v-36.90771h36.90771v36.90771Zm0-37.65771h-36.90771v-36.90771h36.90771v36.90771Zm0-37.65771h-36.90771v-36.90771h36.90771v36.90771Zm0-37.65771h-36.90771v-36.90771h36.90771v36.90771Zm0-37.65771h-36.90771v-36.90723h36.90771v36.90723Zm0-37.65723h-36.90771v-36.90771h36.90771v36.90771Zm0-37.65771h-36.90771v-36.90771h36.90771v36.90771Zm0-37.65771h-36.90771v-36.90771h36.90771v36.90771Zm0-37.65771h-36.90771v-36.90771h36.90771v36.90771Zm0-37.65771h-36.90771v-36.90771h36.90771v36.90771Zm0-37.65771h-36.90771v-36.90771h36.90771v36.90771Zm0-37.65771h-36.90771v-36.90723h36.90771v36.90723Zm0-37.65723h-36.90771v-36.90771h36.90771v36.90771Zm0-37.65771h-36.90771v-36.90771h36.90771v36.90771Zm0-37.65771h-36.90771v-36.90771h36.90771v36.90771Zm0-37.65771h-36.90771v-36.90771h36.90771v36.90771Zm0-37.65771h-36.90771v-36.90771h36.90771v36.90771Zm37.65771,1581.62109h-36.90771v-36.9082h36.90771v36.9082Zm0-37.6582h-36.90771v-36.90723h36.90771v36.90723Zm0-37.65723h-36.90771v-36.90723h36.90771v36.90723Zm0-37.65723h-36.90771v-36.9082h36.90771v36.9082Zm0-37.6582h-36.90771v-36.90723h36.90771v36.90723Zm0-37.65723h-36.90771v-36.9082h36.90771v36.9082Zm0-37.6582h-36.90771v-36.90723h36.90771v36.90723Zm0-37.65723h-36.90771v-36.9082h36.90771v36.9082Zm0-37.6582h-36.90771v-36.90723h36.90771v36.90723Zm0-37.65723h-36.90771v-36.90723h36.90771v36.90723Zm0-37.65723h-36.90771v-36.9082h36.90771v36.9082Zm0-37.6582h-36.90771v-36.90723h36.90771v36.90723Zm0-37.65723h-36.90771v-36.9082h36.90771v36.9082Zm0-37.6582h-36.90771v-36.90723h36.90771v36.90723Zm0-37.65723h-36.90771v-36.90723h36.90771v36.90723Zm0-37.65723h-36.90771v-36.9082h36.90771v36.9082Zm0-37.6582h-36.90771v-36.90723h36.90771v36.90723Zm0-37.65723h-36.90771v-36.9082h36.90771v36.9082Zm0-37.6582h-36.90771v-36.90723h36.90771v36.90723Zm0-37.65723h-36.90771v-36.9082h36.90771v36.9082Zm0-37.6582h-36.90771v-36.90723h36.90771v36.90723Zm0-37.65723h-36.90771v-36.90771h36.90771v36.90771Zm0-37.65771h-36.90771v-36.90771h36.90771v36.90771Zm0-37.65771h-36.90771v-36.90771h36.90771v36.90771Zm0-37.65771h-36.90771v-36.90723h36.90771v36.90723Zm0-37.65723h-36.90771v-36.90771h36.90771v36.90771Zm0-37.65771h-36.90771v-36.90771h36.90771v36.90771Zm0-37.65771h-36.90771v-36.90771h36.90771v36.90771Zm0-37.65771h-36.90771v-36.90771h36.90771v36.90771Zm0-37.65771h-36.90771v-36.90771h36.90771v36.90771Zm0-37.65771h-36.90771v-36.90723h36.90771v36.90723Zm0-37.65723h-36.90771v-36.90771h36.90771v36.90771Zm0-37.65771h-36.90771v-36.90771h36.90771v36.90771Zm0-37.65771h-36.90771v-36.90771h36.90771v36.90771Zm0-37.65771h-36.90771v-36.90771h36.90771v36.90771Zm0-37.65771h-36.90771v-36.90771h36.90771v36.90771Zm0-37.65771h-36.90771v-36.90771h36.90771v36.90771Zm0-37.65771h-36.90771v-36.90723h36.90771v36.90723Zm0-37.65723h-36.90771v-36.90771h36.90771v36.90771Zm0-37.65771h-36.90771v-36.90771h36.90771v36.90771Zm0-37.65771h-36.90771v-36.90771h36.90771v36.90771Zm0-37.65771h-36.90771v-36.90771h36.90771v36.90771Zm0-37.65771h-36.90771v-36.90771h36.90771v36.90771Zm37.65723,1581.62109h-36.90723v-36.9082h36.90723v36.9082Zm0-37.6582h-36.90723v-36.90723h36.90723v36.90723Zm0-37.65723h-36.90723v-36.90723h36.90723v36.90723Zm0-37.65723h-36.90723v-36.9082h36.90723v36.9082Zm0-37.6582h-36.90723v-36.90723h36.90723v36.90723Zm0-37.65723h-36.90723v-36.9082h36.90723v36.9082Zm0-37.6582h-36.90723v-36.90723h36.90723v36.90723Zm0-37.65723h-36.90723v-36.9082h36.90723v36.9082Zm0-37.6582h-36.90723v-36.90723h36.90723v36.90723Zm0-37.65723h-36.90723v-36.90723h36.90723v36.90723Zm0-37.65723h-36.90723v-36.9082h36.90723v36.9082Zm0-37.6582h-36.90723v-36.90723h36.90723v36.90723Zm0-37.65723h-36.90723v-36.9082h36.90723v36.9082Zm0-37.6582h-36.90723v-36.90723h36.90723v36.90723Zm0-37.65723h-36.90723v-36.90723h36.90723v36.90723Zm0-37.65723h-36.90723v-36.9082h36.90723v36.9082Zm0-37.6582h-36.90723v-36.90723h36.90723v36.90723Zm0-37.65723h-36.90723v-36.9082h36.90723v36.9082Zm0-37.6582h-36.90723v-36.90723h36.90723v36.90723Zm0-37.65723h-36.90723v-36.9082h36.90723v36.9082Zm0-37.6582h-36.90723v-36.90723h36.90723v36.90723Zm0-37.65723h-36.90723v-36.90771h36.90723v36.90771Zm0-37.65771h-36.90723v-36.90771h36.90723v36.90771Zm0-37.65771h-36.90723v-36.90771h36.90723v36.90771Zm0-37.65771h-36.90723v-36.90723h36.90723v36.90723Zm0-37.65723h-36.90723v-36.90771h36.90723v36.90771Zm0-37.65771h-36.90723v-36.90771h36.90723v36.90771Zm0-37.65771h-36.90723v-36.90771h36.90723v36.90771Zm0-37.65771h-36.90723v-36.90771h36.90723v36.90771Zm0-37.65771h-36.90723v-36.90771h36.90723v36.90771Zm0-37.65771h-36.90723v-36.90723h36.90723v36.90723Zm0-37.65723h-36.90723v-36.90771h36.90723v36.90771Zm0-37.65771h-36.90723v-36.90771h36.90723v36.90771Zm0-37.65771h-36.90723v-36.90771h36.90723v36.90771Zm0-37.65771h-36.90723v-36.90771h36.90723v36.90771Zm0-37.65771h-36.90723v-36.90771h36.90723v36.90771Zm0-37.65771h-36.90723v-36.90771h36.90723v36.90771Zm0-37.65771h-36.90723v-36.90723h36.90723v36.90723Zm0-37.65723h-36.90723v-36.90771h36.90723v36.90771Zm0-37.65771h-36.90723v-36.90771h36.90723v36.90771Zm0-37.65771h-36.90723v-36.90771h36.90723v36.90771Zm0-37.65771h-36.90723v-36.90771h36.90723v36.90771Zm0-37.65771h-36.90723v-36.90771h36.90723v36.90771Zm37.65771,1581.62109h-36.90771v-36.9082h36.90771v36.9082Zm0-37.6582h-36.90771v-36.90723h36.90771v36.90723Zm0-37.65723h-36.90771v-36.90723h36.90771v36.90723Zm0-37.65723h-36.90771v-36.9082h36.90771v36.9082Zm0-37.6582h-36.90771v-36.90723h36.90771v36.90723Zm0-37.65723h-36.90771v-36.9082h36.90771v36.9082Zm0-37.6582h-36.90771v-36.90723h36.90771v36.90723Zm0-37.65723h-36.90771v-36.9082h36.90771v36.9082Zm0-37.6582h-36.90771v-36.90723h36.90771v36.90723Zm0-37.65723h-36.90771v-36.90723h36.90771v36.90723Zm0-37.65723h-36.90771v-36.9082h36.90771v36.9082Zm0-37.6582h-36.90771v-36.90723h36.90771v36.90723Zm0-37.65723h-36.90771v-36.9082h36.90771v36.9082Zm0-37.6582h-36.90771v-36.90723h36.90771v36.90723Zm0-37.65723h-36.90771v-36.90723h36.90771v36.90723Zm0-37.65723h-36.90771v-36.9082h36.90771v36.9082Zm0-37.6582h-36.90771v-36.90723h36.90771v36.90723Zm0-37.65723h-36.90771v-36.9082h36.90771v36.9082Zm0-37.6582h-36.90771v-36.90723h36.90771v36.90723Zm0-37.65723h-36.90771v-36.9082h36.90771v36.9082Zm0-37.6582h-36.90771v-36.90723h36.90771v36.90723Zm0-37.65723h-36.90771v-36.90771h36.90771v36.90771Zm0-37.65771h-36.90771v-36.90771h36.90771v36.90771Zm0-37.65771h-36.90771v-36.90771h36.90771v36.90771Zm0-37.65771h-36.90771v-36.90723h36.90771v36.90723Zm0-37.65723h-36.90771v-36.90771h36.90771v36.90771Zm0-37.65771h-36.90771v-36.90771h36.90771v36.90771Zm0-37.65771h-36.90771v-36.90771h36.90771v36.90771Zm0-37.65771h-36.90771v-36.90771h36.90771v36.90771Zm0-37.65771h-36.90771v-36.90771h36.90771v36.90771Zm0-37.65771h-36.90771v-36.90723h36.90771v36.90723Zm0-37.65723h-36.90771v-36.90771h36.90771v36.90771Zm0-37.65771h-36.90771v-36.90771h36.90771v36.90771Zm0-37.65771h-36.90771v-36.90771h36.90771v36.90771Zm0-37.65771h-36.90771v-36.90771h36.90771v36.90771Zm0-37.65771h-36.90771v-36.90771h36.90771v36.90771Zm0-37.65771h-36.90771v-36.90771h36.90771v36.90771Zm0-37.65771h-36.90771v-36.90723h36.90771v36.90723Zm0-37.65723h-36.90771v-36.90771h36.90771v36.90771Zm0-37.65771h-36.90771v-36.90771h36.90771v36.90771Zm0-37.65771h-36.90771v-36.90771h36.90771v36.90771Zm0-37.65771h-36.90771v-36.90771h36.90771v36.90771Zm0-37.65771h-36.90771v-36.90771h36.90771v36.90771Zm37.65771,1581.62109h-36.90771v-36.9082h36.90771v36.9082Zm0-37.6582h-36.90771v-36.90723h36.90771v36.90723Zm0-37.65723h-36.90771v-36.90723h36.90771v36.90723Zm0-37.65723h-36.90771v-36.9082h36.90771v36.9082Zm0-37.6582h-36.90771v-36.90723h36.90771v36.90723Zm0-37.65723h-36.90771v-36.9082h36.90771v36.9082Zm0-37.6582h-36.90771v-36.90723h36.90771v36.90723Zm0-37.65723h-36.90771v-36.9082h36.90771v36.9082Zm0-37.6582h-36.90771v-36.90723h36.90771v36.90723Zm0-37.65723h-36.90771v-36.90723h36.90771v36.90723Zm0-37.65723h-36.90771v-36.9082h36.90771v36.9082Zm0-37.6582h-36.90771v-36.90723h36.90771v36.90723Zm0-37.65723h-36.90771v-36.9082h36.90771v36.9082Zm0-37.6582h-36.90771v-36.90723h36.90771v36.90723Zm0-37.65723h-36.90771v-36.90723h36.90771v36.90723Zm0-37.65723h-36.90771v-36.9082h36.90771v36.9082Zm0-37.6582h-36.90771v-36.90723h36.90771v36.90723Zm0-37.65723h-36.90771v-36.9082h36.90771v36.9082Zm0-37.6582h-36.90771v-36.90723h36.90771v36.90723Zm0-37.65723h-36.90771v-36.9082h36.90771v36.9082Zm0-37.6582h-36.90771v-36.90723h36.90771v36.90723Zm0-37.65723h-36.90771v-36.90771h36.90771v36.90771Zm0-37.65771h-36.90771v-36.90771h36.90771v36.90771Zm0-37.65771h-36.90771v-36.90771h36.90771v36.90771Zm0-37.65771h-36.90771v-36.90723h36.90771v36.90723Zm0-37.65723h-36.90771v-36.90771h36.90771v36.90771Zm0-37.65771h-36.90771v-36.90771h36.90771v36.90771Zm0-37.65771h-36.90771v-36.90771h36.90771v36.90771Zm0-37.65771h-36.90771v-36.90771h36.90771v36.90771Zm0-37.65771h-36.90771v-36.90771h36.90771v36.90771Zm0-37.65771h-36.90771v-36.90723h36.90771v36.90723Zm0-37.65723h-36.90771v-36.90771h36.90771v36.90771Zm0-37.65771h-36.90771v-36.90771h36.90771v36.90771Zm0-37.65771h-36.90771v-36.90771h36.90771v36.90771Zm0-37.65771h-36.90771v-36.90771h36.90771v36.90771Zm0-37.65771h-36.90771v-36.90771h36.90771v36.90771Zm0-37.65771h-36.90771v-36.90771h36.90771v36.90771Zm0-37.65771h-36.90771v-36.90723h36.90771v36.90723Zm0-37.65723h-36.90771v-36.90771h36.90771v36.90771Zm0-37.65771h-36.90771v-36.90771h36.90771v36.90771Zm0-37.65771h-36.90771v-36.90771h36.90771v36.90771Zm0-37.65771h-36.90771v-36.90771h36.90771v36.90771Zm0-37.65771h-36.90771v-36.90771h36.90771v36.90771Zm37.65771,1581.62109h-36.90771v-36.9082h36.90771v36.9082Zm0-37.6582h-36.90771v-36.90723h36.90771v36.90723Zm0-37.65723h-36.90771v-36.90723h36.90771v36.90723Zm0-37.65723h-36.90771v-36.9082h36.90771v36.9082Zm0-37.6582h-36.90771v-36.90723h36.90771v36.90723Zm0-37.65723h-36.90771v-36.9082h36.90771v36.9082Zm0-37.6582h-36.90771v-36.90723h36.90771v36.90723Zm0-37.65723h-36.90771v-36.9082h36.90771v36.9082Zm0-37.6582h-36.90771v-36.90723h36.90771v36.90723Zm0-37.65723h-36.90771v-36.90723h36.90771v36.90723Zm0-37.65723h-36.90771v-36.9082h36.90771v36.9082Zm0-37.6582h-36.90771v-36.90723h36.90771v36.90723Zm0-37.65723h-36.90771v-36.9082h36.90771v36.9082Zm0-37.6582h-36.90771v-36.90723h36.90771v36.90723Zm0-37.65723h-36.90771v-36.90723h36.90771v36.90723Zm0-37.65723h-36.90771v-36.9082h36.90771v36.9082Zm0-37.6582h-36.90771v-36.90723h36.90771v36.90723Zm0-37.65723h-36.90771v-36.9082h36.90771v36.9082Zm0-37.6582h-36.90771v-36.90723h36.90771v36.90723Zm0-37.65723h-36.90771v-36.9082h36.90771v36.9082Zm0-37.6582h-36.90771v-36.90723h36.90771v36.90723Zm0-37.65723h-36.90771v-36.90771h36.90771v36.90771Zm0-37.65771h-36.90771v-36.90771h36.90771v36.90771Zm0-37.65771h-36.90771v-36.90771h36.90771v36.90771Zm0-37.65771h-36.90771v-36.90723h36.90771v36.90723Zm0-37.65723h-36.90771v-36.90771h36.90771v36.90771Zm0-37.65771h-36.90771v-36.90771h36.90771v36.90771Zm0-37.65771h-36.90771v-36.90771h36.90771v36.90771Zm0-37.65771h-36.90771v-36.90771h36.90771v36.90771Zm0-37.65771h-36.90771v-36.90771h36.90771v36.90771Zm0-37.65771h-36.90771v-36.90723h36.90771v36.90723Zm0-37.65723h-36.90771v-36.90771h36.90771v36.90771Zm0-37.65771h-36.90771v-36.90771h36.90771v36.90771Zm0-37.65771h-36.90771v-36.90771h36.90771v36.90771Zm0-37.65771h-36.90771v-36.90771h36.90771v36.90771Zm0-37.65771h-36.90771v-36.90771h36.90771v36.90771Zm0-37.65771h-36.90771v-36.90771h36.90771v36.90771Zm0-37.65771h-36.90771v-36.90723h36.90771v36.90723Zm0-37.65723h-36.90771v-36.90771h36.90771v36.90771Zm0-37.65771h-36.90771v-36.90771h36.90771v36.90771Zm0-37.65771h-36.90771v-36.90771h36.90771v36.90771Zm0-37.65771h-36.90771v-36.90771h36.90771v36.90771Zm0-37.65771h-36.90771v-36.90771h36.90771v36.90771Zm37.65771,1581.62109h-36.90771v-36.9082h36.90771v36.9082Zm0-37.6582h-36.90771v-36.90723h36.90771v36.90723Zm0-37.65723h-36.90771v-36.90723h36.90771v36.90723Zm0-37.65723h-36.90771v-36.9082h36.90771v36.9082Zm0-37.6582h-36.90771v-36.90723h36.90771v36.90723Zm0-37.65723h-36.90771v-36.9082h36.90771v36.9082Zm0-37.6582h-36.90771v-36.90723h36.90771v36.90723Zm0-37.65723h-36.90771v-36.9082h36.90771v36.9082Zm0-37.6582h-36.90771v-36.90723h36.90771v36.90723Zm0-37.65723h-36.90771v-36.90723h36.90771v36.90723Zm0-37.65723h-36.90771v-36.9082h36.90771v36.9082Zm0-37.6582h-36.90771v-36.90723h36.90771v36.90723Zm0-37.65723h-36.90771v-36.9082h36.90771v36.9082Zm0-37.6582h-36.90771v-36.90723h36.90771v36.90723Zm0-37.65723h-36.90771v-36.90723h36.90771v36.90723Zm0-37.65723h-36.90771v-36.9082h36.90771v36.9082Zm0-37.6582h-36.90771v-36.90723h36.90771v36.90723Zm0-37.65723h-36.90771v-36.9082h36.90771v36.9082Zm0-37.6582h-36.90771v-36.90723h36.90771v36.90723Zm0-37.65723h-36.90771v-36.9082h36.90771v36.9082Zm0-37.6582h-36.90771v-36.90723h36.90771v36.90723Zm0-37.65723h-36.90771v-36.90771h36.90771v36.90771Zm0-37.65771h-36.90771v-36.90771h36.90771v36.90771Zm0-37.65771h-36.90771v-36.90771h36.90771v36.90771Zm0-37.65771h-36.90771v-36.90723h36.90771v36.90723Zm0-37.65723h-36.90771v-36.90771h36.90771v36.90771Zm0-37.65771h-36.90771v-36.90771h36.90771v36.90771Zm0-37.65771h-36.90771v-36.90771h36.90771v36.90771Zm0-37.65771h-36.90771v-36.90771h36.90771v36.90771Zm0-37.65771h-36.90771v-36.90771h36.90771v36.90771Zm0-37.65771h-36.90771v-36.90723h36.90771v36.90723Zm0-37.65723h-36.90771v-36.90771h36.90771v36.90771Zm0-37.65771h-36.90771v-36.90771h36.90771v36.90771Zm0-37.65771h-36.90771v-36.90771h36.90771v36.90771Zm0-37.65771h-36.90771v-36.90771h36.90771v36.90771Zm0-37.65771h-36.90771v-36.90771h36.90771v36.90771Zm0-37.65771h-36.90771v-36.90771h36.90771v36.90771Zm0-37.65771h-36.90771v-36.90723h36.90771v36.90723Zm0-37.65723h-36.90771v-36.90771h36.90771v36.90771Zm0-37.65771h-36.90771v-36.90771h36.90771v36.90771Zm0-37.65771h-36.90771v-36.90771h36.90771v36.90771Zm0-37.65771h-36.90771v-36.90771h36.90771v36.90771Zm0-37.65771h-36.90771v-36.90771h36.90771v36.90771Zm37.65771,1581.62109h-36.90771v-36.9082h36.90771v36.9082Zm0-37.6582h-36.90771v-36.90723h36.90771v36.90723Zm0-37.65723h-36.90771v-36.90723h36.90771v36.90723Zm0-37.65723h-36.90771v-36.9082h36.90771v36.9082Zm0-37.6582h-36.90771v-36.90723h36.90771v36.90723Zm0-37.65723h-36.90771v-36.9082h36.90771v36.9082Zm0-37.6582h-36.90771v-36.90723h36.90771v36.90723Zm0-37.65723h-36.90771v-36.9082h36.90771v36.9082Zm0-37.6582h-36.90771v-36.90723h36.90771v36.90723Zm0-37.65723h-36.90771v-36.90723h36.90771v36.90723Zm0-37.65723h-36.90771v-36.9082h36.90771v36.9082Zm0-37.6582h-36.90771v-36.90723h36.90771v36.90723Zm0-37.65723h-36.90771v-36.9082h36.90771v36.9082Zm0-37.6582h-36.90771v-36.90723h36.90771v36.90723Zm0-37.65723h-36.90771v-36.90723h36.90771v36.90723Zm0-37.65723h-36.90771v-36.9082h36.90771v36.9082Zm0-37.6582h-36.90771v-36.90723h36.90771v36.90723Zm0-37.65723h-36.90771v-36.9082h36.90771v36.9082Zm0-37.6582h-36.90771v-36.90723h36.90771v36.90723Zm0-37.65723h-36.90771v-36.9082h36.90771v36.9082Zm0-37.6582h-36.90771v-36.90723h36.90771v36.90723Zm0-37.65723h-36.90771v-36.90771h36.90771v36.90771Zm0-37.65771h-36.90771v-36.90771h36.90771v36.90771Zm0-37.65771h-36.90771v-36.90771h36.90771v36.90771Zm0-37.65771h-36.90771v-36.90723h36.90771v36.90723Zm0-37.65723h-36.90771v-36.90771h36.90771v36.90771Zm0-37.65771h-36.90771v-36.90771h36.90771v36.90771Zm0-37.65771h-36.90771v-36.90771h36.90771v36.90771Zm0-37.65771h-36.90771v-36.90771h36.90771v36.90771Zm0-37.65771h-36.90771v-36.90771h36.90771v36.90771Zm0-37.65771h-36.90771v-36.90723h36.90771v36.90723Zm0-37.65723h-36.90771v-36.90771h36.90771v36.90771Zm0-37.65771h-36.90771v-36.90771h36.90771v36.90771Zm0-37.65771h-36.90771v-36.90771h36.90771v36.90771Zm0-37.65771h-36.90771v-36.90771h36.90771v36.90771Zm0-37.65771h-36.90771v-36.90771h36.90771v36.90771Zm0-37.65771h-36.90771v-36.90771h36.90771v36.90771Zm0-37.65771h-36.90771v-36.90723h36.90771v36.90723Zm0-37.65723h-36.90771v-36.90771h36.90771v36.90771Zm0-37.65771h-36.90771v-36.90771h36.90771v36.90771Zm0-37.65771h-36.90771v-36.90771h36.90771v36.90771Zm0-37.65771h-36.90771v-36.90771h36.90771v36.90771Zm0-37.65771h-36.90771v-36.90771h36.90771v36.90771Zm37.65723,1581.62109h-36.90723v-36.9082h36.90723v36.9082Zm0-37.6582h-36.90723v-36.90723h36.90723v36.90723Zm0-37.65723h-36.90723v-36.90723h36.90723v36.90723Zm0-37.65723h-36.90723v-36.9082h36.90723v36.9082Zm0-37.6582h-36.90723v-36.90723h36.90723v36.90723Zm0-37.65723h-36.90723v-36.9082h36.90723v36.9082Zm0-37.6582h-36.90723v-36.90723h36.90723v36.90723Zm0-37.65723h-36.90723v-36.9082h36.90723v36.9082Zm0-37.6582h-36.90723v-36.90723h36.90723v36.90723Zm0-37.65723h-36.90723v-36.90723h36.90723v36.90723Zm0-37.65723h-36.90723v-36.9082h36.90723v36.9082Zm0-37.6582h-36.90723v-36.90723h36.90723v36.90723Zm0-37.65723h-36.90723v-36.9082h36.90723v36.9082Zm0-37.6582h-36.90723v-36.90723h36.90723v36.90723Zm0-37.65723h-36.90723v-36.90723h36.90723v36.90723Zm0-37.65723h-36.90723v-36.9082h36.90723v36.9082Zm0-37.6582h-36.90723v-36.90723h36.90723v36.90723Zm0-37.65723h-36.90723v-36.9082h36.90723v36.9082Zm0-37.6582h-36.90723v-36.90723h36.90723v36.90723Zm0-37.65723h-36.90723v-36.9082h36.90723v36.9082Zm0-37.6582h-36.90723v-36.90723h36.90723v36.90723Zm0-37.65723h-36.90723v-36.90771h36.90723v36.90771Zm0-37.65771h-36.90723v-36.90771h36.90723v36.90771Zm0-37.65771h-36.90723v-36.90771h36.90723v36.90771Zm0-37.65771h-36.90723v-36.90723h36.90723v36.90723Zm0-37.65723h-36.90723v-36.90771h36.90723v36.90771Zm0-37.65771h-36.90723v-36.90771h36.90723v36.90771Zm0-37.65771h-36.90723v-36.90771h36.90723v36.90771Zm0-37.65771h-36.90723v-36.90771h36.90723v36.90771Zm0-37.65771h-36.90723v-36.90771h36.90723v36.90771Zm0-37.65771h-36.90723v-36.90723h36.90723v36.90723Zm0-37.65723h-36.90723v-36.90771h36.90723v36.90771Zm0-37.65771h-36.90723v-36.90771h36.90723v36.90771Zm0-37.65771h-36.90723v-36.90771h36.90723v36.90771Zm0-37.65771h-36.90723v-36.90771h36.90723v36.90771Zm0-37.65771h-36.90723v-36.90771h36.90723v36.90771Zm0-37.65771h-36.90723v-36.90771h36.90723v36.90771Zm0-37.65771h-36.90723v-36.90723h36.90723v36.90723Zm0-37.65723h-36.90723v-36.90771h36.90723v36.90771Zm0-37.65771h-36.90723v-36.90771h36.90723v36.90771Zm0-37.65771h-36.90723v-36.90771h36.90723v36.90771Zm0-37.65771h-36.90723v-36.90771h36.90723v36.90771Zm0-37.65771h-36.90723v-36.90771h36.90723v36.90771Zm37.65771,1581.62109h-36.90771v-36.9082h36.90771v36.9082Zm0-37.6582h-36.90771v-36.90723h36.90771v36.90723Zm0-37.65723h-36.90771v-36.90723h36.90771v36.90723Zm0-37.65723h-36.90771v-36.9082h36.90771v36.9082Zm0-37.6582h-36.90771v-36.90723h36.90771v36.90723Zm0-37.65723h-36.90771v-36.9082h36.90771v36.9082Zm0-37.6582h-36.90771v-36.90723h36.90771v36.90723Zm0-37.65723h-36.90771v-36.9082h36.90771v36.9082Zm0-37.6582h-36.90771v-36.90723h36.90771v36.90723Zm0-37.65723h-36.90771v-36.90723h36.90771v36.90723Zm0-37.65723h-36.90771v-36.9082h36.90771v36.9082Zm0-37.6582h-36.90771v-36.90723h36.90771v36.90723Zm0-37.65723h-36.90771v-36.9082h36.90771v36.9082Zm0-37.6582h-36.90771v-36.90723h36.90771v36.90723Zm0-37.65723h-36.90771v-36.90723h36.90771v36.90723Zm0-37.65723h-36.90771v-36.9082h36.90771v36.9082Zm0-37.6582h-36.90771v-36.90723h36.90771v36.90723Zm0-37.65723h-36.90771v-36.9082h36.90771v36.9082Zm0-37.6582h-36.90771v-36.90723h36.90771v36.90723Zm0-37.65723h-36.90771v-36.9082h36.90771v36.9082Zm0-37.6582h-36.90771v-36.90723h36.90771v36.90723Zm0-37.65723h-36.90771v-36.90771h36.90771v36.90771Zm0-37.65771h-36.90771v-36.90771h36.90771v36.90771Zm0-37.65771h-36.90771v-36.90771h36.90771v36.90771Zm0-37.65771h-36.90771v-36.90723h36.90771v36.90723Zm0-37.65723h-36.90771v-36.90771h36.90771v36.90771Zm0-37.65771h-36.90771v-36.90771h36.90771v36.90771Zm0-37.65771h-36.90771v-36.90771h36.90771v36.90771Zm0-37.65771h-36.90771v-36.90771h36.90771v36.90771Zm0-37.65771h-36.90771v-36.90771h36.90771v36.90771Zm0-37.65771h-36.90771v-36.90723h36.90771v36.90723Zm0-37.65723h-36.90771v-36.90771h36.90771v36.90771Zm0-37.65771h-36.90771v-36.90771h36.90771v36.90771Zm0-37.65771h-36.90771v-36.90771h36.90771v36.90771Zm0-37.65771h-36.90771v-36.90771h36.90771v36.90771Zm0-37.65771h-36.90771v-36.90771h36.90771v36.90771Zm0-37.65771h-36.90771v-36.90771h36.90771v36.90771Zm0-37.65771h-36.90771v-36.90723h36.90771v36.90723Zm0-37.65723h-36.90771v-36.90771h36.90771v36.90771Zm0-37.65771h-36.90771v-36.90771h36.90771v36.90771Zm0-37.65771h-36.90771v-36.90771h36.90771v36.90771Zm0-37.65771h-36.90771v-36.90771h36.90771v36.90771Zm0-37.65771h-36.90771v-36.90771h36.90771v36.90771Zm37.65771,1581.62109h-36.90771v-36.9082h36.90771v36.9082Zm0-37.6582h-36.90771v-36.90723h36.90771v36.90723Zm0-37.65723h-36.90771v-36.90723h36.90771v36.90723Zm0-37.65723h-36.90771v-36.9082h36.90771v36.9082Zm0-37.6582h-36.90771v-36.90723h36.90771v36.90723Zm0-37.65723h-36.90771v-36.9082h36.90771v36.9082Zm0-37.6582h-36.90771v-36.90723h36.90771v36.90723Zm0-37.65723h-36.90771v-36.9082h36.90771v36.9082Zm0-37.6582h-36.90771v-36.90723h36.90771v36.90723Zm0-37.65723h-36.90771v-36.90723h36.90771v36.90723Zm0-37.65723h-36.90771v-36.9082h36.90771v36.9082Zm0-37.6582h-36.90771v-36.90723h36.90771v36.90723Zm0-37.65723h-36.90771v-36.9082h36.90771v36.9082Zm0-37.6582h-36.90771v-36.90723h36.90771v36.90723Zm0-37.65723h-36.90771v-36.90723h36.90771v36.90723Zm0-37.65723h-36.90771v-36.9082h36.90771v36.9082Zm0-37.6582h-36.90771v-36.90723h36.90771v36.90723Zm0-37.65723h-36.90771v-36.9082h36.90771v36.9082Zm0-37.6582h-36.90771v-36.90723h36.90771v36.90723Zm0-37.65723h-36.90771v-36.9082h36.90771v36.9082Zm0-37.6582h-36.90771v-36.90723h36.90771v36.90723Zm0-37.65723h-36.90771v-36.90771h36.90771v36.90771Zm0-37.65771h-36.90771v-36.90771h36.90771v36.90771Zm0-37.65771h-36.90771v-36.90771h36.90771v36.90771Zm0-37.65771h-36.90771v-36.90723h36.90771v36.90723Zm0-37.65723h-36.90771v-36.90771h36.90771v36.90771Zm0-37.65771h-36.90771v-36.90771h36.90771v36.90771Zm0-37.65771h-36.90771v-36.90771h36.90771v36.90771Zm0-37.65771h-36.90771v-36.90771h36.90771v36.90771Zm0-37.65771h-36.90771v-36.90771h36.90771v36.90771Zm0-37.65771h-36.90771v-36.90723h36.90771v36.90723Zm0-37.65723h-36.90771v-36.90771h36.90771v36.90771Zm0-37.65771h-36.90771v-36.90771h36.90771v36.90771Zm0-37.65771h-36.90771v-36.90771h36.90771v36.90771Zm0-37.65771h-36.90771v-36.90771h36.90771v36.90771Zm0-37.65771h-36.90771v-36.90771h36.90771v36.90771Zm0-37.65771h-36.90771v-36.90771h36.90771v36.90771Zm0-37.65771h-36.90771v-36.90723h36.90771v36.90723Zm0-37.65723h-36.90771v-36.90771h36.90771v36.90771Zm0-37.65771h-36.90771v-36.90771h36.90771v36.90771Zm0-37.65771h-36.90771v-36.90771h36.90771v36.90771Zm0-37.65771h-36.90771v-36.90771h36.90771v36.90771Zm0-37.65771h-36.90771v-36.90771h36.90771v36.90771Zm37.65771,1581.62109h-36.90771v-36.9082h36.90771v36.9082Zm0-37.6582h-36.90771v-36.90723h36.90771v36.90723Zm0-37.65723h-36.90771v-36.90723h36.90771v36.90723Zm0-37.65723h-36.90771v-36.9082h36.90771v36.9082Zm0-37.6582h-36.90771v-36.90723h36.90771v36.90723Zm0-37.65723h-36.90771v-36.9082h36.90771v36.9082Zm0-37.6582h-36.90771v-36.90723h36.90771v36.90723Zm0-37.65723h-36.90771v-36.9082h36.90771v36.9082Zm0-37.6582h-36.90771v-36.90723h36.90771v36.90723Zm0-37.65723h-36.90771v-36.90723h36.90771v36.90723Zm0-37.65723h-36.90771v-36.9082h36.90771v36.9082Zm0-37.6582h-36.90771v-36.90723h36.90771v36.90723Zm0-37.65723h-36.90771v-36.9082h36.90771v36.9082Zm0-37.6582h-36.90771v-36.90723h36.90771v36.90723Zm0-37.65723h-36.90771v-36.90723h36.90771v36.90723Zm0-37.65723h-36.90771v-36.9082h36.90771v36.9082Zm0-37.6582h-36.90771v-36.90723h36.90771v36.90723Zm0-37.65723h-36.90771v-36.9082h36.90771v36.9082Zm0-37.6582h-36.90771v-36.90723h36.90771v36.90723Zm0-37.65723h-36.90771v-36.9082h36.90771v36.9082Zm0-37.6582h-36.90771v-36.90723h36.90771v36.90723Zm0-37.65723h-36.90771v-36.90771h36.90771v36.90771Zm0-37.65771h-36.90771v-36.90771h36.90771v36.90771Zm0-37.65771h-36.90771v-36.90771h36.90771v36.90771Zm0-37.65771h-36.90771v-36.90723h36.90771v36.90723Zm0-37.65723h-36.90771v-36.90771h36.90771v36.90771Zm0-37.65771h-36.90771v-36.90771h36.90771v36.90771Zm0-37.65771h-36.90771v-36.90771h36.90771v36.90771Zm0-37.65771h-36.90771v-36.90771h36.90771v36.90771Zm0-37.65771h-36.90771v-36.90771h36.90771v36.90771Zm0-37.65771h-36.90771v-36.90723h36.90771v36.90723Zm0-37.65723h-36.90771v-36.90771h36.90771v36.90771Zm0-37.65771h-36.90771v-36.90771h36.90771v36.90771Zm0-37.65771h-36.90771v-36.90771h36.90771v36.90771Zm0-37.65771h-36.90771v-36.90771h36.90771v36.90771Zm0-37.65771h-36.90771v-36.90771h36.90771v36.90771Zm0-37.65771h-36.90771v-36.90771h36.90771v36.90771Zm0-37.65771h-36.90771v-36.90723h36.90771v36.90723Zm0-37.65723h-36.90771v-36.90771h36.90771v36.90771Zm0-37.65771h-36.90771v-36.90771h36.90771v36.90771Zm0-37.65771h-36.90771v-36.90771h36.90771v36.90771Zm0-37.65771h-36.90771v-36.90771h36.90771v36.90771Zm0-37.65771h-36.90771v-36.90771h36.90771v36.90771Zm37.65771,1581.62109h-36.90771v-36.9082h36.90771v36.9082Zm0-37.6582h-36.90771v-36.90723h36.90771v36.90723Zm0-37.65723h-36.90771v-36.90723h36.90771v36.90723Zm0-37.65723h-36.90771v-36.9082h36.90771v36.9082Zm0-37.6582h-36.90771v-36.90723h36.90771v36.90723Zm0-37.65723h-36.90771v-36.9082h36.90771v36.9082Zm0-37.6582h-36.90771v-36.90723h36.90771v36.90723Zm0-37.65723h-36.90771v-36.9082h36.90771v36.9082Zm0-37.6582h-36.90771v-36.90723h36.90771v36.90723Zm0-37.65723h-36.90771v-36.90723h36.90771v36.90723Zm0-37.65723h-36.90771v-36.9082h36.90771v36.9082Zm0-37.6582h-36.90771v-36.90723h36.90771v36.90723Zm0-37.65723h-36.90771v-36.9082h36.90771v36.9082Zm0-37.6582h-36.90771v-36.90723h36.90771v36.90723Zm0-37.65723h-36.90771v-36.90723h36.90771v36.90723Zm0-37.65723h-36.90771v-36.9082h36.90771v36.9082Zm0-37.6582h-36.90771v-36.90723h36.90771v36.90723Zm0-37.65723h-36.90771v-36.9082h36.90771v36.9082Zm0-37.6582h-36.90771v-36.90723h36.90771v36.90723Zm0-37.65723h-36.90771v-36.9082h36.90771v36.9082Zm0-37.6582h-36.90771v-36.90723h36.90771v36.90723Zm0-37.65723h-36.90771v-36.90771h36.90771v36.90771Zm0-37.65771h-36.90771v-36.90771h36.90771v36.90771Zm0-37.65771h-36.90771v-36.90771h36.90771v36.90771Zm0-37.65771h-36.90771v-36.90723h36.90771v36.90723Zm0-37.65723h-36.90771v-36.90771h36.90771v36.90771Zm0-37.65771h-36.90771v-36.90771h36.90771v36.90771Zm0-37.65771h-36.90771v-36.90771h36.90771v36.90771Zm0-37.65771h-36.90771v-36.90771h36.90771v36.90771Zm0-37.65771h-36.90771v-36.90771h36.90771v36.90771Zm0-37.65771h-36.90771v-36.90723h36.90771v36.90723Zm0-37.65723h-36.90771v-36.90771h36.90771v36.90771Zm0-37.65771h-36.90771v-36.90771h36.90771v36.90771Zm0-37.65771h-36.90771v-36.90771h36.90771v36.90771Zm0-37.65771h-36.90771v-36.90771h36.90771v36.90771Zm0-37.65771h-36.90771v-36.90771h36.90771v36.90771Zm0-37.65771h-36.90771v-36.90771h36.90771v36.90771Zm0-37.65771h-36.90771v-36.90723h36.90771v36.90723Zm0-37.65723h-36.90771v-36.90771h36.90771v36.90771Zm0-37.65771h-36.90771v-36.90771h36.90771v36.90771Zm0-37.65771h-36.90771v-36.90771h36.90771v36.90771Zm0-37.65771h-36.90771v-36.90771h36.90771v36.90771Zm0-37.65771h-36.90771v-36.90771h36.90771v36.90771Zm37.65771,1581.62109h-36.90771v-36.9082h36.90771v36.9082Zm0-37.6582h-36.90771v-36.90723h36.90771v36.90723Zm0-37.65723h-36.90771v-36.90723h36.90771v36.90723Zm0-37.65723h-36.90771v-36.9082h36.90771v36.9082Zm0-37.6582h-36.90771v-36.90723h36.90771v36.90723Zm0-37.65723h-36.90771v-36.9082h36.90771v36.9082Zm0-37.6582h-36.90771v-36.90723h36.90771v36.90723Zm0-37.65723h-36.90771v-36.9082h36.90771v36.9082Zm0-37.6582h-36.90771v-36.90723h36.90771v36.90723Zm0-37.65723h-36.90771v-36.90723h36.90771v36.90723Zm0-37.65723h-36.90771v-36.9082h36.90771v36.9082Zm0-37.6582h-36.90771v-36.90723h36.90771v36.90723Zm0-37.65723h-36.90771v-36.9082h36.90771v36.9082Zm0-37.6582h-36.90771v-36.90723h36.90771v36.90723Zm0-37.65723h-36.90771v-36.90723h36.90771v36.90723Zm0-37.65723h-36.90771v-36.9082h36.90771v36.9082Zm0-37.6582h-36.90771v-36.90723h36.90771v36.90723Zm0-37.65723h-36.90771v-36.9082h36.90771v36.9082Zm0-37.6582h-36.90771v-36.90723h36.90771v36.90723Zm0-37.65723h-36.90771v-36.9082h36.90771v36.9082Zm0-37.6582h-36.90771v-36.90723h36.90771v36.90723Zm0-37.65723h-36.90771v-36.90771h36.90771v36.90771Zm0-37.65771h-36.90771v-36.90771h36.90771v36.90771Zm0-37.65771h-36.90771v-36.90771h36.90771v36.90771Zm0-37.65771h-36.90771v-36.90723h36.90771v36.90723Zm0-37.65723h-36.90771v-36.90771h36.90771v36.90771Zm0-37.65771h-36.90771v-36.90771h36.90771v36.90771Zm0-37.65771h-36.90771v-36.90771h36.90771v36.90771Zm0-37.65771h-36.90771v-36.90771h36.90771v36.90771Zm0-37.65771h-36.90771v-36.90771h36.90771v36.90771Zm0-37.65771h-36.90771v-36.90723h36.90771v36.90723Zm0-37.65723h-36.90771v-36.90771h36.90771v36.90771Zm0-37.65771h-36.90771v-36.90771h36.90771v36.90771Zm0-37.65771h-36.90771v-36.90771h36.90771v36.90771Zm0-37.65771h-36.90771v-36.90771h36.90771v36.90771Zm0-37.65771h-36.90771v-36.90771h36.90771v36.90771Zm0-37.65771h-36.90771v-36.90771h36.90771v36.90771Zm0-37.65771h-36.90771v-36.90723h36.90771v36.90723Zm0-37.65723h-36.90771v-36.90771h36.90771v36.90771Zm0-37.65771h-36.90771v-36.90771h36.90771v36.90771Zm0-37.65771h-36.90771v-36.90771h36.90771v36.90771Zm0-37.65771h-36.90771v-36.90771h36.90771v36.90771Zm0-37.65771h-36.90771v-36.90771h36.90771v36.90771Zm37.65771,1581.62109h-36.90771v-36.9082h36.90771v36.9082Zm0-37.6582h-36.90771v-36.90723h36.90771v36.90723Zm0-37.65723h-36.90771v-36.90723h36.90771v36.90723Zm0-37.65723h-36.90771v-36.9082h36.90771v36.9082Zm0-37.6582h-36.90771v-36.90723h36.90771v36.90723Zm0-37.65723h-36.90771v-36.9082h36.90771v36.9082Zm0-37.6582h-36.90771v-36.90723h36.90771v36.90723Zm0-37.65723h-36.90771v-36.9082h36.90771v36.9082Zm0-37.6582h-36.90771v-36.90723h36.90771v36.90723Zm0-37.65723h-36.90771v-36.90723h36.90771v36.90723Zm0-37.65723h-36.90771v-36.9082h36.90771v36.9082Zm0-37.6582h-36.90771v-36.90723h36.90771v36.90723Zm0-37.65723h-36.90771v-36.9082h36.90771v36.9082Zm0-37.6582h-36.90771v-36.90723h36.90771v36.90723Zm0-37.65723h-36.90771v-36.90723h36.90771v36.90723Zm0-37.65723h-36.90771v-36.9082h36.90771v36.9082Zm0-37.6582h-36.90771v-36.90723h36.90771v36.90723Zm0-37.65723h-36.90771v-36.9082h36.90771v36.9082Zm0-37.6582h-36.90771v-36.90723h36.90771v36.90723Zm0-37.65723h-36.90771v-36.9082h36.90771v36.9082Zm0-37.6582h-36.90771v-36.90723h36.90771v36.90723Zm0-37.65723h-36.90771v-36.90771h36.90771v36.90771Zm0-37.65771h-36.90771v-36.90771h36.90771v36.90771Zm0-37.65771h-36.90771v-36.90771h36.90771v36.90771Zm0-37.65771h-36.90771v-36.90723h36.90771v36.90723Zm0-37.65723h-36.90771v-36.90771h36.90771v36.90771Zm0-37.65771h-36.90771v-36.90771h36.90771v36.90771Zm0-37.65771h-36.90771v-36.90771h36.90771v36.90771Zm0-37.65771h-36.90771v-36.90771h36.90771v36.90771Zm0-37.65771h-36.90771v-36.90771h36.90771v36.90771Zm0-37.65771h-36.90771v-36.90723h36.90771v36.90723Zm0-37.65723h-36.90771v-36.90771h36.90771v36.90771Zm0-37.65771h-36.90771v-36.90771h36.90771v36.90771Zm0-37.65771h-36.90771v-36.90771h36.90771v36.90771Zm0-37.65771h-36.90771v-36.90771h36.90771v36.90771Zm0-37.65771h-36.90771v-36.90771h36.90771v36.90771Zm0-37.65771h-36.90771v-36.90771h36.90771v36.90771Zm0-37.65771h-36.90771v-36.90723h36.90771v36.90723Zm0-37.65723h-36.90771v-36.90771h36.90771v36.90771Zm0-37.65771h-36.90771v-36.90771h36.90771v36.90771Zm0-37.65771h-36.90771v-36.90771h36.90771v36.90771Zm0-37.65771h-36.90771v-36.90771h36.90771v36.90771Zm0-37.65771h-36.90771v-36.90771h36.90771v36.90771Zm37.65723,1581.62109h-36.90723v-36.9082h36.90723v36.9082Zm0-37.6582h-36.90723v-36.90723h36.90723v36.90723Zm0-37.65723h-36.90723v-36.90723h36.90723v36.90723Zm0-37.65723h-36.90723v-36.9082h36.90723v36.9082Zm0-37.6582h-36.90723v-36.90723h36.90723v36.90723Zm0-37.65723h-36.90723v-36.9082h36.90723v36.9082Zm0-37.6582h-36.90723v-36.90723h36.90723v36.90723Zm0-37.65723h-36.90723v-36.9082h36.90723v36.9082Zm0-37.6582h-36.90723v-36.90723h36.90723v36.90723Zm0-37.65723h-36.90723v-36.90723h36.90723v36.90723Zm0-37.65723h-36.90723v-36.9082h36.90723v36.9082Zm0-37.6582h-36.90723v-36.90723h36.90723v36.90723Zm0-37.65723h-36.90723v-36.9082h36.90723v36.9082Zm0-37.6582h-36.90723v-36.90723h36.90723v36.90723Zm0-37.65723h-36.90723v-36.90723h36.90723v36.90723Zm0-37.65723h-36.90723v-36.9082h36.90723v36.9082Zm0-37.6582h-36.90723v-36.90723h36.90723v36.90723Zm0-37.65723h-36.90723v-36.9082h36.90723v36.9082Zm0-37.6582h-36.90723v-36.90723h36.90723v36.90723Zm0-37.65723h-36.90723v-36.9082h36.90723v36.9082Zm0-37.6582h-36.90723v-36.90723h36.90723v36.90723Zm0-37.65723h-36.90723v-36.90771h36.90723v36.90771Zm0-37.65771h-36.90723v-36.90771h36.90723v36.90771Zm0-37.65771h-36.90723v-36.90771h36.90723v36.90771Zm0-37.65771h-36.90723v-36.90723h36.90723v36.90723Zm0-37.65723h-36.90723v-36.90771h36.90723v36.90771Zm0-37.65771h-36.90723v-36.90771h36.90723v36.90771Zm0-37.65771h-36.90723v-36.90771h36.90723v36.90771Zm0-37.65771h-36.90723v-36.90771h36.90723v36.90771Zm0-37.65771h-36.90723v-36.90771h36.90723v36.90771Zm0-37.65771h-36.90723v-36.90723h36.90723v36.90723Zm0-37.65723h-36.90723v-36.90771h36.90723v36.90771Zm0-37.65771h-36.90723v-36.90771h36.90723v36.90771Zm0-37.65771h-36.90723v-36.90771h36.90723v36.90771Zm0-37.65771h-36.90723v-36.90771h36.90723v36.90771Zm0-37.65771h-36.90723v-36.90771h36.90723v36.90771Zm0-37.65771h-36.90723v-36.90771h36.90723v36.90771Zm0-37.65771h-36.90723v-36.90723h36.90723v36.90723Zm0-37.65723h-36.90723v-36.90771h36.90723v36.90771Zm0-37.65771h-36.90723v-36.90771h36.90723v36.90771Zm0-37.65771h-36.90723v-36.90771h36.90723v36.90771Zm0-37.65771h-36.90723v-36.90771h36.90723v36.90771Zm0-37.65771h-36.90723v-36.90771h36.90723v36.90771Zm37.65771,1581.62109h-36.90771v-36.9082h36.90771v36.9082Zm0-37.6582h-36.90771v-36.90723h36.90771v36.90723Zm0-37.65723h-36.90771v-36.90723h36.90771v36.90723Zm0-37.65723h-36.90771v-36.9082h36.90771v36.9082Zm0-37.6582h-36.90771v-36.90723h36.90771v36.90723Zm0-37.65723h-36.90771v-36.9082h36.90771v36.9082Zm0-37.6582h-36.90771v-36.90723h36.90771v36.90723Zm0-37.65723h-36.90771v-36.9082h36.90771v36.9082Zm0-37.6582h-36.90771v-36.90723h36.90771v36.90723Zm0-37.65723h-36.90771v-36.90723h36.90771v36.90723Zm0-37.65723h-36.90771v-36.9082h36.90771v36.9082Zm0-37.6582h-36.90771v-36.90723h36.90771v36.90723Zm0-37.65723h-36.90771v-36.9082h36.90771v36.9082Zm0-37.6582h-36.90771v-36.90723h36.90771v36.90723Zm0-37.65723h-36.90771v-36.90723h36.90771v36.90723Zm0-37.65723h-36.90771v-36.9082h36.90771v36.9082Zm0-37.6582h-36.90771v-36.90723h36.90771v36.90723Zm0-37.65723h-36.90771v-36.9082h36.90771v36.9082Zm0-37.6582h-36.90771v-36.90723h36.90771v36.90723Zm0-37.65723h-36.90771v-36.9082h36.90771v36.9082Zm0-37.6582h-36.90771v-36.90723h36.90771v36.90723Zm0-37.65723h-36.90771v-36.90771h36.90771v36.90771Zm0-37.65771h-36.90771v-36.90771h36.90771v36.90771Zm0-37.65771h-36.90771v-36.90771h36.90771v36.90771Zm0-37.65771h-36.90771v-36.90723h36.90771v36.90723Zm0-37.65723h-36.90771v-36.90771h36.90771v36.90771Zm0-37.65771h-36.90771v-36.90771h36.90771v36.90771Zm0-37.65771h-36.90771v-36.90771h36.90771v36.90771Zm0-37.65771h-36.90771v-36.90771h36.90771v36.90771Zm0-37.65771h-36.90771v-36.90771h36.90771v36.90771Zm0-37.65771h-36.90771v-36.90723h36.90771v36.90723Zm0-37.65723h-36.90771v-36.90771h36.90771v36.90771Zm0-37.65771h-36.90771v-36.90771h36.90771v36.90771Zm0-37.65771h-36.90771v-36.90771h36.90771v36.90771Zm0-37.65771h-36.90771v-36.90771h36.90771v36.90771Zm0-37.65771h-36.90771v-36.90771h36.90771v36.90771Zm0-37.65771h-36.90771v-36.90771h36.90771v36.90771Zm0-37.65771h-36.90771v-36.90723h36.90771v36.90723Zm0-37.65723h-36.90771v-36.90771h36.90771v36.90771Zm0-37.65771h-36.90771v-36.90771h36.90771v36.90771Zm0-37.65771h-36.90771v-36.90771h36.90771v36.90771Zm0-37.65771h-36.90771v-36.90771h36.90771v36.90771Zm0-37.65771h-36.90771v-36.90771h36.90771v36.90771Zm37.65771,1581.62109h-36.90771v-36.9082h36.90771v36.9082Zm0-37.6582h-36.90771v-36.90723h36.90771v36.90723Zm0-37.65723h-36.90771v-36.90723h36.90771v36.90723Zm0-37.65723h-36.90771v-36.9082h36.90771v36.9082Zm0-37.6582h-36.90771v-36.90723h36.90771v36.90723Zm0-37.65723h-36.90771v-36.9082h36.90771v36.9082Zm0-37.6582h-36.90771v-36.90723h36.90771v36.90723Zm0-37.65723h-36.90771v-36.9082h36.90771v36.9082Zm0-37.6582h-36.90771v-36.90723h36.90771v36.90723Zm0-37.65723h-36.90771v-36.90723h36.90771v36.90723Zm0-37.65723h-36.90771v-36.9082h36.90771v36.9082Zm0-37.6582h-36.90771v-36.90723h36.90771v36.90723Zm0-37.65723h-36.90771v-36.9082h36.90771v36.9082Zm0-37.6582h-36.90771v-36.90723h36.90771v36.90723Zm0-37.65723h-36.90771v-36.90723h36.90771v36.90723Zm0-37.65723h-36.90771v-36.9082h36.90771v36.9082Zm0-37.6582h-36.90771v-36.90723h36.90771v36.90723Zm0-37.65723h-36.90771v-36.9082h36.90771v36.9082Zm0-37.6582h-36.90771v-36.90723h36.90771v36.90723Zm0-37.65723h-36.90771v-36.9082h36.90771v36.9082Zm0-37.6582h-36.90771v-36.90723h36.90771v36.90723Zm0-37.65723h-36.90771v-36.90771h36.90771v36.90771Zm0-37.65771h-36.90771v-36.90771h36.90771v36.90771Zm0-37.65771h-36.90771v-36.90771h36.90771v36.90771Zm0-37.65771h-36.90771v-36.90723h36.90771v36.90723Zm0-37.65723h-36.90771v-36.90771h36.90771v36.90771Zm0-37.65771h-36.90771v-36.90771h36.90771v36.90771Zm0-37.65771h-36.90771v-36.90771h36.90771v36.90771Zm0-37.65771h-36.90771v-36.90771h36.90771v36.90771Zm0-37.65771h-36.90771v-36.90771h36.90771v36.90771Zm0-37.65771h-36.90771v-36.90723h36.90771v36.90723Zm0-37.65723h-36.90771v-36.90771h36.90771v36.90771Zm0-37.65771h-36.90771v-36.90771h36.90771v36.90771Zm0-37.65771h-36.90771v-36.90771h36.90771v36.90771Zm0-37.65771h-36.90771v-36.90771h36.90771v36.90771Zm0-37.65771h-36.90771v-36.90771h36.90771v36.90771Zm0-37.65771h-36.90771v-36.90771h36.90771v36.90771Zm0-37.65771h-36.90771v-36.90723h36.90771v36.90723Zm0-37.65723h-36.90771v-36.90771h36.90771v36.90771Zm0-37.65771h-36.90771v-36.90771h36.90771v36.90771Zm0-37.65771h-36.90771v-36.90771h36.90771v36.90771Zm0-37.65771h-36.90771v-36.90771h36.90771v36.90771Zm0-37.65771h-36.90771v-36.90771h36.90771v36.90771Zm37.65771,1581.62109h-36.90771v-36.9082h36.90771v36.9082Zm0-37.6582h-36.90771v-36.90723h36.90771v36.90723Zm0-37.65723h-36.90771v-36.90723h36.90771v36.90723Zm0-37.65723h-36.90771v-36.9082h36.90771v36.9082Zm0-37.6582h-36.90771v-36.90723h36.90771v36.90723Zm0-37.65723h-36.90771v-36.9082h36.90771v36.9082Zm0-37.6582h-36.90771v-36.90723h36.90771v36.90723Zm0-37.65723h-36.90771v-36.9082h36.90771v36.9082Zm0-37.6582h-36.90771v-36.90723h36.90771v36.90723Zm0-37.65723h-36.90771v-36.90723h36.90771v36.90723Zm0-37.65723h-36.90771v-36.9082h36.90771v36.9082Zm0-37.6582h-36.90771v-36.90723h36.90771v36.90723Zm0-37.65723h-36.90771v-36.9082h36.90771v36.9082Zm0-37.6582h-36.90771v-36.90723h36.90771v36.90723Zm0-37.65723h-36.90771v-36.90723h36.90771v36.90723Zm0-37.65723h-36.90771v-36.9082h36.90771v36.9082Zm0-37.6582h-36.90771v-36.90723h36.90771v36.90723Zm0-37.65723h-36.90771v-36.9082h36.90771v36.9082Zm0-37.6582h-36.90771v-36.90723h36.90771v36.90723Zm0-37.65723h-36.90771v-36.9082h36.90771v36.9082Zm0-37.6582h-36.90771v-36.90723h36.90771v36.90723Zm0-37.65723h-36.90771v-36.90771h36.90771v36.90771Zm0-37.65771h-36.90771v-36.90771h36.90771v36.90771Zm0-37.65771h-36.90771v-36.90771h36.90771v36.90771Zm0-37.65771h-36.90771v-36.90723h36.90771v36.90723Zm0-37.65723h-36.90771v-36.90771h36.90771v36.90771Zm0-37.65771h-36.90771v-36.90771h36.90771v36.90771Zm0-37.65771h-36.90771v-36.90771h36.90771v36.90771Zm0-37.65771h-36.90771v-36.90771h36.90771v36.90771Zm0-37.65771h-36.90771v-36.90771h36.90771v36.90771Zm0-37.65771h-36.90771v-36.90723h36.90771v36.90723Zm0-37.65723h-36.90771v-36.90771h36.90771v36.90771Zm0-37.65771h-36.90771v-36.90771h36.90771v36.90771Zm0-37.65771h-36.90771v-36.90771h36.90771v36.90771Zm0-37.65771h-36.90771v-36.90771h36.90771v36.90771Zm0-37.65771h-36.90771v-36.90771h36.90771v36.90771Zm0-37.65771h-36.90771v-36.90771h36.90771v36.90771Zm0-37.65771h-36.90771v-36.90723h36.90771v36.90723Zm0-37.65723h-36.90771v-36.90771h36.90771v36.90771Zm0-37.65771h-36.90771v-36.90771h36.90771v36.90771Zm0-37.65771h-36.90771v-36.90771h36.90771v36.90771Zm0-37.65771h-36.90771v-36.90771h36.90771v36.90771Zm0-37.65771h-36.90771v-36.90771h36.90771v36.90771Zm37.65771,1581.62109h-36.90771v-36.9082h36.90771v36.9082Zm0-37.6582h-36.90771v-36.90723h36.90771v36.90723Zm0-37.65723h-36.90771v-36.90723h36.90771v36.90723Zm0-37.65723h-36.90771v-36.9082h36.90771v36.9082Zm0-37.6582h-36.90771v-36.90723h36.90771v36.90723Zm0-37.65723h-36.90771v-36.9082h36.90771v36.9082Zm0-37.6582h-36.90771v-36.90723h36.90771v36.90723Zm0-37.65723h-36.90771v-36.9082h36.90771v36.9082Zm0-37.6582h-36.90771v-36.90723h36.90771v36.90723Zm0-37.65723h-36.90771v-36.90723h36.90771v36.90723Zm0-37.65723h-36.90771v-36.9082h36.90771v36.9082Zm0-37.6582h-36.90771v-36.90723h36.90771v36.90723Zm0-37.65723h-36.90771v-36.9082h36.90771v36.9082Zm0-37.6582h-36.90771v-36.90723h36.90771v36.90723Zm0-37.65723h-36.90771v-36.90723h36.90771v36.90723Zm0-37.65723h-36.90771v-36.9082h36.90771v36.9082Zm0-37.6582h-36.90771v-36.90723h36.90771v36.90723Zm0-37.65723h-36.90771v-36.9082h36.90771v36.9082Zm0-37.6582h-36.90771v-36.90723h36.90771v36.90723Zm0-37.65723h-36.90771v-36.9082h36.90771v36.9082Zm0-37.6582h-36.90771v-36.90723h36.90771v36.90723Zm0-37.65723h-36.90771v-36.90771h36.90771v36.90771Zm0-37.65771h-36.90771v-36.90771h36.90771v36.90771Zm0-37.65771h-36.90771v-36.90771h36.90771v36.90771Zm0-37.65771h-36.90771v-36.90723h36.90771v36.90723Zm0-37.65723h-36.90771v-36.90771h36.90771v36.90771Zm0-37.65771h-36.90771v-36.90771h36.90771v36.90771Zm0-37.65771h-36.90771v-36.90771h36.90771v36.90771Zm0-37.65771h-36.90771v-36.90771h36.90771v36.90771Zm0-37.65771h-36.90771v-36.90771h36.90771v36.90771Zm0-37.65771h-36.90771v-36.90723h36.90771v36.90723Zm0-37.65723h-36.90771v-36.90771h36.90771v36.90771Zm0-37.65771h-36.90771v-36.90771h36.90771v36.90771Zm0-37.65771h-36.90771v-36.90771h36.90771v36.90771Zm0-37.65771h-36.90771v-36.90771h36.90771v36.90771Zm0-37.65771h-36.90771v-36.90771h36.90771v36.90771Zm0-37.65771h-36.90771v-36.90771h36.90771v36.90771Zm0-37.65771h-36.90771v-36.90723h36.90771v36.90723Zm0-37.65723h-36.90771v-36.90771h36.90771v36.90771Zm0-37.65771h-36.90771v-36.90771h36.90771v36.90771Zm0-37.65771h-36.90771v-36.90771h36.90771v36.90771Zm0-37.65771h-36.90771v-36.90771h36.90771v36.90771Zm0-37.65771h-36.90771v-36.90771h36.90771v36.90771Zm37.65771,1581.62109h-36.90771v-36.9082h36.90771v36.9082Zm0-37.6582h-36.90771v-36.90723h36.90771v36.90723Zm0-37.65723h-36.90771v-36.90723h36.90771v36.90723Zm0-37.65723h-36.90771v-36.9082h36.90771v36.9082Zm0-37.6582h-36.90771v-36.90723h36.90771v36.90723Zm0-37.65723h-36.90771v-36.9082h36.90771v36.9082Zm0-37.6582h-36.90771v-36.90723h36.90771v36.90723Zm0-37.65723h-36.90771v-36.9082h36.90771v36.9082Zm0-37.6582h-36.90771v-36.90723h36.90771v36.90723Zm0-37.65723h-36.90771v-36.90723h36.90771v36.90723Zm0-37.65723h-36.90771v-36.9082h36.90771v36.9082Zm0-37.6582h-36.90771v-36.90723h36.90771v36.90723Zm0-37.65723h-36.90771v-36.9082h36.90771v36.9082Zm0-37.6582h-36.90771v-36.90723h36.90771v36.90723Zm0-37.65723h-36.90771v-36.90723h36.90771v36.90723Zm0-37.65723h-36.90771v-36.9082h36.90771v36.9082Zm0-37.6582h-36.90771v-36.90723h36.90771v36.90723Zm0-37.65723h-36.90771v-36.9082h36.90771v36.9082Zm0-37.6582h-36.90771v-36.90723h36.90771v36.90723Zm0-37.65723h-36.90771v-36.9082h36.90771v36.9082Zm0-37.6582h-36.90771v-36.90723h36.90771v36.90723Zm0-37.65723h-36.90771v-36.90771h36.90771v36.90771Zm0-37.65771h-36.90771v-36.90771h36.90771v36.90771Zm0-37.65771h-36.90771v-36.90771h36.90771v36.90771Zm0-37.65771h-36.90771v-36.90723h36.90771v36.90723Zm0-37.65723h-36.90771v-36.90771h36.90771v36.90771Zm0-37.65771h-36.90771v-36.90771h36.90771v36.90771Zm0-37.65771h-36.90771v-36.90771h36.90771v36.90771Zm0-37.65771h-36.90771v-36.90771h36.90771v36.90771Zm0-37.65771h-36.90771v-36.90771h36.90771v36.90771Zm0-37.65771h-36.90771v-36.90723h36.90771v36.90723Zm0-37.65723h-36.90771v-36.90771h36.90771v36.90771Zm0-37.65771h-36.90771v-36.90771h36.90771v36.90771Zm0-37.65771h-36.90771v-36.90771h36.90771v36.90771Zm0-37.65771h-36.90771v-36.90771h36.90771v36.90771Zm0-37.65771h-36.90771v-36.90771h36.90771v36.90771Zm0-37.65771h-36.90771v-36.90771h36.90771v36.90771Zm0-37.65771h-36.90771v-36.90723h36.90771v36.90723Zm0-37.65723h-36.90771v-36.90771h36.90771v36.90771Zm0-37.65771h-36.90771v-36.90771h36.90771v36.90771Zm0-37.65771h-36.90771v-36.90771h36.90771v36.90771Zm0-37.65771h-36.90771v-36.90771h36.90771v36.90771Zm0-37.65771h-36.90771v-36.90771h36.90771v36.90771Zm37.65723,1581.62109h-36.90723v-36.9082h36.90723v36.9082Zm0-37.6582h-36.90723v-36.90723h36.90723v36.90723Zm0-37.65723h-36.90723v-36.90723h36.90723v36.90723Zm0-37.65723h-36.90723v-36.9082h36.90723v36.9082Zm0-37.6582h-36.90723v-36.90723h36.90723v36.90723Zm0-37.65723h-36.90723v-36.9082h36.90723v36.9082Zm0-37.6582h-36.90723v-36.90723h36.90723v36.90723Zm0-37.65723h-36.90723v-36.9082h36.90723v36.9082Zm0-37.6582h-36.90723v-36.90723h36.90723v36.90723Zm0-37.65723h-36.90723v-36.90723h36.90723v36.90723Zm0-37.65723h-36.90723v-36.9082h36.90723v36.9082Zm0-37.6582h-36.90723v-36.90723h36.90723v36.90723Zm0-37.65723h-36.90723v-36.9082h36.90723v36.9082Zm0-37.6582h-36.90723v-36.90723h36.90723v36.90723Zm0-37.65723h-36.90723v-36.90723h36.90723v36.90723Zm0-37.65723h-36.90723v-36.9082h36.90723v36.9082Zm0-37.6582h-36.90723v-36.90723h36.90723v36.90723Zm0-37.65723h-36.90723v-36.9082h36.90723v36.9082Zm0-37.6582h-36.90723v-36.90723h36.90723v36.90723Zm0-37.65723h-36.90723v-36.9082h36.90723v36.9082Zm0-37.6582h-36.90723v-36.90723h36.90723v36.90723Zm0-37.65723h-36.90723v-36.90771h36.90723v36.90771Zm0-37.65771h-36.90723v-36.90771h36.90723v36.90771Zm0-37.65771h-36.90723v-36.90771h36.90723v36.90771Zm0-37.65771h-36.90723v-36.90723h36.90723v36.90723Zm0-37.65723h-36.90723v-36.90771h36.90723v36.90771Zm0-37.65771h-36.90723v-36.90771h36.90723v36.90771Zm0-37.65771h-36.90723v-36.90771h36.90723v36.90771Zm0-37.65771h-36.90723v-36.90771h36.90723v36.90771Zm0-37.65771h-36.90723v-36.90771h36.90723v36.90771Zm0-37.65771h-36.90723v-36.90723h36.90723v36.90723Zm0-37.65723h-36.90723v-36.90771h36.90723v36.90771Zm0-37.65771h-36.90723v-36.90771h36.90723v36.90771Zm0-37.65771h-36.90723v-36.90771h36.90723v36.90771Zm0-37.65771h-36.90723v-36.90771h36.90723v36.90771Zm0-37.65771h-36.90723v-36.90771h36.90723v36.90771Zm0-37.65771h-36.90723v-36.90771h36.90723v36.90771Zm0-37.65771h-36.90723v-36.90723h36.90723v36.90723Zm0-37.65723h-36.90723v-36.90771h36.90723v36.90771Zm0-37.65771h-36.90723v-36.90771h36.90723v36.90771Zm0-37.65771h-36.90723v-36.90771h36.90723v36.90771Zm0-37.65771h-36.90723v-36.90771h36.90723v36.90771Zm0-37.65771h-36.90723v-36.90771h36.90723v36.90771Zm37.65771,1581.62109h-36.90771v-36.9082h36.90771v36.9082Zm0-37.6582h-36.90771v-36.90723h36.90771v36.90723Zm0-37.65723h-36.90771v-36.90723h36.90771v36.90723Zm0-37.65723h-36.90771v-36.9082h36.90771v36.9082Zm0-37.6582h-36.90771v-36.90723h36.90771v36.90723Zm0-37.65723h-36.90771v-36.9082h36.90771v36.9082Zm0-37.6582h-36.90771v-36.90723h36.90771v36.90723Zm0-37.65723h-36.90771v-36.9082h36.90771v36.9082Zm0-37.6582h-36.90771v-36.90723h36.90771v36.90723Zm0-37.65723h-36.90771v-36.90723h36.90771v36.90723Zm0-37.65723h-36.90771v-36.9082h36.90771v36.9082Zm0-37.6582h-36.90771v-36.90723h36.90771v36.90723Zm0-37.65723h-36.90771v-36.9082h36.90771v36.9082Zm0-37.6582h-36.90771v-36.90723h36.90771v36.90723Zm0-37.65723h-36.90771v-36.90723h36.90771v36.90723Zm0-37.65723h-36.90771v-36.9082h36.90771v36.9082Zm0-37.6582h-36.90771v-36.90723h36.90771v36.90723Zm0-37.65723h-36.90771v-36.9082h36.90771v36.9082Zm0-37.6582h-36.90771v-36.90723h36.90771v36.90723Zm0-37.65723h-36.90771v-36.9082h36.90771v36.9082Zm0-37.6582h-36.90771v-36.90723h36.90771v36.90723Zm0-37.65723h-36.90771v-36.90771h36.90771v36.90771Zm0-37.65771h-36.90771v-36.90771h36.90771v36.90771Zm0-37.65771h-36.90771v-36.90771h36.90771v36.90771Zm0-37.65771h-36.90771v-36.90723h36.90771v36.90723Zm0-37.65723h-36.90771v-36.90771h36.90771v36.90771Zm0-37.65771h-36.90771v-36.90771h36.90771v36.90771Zm0-37.65771h-36.90771v-36.90771h36.90771v36.90771Zm0-37.65771h-36.90771v-36.90771h36.90771v36.90771Zm0-37.65771h-36.90771v-36.90771h36.90771v36.90771Zm0-37.65771h-36.90771v-36.90723h36.90771v36.90723Zm0-37.65723h-36.90771v-36.90771h36.90771v36.90771Zm0-37.65771h-36.90771v-36.90771h36.90771v36.90771Zm0-37.65771h-36.90771v-36.90771h36.90771v36.90771Zm0-37.65771h-36.90771v-36.90771h36.90771v36.90771Zm0-37.65771h-36.90771v-36.90771h36.90771v36.90771Zm0-37.65771h-36.90771v-36.90771h36.90771v36.90771Zm0-37.65771h-36.90771v-36.90723h36.90771v36.90723Zm0-37.65723h-36.90771v-36.90771h36.90771v36.90771Zm0-37.65771h-36.90771v-36.90771h36.90771v36.90771Zm0-37.65771h-36.90771v-36.90771h36.90771v36.90771Zm0-37.65771h-36.90771v-36.90771h36.90771v36.90771Zm0-37.65771h-36.90771v-36.90771h36.90771v36.90771Zm37.65771,1581.62109h-36.90771v-36.9082h36.90771v36.9082Zm0-37.6582h-36.90771v-36.90723h36.90771v36.90723Zm0-37.65723h-36.90771v-36.90723h36.90771v36.90723Zm0-37.65723h-36.90771v-36.9082h36.90771v36.9082Zm0-37.6582h-36.90771v-36.90723h36.90771v36.90723Zm0-37.65723h-36.90771v-36.9082h36.90771v36.9082Zm0-37.6582h-36.90771v-36.90723h36.90771v36.90723Zm0-37.65723h-36.90771v-36.9082h36.90771v36.9082Zm0-37.6582h-36.90771v-36.90723h36.90771v36.90723Zm0-37.65723h-36.90771v-36.90723h36.90771v36.90723Zm0-37.65723h-36.90771v-36.9082h36.90771v36.9082Zm0-37.6582h-36.90771v-36.90723h36.90771v36.90723Zm0-37.65723h-36.90771v-36.9082h36.90771v36.9082Zm0-37.6582h-36.90771v-36.90723h36.90771v36.90723Zm0-37.65723h-36.90771v-36.90723h36.90771v36.90723Zm0-37.65723h-36.90771v-36.9082h36.90771v36.9082Zm0-37.6582h-36.90771v-36.90723h36.90771v36.90723Zm0-37.65723h-36.90771v-36.9082h36.90771v36.9082Zm0-37.6582h-36.90771v-36.90723h36.90771v36.90723Zm0-37.65723h-36.90771v-36.9082h36.90771v36.9082Zm0-37.6582h-36.90771v-36.90723h36.90771v36.90723Zm0-37.65723h-36.90771v-36.90771h36.90771v36.90771Zm0-37.65771h-36.90771v-36.90771h36.90771v36.90771Zm0-37.65771h-36.90771v-36.90771h36.90771v36.90771Zm0-37.65771h-36.90771v-36.90723h36.90771v36.90723Zm0-37.65723h-36.90771v-36.90771h36.90771v36.90771Zm0-37.65771h-36.90771v-36.90771h36.90771v36.90771Zm0-37.65771h-36.90771v-36.90771h36.90771v36.90771Zm0-37.65771h-36.90771v-36.90771h36.90771v36.90771Zm0-37.65771h-36.90771v-36.90771h36.90771v36.90771Zm0-37.65771h-36.90771v-36.90723h36.90771v36.90723Zm0-37.65723h-36.90771v-36.90771h36.90771v36.90771Zm0-37.65771h-36.90771v-36.90771h36.90771v36.90771Zm0-37.65771h-36.90771v-36.90771h36.90771v36.90771Zm0-37.65771h-36.90771v-36.90771h36.90771v36.90771Zm0-37.65771h-36.90771v-36.90771h36.90771v36.90771Zm0-37.65771h-36.90771v-36.90771h36.90771v36.90771Zm0-37.65771h-36.90771v-36.90723h36.90771v36.90723Zm0-37.65723h-36.90771v-36.90771h36.90771v36.90771Zm0-37.65771h-36.90771v-36.90771h36.90771v36.90771Zm0-37.65771h-36.90771v-36.90771h36.90771v36.90771Zm0-37.65771h-36.90771v-36.90771h36.90771v36.90771Zm0-37.65771h-36.90771v-36.90771h36.90771v36.90771Zm37.65771,1581.62109h-36.90771v-36.9082h36.90771v36.9082Zm0-37.6582h-36.90771v-36.90723h36.90771v36.90723Zm0-37.65723h-36.90771v-36.90723h36.90771v36.90723Zm0-37.65723h-36.90771v-36.9082h36.90771v36.9082Zm0-37.6582h-36.90771v-36.90723h36.90771v36.90723Zm0-37.65723h-36.90771v-36.9082h36.90771v36.9082Zm0-37.6582h-36.90771v-36.90723h36.90771v36.90723Zm0-37.65723h-36.90771v-36.9082h36.90771v36.9082Zm0-37.6582h-36.90771v-36.90723h36.90771v36.90723Zm0-37.65723h-36.90771v-36.90723h36.90771v36.90723Zm0-37.65723h-36.90771v-36.9082h36.90771v36.9082Zm0-37.6582h-36.90771v-36.90723h36.90771v36.90723Zm0-37.65723h-36.90771v-36.9082h36.90771v36.9082Zm0-37.6582h-36.90771v-36.90723h36.90771v36.90723Zm0-37.65723h-36.90771v-36.90723h36.90771v36.90723Zm0-37.65723h-36.90771v-36.9082h36.90771v36.9082Zm0-37.6582h-36.90771v-36.90723h36.90771v36.90723Zm0-37.65723h-36.90771v-36.9082h36.90771v36.9082Zm0-37.6582h-36.90771v-36.90723h36.90771v36.90723Zm0-37.65723h-36.90771v-36.9082h36.90771v36.9082Zm0-37.6582h-36.90771v-36.90723h36.90771v36.90723Zm0-37.65723h-36.90771v-36.90771h36.90771v36.90771Zm0-37.65771h-36.90771v-36.90771h36.90771v36.90771Zm0-37.65771h-36.90771v-36.90771h36.90771v36.90771Zm0-37.65771h-36.90771v-36.90723h36.90771v36.90723Zm0-37.65723h-36.90771v-36.90771h36.90771v36.90771Zm0-37.65771h-36.90771v-36.90771h36.90771v36.90771Zm0-37.65771h-36.90771v-36.90771h36.90771v36.90771Zm0-37.65771h-36.90771v-36.90771h36.90771v36.90771Zm0-37.65771h-36.90771v-36.90771h36.90771v36.90771Zm0-37.65771h-36.90771v-36.90723h36.90771v36.90723Zm0-37.65723h-36.90771v-36.90771h36.90771v36.90771Zm0-37.65771h-36.90771v-36.90771h36.90771v36.90771Zm0-37.65771h-36.90771v-36.90771h36.90771v36.90771Zm0-37.65771h-36.90771v-36.90771h36.90771v36.90771Zm0-37.65771h-36.90771v-36.90771h36.90771v36.90771Zm0-37.65771h-36.90771v-36.90771h36.90771v36.90771Zm0-37.65771h-36.90771v-36.90723h36.90771v36.90723Zm0-37.65723h-36.90771v-36.90771h36.90771v36.90771Zm0-37.65771h-36.90771v-36.90771h36.90771v36.90771Zm0-37.65771h-36.90771v-36.90771h36.90771v36.90771Zm0-37.65771h-36.90771v-36.90771h36.90771v36.90771Zm0-37.65771h-36.90771v-36.90771h36.90771v36.90771Zm37.65771,1581.62109h-36.90771v-36.9082h36.90771v36.9082Zm0-37.6582h-36.90771v-36.90723h36.90771v36.90723Zm0-37.65723h-36.90771v-36.90723h36.90771v36.90723Zm0-37.65723h-36.90771v-36.9082h36.90771v36.9082Zm0-37.6582h-36.90771v-36.90723h36.90771v36.90723Zm0-37.65723h-36.90771v-36.9082h36.90771v36.9082Zm0-37.6582h-36.90771v-36.90723h36.90771v36.90723Zm0-37.65723h-36.90771v-36.9082h36.90771v36.9082Zm0-37.6582h-36.90771v-36.90723h36.90771v36.90723Zm0-37.65723h-36.90771v-36.90723h36.90771v36.90723Zm0-37.65723h-36.90771v-36.9082h36.90771v36.9082Zm0-37.6582h-36.90771v-36.90723h36.90771v36.90723Zm0-37.65723h-36.90771v-36.9082h36.90771v36.9082Zm0-37.6582h-36.90771v-36.90723h36.90771v36.90723Zm0-37.65723h-36.90771v-36.90723h36.90771v36.90723Zm0-37.65723h-36.90771v-36.9082h36.90771v36.9082Zm0-37.6582h-36.90771v-36.90723h36.90771v36.90723Zm0-37.65723h-36.90771v-36.9082h36.90771v36.9082Zm0-37.6582h-36.90771v-36.90723h36.90771v36.90723Zm0-37.65723h-36.90771v-36.9082h36.90771v36.9082Zm0-37.6582h-36.90771v-36.90723h36.90771v36.90723Zm0-37.65723h-36.90771v-36.90771h36.90771v36.90771Zm0-37.65771h-36.90771v-36.90771h36.90771v36.90771Zm0-37.65771h-36.90771v-36.90771h36.90771v36.90771Zm0-37.65771h-36.90771v-36.90723h36.90771v36.90723Zm0-37.65723h-36.90771v-36.90771h36.90771v36.90771Zm0-37.65771h-36.90771v-36.90771h36.90771v36.90771Zm0-37.65771h-36.90771v-36.90771h36.90771v36.90771Zm0-37.65771h-36.90771v-36.90771h36.90771v36.90771Zm0-37.65771h-36.90771v-36.90771h36.90771v36.90771Zm0-37.65771h-36.90771v-36.90723h36.90771v36.90723Zm0-37.65723h-36.90771v-36.90771h36.90771v36.90771Zm0-37.65771h-36.90771v-36.90771h36.90771v36.90771Zm0-37.65771h-36.90771v-36.90771h36.90771v36.90771Zm0-37.65771h-36.90771v-36.90771h36.90771v36.90771Zm0-37.65771h-36.90771v-36.90771h36.90771v36.90771Zm0-37.65771h-36.90771v-36.90771h36.90771v36.90771Zm0-37.65771h-36.90771v-36.90723h36.90771v36.90723Zm0-37.65723h-36.90771v-36.90771h36.90771v36.90771Zm0-37.65771h-36.90771v-36.90771h36.90771v36.90771Zm0-37.65771h-36.90771v-36.90771h36.90771v36.90771Zm0-37.65771h-36.90771v-36.90771h36.90771v36.90771Zm0-37.65771h-36.90771v-36.90771h36.90771v36.90771Zm37.65771,1581.62109h-36.90771v-36.9082h36.90771v36.9082Zm0-37.6582h-36.90771v-36.90723h36.90771v36.90723Zm0-37.65723h-36.90771v-36.90723h36.90771v36.90723Zm0-37.65723h-36.90771v-36.9082h36.90771v36.9082Zm0-37.6582h-36.90771v-36.90723h36.90771v36.90723Zm0-37.65723h-36.90771v-36.9082h36.90771v36.9082Zm0-37.6582h-36.90771v-36.90723h36.90771v36.90723Zm0-37.65723h-36.90771v-36.9082h36.90771v36.9082Zm0-37.6582h-36.90771v-36.90723h36.90771v36.90723Zm0-37.65723h-36.90771v-36.90723h36.90771v36.90723Zm0-37.65723h-36.90771v-36.9082h36.90771v36.9082Zm0-37.6582h-36.90771v-36.90723h36.90771v36.90723Zm0-37.65723h-36.90771v-36.9082h36.90771v36.9082Zm0-37.6582h-36.90771v-36.90723h36.90771v36.90723Zm0-37.65723h-36.90771v-36.90723h36.90771v36.90723Zm0-37.65723h-36.90771v-36.9082h36.90771v36.9082Zm0-37.6582h-36.90771v-36.90723h36.90771v36.90723Zm0-37.65723h-36.90771v-36.9082h36.90771v36.9082Zm0-37.6582h-36.90771v-36.90723h36.90771v36.90723Zm0-37.65723h-36.90771v-36.9082h36.90771v36.9082Zm0-37.6582h-36.90771v-36.90723h36.90771v36.90723Zm0-37.65723h-36.90771v-36.90771h36.90771v36.90771Zm0-37.65771h-36.90771v-36.90771h36.90771v36.90771Zm0-37.65771h-36.90771v-36.90771h36.90771v36.90771Zm0-37.65771h-36.90771v-36.90723h36.90771v36.90723Zm0-37.65723h-36.90771v-36.90771h36.90771v36.90771Zm0-37.65771h-36.90771v-36.90771h36.90771v36.90771Zm0-37.65771h-36.90771v-36.90771h36.90771v36.90771Zm0-37.65771h-36.90771v-36.90771h36.90771v36.90771Zm0-37.65771h-36.90771v-36.90771h36.90771v36.90771Zm0-37.65771h-36.90771v-36.90723h36.90771v36.90723Zm0-37.65723h-36.90771v-36.90771h36.90771v36.90771Zm0-37.65771h-36.90771v-36.90771h36.90771v36.90771Zm0-37.65771h-36.90771v-36.90771h36.90771v36.90771Zm0-37.65771h-36.90771v-36.90771h36.90771v36.90771Zm0-37.65771h-36.90771v-36.90771h36.90771v36.90771Zm0-37.65771h-36.90771v-36.90771h36.90771v36.90771Zm0-37.65771h-36.90771v-36.90723h36.90771v36.90723Zm0-37.65723h-36.90771v-36.90771h36.90771v36.90771Zm0-37.65771h-36.90771v-36.90771h36.90771v36.90771Zm0-37.65771h-36.90771v-36.90771h36.90771v36.90771Zm0-37.65771h-36.90771v-36.90771h36.90771v36.90771Zm0-37.65771h-36.90771v-36.90771h36.90771v36.90771Zm37.65723,1581.62109h-36.90723v-36.9082h36.90723v36.9082Zm0-37.6582h-36.90723v-36.90723h36.90723v36.90723Zm0-37.65723h-36.90723v-36.90723h36.90723v36.90723Zm0-37.65723h-36.90723v-36.9082h36.90723v36.9082Zm0-37.6582h-36.90723v-36.90723h36.90723v36.90723Zm0-37.65723h-36.90723v-36.9082h36.90723v36.9082Zm0-37.6582h-36.90723v-36.90723h36.90723v36.90723Zm0-37.65723h-36.90723v-36.9082h36.90723v36.9082Zm0-37.6582h-36.90723v-36.90723h36.90723v36.90723Zm0-37.65723h-36.90723v-36.90723h36.90723v36.90723Zm0-37.65723h-36.90723v-36.9082h36.90723v36.9082Zm0-37.6582h-36.90723v-36.90723h36.90723v36.90723Zm0-37.65723h-36.90723v-36.9082h36.90723v36.9082Zm0-37.6582h-36.90723v-36.90723h36.90723v36.90723Zm0-37.65723h-36.90723v-36.90723h36.90723v36.90723Zm0-37.65723h-36.90723v-36.9082h36.90723v36.9082Zm0-37.6582h-36.90723v-36.90723h36.90723v36.90723Zm0-37.65723h-36.90723v-36.9082h36.90723v36.9082Zm0-37.6582h-36.90723v-36.90723h36.90723v36.90723Zm0-37.65723h-36.90723v-36.9082h36.90723v36.9082Zm0-37.6582h-36.90723v-36.90723h36.90723v36.90723Zm0-37.65723h-36.90723v-36.90771h36.90723v36.90771Zm0-37.65771h-36.90723v-36.90771h36.90723v36.90771Zm0-37.65771h-36.90723v-36.90771h36.90723v36.90771Zm0-37.65771h-36.90723v-36.90723h36.90723v36.90723Zm0-37.65723h-36.90723v-36.90771h36.90723v36.90771Zm0-37.65771h-36.90723v-36.90771h36.90723v36.90771Zm0-37.65771h-36.90723v-36.90771h36.90723v36.90771Zm0-37.65771h-36.90723v-36.90771h36.90723v36.90771Zm0-37.65771h-36.90723v-36.90771h36.90723v36.90771Zm0-37.65771h-36.90723v-36.90723h36.90723v36.90723Zm0-37.65723h-36.90723v-36.90771h36.90723v36.90771Zm0-37.65771h-36.90723v-36.90771h36.90723v36.90771Zm0-37.65771h-36.90723v-36.90771h36.90723v36.90771Zm0-37.65771h-36.90723v-36.90771h36.90723v36.90771Zm0-37.65771h-36.90723v-36.90771h36.90723v36.90771Zm0-37.65771h-36.90723v-36.90771h36.90723v36.90771Zm0-37.65771h-36.90723v-36.90723h36.90723v36.90723Zm0-37.65723h-36.90723v-36.90771h36.90723v36.90771Zm0-37.65771h-36.90723v-36.90771h36.90723v36.90771Zm0-37.65771h-36.90723v-36.90771h36.90723v36.90771Zm0-37.65771h-36.90723v-36.90771h36.90723v36.90771Zm0-37.65771h-36.90723v-36.90771h36.90723v36.90771Zm37.65771,1581.62109h-36.90771v-36.9082h36.90771v36.9082Zm0-37.6582h-36.90771v-36.90723h36.90771v36.90723Zm0-37.65723h-36.90771v-36.90723h36.90771v36.90723Zm0-37.65723h-36.90771v-36.9082h36.90771v36.9082Zm0-37.6582h-36.90771v-36.90723h36.90771v36.90723Zm0-37.65723h-36.90771v-36.9082h36.90771v36.9082Zm0-37.6582h-36.90771v-36.90723h36.90771v36.90723Zm0-37.65723h-36.90771v-36.9082h36.90771v36.9082Zm0-37.6582h-36.90771v-36.90723h36.90771v36.90723Zm0-37.65723h-36.90771v-36.90723h36.90771v36.90723Zm0-37.65723h-36.90771v-36.9082h36.90771v36.9082Zm0-37.6582h-36.90771v-36.90723h36.90771v36.90723Zm0-37.65723h-36.90771v-36.9082h36.90771v36.9082Zm0-37.6582h-36.90771v-36.90723h36.90771v36.90723Zm0-37.65723h-36.90771v-36.90723h36.90771v36.90723Zm0-37.65723h-36.90771v-36.9082h36.90771v36.9082Zm0-37.6582h-36.90771v-36.90723h36.90771v36.90723Zm0-37.65723h-36.90771v-36.9082h36.90771v36.9082Zm0-37.6582h-36.90771v-36.90723h36.90771v36.90723Zm0-37.65723h-36.90771v-36.9082h36.90771v36.9082Zm0-37.6582h-36.90771v-36.90723h36.90771v36.90723Zm0-37.65723h-36.90771v-36.90771h36.90771v36.90771Zm0-37.65771h-36.90771v-36.90771h36.90771v36.90771Zm0-37.65771h-36.90771v-36.90771h36.90771v36.90771Zm0-37.65771h-36.90771v-36.90723h36.90771v36.90723Zm0-37.65723h-36.90771v-36.90771h36.90771v36.90771Zm0-37.65771h-36.90771v-36.90771h36.90771v36.90771Zm0-37.65771h-36.90771v-36.90771h36.90771v36.90771Zm0-37.65771h-36.90771v-36.90771h36.90771v36.90771Zm0-37.65771h-36.90771v-36.90771h36.90771v36.90771Zm0-37.65771h-36.90771v-36.90723h36.90771v36.90723Zm0-37.65723h-36.90771v-36.90771h36.90771v36.90771Zm0-37.65771h-36.90771v-36.90771h36.90771v36.90771Zm0-37.65771h-36.90771v-36.90771h36.90771v36.90771Zm0-37.65771h-36.90771v-36.90771h36.90771v36.90771Zm0-37.65771h-36.90771v-36.90771h36.90771v36.90771Zm0-37.65771h-36.90771v-36.90771h36.90771v36.90771Zm0-37.65771h-36.90771v-36.90723h36.90771v36.90723Zm0-37.65723h-36.90771v-36.90771h36.90771v36.90771Zm0-37.65771h-36.90771v-36.90771h36.90771v36.90771Zm0-37.65771h-36.90771v-36.90771h36.90771v36.90771Zm0-37.65771h-36.90771v-36.90771h36.90771v36.90771Zm0-37.65771h-36.90771v-36.90771h36.90771v36.90771Zm37.65771,1581.62109h-36.90771v-36.9082h36.90771v36.9082Zm0-37.6582h-36.90771v-36.90723h36.90771v36.90723Zm0-37.65723h-36.90771v-36.90723h36.90771v36.90723Zm0-37.65723h-36.90771v-36.9082h36.90771v36.9082Zm0-37.6582h-36.90771v-36.90723h36.90771v36.90723Zm0-37.65723h-36.90771v-36.9082h36.90771v36.9082Zm0-37.6582h-36.90771v-36.90723h36.90771v36.90723Zm0-37.65723h-36.90771v-36.9082h36.90771v36.9082Zm0-37.6582h-36.90771v-36.90723h36.90771v36.90723Zm0-37.65723h-36.90771v-36.90723h36.90771v36.90723Zm0-37.65723h-36.90771v-36.9082h36.90771v36.9082Zm0-37.6582h-36.90771v-36.90723h36.90771v36.90723Zm0-37.65723h-36.90771v-36.9082h36.90771v36.9082Zm0-37.6582h-36.90771v-36.90723h36.90771v36.90723Zm0-37.65723h-36.90771v-36.90723h36.90771v36.90723Zm0-37.65723h-36.90771v-36.9082h36.90771v36.9082Zm0-37.6582h-36.90771v-36.90723h36.90771v36.90723Zm0-37.65723h-36.90771v-36.9082h36.90771v36.9082Zm0-37.6582h-36.90771v-36.90723h36.90771v36.90723Zm0-37.65723h-36.90771v-36.9082h36.90771v36.9082Zm0-37.6582h-36.90771v-36.90723h36.90771v36.90723Zm0-37.65723h-36.90771v-36.90771h36.90771v36.90771Zm0-37.65771h-36.90771v-36.90771h36.90771v36.90771Zm0-37.65771h-36.90771v-36.90771h36.90771v36.90771Zm0-37.65771h-36.90771v-36.90723h36.90771v36.90723Zm0-37.65723h-36.90771v-36.90771h36.90771v36.90771Zm0-37.65771h-36.90771v-36.90771h36.90771v36.90771Zm0-37.65771h-36.90771v-36.90771h36.90771v36.90771Zm0-37.65771h-36.90771v-36.90771h36.90771v36.90771Zm0-37.65771h-36.90771v-36.90771h36.90771v36.90771Zm0-37.65771h-36.90771v-36.90723h36.90771v36.90723Zm0-37.65723h-36.90771v-36.90771h36.90771v36.90771Zm0-37.65771h-36.90771v-36.90771h36.90771v36.90771Zm0-37.65771h-36.90771v-36.90771h36.90771v36.90771Zm0-37.65771h-36.90771v-36.90771h36.90771v36.90771Zm0-37.65771h-36.90771v-36.90771h36.90771v36.90771Zm0-37.65771h-36.90771v-36.90771h36.90771v36.90771Zm0-37.65771h-36.90771v-36.90723h36.90771v36.90723Zm0-37.65723h-36.90771v-36.90771h36.90771v36.90771Zm0-37.65771h-36.90771v-36.90771h36.90771v36.90771Zm0-37.65771h-36.90771v-36.90771h36.90771v36.90771Zm0-37.65771h-36.90771v-36.90771h36.90771v36.90771Zm0-37.65771h-36.90771v-36.90771h36.90771v36.90771Zm37.65771,1581.62109h-36.90771v-36.9082h36.90771v36.9082Zm0-37.6582h-36.90771v-36.90723h36.90771v36.90723Zm0-37.65723h-36.90771v-36.90723h36.90771v36.90723Zm0-37.65723h-36.90771v-36.9082h36.90771v36.9082Zm0-37.6582h-36.90771v-36.90723h36.90771v36.90723Zm0-37.65723h-36.90771v-36.9082h36.90771v36.9082Zm0-37.6582h-36.90771v-36.90723h36.90771v36.90723Zm0-37.65723h-36.90771v-36.9082h36.90771v36.9082Zm0-37.6582h-36.90771v-36.90723h36.90771v36.90723Zm0-37.65723h-36.90771v-36.90723h36.90771v36.90723Zm0-37.65723h-36.90771v-36.9082h36.90771v36.9082Zm0-37.6582h-36.90771v-36.90723h36.90771v36.90723Zm0-37.65723h-36.90771v-36.9082h36.90771v36.9082Zm0-37.6582h-36.90771v-36.90723h36.90771v36.90723Zm0-37.65723h-36.90771v-36.90723h36.90771v36.90723Zm0-37.65723h-36.90771v-36.9082h36.90771v36.9082Zm0-37.6582h-36.90771v-36.90723h36.90771v36.90723Zm0-37.65723h-36.90771v-36.9082h36.90771v36.9082Zm0-37.6582h-36.90771v-36.90723h36.90771v36.90723Zm0-37.65723h-36.90771v-36.9082h36.90771v36.9082Zm0-37.6582h-36.90771v-36.90723h36.90771v36.90723Zm0-37.65723h-36.90771v-36.90771h36.90771v36.90771Zm0-37.65771h-36.90771v-36.90771h36.90771v36.90771Zm0-37.65771h-36.90771v-36.90771h36.90771v36.90771Zm0-37.65771h-36.90771v-36.90723h36.90771v36.90723Zm0-37.65723h-36.90771v-36.90771h36.90771v36.90771Zm0-37.65771h-36.90771v-36.90771h36.90771v36.90771Zm0-37.65771h-36.90771v-36.90771h36.90771v36.90771Zm0-37.65771h-36.90771v-36.90771h36.90771v36.90771Zm0-37.65771h-36.90771v-36.90771h36.90771v36.90771Zm0-37.65771h-36.90771v-36.90723h36.90771v36.90723Zm0-37.65723h-36.90771v-36.90771h36.90771v36.90771Zm0-37.65771h-36.90771v-36.90771h36.90771v36.90771Zm0-37.65771h-36.90771v-36.90771h36.90771v36.90771Zm0-37.65771h-36.90771v-36.90771h36.90771v36.90771Zm0-37.65771h-36.90771v-36.90771h36.90771v36.90771Zm0-37.65771h-36.90771v-36.90771h36.90771v36.90771Zm0-37.65771h-36.90771v-36.90723h36.90771v36.90723Zm0-37.65723h-36.90771v-36.90771h36.90771v36.90771Zm0-37.65771h-36.90771v-36.90771h36.90771v36.90771Zm0-37.65771h-36.90771v-36.90771h36.90771v36.90771Zm0-37.65771h-36.90771v-36.90771h36.90771v36.90771Zm0-37.65771h-36.90771v-36.90771h36.90771v36.90771Zm37.65771,1581.62109h-36.90771v-36.9082h36.90771v36.9082Zm0-37.6582h-36.90771v-36.90723h36.90771v36.90723Zm0-37.65723h-36.90771v-36.90723h36.90771v36.90723Zm0-37.65723h-36.90771v-36.9082h36.90771v36.9082Zm0-37.6582h-36.90771v-36.90723h36.90771v36.90723Zm0-37.65723h-36.90771v-36.9082h36.90771v36.9082Zm0-37.6582h-36.90771v-36.90723h36.90771v36.90723Zm0-37.65723h-36.90771v-36.9082h36.90771v36.9082Zm0-37.6582h-36.90771v-36.90723h36.90771v36.90723Zm0-37.65723h-36.90771v-36.90723h36.90771v36.90723Zm0-37.65723h-36.90771v-36.9082h36.90771v36.9082Zm0-37.6582h-36.90771v-36.90723h36.90771v36.90723Zm0-37.65723h-36.90771v-36.9082h36.90771v36.9082Zm0-37.6582h-36.90771v-36.90723h36.90771v36.90723Zm0-37.65723h-36.90771v-36.90723h36.90771v36.90723Zm0-37.65723h-36.90771v-36.9082h36.90771v36.9082Zm0-37.6582h-36.90771v-36.90723h36.90771v36.90723Zm0-37.65723h-36.90771v-36.9082h36.90771v36.9082Zm0-37.6582h-36.90771v-36.90723h36.90771v36.90723Zm0-37.65723h-36.90771v-36.9082h36.90771v36.9082Zm0-37.6582h-36.90771v-36.90723h36.90771v36.90723Zm0-37.65723h-36.90771v-36.90771h36.90771v36.90771Zm0-37.65771h-36.90771v-36.90771h36.90771v36.90771Zm0-37.65771h-36.90771v-36.90771h36.90771v36.90771Zm0-37.65771h-36.90771v-36.90723h36.90771v36.90723Zm0-37.65723h-36.90771v-36.90771h36.90771v36.90771Zm0-37.65771h-36.90771v-36.90771h36.90771v36.90771Zm0-37.65771h-36.90771v-36.90771h36.90771v36.90771Zm0-37.65771h-36.90771v-36.90771h36.90771v36.90771Zm0-37.65771h-36.90771v-36.90771h36.90771v36.90771Zm0-37.65771h-36.90771v-36.90723h36.90771v36.90723Zm0-37.65723h-36.90771v-36.90771h36.90771v36.90771Zm0-37.65771h-36.90771v-36.90771h36.90771v36.90771Zm0-37.65771h-36.90771v-36.90771h36.90771v36.90771Zm0-37.65771h-36.90771v-36.90771h36.90771v36.90771Zm0-37.65771h-36.90771v-36.90771h36.90771v36.90771Zm0-37.65771h-36.90771v-36.90771h36.90771v36.90771Zm0-37.65771h-36.90771v-36.90723h36.90771v36.90723Zm0-37.65723h-36.90771v-36.90771h36.90771v36.90771Zm0-37.65771h-36.90771v-36.90771h36.90771v36.90771Zm0-37.65771h-36.90771v-36.90771h36.90771v36.90771Zm0-37.65771h-36.90771v-36.90771h36.90771v36.90771Zm0-37.65771h-36.90771v-36.90771h36.90771v36.90771Zm37.65771,1581.62109h-36.90771v-36.9082h36.90771v36.9082Zm0-37.6582h-36.90771v-36.90723h36.90771v36.90723Zm0-37.65723h-36.90771v-36.90723h36.90771v36.90723Zm0-37.65723h-36.90771v-36.9082h36.90771v36.9082Zm0-37.6582h-36.90771v-36.90723h36.90771v36.90723Zm0-37.65723h-36.90771v-36.9082h36.90771v36.9082Zm0-37.6582h-36.90771v-36.90723h36.90771v36.90723Zm0-37.65723h-36.90771v-36.9082h36.90771v36.9082Zm0-37.6582h-36.90771v-36.90723h36.90771v36.90723Zm0-37.65723h-36.90771v-36.90723h36.90771v36.90723Zm0-37.65723h-36.90771v-36.9082h36.90771v36.9082Zm0-37.6582h-36.90771v-36.90723h36.90771v36.90723Zm0-37.65723h-36.90771v-36.9082h36.90771v36.9082Zm0-37.6582h-36.90771v-36.90723h36.90771v36.90723Zm0-37.65723h-36.90771v-36.90723h36.90771v36.90723Zm0-37.65723h-36.90771v-36.9082h36.90771v36.9082Zm0-37.6582h-36.90771v-36.90723h36.90771v36.90723Zm0-37.65723h-36.90771v-36.9082h36.90771v36.9082Zm0-37.6582h-36.90771v-36.90723h36.90771v36.90723Zm0-37.65723h-36.90771v-36.9082h36.90771v36.9082Zm0-37.6582h-36.90771v-36.90723h36.90771v36.90723Zm0-37.65723h-36.90771v-36.90771h36.90771v36.90771Zm0-37.65771h-36.90771v-36.90771h36.90771v36.90771Zm0-37.65771h-36.90771v-36.90771h36.90771v36.90771Zm0-37.65771h-36.90771v-36.90723h36.90771v36.90723Zm0-37.65723h-36.90771v-36.90771h36.90771v36.90771Zm0-37.65771h-36.90771v-36.90771h36.90771v36.90771Zm0-37.65771h-36.90771v-36.90771h36.90771v36.90771Zm0-37.65771h-36.90771v-36.90771h36.90771v36.90771Zm0-37.65771h-36.90771v-36.90771h36.90771v36.90771Zm0-37.65771h-36.90771v-36.90723h36.90771v36.90723Zm0-37.65723h-36.90771v-36.90771h36.90771v36.90771Zm0-37.65771h-36.90771v-36.90771h36.90771v36.90771Zm0-37.65771h-36.90771v-36.90771h36.90771v36.90771Zm0-37.65771h-36.90771v-36.90771h36.90771v36.90771Zm0-37.65771h-36.90771v-36.90771h36.90771v36.90771Zm0-37.65771h-36.90771v-36.90771h36.90771v36.90771Zm0-37.65771h-36.90771v-36.90723h36.90771v36.90723Zm0-37.65723h-36.90771v-36.90771h36.90771v36.90771Zm0-37.65771h-36.90771v-36.90771h36.90771v36.90771Zm0-37.65771h-36.90771v-36.90771h36.90771v36.90771Zm0-37.65771h-36.90771v-36.90771h36.90771v36.90771Zm0-37.65771h-36.90771v-36.90771h36.90771v36.90771Zm37.65771,1581.62109h-36.90771v-36.9082h36.90771v36.9082Zm0-37.6582h-36.90771v-36.90723h36.90771v36.90723Zm0-37.65723h-36.90771v-36.90723h36.90771v36.90723Zm0-37.65723h-36.90771v-36.9082h36.90771v36.9082Zm0-37.6582h-36.90771v-36.90723h36.90771v36.90723Zm0-37.65723h-36.90771v-36.9082h36.90771v36.9082Zm0-37.6582h-36.90771v-36.90723h36.90771v36.90723Zm0-37.65723h-36.90771v-36.9082h36.90771v36.9082Zm0-37.6582h-36.90771v-36.90723h36.90771v36.90723Zm0-37.65723h-36.90771v-36.90723h36.90771v36.90723Zm0-37.65723h-36.90771v-36.9082h36.90771v36.9082Zm0-37.6582h-36.90771v-36.90723h36.90771v36.90723Zm0-37.65723h-36.90771v-36.9082h36.90771v36.9082Zm0-37.6582h-36.90771v-36.90723h36.90771v36.90723Zm0-37.65723h-36.90771v-36.90723h36.90771v36.90723Zm0-37.65723h-36.90771v-36.9082h36.90771v36.9082Zm0-37.6582h-36.90771v-36.90723h36.90771v36.90723Zm0-37.65723h-36.90771v-36.9082h36.90771v36.9082Zm0-37.6582h-36.90771v-36.90723h36.90771v36.90723Zm0-37.65723h-36.90771v-36.9082h36.90771v36.9082Zm0-37.6582h-36.90771v-36.90723h36.90771v36.90723Zm0-37.65723h-36.90771v-36.90771h36.90771v36.90771Zm0-37.65771h-36.90771v-36.90771h36.90771v36.90771Zm0-37.65771h-36.90771v-36.90771h36.90771v36.90771Zm0-37.65771h-36.90771v-36.90723h36.90771v36.90723Zm0-37.65723h-36.90771v-36.90771h36.90771v36.90771Zm0-37.65771h-36.90771v-36.90771h36.90771v36.90771Zm0-37.65771h-36.90771v-36.90771h36.90771v36.90771Zm0-37.65771h-36.90771v-36.90771h36.90771v36.90771Zm0-37.65771h-36.90771v-36.90771h36.90771v36.90771Zm0-37.65771h-36.90771v-36.90723h36.90771v36.90723Zm0-37.65723h-36.90771v-36.90771h36.90771v36.90771Zm0-37.65771h-36.90771v-36.90771h36.90771v36.90771Zm0-37.65771h-36.90771v-36.90771h36.90771v36.90771Zm0-37.65771h-36.90771v-36.90771h36.90771v36.90771Zm0-37.65771h-36.90771v-36.90771h36.90771v36.90771Zm0-37.65771h-36.90771v-36.90771h36.90771v36.90771Zm0-37.65771h-36.90771v-36.90723h36.90771v36.90723Zm0-37.65723h-36.90771v-36.90771h36.90771v36.90771Zm0-37.65771h-36.90771v-36.90771h36.90771v36.90771Zm0-37.65771h-36.90771v-36.90771h36.90771v36.90771Zm0-37.65771h-36.90771v-36.90771h36.90771v36.90771Zm0-37.65771h-36.90771v-36.90771h36.90771v36.90771Zm37.65723,1581.62109h-36.90723v-36.9082h36.90723v36.9082Zm0-37.6582h-36.90723v-36.90723h36.90723v36.90723Zm0-37.65723h-36.90723v-36.90723h36.90723v36.90723Zm0-37.65723h-36.90723v-36.9082h36.90723v36.9082Zm0-37.6582h-36.90723v-36.90723h36.90723v36.90723Zm0-37.65723h-36.90723v-36.9082h36.90723v36.9082Zm0-37.6582h-36.90723v-36.90723h36.90723v36.90723Zm0-37.65723h-36.90723v-36.9082h36.90723v36.9082Zm0-37.6582h-36.90723v-36.90723h36.90723v36.90723Zm0-37.65723h-36.90723v-36.90723h36.90723v36.90723Zm0-37.65723h-36.90723v-36.9082h36.90723v36.9082Zm0-37.6582h-36.90723v-36.90723h36.90723v36.90723Zm0-37.65723h-36.90723v-36.9082h36.90723v36.9082Zm0-37.6582h-36.90723v-36.90723h36.90723v36.90723Zm0-37.65723h-36.90723v-36.90723h36.90723v36.90723Zm0-37.65723h-36.90723v-36.9082h36.90723v36.9082Zm0-37.6582h-36.90723v-36.90723h36.90723v36.90723Zm0-37.65723h-36.90723v-36.9082h36.90723v36.9082Zm0-37.6582h-36.90723v-36.90723h36.90723v36.90723Zm0-37.65723h-36.90723v-36.9082h36.90723v36.9082Zm0-37.6582h-36.90723v-36.90723h36.90723v36.90723Zm0-37.65723h-36.90723v-36.90771h36.90723v36.90771Zm0-37.65771h-36.90723v-36.90771h36.90723v36.90771Zm0-37.65771h-36.90723v-36.90771h36.90723v36.90771Zm0-37.65771h-36.90723v-36.90723h36.90723v36.90723Zm0-37.65723h-36.90723v-36.90771h36.90723v36.90771Zm0-37.65771h-36.90723v-36.90771h36.90723v36.90771Zm0-37.65771h-36.90723v-36.90771h36.90723v36.90771Zm0-37.65771h-36.90723v-36.90771h36.90723v36.90771Zm0-37.65771h-36.90723v-36.90771h36.90723v36.90771Zm0-37.65771h-36.90723v-36.90723h36.90723v36.90723Zm0-37.65723h-36.90723v-36.90771h36.90723v36.90771Zm0-37.65771h-36.90723v-36.90771h36.90723v36.90771Zm0-37.65771h-36.90723v-36.90771h36.90723v36.90771Zm0-37.65771h-36.90723v-36.90771h36.90723v36.90771Zm0-37.65771h-36.90723v-36.90771h36.90723v36.90771Zm0-37.65771h-36.90723v-36.90771h36.90723v36.90771Zm0-37.65771h-36.90723v-36.90723h36.90723v36.90723Zm0-37.65723h-36.90723v-36.90771h36.90723v36.90771Zm0-37.65771h-36.90723v-36.90771h36.90723v36.90771Zm0-37.65771h-36.90723v-36.90771h36.90723v36.90771Zm0-37.65771h-36.90723v-36.90771h36.90723v36.90771Zm0-37.65771h-36.90723v-36.90771h36.90723v36.90771Zm37.65771,1581.62109h-36.90771v-36.9082h36.90771v36.9082Zm0-37.6582h-36.90771v-36.90723h36.90771v36.90723Zm0-37.65723h-36.90771v-36.90723h36.90771v36.90723Zm0-37.65723h-36.90771v-36.9082h36.90771v36.9082Zm0-37.6582h-36.90771v-36.90723h36.90771v36.90723Zm0-37.65723h-36.90771v-36.9082h36.90771v36.9082Zm0-37.6582h-36.90771v-36.90723h36.90771v36.90723Zm0-37.65723h-36.90771v-36.9082h36.90771v36.9082Zm0-37.6582h-36.90771v-36.90723h36.90771v36.90723Zm0-37.65723h-36.90771v-36.90723h36.90771v36.90723Zm0-37.65723h-36.90771v-36.9082h36.90771v36.9082Zm0-37.6582h-36.90771v-36.90723h36.90771v36.90723Zm0-37.65723h-36.90771v-36.9082h36.90771v36.9082Zm0-37.6582h-36.90771v-36.90723h36.90771v36.90723Zm0-37.65723h-36.90771v-36.90723h36.90771v36.90723Zm0-37.65723h-36.90771v-36.9082h36.90771v36.9082Zm0-37.6582h-36.90771v-36.90723h36.90771v36.90723Zm0-37.65723h-36.90771v-36.9082h36.90771v36.9082Zm0-37.6582h-36.90771v-36.90723h36.90771v36.90723Zm0-37.65723h-36.90771v-36.9082h36.90771v36.9082Zm0-37.6582h-36.90771v-36.90723h36.90771v36.90723Zm0-37.65723h-36.90771v-36.90771h36.90771v36.90771Zm0-37.65771h-36.90771v-36.90771h36.90771v36.90771Zm0-37.65771h-36.90771v-36.90771h36.90771v36.90771Zm0-37.65771h-36.90771v-36.90723h36.90771v36.90723Zm0-37.65723h-36.90771v-36.90771h36.90771v36.90771Zm0-37.65771h-36.90771v-36.90771h36.90771v36.90771Zm0-37.65771h-36.90771v-36.90771h36.90771v36.90771Zm0-37.65771h-36.90771v-36.90771h36.90771v36.90771Zm0-37.65771h-36.90771v-36.90771h36.90771v36.90771Zm0-37.65771h-36.90771v-36.90723h36.90771v36.90723Zm0-37.65723h-36.90771v-36.90771h36.90771v36.90771Zm0-37.65771h-36.90771v-36.90771h36.90771v36.90771Zm0-37.65771h-36.90771v-36.90771h36.90771v36.90771Zm0-37.65771h-36.90771v-36.90771h36.90771v36.90771Zm0-37.65771h-36.90771v-36.90771h36.90771v36.90771Zm0-37.65771h-36.90771v-36.90771h36.90771v36.90771Zm0-37.65771h-36.90771v-36.90723h36.90771v36.90723Zm0-37.65723h-36.90771v-36.90771h36.90771v36.90771Zm0-37.65771h-36.90771v-36.90771h36.90771v36.90771Zm0-37.65771h-36.90771v-36.90771h36.90771v36.90771Zm0-37.65771h-36.90771v-36.90771h36.90771v36.90771Zm0-37.65771h-36.90771v-36.90771h36.90771v36.90771Zm37.65771,1581.62109h-36.90771v-36.9082h36.90771v36.9082Zm0-37.6582h-36.90771v-36.90723h36.90771v36.90723Zm0-37.65723h-36.90771v-36.90723h36.90771v36.90723Zm0-37.65723h-36.90771v-36.9082h36.90771v36.9082Zm0-37.6582h-36.90771v-36.90723h36.90771v36.90723Zm0-37.65723h-36.90771v-36.9082h36.90771v36.9082Zm0-37.6582h-36.90771v-36.90723h36.90771v36.90723Zm0-37.65723h-36.90771v-36.9082h36.90771v36.9082Zm0-37.6582h-36.90771v-36.90723h36.90771v36.90723Zm0-37.65723h-36.90771v-36.90723h36.90771v36.90723Zm0-37.65723h-36.90771v-36.9082h36.90771v36.9082Zm0-37.6582h-36.90771v-36.90723h36.90771v36.90723Zm0-37.65723h-36.90771v-36.9082h36.90771v36.9082Zm0-37.6582h-36.90771v-36.90723h36.90771v36.90723Zm0-37.65723h-36.90771v-36.90723h36.90771v36.90723Zm0-37.65723h-36.90771v-36.9082h36.90771v36.9082Zm0-37.6582h-36.90771v-36.90723h36.90771v36.90723Zm0-37.65723h-36.90771v-36.9082h36.90771v36.9082Zm0-37.6582h-36.90771v-36.90723h36.90771v36.90723Zm0-37.65723h-36.90771v-36.9082h36.90771v36.9082Zm0-37.6582h-36.90771v-36.90723h36.90771v36.90723Zm0-37.65723h-36.90771v-36.90771h36.90771v36.90771Zm0-37.65771h-36.90771v-36.90771h36.90771v36.90771Zm0-37.65771h-36.90771v-36.90771h36.90771v36.90771Zm0-37.65771h-36.90771v-36.90723h36.90771v36.90723Zm0-37.65723h-36.90771v-36.90771h36.90771v36.90771Zm0-37.65771h-36.90771v-36.90771h36.90771v36.90771Zm0-37.65771h-36.90771v-36.90771h36.90771v36.90771Zm0-37.65771h-36.90771v-36.90771h36.90771v36.90771Zm0-37.65771h-36.90771v-36.90771h36.90771v36.90771Zm0-37.65771h-36.90771v-36.90723h36.90771v36.90723Zm0-37.65723h-36.90771v-36.90771h36.90771v36.90771Zm0-37.65771h-36.90771v-36.90771h36.90771v36.90771Zm0-37.65771h-36.90771v-36.90771h36.90771v36.90771Zm0-37.65771h-36.90771v-36.90771h36.90771v36.90771Zm0-37.65771h-36.90771v-36.90771h36.90771v36.90771Zm0-37.65771h-36.90771v-36.90771h36.90771v36.90771Zm0-37.65771h-36.90771v-36.90723h36.90771v36.90723Zm0-37.65723h-36.90771v-36.90771h36.90771v36.90771Zm0-37.65771h-36.90771v-36.90771h36.90771v36.90771Zm0-37.65771h-36.90771v-36.90771h36.90771v36.90771Zm0-37.65771h-36.90771v-36.90771h36.90771v36.90771Zm0-37.65771h-36.90771v-36.90771h36.90771v36.90771Zm37.65771,1581.62109h-36.90771v-36.9082h36.90771v36.9082Zm0-37.6582h-36.90771v-36.90723h36.90771v36.90723Zm0-37.65723h-36.90771v-36.90723h36.90771v36.90723Zm0-37.65723h-36.90771v-36.9082h36.90771v36.9082Zm0-37.6582h-36.90771v-36.90723h36.90771v36.90723Zm0-37.65723h-36.90771v-36.9082h36.90771v36.9082Zm0-37.6582h-36.90771v-36.90723h36.90771v36.90723Zm0-37.65723h-36.90771v-36.9082h36.90771v36.9082Zm0-37.6582h-36.90771v-36.90723h36.90771v36.90723Zm0-37.65723h-36.90771v-36.90723h36.90771v36.90723Zm0-37.65723h-36.90771v-36.9082h36.90771v36.9082Zm0-37.6582h-36.90771v-36.90723h36.90771v36.90723Zm0-37.65723h-36.90771v-36.9082h36.90771v36.9082Zm0-37.6582h-36.90771v-36.90723h36.90771v36.90723Zm0-37.65723h-36.90771v-36.90723h36.90771v36.90723Zm0-37.65723h-36.90771v-36.9082h36.90771v36.9082Zm0-37.6582h-36.90771v-36.90723h36.90771v36.90723Zm0-37.65723h-36.90771v-36.9082h36.90771v36.9082Zm0-37.6582h-36.90771v-36.90723h36.90771v36.90723Zm0-37.65723h-36.90771v-36.9082h36.90771v36.9082Zm0-37.6582h-36.90771v-36.90723h36.90771v36.90723Zm0-37.65723h-36.90771v-36.90771h36.90771v36.90771Zm0-37.65771h-36.90771v-36.90771h36.90771v36.90771Zm0-37.65771h-36.90771v-36.90771h36.90771v36.90771Zm0-37.65771h-36.90771v-36.90723h36.90771v36.90723Zm0-37.65723h-36.90771v-36.90771h36.90771v36.90771Zm0-37.65771h-36.90771v-36.90771h36.90771v36.90771Zm0-37.65771h-36.90771v-36.90771h36.90771v36.90771Zm0-37.65771h-36.90771v-36.90771h36.90771v36.90771Zm0-37.65771h-36.90771v-36.90771h36.90771v36.90771Zm0-37.65771h-36.90771v-36.90723h36.90771v36.90723Zm0-37.65723h-36.90771v-36.90771h36.90771v36.90771Zm0-37.65771h-36.90771v-36.90771h36.90771v36.90771Zm0-37.65771h-36.90771v-36.90771h36.90771v36.90771Zm0-37.65771h-36.90771v-36.90771h36.90771v36.90771Zm0-37.65771h-36.90771v-36.90771h36.90771v36.90771Zm0-37.65771h-36.90771v-36.90771h36.90771v36.90771Zm0-37.65771h-36.90771v-36.90723h36.90771v36.90723Zm0-37.65723h-36.90771v-36.90771h36.90771v36.90771Zm0-37.65771h-36.90771v-36.90771h36.90771v36.90771Zm0-37.65771h-36.90771v-36.90771h36.90771v36.90771Zm0-37.65771h-36.90771v-36.90771h36.90771v36.90771Zm0-37.65771h-36.90771v-36.90771h36.90771v36.90771Zm37.65771,1581.62109h-36.90771v-36.9082h36.90771v36.9082Zm0-37.6582h-36.90771v-36.90723h36.90771v36.90723Zm0-37.65723h-36.90771v-36.90723h36.90771v36.90723Zm0-37.65723h-36.90771v-36.9082h36.90771v36.9082Zm0-37.6582h-36.90771v-36.90723h36.90771v36.90723Zm0-37.65723h-36.90771v-36.9082h36.90771v36.9082Zm0-37.6582h-36.90771v-36.90723h36.90771v36.90723Zm0-37.65723h-36.90771v-36.9082h36.90771v36.9082Zm0-37.6582h-36.90771v-36.90723h36.90771v36.90723Zm0-37.65723h-36.90771v-36.90723h36.90771v36.90723Zm0-37.65723h-36.90771v-36.9082h36.90771v36.9082Zm0-37.6582h-36.90771v-36.90723h36.90771v36.90723Zm0-37.65723h-36.90771v-36.9082h36.90771v36.9082Zm0-37.6582h-36.90771v-36.90723h36.90771v36.90723Zm0-37.65723h-36.90771v-36.90723h36.90771v36.90723Zm0-37.65723h-36.90771v-36.9082h36.90771v36.9082Zm0-37.6582h-36.90771v-36.90723h36.90771v36.90723Zm0-37.65723h-36.90771v-36.9082h36.90771v36.9082Zm0-37.6582h-36.90771v-36.90723h36.90771v36.90723Zm0-37.65723h-36.90771v-36.9082h36.90771v36.9082Zm0-37.6582h-36.90771v-36.90723h36.90771v36.90723Zm0-37.65723h-36.90771v-36.90771h36.90771v36.90771Zm0-37.65771h-36.90771v-36.90771h36.90771v36.90771Zm0-37.65771h-36.90771v-36.90771h36.90771v36.90771Zm0-37.65771h-36.90771v-36.90723h36.90771v36.90723Zm0-37.65723h-36.90771v-36.90771h36.90771v36.90771Zm0-37.65771h-36.90771v-36.90771h36.90771v36.90771Zm0-37.65771h-36.90771v-36.90771h36.90771v36.90771Zm0-37.65771h-36.90771v-36.90771h36.90771v36.90771Zm0-37.65771h-36.90771v-36.90771h36.90771v36.90771Zm0-37.65771h-36.90771v-36.90723h36.90771v36.90723Zm0-37.65723h-36.90771v-36.90771h36.90771v36.90771Zm0-37.65771h-36.90771v-36.90771h36.90771v36.90771Zm0-37.65771h-36.90771v-36.90771h36.90771v36.90771Zm0-37.65771h-36.90771v-36.90771h36.90771v36.90771Zm0-37.65771h-36.90771v-36.90771h36.90771v36.90771Zm0-37.65771h-36.90771v-36.90771h36.90771v36.90771Zm0-37.65771h-36.90771v-36.90723h36.90771v36.90723Zm0-37.65723h-36.90771v-36.90771h36.90771v36.90771Zm0-37.65771h-36.90771v-36.90771h36.90771v36.90771Zm0-37.65771h-36.90771v-36.90771h36.90771v36.90771Zm0-37.65771h-36.90771v-36.90771h36.90771v36.90771Zm0-37.65771h-36.90771v-36.90771h36.90771v36.90771Zm37.65771,1581.62109h-36.90771v-36.9082h36.90771v36.9082Zm0-37.6582h-36.90771v-36.90723h36.90771v36.90723Zm0-37.65723h-36.90771v-36.90723h36.90771v36.90723Zm0-37.65723h-36.90771v-36.9082h36.90771v36.9082Zm0-37.6582h-36.90771v-36.90723h36.90771v36.90723Zm0-37.65723h-36.90771v-36.9082h36.90771v36.9082Zm0-37.6582h-36.90771v-36.90723h36.90771v36.90723Zm0-37.65723h-36.90771v-36.9082h36.90771v36.9082Zm0-37.6582h-36.90771v-36.90723h36.90771v36.90723Zm0-37.65723h-36.90771v-36.90723h36.90771v36.90723Zm0-37.65723h-36.90771v-36.9082h36.90771v36.9082Zm0-37.6582h-36.90771v-36.90723h36.90771v36.90723Zm0-37.65723h-36.90771v-36.9082h36.90771v36.9082Zm0-37.6582h-36.90771v-36.90723h36.90771v36.90723Zm0-37.65723h-36.90771v-36.90723h36.90771v36.90723Zm0-37.65723h-36.90771v-36.9082h36.90771v36.9082Zm0-37.6582h-36.90771v-36.90723h36.90771v36.90723Zm0-37.65723h-36.90771v-36.9082h36.90771v36.9082Zm0-37.6582h-36.90771v-36.90723h36.90771v36.90723Zm0-37.65723h-36.90771v-36.9082h36.90771v36.9082Zm0-37.6582h-36.90771v-36.90723h36.90771v36.90723Zm0-37.65723h-36.90771v-36.90771h36.90771v36.90771Zm0-37.65771h-36.90771v-36.90771h36.90771v36.90771Zm0-37.65771h-36.90771v-36.90771h36.90771v36.90771Zm0-37.65771h-36.90771v-36.90723h36.90771v36.90723Zm0-37.65723h-36.90771v-36.90771h36.90771v36.90771Zm0-37.65771h-36.90771v-36.90771h36.90771v36.90771Zm0-37.65771h-36.90771v-36.90771h36.90771v36.90771Zm0-37.65771h-36.90771v-36.90771h36.90771v36.90771Zm0-37.65771h-36.90771v-36.90771h36.90771v36.90771Zm0-37.65771h-36.90771v-36.90723h36.90771v36.90723Zm0-37.65723h-36.90771v-36.90771h36.90771v36.90771Zm0-37.65771h-36.90771v-36.90771h36.90771v36.90771Zm0-37.65771h-36.90771v-36.90771h36.90771v36.90771Zm0-37.65771h-36.90771v-36.90771h36.90771v36.90771Zm0-37.65771h-36.90771v-36.90771h36.90771v36.90771Zm0-37.65771h-36.90771v-36.90771h36.90771v36.90771Zm0-37.65771h-36.90771v-36.90723h36.90771v36.90723Zm0-37.65723h-36.90771v-36.90771h36.90771v36.90771Zm0-37.65771h-36.90771v-36.90771h36.90771v36.90771Zm0-37.65771h-36.90771v-36.90771h36.90771v36.90771Zm0-37.65771h-36.90771v-36.90771h36.90771v36.90771Zm0-37.65771h-36.90771v-36.90771h36.90771v36.90771Zm37.65723,1581.62109h-36.90723v-36.9082h36.90723v36.9082Zm0-37.6582h-36.90723v-36.90723h36.90723v36.90723Zm0-37.65723h-36.90723v-36.90723h36.90723v36.90723Zm0-37.65723h-36.90723v-36.9082h36.90723v36.9082Zm0-37.6582h-36.90723v-36.90723h36.90723v36.90723Zm0-37.65723h-36.90723v-36.9082h36.90723v36.9082Zm0-37.6582h-36.90723v-36.90723h36.90723v36.90723Zm0-37.65723h-36.90723v-36.9082h36.90723v36.9082Zm0-37.6582h-36.90723v-36.90723h36.90723v36.90723Zm0-37.65723h-36.90723v-36.90723h36.90723v36.90723Zm0-37.65723h-36.90723v-36.9082h36.90723v36.9082Zm0-37.6582h-36.90723v-36.90723h36.90723v36.90723Zm0-37.65723h-36.90723v-36.9082h36.90723v36.9082Zm0-37.6582h-36.90723v-36.90723h36.90723v36.90723Zm0-37.65723h-36.90723v-36.90723h36.90723v36.90723Zm0-37.65723h-36.90723v-36.9082h36.90723v36.9082Zm0-37.6582h-36.90723v-36.90723h36.90723v36.90723Zm0-37.65723h-36.90723v-36.9082h36.90723v36.9082Zm0-37.6582h-36.90723v-36.90723h36.90723v36.90723Zm0-37.65723h-36.90723v-36.9082h36.90723v36.9082Zm0-37.6582h-36.90723v-36.90723h36.90723v36.90723Zm0-37.65723h-36.90723v-36.90771h36.90723v36.90771Zm0-37.65771h-36.90723v-36.90771h36.90723v36.90771Zm0-37.65771h-36.90723v-36.90771h36.90723v36.90771Zm0-37.65771h-36.90723v-36.90723h36.90723v36.90723Zm0-37.65723h-36.90723v-36.90771h36.90723v36.90771Zm0-37.65771h-36.90723v-36.90771h36.90723v36.90771Zm0-37.65771h-36.90723v-36.90771h36.90723v36.90771Zm0-37.65771h-36.90723v-36.90771h36.90723v36.90771Zm0-37.65771h-36.90723v-36.90771h36.90723v36.90771Zm0-37.65771h-36.90723v-36.90723h36.90723v36.90723Zm0-37.65723h-36.90723v-36.90771h36.90723v36.90771Zm0-37.65771h-36.90723v-36.90771h36.90723v36.90771Zm0-37.65771h-36.90723v-36.90771h36.90723v36.90771Zm0-37.65771h-36.90723v-36.90771h36.90723v36.90771Zm0-37.65771h-36.90723v-36.90771h36.90723v36.90771Zm0-37.65771h-36.90723v-36.90771h36.90723v36.90771Zm0-37.65771h-36.90723v-36.90723h36.90723v36.90723Zm0-37.65723h-36.90723v-36.90771h36.90723v36.90771Zm0-37.65771h-36.90723v-36.90771h36.90723v36.90771Zm0-37.65771h-36.90723v-36.90771h36.90723v36.90771Zm0-37.65771h-36.90723v-36.90771h36.90723v36.90771Zm0-37.65771h-36.90723v-36.90771h36.90723v36.90771Zm37.65771,1581.62109h-36.90771v-36.9082h36.90771v36.9082Zm0-37.6582h-36.90771v-36.90723h36.90771v36.90723Zm0-37.65723h-36.90771v-36.90723h36.90771v36.90723Zm0-37.65723h-36.90771v-36.9082h36.90771v36.9082Zm0-37.6582h-36.90771v-36.90723h36.90771v36.90723Zm0-37.65723h-36.90771v-36.9082h36.90771v36.9082Zm0-37.6582h-36.90771v-36.90723h36.90771v36.90723Zm0-37.65723h-36.90771v-36.9082h36.90771v36.9082Zm0-37.6582h-36.90771v-36.90723h36.90771v36.90723Zm0-37.65723h-36.90771v-36.90723h36.90771v36.90723Zm0-37.65723h-36.90771v-36.9082h36.90771v36.9082Zm0-37.6582h-36.90771v-36.90723h36.90771v36.90723Zm0-37.65723h-36.90771v-36.9082h36.90771v36.9082Zm0-37.6582h-36.90771v-36.90723h36.90771v36.90723Zm0-37.65723h-36.90771v-36.90723h36.90771v36.90723Zm0-37.65723h-36.90771v-36.9082h36.90771v36.9082Zm0-37.6582h-36.90771v-36.90723h36.90771v36.90723Zm0-37.65723h-36.90771v-36.9082h36.90771v36.9082Zm0-37.6582h-36.90771v-36.90723h36.90771v36.90723Zm0-37.65723h-36.90771v-36.9082h36.90771v36.9082Zm0-37.6582h-36.90771v-36.90723h36.90771v36.90723Zm0-37.65723h-36.90771v-36.90771h36.90771v36.90771Zm0-37.65771h-36.90771v-36.90771h36.90771v36.90771Zm0-37.65771h-36.90771v-36.90771h36.90771v36.90771Zm0-37.65771h-36.90771v-36.90723h36.90771v36.90723Zm0-37.65723h-36.90771v-36.90771h36.90771v36.90771Zm0-37.65771h-36.90771v-36.90771h36.90771v36.90771Zm0-37.65771h-36.90771v-36.90771h36.90771v36.90771Zm0-37.65771h-36.90771v-36.90771h36.90771v36.90771Zm0-37.65771h-36.90771v-36.90771h36.90771v36.90771Zm0-37.65771h-36.90771v-36.90723h36.90771v36.90723Zm0-37.65723h-36.90771v-36.90771h36.90771v36.90771Zm0-37.65771h-36.90771v-36.90771h36.90771v36.90771Zm0-37.65771h-36.90771v-36.90771h36.90771v36.90771Zm0-37.65771h-36.90771v-36.90771h36.90771v36.90771Zm0-37.65771h-36.90771v-36.90771h36.90771v36.90771Zm0-37.65771h-36.90771v-36.90771h36.90771v36.90771Zm0-37.65771h-36.90771v-36.90723h36.90771v36.90723Zm0-37.65723h-36.90771v-36.90771h36.90771v36.90771Zm0-37.65771h-36.90771v-36.90771h36.90771v36.90771Zm0-37.65771h-36.90771v-36.90771h36.90771v36.90771Zm0-37.65771h-36.90771v-36.90771h36.90771v36.90771Zm0-37.65771h-36.90771v-36.90771h36.90771v36.90771Zm37.65771,1581.62109h-36.90771v-36.9082h36.90771v36.9082Zm0-37.6582h-36.90771v-36.90723h36.90771v36.90723Zm0-37.65723h-36.90771v-36.90723h36.90771v36.90723Zm0-37.65723h-36.90771v-36.9082h36.90771v36.9082Zm0-37.6582h-36.90771v-36.90723h36.90771v36.90723Zm0-37.65723h-36.90771v-36.9082h36.90771v36.9082Zm0-37.6582h-36.90771v-36.90723h36.90771v36.90723Zm0-37.65723h-36.90771v-36.9082h36.90771v36.9082Zm0-37.6582h-36.90771v-36.90723h36.90771v36.90723Zm0-37.65723h-36.90771v-36.90723h36.90771v36.90723Zm0-37.65723h-36.90771v-36.9082h36.90771v36.9082Zm0-37.6582h-36.90771v-36.90723h36.90771v36.90723Zm0-37.65723h-36.90771v-36.9082h36.90771v36.9082Zm0-37.6582h-36.90771v-36.90723h36.90771v36.90723Zm0-37.65723h-36.90771v-36.90723h36.90771v36.90723Zm0-37.65723h-36.90771v-36.9082h36.90771v36.9082Zm0-37.6582h-36.90771v-36.90723h36.90771v36.90723Zm0-37.65723h-36.90771v-36.9082h36.90771v36.9082Zm0-37.6582h-36.90771v-36.90723h36.90771v36.90723Zm0-37.65723h-36.90771v-36.9082h36.90771v36.9082Zm0-37.6582h-36.90771v-36.90723h36.90771v36.90723Zm0-37.65723h-36.90771v-36.90771h36.90771v36.90771Zm0-37.65771h-36.90771v-36.90771h36.90771v36.90771Zm0-37.65771h-36.90771v-36.90771h36.90771v36.90771Zm0-37.65771h-36.90771v-36.90723h36.90771v36.90723Zm0-37.65723h-36.90771v-36.90771h36.90771v36.90771Zm0-37.65771h-36.90771v-36.90771h36.90771v36.90771Zm0-37.65771h-36.90771v-36.90771h36.90771v36.90771Zm0-37.65771h-36.90771v-36.90771h36.90771v36.90771Zm0-37.65771h-36.90771v-36.90771h36.90771v36.90771Zm0-37.65771h-36.90771v-36.90723h36.90771v36.90723Zm0-37.65723h-36.90771v-36.90771h36.90771v36.90771Zm0-37.65771h-36.90771v-36.90771h36.90771v36.90771Zm0-37.65771h-36.90771v-36.90771h36.90771v36.90771Zm0-37.65771h-36.90771v-36.90771h36.90771v36.90771Zm0-37.65771h-36.90771v-36.90771h36.90771v36.90771Zm0-37.65771h-36.90771v-36.90771h36.90771v36.90771Zm0-37.65771h-36.90771v-36.90723h36.90771v36.90723Zm0-37.65723h-36.90771v-36.90771h36.90771v36.90771Zm0-37.65771h-36.90771v-36.90771h36.90771v36.90771Zm0-37.65771h-36.90771v-36.90771h36.90771v36.90771Zm0-37.65771h-36.90771v-36.90771h36.90771v36.90771Zm0-37.65771h-36.90771v-36.90771h36.90771v36.90771Z"/>
</svg>