<?xml version="1.0" encoding="UTF-8"?>
<svg id="Layer_1" data-name="Layer 1" xmlns="http://www.w3.org/2000/svg" viewBox="0 0 100 100">
  <defs>
    <style>
      .cls-1 {
        fill: #ffdd52;
      }

      .cls-2 {
        fill: #685222;
      }

      .cls-3 {
        fill: #b7c934;
      }

      .cls-4 {
        fill: #12a7e0;
      }

      .cls-5 {
        fill: #9b7a2d;
      }

      .cls-6 {
        fill: #272817;
      }

      .cls-7 {
        fill: #34351a;
      }
    </style>
  </defs>
  <path class="cls-4" d="M66.19032,22.63326s4.16227-1.84419,3.09064-4.48324-5.94268-.03341-5.94268-.03341c0,0-4.87105,3.84167-2.17573,4.91065s5.02777-.394,5.02777-.394Z"/>
  <path class="cls-4" d="M64.76713,33.34965l2.79273-.20043s.58453-.03341,1.39637,.63471,4.38394,3.97529,4.38394,5.7792-1.851,2.67246-2.50047,2.47203-4.15663-1.97094-5.22826-4.30935-1.52626-3.40739-.84431-4.37616Z"/>
  <path class="cls-4" d="M53.84351,23.76089s-1.78631-.38979-2.54413-3.17401c-.75783-2.78422-.37891-4.67748-.37891-4.67748,0,0,1.19087-1.50348,1.67805-1.50348s2.00283-.44547,2.59827,.38979,1.40739,2.89559,1.40739,2.89559c0,0,.81196,4.56612-.16239,5.73549s-2.59827,.33411-2.59827,.33411Z"/>
  <path class="cls-4" d="M44.4489,23.81903s-4.38752-.21728-6.10438-2.89702c-1.71686-2.67974-.31794-4.99735-.31794-4.99735,0,0,.95381-.94153,1.65327-.94153s2.22556-.43455,2.67067-.36213,3.81524,4.2731,3.37013,7.82194c0,0,.57229,2.17276-1.27175,1.37608Z"/>
  <path class="cls-4" d="M41.62609,29.64714s-3.19708,1.64442-5.35981-.29019-.75225-4.35289-.75225-4.35289c0,0,1.31644-.96731,2.44482-.87058s6.58222,4.44962,3.66724,5.51366Z"/>
  <path class="cls-4" d="M41.81415,36.90195s-4.23143-.77385-7.7106,.48365c-3.47917,1.2575-4.51352,4.25616-3.47917,5.70712s3.66724,2.90193,3.66724,2.90193c0,0,2.44482,1.16077,3.66724-.96731s3.8553-5.90058,3.8553-5.90058c0,0,1.22241-1.54769,0-2.22481Z"/>
  <path class="cls-5" d="M43.01306,61.08861l-.08679,7.29055,1.82264,1.99622-1.99622,7.98489,4.59999,3.47169,3.55848,1.30188s5.12074,.86792,6.42263,.43396,3.29811-8.59243,3.29811-8.59243l1.82264-.52075,3.03773-8.15847s-.43396-2.69056-8.41885-5.46791c-7.98489-2.77735-11.10941-1.38868-11.10941-1.38868l-2.95094,1.64905Z"/>
  <path class="cls-2" d="M44.84605,62.30876s1.62092,3.11905,7.95392,4.60133,7.82915,.85653,7.82915,.85653l2.68385-.55997,.47872-1.16704s-1.43861-2.05269-6.2564-3.905-8.47715-1.27107-8.47715-1.27107l-3.60822,.57743-.60387,.86781Z"/>
  <g>
    <path class="cls-3" d="M49.86128,36.08398l4.53822,6.99577s4.8139,8.10857,2.64589,14.25588c-2.16801,6.14732-3.08333-4.69872-3.08333-4.69872,0,0-2.73621-4.48944-4.64664-5.04962-1.91042-.56018-3.44179,.40975-3.44179,.40975,0,0-1.5696,2.60341-1.08841,5.14167s4.22556,6.92559,6.72685,7.48702c2.50129,.56144,3.71747,.70306,3.71747,.70306l-1.36032,2.25629,2.56895,1.4305,1.1191-3.22999,7.99889-2.2769,2.19366-1.87219s4.2457-2.52819,3.97254-4.82272-3.25312-6.57595-7.88166-3.80527c-4.62854,2.77067-3.55776,5.90106-3.55776,5.90106,0,0-3.37333-15.4044-8.12587-19.6896-4.75254-4.2852-2.29578,.86403-2.29578,.86403Z"/>
    <polygon class="cls-3" points="56.75102 59.35656 53.96205 52.63691 50.36756 53.74698 51.34496 58.49859 56.75102 59.35656"/>
  </g>
  <path class="cls-1" d="M61.63136,28.78495s-8.50462-6.67029-17.84303,1.33406c0,0-5.16948,5.66975,4.33569,8.00435,9.50517,2.3346,16.67573-4.33569,13.50734-9.33841Z"/>
  <path class="cls-7" d="M51.24606,30.27695l1.24349,2.22052,.35528-.48851-.57734-2.08729s-.8438-.75498-.93262-.31087-.17764,.08882-.08882,.66616Z"/>
  <path class="cls-7" d="M57.33029,30.499l.26646,.71057s.66616,.17764,1.19908-.04441,.48851-.93262,.4441-1.11026-.31087-.75498-.71057-.79939-1.42113-.13323-1.19908,1.24349Z"/>
  <path class="cls-7" d="M45.4727,32.89717s-.31087,.39969-.17764,.93262,.35528,.75498,.35528,.75498l1.37672,.22205s.35528-.22205,.4441-.62175-.04441-1.2879-.4441-1.42113-1.15467-.39969-1.55437,.13323Z"/>
  <polygon class="cls-2" points="47.54892 62.48462 51.35853 62.07645 53.12727 63.70913 54.41981 62.6887 56.73106 63.00482 56.70085 64.40269 58.77364 63.91322 60.59804 64.80652 60.61042 66.43028 49.58978 64.86562 47.54892 62.48462"/>
  <path class="cls-7" d="M50.9796,35.91708c.57734,.57734,.75498,.71057,1.59878,.62175s3.01991-.97703,3.01991-.97703c0,0,.75498-.48851,.35528-1.2879s-.8438-.93262-2.26493-.75498-3.28637,1.82083-2.70904,2.39816Z"/>
  <path class="cls-6" d="M48.87625,62.75631s2.14497-1.42893,3.74614,1.24255c0,0,.12084,1.05617,.78548,.27957,0,0,2.08455-2.70254,3.29298,.12425,0,0-.03021,.62127,.51358,.21745s2.35644-.80766,3.11171,1.08723c.75527,1.89489,.2719-.90085,.2719-.90085,0,0-.90632-1.61531-2.38665-1.55318s-1.08759,.06213-1.08759,.06213l-.39274-.31064s-1.63138-1.67744-3.74614-.55915-.24169,.09319-.24169,.09319c0,0-.48337-1.3668-2.08455-.74553s-2.56792,1.05617-1.78244,.96297Z"/>
  <path class="cls-6" d="M65.00913,48.26087s-4.07028,.18643-4.7099,5.54618c-.63962,5.35975,.58147-.32625,.58147-.32625,0,0,1.74441-4.66066,3.89584-4.66066s2.50032-.65249,.23259-.55928Z"/>
  <path class="cls-6" d="M51.54417,50.61956s3.26883,2.54662,4.52656,7.58719-.13043-1.82022-.13043-1.82022c0,0-1.34415-3.98737-3.37658-5.62488s-1.01954-.14209-1.01954-.14209Z"/>
  <path class="cls-6" d="M46.96169,71.5319s8.75867,4.57254,13.46708,3.32157l.05063-.21569s-8.40427-.15098-13.72023-3.38627c-5.31595-3.23529,.20251,.28039,.20251,.28039Z"/>
  <path class="cls-6" d="M52.02493,82.87798l1.21044,4.58543s-6.56188-.19652-8.34569,1.37563-2.73943,4.06138-2.73943,4.06138l.19112,.78607,14.84387-.39304-2.67572-10.21896-2.4846-.19652Z"/>
  <path class="cls-6" d="M43.99777,79.20964l-5.0329,1.37563-1.08303-4.2579s-2.73943-3.40632-3.56763-3.66834-2.67572-.58956-3.82246-.32753-1.91123,.85158-1.91123,.85158l5.47885,10.612s.70078,.85158,1.52898,.72057,10.12951-4.12689,10.12951-4.12689l-1.7201-1.17911Z"/>
</svg>