<?xml version="1.0" encoding="UTF-8"?>
<svg id="Layer_1" data-name="Layer 1" xmlns="http://www.w3.org/2000/svg" viewBox="0 0 100 100">
  <defs>
    <style>
      .cls-1 {
        fill: #ffdd52;
      }

      .cls-2 {
        fill: #685222;
      }

      .cls-3 {
        fill: #b7c934;
      }

      .cls-4 {
        fill: #12a7e0;
      }

      .cls-5 {
        fill: #9b7a2d;
      }

      .cls-6 {
        fill: #292d18;
      }

      .cls-7 {
        fill: #2a2b18;
      }

      .cls-8 {
        fill: #272817;
      }

      .cls-9 {
        fill: #2e2e17;
      }

      .cls-10 {
        fill: #34351a;
      }
    </style>
  </defs>
  <path class="cls-5" d="M51.36984,51.76256l-.08679,7.29055,1.82264,1.99622-1.99622,7.98489,4.59999,3.47169,3.55848,1.30188s5.12074,.86792,6.42263,.43396,3.29811-8.59243,3.29811-8.59243l1.82264-.52075,3.03773-8.15847s-.43396-2.69056-8.41885-5.46791c-7.98489-2.77735-11.10941-1.38868-11.10941-1.38868l-2.95094,1.64905Z"/>
  <path class="cls-2" d="M53.20283,52.98272s1.62092,3.11905,7.95392,4.60133,7.82915,.85653,7.82915,.85653l2.68385-.55997,.47872-1.16704s-1.43861-2.05269-6.2564-3.905-8.47715-1.27107-8.47715-1.27107l-3.60822,.57743-.60387,.86781Z"/>
  <g>
    <path class="cls-3" d="M58.21805,26.75794l4.53822,6.99577s4.8139,8.10857,2.64589,14.25588c-2.16801,6.14732-3.08333-4.69872-3.08333-4.69872,0,0-2.73621-4.48944-4.64664-5.04962-1.91042-.56018-3.44179,.40975-3.44179,.40975,0,0-1.5696,2.60341-1.08841,5.14167s4.22556,6.92559,6.72685,7.48702,3.71747,.70306,3.71747,.70306l-1.36032,2.25629,2.56895,1.4305,1.1191-3.22999,7.99889-2.2769,2.19366-1.87219s4.2457-2.52819,3.97254-4.82272-3.25312-6.57595-7.88166-3.80527c-4.62854,2.77067-3.55776,5.90106-3.55776,5.90106,0,0-3.37333-15.4044-8.12587-19.6896-4.75254-4.2852-2.29578,.86403-2.29578,.86403Z"/>
    <polygon class="cls-3" points="65.10779 50.03052 62.31882 43.31087 58.72433 44.42094 59.70173 49.17255 65.10779 50.03052"/>
  </g>
  <path class="cls-4" d="M56.53448,18.15527l-2.79018-4.9738s-.9705-3.0328,1.45574-3.63936,2.30493-.84918,4.73117,1.33443,.36394,7.40004,.36394,7.40004c0,0,0-6.91479,2.18362-7.76397s5.70167-.60656,5.70167-.60656c0,0,1.21312,.72787,1.21312,2.42624s-.60656,5.33773-2.18362,6.30823,3.51805-6.42954,3.51805-6.42954c0,0,3.63936-3.0328,5.45904-1.57706s1.45574,4.0033,1.45574,4.0033c0,0-2.06231,4.9738-6.67216,5.58036,0,0,4.9738-5.09511,6.91479-3.88199s4.0033,3.15411,1.45574,4.9738-7.0361,1.33443-7.0361,1.33443c0,0,5.94429-1.69837,7.76397,.48525,1.81968,2.18362-.84918,5.70167-3.63936,5.45904-2.79018-.24262-4.60986-1.21312-4.60986-1.21312l2.91149,2.42624,.84918,3.15411s.60656,2.18362-1.45574,3.15411c-2.06231,.9705-5.21642,0-5.21642,0,0,0-3.39674-3.0328-3.76067-4.36723s-3.27543-.24262-3.27543-.24262l-.24262,2.66887s-2.54755,2.91149-4.24592,2.91149-2.91149-.12131-2.91149-2.06231,1.21312-3.27543,1.21312-3.27543c0,0-4.85248,6.18692-6.42954,6.42954s-3.88199-.72787-3.88199-.72787c0,0-1.09181-1.57706-.72787-2.66887s1.45574-4.12461,4.0033-4.36723c2.54755-.24262-3.76067,1.33443-5.45904,.48525s-2.66887-2.54755-2.18362-3.63936,1.94099-2.54755,3.88199-2.54755,4.36723,.9705,4.36723,.9705c0,0-5.82298-.9705-6.30823-2.91149s2.91149-4.0033,2.91149-4.0033c0,0,3.39674,.9705,4.36723,2.30493s-4.85248-2.30493-4.12461-5.70167,3.76067-3.51805,3.76067-3.51805c0,0,1.81968,.24262,2.42624,.9705s3.0328,1.21312,4.24592,5.33773Z"/>
  <path class="cls-10" d="M66.1898,17.50573s.42979-3.33088,1.98778-4.02929-.53724,1.93406-.53724,1.93406c0,0-1.1282,1.45055-1.45055,2.09523Z"/>
  <path class="cls-10" d="M50.62829,21.45252s-2.91968-.92201-2.91968-2.30501c0,0,2.07451,2.15135,3.76486,2.22818s-.84517,.07683-.84517,.07683Z"/>
  <path class="cls-10" d="M70.54144,19.54724s3.22343-.69841,4.13674-2.2564,.75213-.59096,.75213-.59096c0,0-1.61172,2.20268-2.20268,2.31013s-1.82661,1.07448-2.6862,.53724Z"/>
  <path class="cls-10" d="M60.49507,17.12966s-.42979-4.02929-.80586-4.88888,.32234-.37607,.32234-.37607c0,0,.85958,1.55799,.85958,2.95481s.42979-1.23565,.91331-1.61172,.2149,.37607,.2149,.37607c0,0-1.07448,2.6862-1.07448,3.54578s-.42979,0-.42979,0Z"/>
  <path class="cls-10" d="M56.40317,17.61448s-1.91986-2.36088-2.96327-3.14784,.33389-.28993,.33389-.28993c0,0,2.50417,1.98811,3.00501,3.35494s-.37563,.08284-.37563,.08284Z"/>
  <path class="cls-1" d="M69.98813,19.45891s-8.50462-6.67029-17.84303,1.33406c0,0-5.16948,5.66975,4.33569,8.00435,9.50517,2.3346,16.67573-4.33569,13.50734-9.33841Z"/>
  <path class="cls-7" d="M49.10534,25.33468l-3.30385-1.38301s2.30501-.76834,3.30385,1.38301Z"/>
  <path class="cls-6" d="M52.02502,29.0227s-2.84285,1.30617-4.22586,1.07567,1.38301,.2305,1.38301,.2305c0,0,1.45984,.53784,2.84285-1.30617Z"/>
  <path class="cls-9" d="M57.52558,30.33544s-1.47556-.18806-2.2559,1.18273c-.02491,.04375-.04911,.0891-.07253,.13608-.75717,1.51907-.28398,1.78602-.28398,1.78602l.88458-1.63433s1.12724-1.62219,1.72784-1.4705Z"/>
  <path class="cls-10" d="M70.15448,25.87735s3.29899,2.29923,5.1466,2.52031-2.24599,1.29164-5.1466-2.52031Z"/>
  <path class="cls-10" d="M72.77014,21.72349s1.69034,.38417,2.68918-.38417-.92201,2.38185-2.68918,.38417Z"/>
  <path class="cls-10" d="M59.60283,20.95091l1.24349,2.22052,.35528-.48851-.57734-2.08729s-.8438-.75498-.93262-.31087-.17764,.08882-.08882,.66616Z"/>
  <path class="cls-10" d="M65.68706,21.17296l.26646,.71057s.66616,.17764,1.19908-.04441,.48851-.93262,.4441-1.11026-.31087-.75498-.71057-.79939-1.42113-.13323-1.19908,1.24349Z"/>
  <path class="cls-10" d="M53.82947,23.57112s-.31087,.39969-.17764,.93262,.35528,.75498,.35528,.75498l1.37672,.22205s.35528-.22205,.4441-.62175-.04441-1.2879-.4441-1.42113-1.15467-.39969-1.55437,.13323Z"/>
  <polygon class="cls-2" points="55.9057 53.15858 59.7153 52.75041 61.48404 54.38309 62.77658 53.36266 65.08783 53.67878 65.05762 55.07665 67.13041 54.58718 68.95481 55.48048 68.96719 57.10424 57.94655 55.53958 55.9057 53.15858"/>
  <path class="cls-10" d="M59.33637,26.59103c.57734,.57734,.75498,.71057,1.59878,.62175s3.01991-.97703,3.01991-.97703c0,0,.75498-.48851,.35528-1.2879s-.8438-.93262-2.26493-.75498-3.28637,1.82083-2.70904,2.39816Z"/>
  <path class="cls-8" d="M57.23302,53.43027s2.14497-1.42893,3.74614,1.24255c0,0,.12084,1.05617,.78548,.27957,0,0,2.08455-2.70254,3.29298,.12425,0,0-.03021,.62127,.51358,.21745s2.35644-.80766,3.11171,1.08723c.75527,1.89489,.2719-.90085,.2719-.90085,0,0-.90632-1.61531-2.38665-1.55318s-1.08759,.06213-1.08759,.06213l-.39274-.31064s-1.63138-1.67744-3.74614-.55915-.24169,.09319-.24169,.09319c0,0-.48337-1.3668-2.08455-.74553s-2.56792,1.05617-1.78244,.96297Z"/>
  <path class="cls-8" d="M73.3659,38.93483s-4.07028,.18643-4.7099,5.54618c-.63962,5.35975,.58147-.32625,.58147-.32625,0,0,1.74441-4.66066,3.89584-4.66066s2.50032-.65249,.23259-.55928Z"/>
  <path class="cls-8" d="M59.90094,41.29352s3.26883,2.54662,4.52656,7.58719-.13043-1.82022-.13043-1.82022c0,0-1.34415-3.98737-3.37658-5.62488s-1.01954-.14209-1.01954-.14209Z"/>
  <path class="cls-8" d="M55.31846,62.20586s8.75867,4.57254,13.46708,3.32157l.05063-.21569s-8.40427-.15098-13.72023-3.38627c-5.31595-3.23529,.20251,.28039,.20251,.28039Z"/>
  <path class="cls-8" d="M60.3817,73.55194l1.21044,4.58543s-6.56188-.19652-8.34569,1.37563-2.73943,4.06138-2.73943,4.06138l.19112,.78607,14.84387-.39304-2.67572-10.21896-2.4846-.19652Z"/>
  <path class="cls-8" d="M52.35454,69.8836l-5.0329,1.37563-1.08303-4.2579s-2.73943-3.40632-3.56763-3.66834-2.67572-.58956-3.82246-.32753-1.91123,.85158-1.91123,.85158l5.47885,10.612s.70078,.85158,1.52898,.72057,10.12951-4.12689,10.12951-4.12689l-1.7201-1.17911Z"/>
</svg>