<?xml version="1.0" encoding="UTF-8"?>
<svg id="Layer_1" data-name="Layer 1" xmlns="http://www.w3.org/2000/svg" viewBox="0 0 100 100">
  <defs>
    <style>
      .cls-1 {
        fill: #ffc90c;
      }

      .cls-2 {
        fill: #c8d1d7;
      }

      .cls-3 {
        fill: #272817;
      }
    </style>
  </defs>
  <path class="cls-3" d="M49.45387,62.69502l5.59027,5.59027s-1.86342,2.9116-1.51403,5.59027,2.32928,3.37746,2.32928,3.37746c0,0,1.16464,.46586,1.86342-.34939s3.26099-4.30917,3.26099-6.63845l-8.50188-9.20066-3.02807,1.6305Z"/>
  <path class="cls-3" d="M59.39305,61.07564l6.28906,6.05613s-3.49392,4.65856-2.09635,8.61834,5.24088,.46586,5.24088,.46586l2.56221-5.00795s.58232-2.09635-.81525-3.61039-9.86015-8.31432-9.86015-8.31432l-1.3204,1.79233Z"/>
  <path class="cls-2" d="M38.21011,36.12592s-11.14321-2.11134-8.09349-11.72969,11.6124-6.56863,12.78537-5.86485c0,0,3.7535-7.7416,11.4951-8.32808s10.20483,6.33403,10.20483,9.03186-.46919,10.43943-5.04377,14.07563l-9.73565,2.69783-10.32213,1.05567-1.29027-.93838Z"/>
  <path class="cls-1" d="M28.76644,52.53655s-.84675-7.62072,2.54024-12.1367,16.08819-10.44321,16.08819-10.44321c0,0,6.77397-2.82249,14.67694,1.69349,7.90297,4.51598,12.7012,11.85445,7.33847,22.01541s-25.9669,9.87871-25.9669,9.87871c0,0-14.11245-1.41124-14.67694-11.00771Z"/>
  <path class="cls-3" d="M48.76008,29.40744l-1.04025,34.00983s5.05263,.15819,7.13312-1.1073l-1.48607-33.53527s-1.63467,0-4.60681,.63274Z"/>
  <path class="cls-3" d="M57.98221,29.49655l-.27131,32.13021s3.30636-.12561,4.7943-1.48731l-.96723-29.06313c-1.08638-.56082-2.68505-1.22703-3.55575-1.57977Z"/>
  <path class="cls-3" d="M65.03053,33.41528s.59967,19.84885,1.39923,23.93258c0,0,3.99781-2.65918,5.49699-9.40209s-3.49808-13.58079-6.89622-14.5305Z"/>
  <polygon class="cls-3" points="81.62144 45.00893 70.12774 49.60641 69.22823 40.71128 81.62144 45.00893"/>
  <path class="cls-3" d="M37.73191,51.83196l2.32445,1.00726,1.7046-.46489s1.54964-2.5569,.46489-3.64165-2.63438-1.78208-3.71913-.92978-2.24697,2.86683-.77482,4.02906Z"/>
  <path class="cls-3" d="M34.86406,55.05326c-1.58236-.4747-5.07897,.65883-5.30082,.73175,.51706,1.07577,1.53192,2.79548,3.15068,3.96308l.84247-.0366c3.51417-.16341,4.16793-1.47101,4.24971-2.36996,.08163-.89895-1.30754-1.79797-2.94203-2.28826Z"/>
  <path class="cls-3" d="M41.29001,32.40373s-2.152-8.78735,1.076-14.25702,5.11101-5.55934,5.11101-5.55934c0,0-4.66267,3.94534-5.55934,11.65668l-.62767,8.15968Z"/>
  <path class="cls-3" d="M53.16493,28.87925s3.53347-5.31478,2.47963-8.25803l.89887,.57171s.6509,3.2291-3.16153,7.72867"/>
  <path class="cls-3" d="M55.04415,68.28529s-4.45477,4.79383-1.45042,9.30037l1.11031,1.17562s1.20448,1.18312,3.01878-1.85764-2.67867-8.61834-2.67867-8.61834Z"/>
</svg>