<?xml version="1.0" encoding="UTF-8"?>
<svg id="Layer_1" data-name="Layer 1" xmlns="http://www.w3.org/2000/svg" viewBox="0 0 100 100">
  <defs>
    <style>
      .cls-1 {
        fill: #ffdd52;
      }

      .cls-2 {
        fill: #685222;
      }

      .cls-3 {
        fill: #b7c934;
      }

      .cls-4 {
        fill: #9b7a2d;
      }

      .cls-5 {
        fill: #272817;
      }

      .cls-6 {
        fill: #34351a;
      }
    </style>
  </defs>
  <path class="cls-5" d="M45.90487,71.83897l-5.0329,1.37563-1.08303-4.2579s-2.73943-3.40632-3.56763-3.66834-2.67572-.58956-3.82246-.32753-1.91123,.85158-1.91123,.85158l5.47885,10.612s.70078,.85158,1.52898,.72057,10.12951-4.12689,10.12951-4.12689l-1.7201-1.17911Z"/>
  <path class="cls-4" d="M43.47603,53.30287l-.08679,7.29055,1.82264,1.99622-1.99622,7.98489,4.59999,3.47169,3.55848,1.30188s5.12074,.86792,6.42263,.43396,3.29811-8.59243,3.29811-8.59243l1.82264-.52075,3.03773-8.15847s-.43396-2.69056-8.41885-5.46791c-7.98489-2.77735-11.10941-1.38868-11.10941-1.38868l-2.95094,1.64905Z"/>
  <path class="cls-2" d="M45.30902,54.52302s1.62092,3.11905,7.95392,4.60133,7.82915,.85653,7.82915,.85653l2.68385-.55997,.47872-1.16704s-1.43861-2.05269-6.2564-3.905-8.47715-1.27107-8.47715-1.27107l-3.60822,.57743-.60387,.86781Z"/>
  <g>
    <path class="cls-3" d="M50.32424,28.29825l4.53822,6.99577s4.8139,8.10857,2.64589,14.25588c-2.16801,6.14732-3.08333-4.69872-3.08333-4.69872,0,0-2.73621-4.48944-4.64664-5.04962s-3.44179,.40975-3.44179,.40975c0,0-1.5696,2.60341-1.08841,5.14167s4.22556,6.92559,6.72685,7.48702c2.50129,.56144,3.71747,.70306,3.71747,.70306l-1.36032,2.25629,2.56895,1.4305,1.1191-3.22999,7.99889-2.2769,2.19366-1.87219s4.2457-2.52819,3.97254-4.82272-3.25312-6.57595-7.88166-3.80527c-4.62854,2.77067-3.55776,5.90106-3.55776,5.90106,0,0-3.37333-15.4044-8.12587-19.6896s-2.29578,.86403-2.29578,.86403Z"/>
    <polygon class="cls-3" points="57.21398 51.57083 54.42501 44.85117 50.83052 45.96124 51.80793 50.71286 57.21398 51.57083"/>
  </g>
  <path class="cls-1" d="M62.09433,20.99921s-8.50462-6.67029-17.84303,1.33406c0,0-5.16948,5.66975,4.33569,8.00435,9.50517,2.3346,16.67573-4.33569,13.50734-9.33841Z"/>
  <path class="cls-6" d="M51.70902,22.49121l1.24349,2.22052,.35528-.48851-.57734-2.08729s-.8438-.75498-.93262-.31087-.17764,.08882-.08882,.66616Z"/>
  <path class="cls-6" d="M57.79325,22.71327l.26646,.71057s.66616,.17764,1.19908-.04441,.48851-.93262,.4441-1.11026-.31087-.75498-.71057-.79939-1.42113-.13323-1.19908,1.24349Z"/>
  <path class="cls-6" d="M45.93567,25.11143s-.31087,.39969-.17764,.93262,.35528,.75498,.35528,.75498l1.37672,.22205s.35528-.22205,.4441-.62175-.04441-1.2879-.4441-1.42113-1.15467-.39969-1.55437,.13323Z"/>
  <polygon class="cls-2" points="48.01189 54.69888 51.82149 54.29071 53.59023 55.9234 54.88278 54.90297 57.19402 55.21909 57.16381 56.61695 59.23661 56.12748 61.061 57.02078 61.07338 58.64454 50.05275 57.07988 48.01189 54.69888"/>
  <path class="cls-6" d="M51.44256,28.13134c.57734,.57734,.75498,.71057,1.59878,.62175s3.01991-.97703,3.01991-.97703c0,0,.75498-.48851,.35528-1.2879s-.8438-.93262-2.26493-.75498-3.28637,1.82083-2.70904,2.39816Z"/>
  <path class="cls-5" d="M49.33921,54.97058s2.14497-1.42893,3.74614,1.24255c0,0,.12084,1.05617,.78548,.27957,0,0,2.08455-2.70254,3.29298,.12425,0,0-.03021,.62127,.51358,.21745s2.35644-.80766,3.11171,1.08723c.75527,1.89489,.2719-.90085,.2719-.90085,0,0-.90632-1.61531-2.38665-1.55318s-1.08759,.06213-1.08759,.06213l-.39274-.31064s-1.63138-1.67744-3.74614-.55915-.24169,.09319-.24169,.09319c0,0-.48337-1.3668-2.08455-.74553s-2.56792,1.05617-1.78244,.96297Z"/>
  <path class="cls-5" d="M65.47209,40.47514s-4.07028,.18643-4.7099,5.54618c-.63962,5.35975,.58147-.32625,.58147-.32625,0,0,1.74441-4.66066,3.89584-4.66066s2.50032-.65249,.23259-.55928Z"/>
  <path class="cls-5" d="M52.00713,42.83382s3.26883,2.54662,4.52656,7.58719-.13043-1.82022-.13043-1.82022c0,0-1.34415-3.98737-3.37658-5.62488s-1.01954-.14209-1.01954-.14209Z"/>
  <path class="cls-5" d="M47.42465,63.74616s8.75867,4.57254,13.46708,3.32157l.05063-.21569s-8.40427-.15098-13.72023-3.38627c-5.31595-3.23529,.20251,.28039,.20251,.28039Z"/>
  <path class="cls-5" d="M52.48789,75.09225l1.21044,4.58543s-6.56188-.19652-8.34569,1.37563-2.73943,4.06138-2.73943,4.06138l.19112,.78607,14.84387-.39304-2.67572-10.21896-2.4846-.19652Z"/>
</svg>