<?xml version="1.0" encoding="UTF-8"?>
<svg id="Layer_1" data-name="Layer 1" xmlns="http://www.w3.org/2000/svg" viewBox="0 0 100 100">
  <defs>
    <style>
      .cls-1 {
        fill: #12a7e0;
      }
    </style>
  </defs>
  <path class="cls-1" d="M55.85236,65.73835s-2.04187-.53733-.9672-3.00907,6.12562-9.67203,6.12562-9.67203c0,0,4.08374-4.08374,6.87789-2.57921s3.00907,6.77042-.42987,8.91976-9.34963,5.69575-9.34963,5.69575l-2.25681,.6448Z"/>
  <path class="cls-1" d="M48.00727,60.47247s-.6448,1.07467-1.2896-.21493-2.79414-6.87789-2.79414-6.87789c0,0,0-3.33148,1.18214-3.97628s3.33148,.3224,3.97628,1.07467-.10747,6.55548-.10747,6.55548c0,0,0,2.36427-.9672,3.43894Z"/>
  <path class="cls-1" d="M25.43921,46.60923s4.94348,7.41522,9.67203,9.45709c0,0,2.25681,2.36427,3.00907,1.39707s-1.50454-6.77042-1.50454-6.77042l-2.90161-6.87789s-1.93441-2.68667-4.94348-3.22401-4.29868-.85974-4.83601,2.04187,1.50454,3.97628,1.50454,3.97628Z"/>
</svg>